<svg xmlns="http://www.w3.org/2000/svg" viewBox="0 0 155.19 82.66"><defs><style>.cls-1{fill:#c4161c;}.cls-1,.cls-2{fill-rule:evenodd;}.cls-2{fill:#231f20;}</style></defs><title>adm</title><g id="Layer_2" data-name="Layer 2"><g id="Camada_1" data-name="Camada 1"><path class="cls-1" d="M14.28,21,1.11,19.88a11.25,11.25,0,0,1,2.15-4.53,11.38,11.38,0,0,1,4-2.86,19.43,19.43,0,0,1,5.2-1.35,50.14,50.14,0,0,1,7.17-.48,69.07,69.07,0,0,1,9.94.57,14.27,14.27,0,0,1,6.25,2.41,8.5,8.5,0,0,1,2.77,3.6,11,11,0,0,1,1,4.43V34.88A13.13,13.13,0,0,0,40,38.2a13.4,13.4,0,0,0,1.4,3H28.46a10,10,0,0,1-1-1.75A11.71,11.71,0,0,1,27,37.62a18,18,0,0,1-5.38,3.08,26.36,26.36,0,0,1-8.49,1.24q-6.43,0-9.76-2.48A7.4,7.4,0,0,1,0,33.34a7.29,7.29,0,0,1,2.4-5.62q2.41-2.2,8.87-3.27c5.17-.87,8.52-1.47,10.05-1.83a48.61,48.61,0,0,0,4.88-1.36,3.62,3.62,0,0,0-1.05-3,6,6,0,0,0-3.68-.84,11,11,0,0,0-5.07.9A5.1,5.1,0,0,0,14.28,21ZM26.2,27c-1.9.57-3.87,1.07-5.94,1.51-2.79.62-4.57,1.24-5.31,1.84a2.65,2.65,0,0,0,0,4.37,5.42,5.42,0,0,0,3.33.87,9.91,9.91,0,0,0,4.3-1,6.36,6.36,0,0,0,2.81-2.28,6.69,6.69,0,0,0,.83-3.52V27ZM85.74,0V41.25H72.82V36.82a16.73,16.73,0,0,1-4.94,3.83,16.51,16.51,0,0,1-6.63,1.29q-7.34,0-11.22-4.64A17.13,17.13,0,0,1,46.16,26q0-7.44,4.29-11.38a15.36,15.36,0,0,1,10.87-3.95,18.06,18.06,0,0,1,5.83.89,13.73,13.73,0,0,1,4.66,2.7V0ZM71.91,26.19a7,7,0,0,0-1.79-5.27,6.22,6.22,0,0,0-4.53-1.73,5.38,5.38,0,0,0-4,1.67C60.5,22,60,23.82,60,26.44q0,3.68,1.68,5.38a5.54,5.54,0,0,0,4.13,1.71,6,6,0,0,0,4.39-1.72q1.75-1.72,1.76-5.62ZM94.26,11.35h12.85V15.7a17.72,17.72,0,0,1,5.6-3.89,18,18,0,0,1,6.83-1.15,15.15,15.15,0,0,1,6.8,1.27,10.22,10.22,0,0,1,4.1,3.77,20.83,20.83,0,0,1,5.9-4,18.1,18.1,0,0,1,6.59-1.05q5.77,0,9,2.86c2.16,1.9,3.25,4.89,3.25,8.94V41.25h-13.8V24.17a4.25,4.25,0,0,0-.94-3A4.43,4.43,0,0,0,137,19.59a5.33,5.33,0,0,0-3.91,1.47c-1,1-1.48,2.55-1.48,4.71V41.25H117.83V24.77a8.72,8.72,0,0,0-.28-2.68A3.75,3.75,0,0,0,116,20.28a4.66,4.66,0,0,0-2.55-.69,5.37,5.37,0,0,0-3.9,1.49q-1.53,1.5-1.53,4.9V41.25H94.26Z"/><path class="cls-2" d="M43.87,42.31H41.09v7.51H41A3.88,3.88,0,0,0,37.54,48c-3,0-5.52,2.55-5.52,7,0,4.08,2.28,6.74,5.28,6.74a4.38,4.38,0,0,0,4-2.33h.08l.14,2.07H44c0-.91-.1-2.33-.1-3.53V42.31ZM41.09,56.13a3.16,3.16,0,0,1-3,3.44c-2.11,0-3.26-2-3.26-4.59s1.17-4.73,3.31-4.73c1.56,0,2.93,1.27,2.93,3.43v2.45Zm9.36-11.45a1.56,1.56,0,0,0-1.61-1.63,1.62,1.62,0,0,0,0,3.24,1.56,1.56,0,0,0,1.63-1.61Zm-.24,3.65H47.42V61.56h2.79V48.33Zm10.22-.21a3.1,3.1,0,0,0-.69-.08,3.82,3.82,0,0,0-3.44,2.72h-.09l-.1-2.43H53.69c.07,1.23.09,2.5.09,4v9.2h2.79v-7c0-2.31,1.17-3.84,3-3.84a3.94,3.94,0,0,1,.81.07V48.12ZM71.81,59.06a8.28,8.28,0,0,1-3.34.62c-2.09,0-3.93-1.12-4-4.1h8.4a7.91,7.91,0,0,0,.08-1.18c0-3.26-1.49-6.36-5.21-6.36s-6,3.15-6,7.08,2.3,6.7,6.28,6.7a10.36,10.36,0,0,0,4.2-.79l-.45-2Zm-7.32-5.47c.14-1.54,1-3.55,3.05-3.55s2.78,2,2.76,3.55Zm11.69-5.26H74.3v2.09h1.88v6.84a5,5,0,0,0,1,3.55,3.43,3.43,0,0,0,2.62,1,6.22,6.22,0,0,0,2.16-.31l-.1-2.14a3.92,3.92,0,0,1-1.22.17c-1.18,0-1.68-.79-1.68-2.42v-6.7h3.14V48.33H78.94V45.07l-2.76.86v2.4ZM89.88,48c-3.5,0-6.24,2.53-6.24,7,0,4.27,2.62,6.79,6,6.79,3,0,6.19-2,6.19-7,0-4.06-2.38-6.8-6-6.8ZM93,54.91c0,2.64-1.24,4.82-3.26,4.82S86.5,57.55,86.5,55c0-2.28.91-4.83,3.28-4.83S93,52.73,93,54.91Zm12.27-6.79a3.13,3.13,0,0,0-.7-.08,3.81,3.81,0,0,0-3.43,2.72h-.1L101,48.33H98.54c.08,1.23.1,2.5.1,4v9.2h2.78v-7c0-2.31,1.18-3.84,3-3.84a4,4,0,0,1,.82.07V48.12Zm5.18-3.44a1.56,1.56,0,0,0-1.61-1.63,1.62,1.62,0,0,0,0,3.24,1.55,1.55,0,0,0,1.63-1.61Zm-.24,3.65h-2.78V61.56h2.78V48.33Zm12.84,5.09c0-2.81-1.08-5.38-5-5.38a8.27,8.27,0,0,0-4.27,1.11l.58,1.85a6,6,0,0,1,3.21-.92c2.67,0,2.67,2,2.67,3-4.54,0-7.39,1.63-7.39,4.92a3.73,3.73,0,0,0,3.88,3.86,4.48,4.48,0,0,0,3.7-1.8h.07l.19,1.54h2.52a18.9,18.9,0,0,1-.19-3.15v-5Zm-2.71,3.67a2.7,2.7,0,0,1-2.76,2.69,1.89,1.89,0,0,1-1.94-2.11c0-2.35,2.52-2.76,4.7-2.76v2.18ZM10.18,74.26c0-2.8-1.08-5.37-5-5.37A8.22,8.22,0,0,0,.94,70l.57,1.85a6.11,6.11,0,0,1,3.22-.91c2.66,0,2.66,2,2.66,2.95C2.86,73.88,0,75.51,0,78.8a3.73,3.73,0,0,0,3.89,3.86,4.45,4.45,0,0,0,3.69-1.8h.08l.19,1.54h2.52a17.76,17.76,0,0,1-.19-3.14v-5ZM7.46,77.94A2.69,2.69,0,0,1,4.7,80.62a1.88,1.88,0,0,1-1.94-2.11c0-2.35,2.52-2.76,4.7-2.76v2.19ZM24.72,63.15H21.94v7.51h-.05a3.9,3.9,0,0,0-3.51-1.77c-2.95,0-5.52,2.54-5.52,7,0,4.08,2.28,6.74,5.28,6.74a4.39,4.39,0,0,0,4-2.32h.07l.15,2.06h2.45c-.05-.91-.1-2.33-.1-3.53V63.15ZM21.94,77a3.16,3.16,0,0,1-3,3.43c-2.11,0-3.26-2-3.26-4.59S16.87,71.1,19,71.1c1.56,0,2.93,1.27,2.93,3.43V77Zm24.48-2.57c0-4.18-2.16-5.52-4.13-5.52a4.57,4.57,0,0,0-4.08,2.42h-.05a3.58,3.58,0,0,0-3.5-2.42,4.33,4.33,0,0,0-3.87,2.23h-.07l-.14-2h-2.4c0,1.13.09,2.24.09,3.73v9.5H31v-8a2.92,2.92,0,0,1,2.66-3.21c1.61,0,2.31,1.41,2.31,3.26v8h2.73V74.24a2.81,2.81,0,0,1,2.57-3.07c1.68,0,2.4,1.46,2.4,3.67V82.4h2.74v-8Zm6.5-8.88a1.55,1.55,0,0,0-1.61-1.63,1.62,1.62,0,0,0,0,3.24,1.55,1.55,0,0,0,1.63-1.61Zm-.24,3.64H49.9V82.4h2.78V69.17Zm14.5,5.14c0-4.08-2.31-5.42-4.37-5.42a4.55,4.55,0,0,0-4,2.25h-.07l-.15-2H56.16c.05,1.13.1,2.26.1,3.73v9.5H59v-8a3,3,0,0,1,2.83-3.24c1.9,0,2.52,1.59,2.52,3.46V82.4h2.79V74.31Zm6.52-8.78a1.55,1.55,0,0,0-1.6-1.63,1.62,1.62,0,1,0,0,3.24,1.55,1.55,0,0,0,1.63-1.61Zm-.24,3.64H70.68V82.4h2.78V69.17Zm10.78.49a6.55,6.55,0,0,0-3.14-.77c-2.79,0-4.59,1.75-4.59,4,0,1.53,1,2.85,3.39,3.79,1.58.67,2.13,1.22,2.13,2.23s-.72,1.73-2.21,1.73a6.41,6.41,0,0,1-3-.89l-.62,2.07a7.36,7.36,0,0,0,3.6.88c3,0,4.94-1.51,4.94-4,0-1.92-1.15-3.12-3.34-4-1.6-.7-2.2-1.15-2.2-2.06s.67-1.61,1.92-1.61a4.89,4.89,0,0,1,2.52.74l.62-2ZM88,69.17H86.11v2.09H88V78.1a5,5,0,0,0,1,3.56,3.44,3.44,0,0,0,2.61,1,6.18,6.18,0,0,0,2.16-.31l-.09-2.13a4.31,4.31,0,0,1-1.23.16c-1.17,0-1.68-.79-1.68-2.42v-6.7h3.15V69.17H90.74V65.91L88,66.78v2.39Zm15-.21a3.2,3.2,0,0,0-.7-.07,3.8,3.8,0,0,0-3.43,2.71h-.1l-.09-2.43H96.19c.07,1.23.1,2.5.1,4V82.4h2.78v-7c0-2.3,1.18-3.84,3.05-3.84a4.92,4.92,0,0,1,.82.07V69Zm11.42,5.3c0-2.8-1.08-5.37-5-5.37a8.27,8.27,0,0,0-4.27,1.1l.58,1.85a6.1,6.1,0,0,1,3.21-.91c2.67,0,2.67,2,2.67,2.95-4.54,0-7.4,1.63-7.4,4.92a3.73,3.73,0,0,0,3.89,3.86,4.47,4.47,0,0,0,3.7-1.8h.07L112,82.4h2.52a17.76,17.76,0,0,1-.19-3.14v-5Zm-2.71,3.68a2.7,2.7,0,0,1-2.76,2.68,1.89,1.89,0,0,1-2-2.11c0-2.35,2.52-2.76,4.71-2.76v2.19Zm6.77-8.77h-1.87v2.09h1.87V78.1a5,5,0,0,0,1,3.56,3.46,3.46,0,0,0,2.62,1,6.22,6.22,0,0,0,2.16-.31l-.1-2.13a4.24,4.24,0,0,1-1.22.16c-1.18,0-1.68-.79-1.68-2.42v-6.7h3.14V69.17h-3.14V65.91l-2.76.87v2.39Zm11.32-3.64a1.55,1.55,0,0,0-1.6-1.63,1.62,1.62,0,1,0,0,3.24,1.55,1.55,0,0,0,1.63-1.61Zm-.23,3.64h-2.79V82.4h2.79V69.17Zm11.25,0-2.14,7.06c-.33,1.15-.64,2.23-.88,3.34h-.07c-.24-1.11-.53-2.21-.89-3.36l-2.16-7h-3l4.63,13.23h2.66l4.76-13.23ZM155,74.26c0-2.8-1.08-5.37-5-5.37a8.28,8.28,0,0,0-4.28,1.1l.58,1.85a6.11,6.11,0,0,1,3.22-.91c2.66,0,2.66,2,2.66,2.95-4.54,0-7.39,1.63-7.39,4.92a3.73,3.73,0,0,0,3.89,3.86,4.45,4.45,0,0,0,3.69-1.8h.07l.2,1.54h2.52a17.7,17.7,0,0,1-.2-3.14v-5Zm-2.71,3.68a2.7,2.7,0,0,1-2.76,2.68,1.88,1.88,0,0,1-1.94-2.11c0-2.35,2.52-2.76,4.7-2.76Z"/></g></g></svg>