<svg xmlns="http://www.w3.org/2000/svg" viewBox="0 0 346.15 200.57"><defs><style>.cls-1{fill:#231f20;}.cls-1,.cls-2{fill-rule:evenodd;}.cls-2{fill:#c4161c;}</style></defs><title>Asset 1</title><g id="Layer_2" data-name="Layer 2"><g id="Camada_1" data-name="Camada 1"><path class="cls-1" d="M342.74,97.4A47.21,47.21,0,0,0,329.09,71l-1.42-1.33-.19-.17-1.39-1.19-.35-.29-1.17-.92-.48-.36-1.53-1.09-.1-.07-1.66-1.07-.22-.13-1.51-.88-.51-.29-1.34-.7-.6-.3-1.27-.59-.74-.33-1.27-.52-.58-.23L311,59.89l-.32-.1-1.51-.47-.65-.18-1.75-.45-.16,0-2.06-.42-.25,0-1.82-.29-.28,0-2.12-.23h-.18l-2-.13h-.47l-1.61,0H295l-1.27,0-.72,0-1.66.12-.37,0-1.77.22-.45.06-1.35.23-.87.16-1.13.24-.75.18-1.55.4-.33.09-1.69.52-.13.05-1.95.69-1.84.74-.12.06-1.64.74-.1.06-1.84.93-1.75,1-1.71,1.07-1.59,1.08-1.69,1.26-1.41,1.15-.08.06h0l-1.57,1.4-1.42,1.36L261,72.84l-1.33,1.53L258.32,76l-1.12,1.52,0,0L256,79.27l-.91,1.48-.19.32L254,82.74l0,.06-.79,1.58-.13.27-.71,1.59-.16.39L251.61,88l-.18.48L250.89,90l-.09.29-.53,1.77,0,.14-.39,1.53c16.41.29,32.36.75,47.75,1.36,15.66.61,30.74,1.38,45.15,2.29ZM1.56,97.4A47.33,47.33,0,0,1,15.21,71l1.42-1.33.19-.17,1.39-1.19.35-.29,1.17-.92.48-.36,1.53-1.09.11-.07,1.65-1.07.22-.13,1.51-.88.52-.29,1.34-.7.6-.3L29,61.59l.74-.33L31,60.74l.58-.23,1.74-.62.31-.1,1.52-.47.64-.18,1.75-.45.16,0,2.06-.42.26,0,1.81-.29.28,0,2.12-.23h.18l2-.13h.47l1.6,0h.83l1.27,0,.73,0,1.65.12.37,0,1.77.22.46.06,1.34.23.87.16,1.13.24.75.18,1.55.4.33.09,1.7.52.13.05,1.94.69,1.84.74.12.06,1.64.74.11.06,1.83.93,1.76,1,1.71,1.07,1.59,1.08,1.68,1.26L79,68.61l.07.06h0l1.56,1.4L82,71.43l1.35,1.41,1.34,1.53L86,76l1.13,1.52,0,0,1.15,1.71.92,1.48.18.32.93,1.67,0,.06.79,1.58.13.27L92,86.24l.17.39L92.69,88l.18.48L93.41,90l.09.29L94,92.08l0,.14.39,1.53q-24.61.44-47.75,1.36C31.05,95.72,16,96.49,1.56,97.4Zm242.38-3.85q-14.25-.4-28.94-.66-16.38-.28-31.83-.35c-14.26-.07-28.64,0-43.06.19q-20.3.26-39.74.83a72,72,0,0,1,4.78-16.81l1.34-3,1.43-2.86.15-.28,1.4-2.49.21-.35,1.46-2.34.29-.45,1.64-2.39,0,0,2-2.62,2-2.36.33-.38,1.77-2,.33-.35,2-2,.44-.42,1.91-1.78.3-.26,2.21-1.88.36-.29,2.14-1.66.33-.24,2.36-1.67.35-.24L134.12,43l.46-.28,2.34-1.36.35-.2,2.62-1.36.29-.15,2.66-1.24.29-.12,2.79-1.15.34-.13,2.66-1,.35-.11,2.89-.89.39-.11,2.74-.71.45-.11,2.91-.61.49-.09,2.77-.44.37,0,3.15-.36.32,0,3-.2.66,0,2.67,0h.83l2.7.07.55,0,3,.23.28,0,3.07.38.51.07,2.66.45.54.1,2.81.61.6.15,2.45.65.72.21,2.52.8.55.19,2.6.94.53.22,2.4,1,.68.3,2.19,1,.72.36,2.24,1.19.46.26L210.13,43l.37.23,2.22,1.44.69.47,1.9,1.36.55.41L218,48.53l.3.26,2.2,1.88.24.21,2.08,1.95.32.31L225,55.05l.45.48,1.82,2,.07.09,2.05,2.5,0,0,1.85,2.48.17.23,1.62,2.39.09.14L234.74,68l.24.4,1.37,2.46.08.16,1.43,2.85,1.36,3h0A71.75,71.75,0,0,1,243.94,93.55Z"/><path class="cls-2" d="M247.16,87.74c.34-1,.72-2,1.14-2.93a50.09,50.09,0,0,1,2.95-5.91l0-.05,0,0c.37-.64.76-1.27,1.16-1.9l0,0,.05-.08c.76-1.18,1.57-2.32,2.42-3.43l.05-.07.21-.26A51.05,51.05,0,0,1,260.78,67l.11-.11.33-.29.9-.8.33-.3.06,0,.22-.18c.46-.39.92-.76,1.39-1.13l.1-.08.12-.09a52.11,52.11,0,0,1,9-5.59l.14-.07.05,0a52.31,52.31,0,0,1,6-2.46l.1,0h0a51.87,51.87,0,0,1,34.25.61L284.5,28.09,283.34,27l-1.17-1-1.11-.88-1.31-.93-1.29-.83-1.3-.76-1.34-.7-1.37-.64-1.38-.57-1.55-.55-1.39-.44-1.54-.39L267,19l-1.46-.23-1.67-.19-1.63-.1-1.58,0-1.47,0-1.55.12-1.54.19-1.42.24-1.4.29-1.46.38-1.34.42-1.45.51-1.34.55-1.22.55h0l-1.36.7-1.24.7-1.21.75-1.1.75-1.22.91-1,.84h0l-1.13,1-1,1-.94,1-.95,1.09-.93,1.16-.79,1.06-.85,1.26L232,35l-.74,1.33-.6,1.2-.58,1.3-.57,1.42-.35,1c5.68,13,9.61,20.54,14,33.9a77.64,77.64,0,0,1,4,12.56ZM115.33,41.87c-5.55,11.91-9.65,21.79-14,33.08a75.49,75.49,0,0,0-4.14,12.76c-.36-1-.83-2.19-1.13-2.9a50.15,50.15,0,0,0-3-5.91l0-.05v0c-.38-.64-.77-1.27-1.17-1.9v0l-.06-.08c-.76-1.18-1.57-2.32-2.42-3.43l0-.07-.21-.26A51.05,51.05,0,0,0,83.52,67l-.1-.11-.34-.29c-.29-.27-.59-.54-.9-.8l-.33-.3,0,0-.23-.18c-.45-.39-.91-.76-1.38-1.13l-.11-.08L80,64a51.73,51.73,0,0,0-9-5.59l-.14-.07,0,0a52.89,52.89,0,0,0-6-2.46l-.1,0h0a51.87,51.87,0,0,0-34.25.61l29.44-28.3L61,27l1.17-1,1.12-.88,1.31-.93,1.28-.83,1.31-.76,1.34-.7,1.37-.64,1.37-.57,1.55-.55,1.4-.44,1.54-.39,1.6-.33,1.46-.23,1.67-.19,1.63-.1,1.59,0,1.47,0,1.55.12,1.53.19,1.42.24,1.4.29,1.46.38,1.35.42,1.45.51,1.34.55,1.22.55h0l1.36.7,1.24.7,1.21.75,1.11.75,1.21.91,1,.84h0l1.13,1,1,1,.94,1,1,1.09.93,1.16.79,1.06.84,1.26L112.3,35l.73,1.33.6,1.2.59,1.3.56,1.42.45,1.28.1.3Zm114.2,11.8a77,77,0,0,0-81.08-22,70.56,70.56,0,0,0-11.06,4.57,77.13,77.13,0,0,0-16,10.88,74.85,74.85,0,0,0-5.56,5.42L125,31.71l1-2.16L127,27.42l1.12-2,1.23-2,1.27-1.84L132,19.73l1.5-1.82L135,16.26l1.68-1.7,1.62-1.5,1.83-1.55,1.75-1.36,1.94-1.37,2-1.25,1.94-1.13,2.1-1.09,2.1-1,2.22-.91,2.12-.76,2.33-.72,2.24-.58,2.41-.5L165.5.49,168,.21l2.46-.16,2.44,0,2.41.07,2.44.18,2.48.3,2.25.38,2.42.52L187.1,2l2.25.71,2.22.82,2.15.9,2.07,1,2,1.06,2,1.18,1.92,1.25,1.93,1.37,1.73,1.36,1.77,1.51,1.69,1.59,1.62,1.64,1.46,1.65,1.5,1.82,1.39,1.86L216,23.56l1.27,2,1.07,1.93,1,2.08,1,2.19Z"/><path class="cls-1" d="M30.21,180.14a20.11,20.11,0,0,1-8.08,1.58c-9.25,0-15-6.15-15-17.16,0-11.65,6.44-17.5,15.11-17.5a18.37,18.37,0,0,1,7.84,1.64l1.47-5.57c-1.23-.64-4.39-1.75-9.55-1.75-12.41,0-22,8.31-22,23.53,0,14.29,8.37,22.55,20.84,22.55a25.64,25.64,0,0,0,10.54-1.88l-1.17-5.44ZM60.37,167c0-6.85-2.64-13.11-12.12-13.11a20.2,20.2,0,0,0-10.43,2.69l1.41,4.51a14.83,14.83,0,0,1,7.84-2.22c6.5,0,6.5,4.8,6.5,7.2-11.06,0-18,4-18,12A9.11,9.11,0,0,0,45,187.46a10.93,10.93,0,0,0,9-4.39h.18l.47,3.74h6.14a43.9,43.9,0,0,1-.46-7.67V167Zm-6.62,9A6.59,6.59,0,0,1,47,182.48c-2.52,0-4.75-1.58-4.75-5.15,0-5.74,6.15-6.74,11.48-6.74v5.33Zm32.73-20.2a16.13,16.13,0,0,0-7.67-1.87c-6.79,0-11.18,4.27-11.18,9.66,0,3.75,2.51,7,8.25,9.25,3.87,1.64,5.21,3,5.21,5.45s-1.75,4.21-5.38,4.21a15.62,15.62,0,0,1-7.38-2.17l-1.52,5a17.79,17.79,0,0,0,8.78,2.17c7.32,0,12.06-3.69,12.06-9.9,0-4.68-2.81-7.61-8.14-9.78-3.92-1.69-5.38-2.81-5.38-5s1.63-3.92,4.68-3.92A11.81,11.81,0,0,1,85,160.64l1.52-4.92ZM116.87,167c0-6.85-2.64-13.11-12.12-13.11a20.13,20.13,0,0,0-10.42,2.69l1.4,4.51a14.84,14.84,0,0,1,7.85-2.22c6.5,0,6.5,4.8,6.5,7.2-11.07,0-18,4-18,12a9.12,9.12,0,0,0,9.49,9.43,10.92,10.92,0,0,0,9-4.39h.18l.47,3.74h6.15a43.83,43.83,0,0,1-.47-7.67V167Zm-6.62,9a6.58,6.58,0,0,1-6.73,6.56c-2.52,0-4.75-1.58-4.75-5.15,0-5.74,6.15-6.74,11.48-6.74v5.33Zm55.21-36.07h-6.79v18.33h-.11c-1.41-2.46-4.4-4.33-8.55-4.33-7.2,0-13.47,6.21-13.47,17.15,0,10,5.56,16.46,12.88,16.46a10.74,10.74,0,0,0,9.78-5.68h.18l.35,5h6c-.12-2.22-.24-5.68-.24-8.6V139.85Zm-6.79,33.73c0,4.51-2.87,8.37-7.26,8.37-5.15,0-8-4.86-8-11.18s2.87-11.53,8.08-11.53c3.8,0,7.14,3.1,7.14,8.37v6Zm28.63-19.73c-8.54,0-15.22,6.15-15.22,17,0,10.42,6.38,16.57,14.76,16.57,7.26,0,15.1-5,15.1-17,0-9.9-5.79-16.57-14.64-16.57ZM195,170.59c0,6.44-3,11.77-8,11.77s-8-5.33-8-11.65c0-5.56,2.22-11.77,8-11.77s7.9,6.33,7.9,11.65Zm51.24,10.48H228.93V142h-6.79v44.85h24.07v-5.74ZM274.49,167c0-6.85-2.64-13.11-12.12-13.11a20.2,20.2,0,0,0-10.43,2.69l1.41,4.51a14.83,14.83,0,0,1,7.84-2.22c6.5,0,6.5,4.8,6.5,7.2-11.06,0-18,4-18,12a9.11,9.11,0,0,0,9.48,9.43,10.93,10.93,0,0,0,9-4.39h.18l.47,3.74H275a43.9,43.9,0,0,1-.46-7.67V167Zm-6.62,9a6.59,6.59,0,0,1-6.73,6.56c-2.52,0-4.75-1.58-4.75-5.15,0-5.74,6.15-6.74,11.48-6.74v5.33Zm36.07-21.37-.3,4.33h-.11c-1.35-2.57-4-5-8.84-5-7,0-13.65,6.09-13.65,17,0,9,5.21,15.75,12.83,15.75a10.11,10.11,0,0,0,8.95-4.75h.12V185c0,7.32-3.75,10.24-9,10.24A17.6,17.6,0,0,1,285.2,193l-1.52,5.27c2.52,1.52,6.44,2.34,10.19,2.34,15.28,0,15.8-11.88,15.8-18.32V163.86c0-4.33.12-7,.3-9.31Zm-1.06,18.8c0,5.38-3.51,8.08-7,8.08-5,0-7.91-4.51-7.91-10.84,0-6.9,3.28-11.35,8-11.35,4.15,0,7,3.51,7,7.78v6.33Zm28.63-19.5c-8.54,0-15.22,6.15-15.22,17,0,10.42,6.38,16.57,14.76,16.57,7.26,0,15.1-5,15.1-17,0-9.9-5.79-16.57-14.64-16.57Zm7.67,16.74c0,6.44-3,11.77-8,11.77s-8-5.33-8-11.65c0-5.56,2.22-11.77,8-11.77S339.18,165.27,339.18,170.59Z"/><path class="cls-1" d="M77.46,126.06H67.88V118h8.53v-3H67.88v-7.06h9v-3.09H64.2v24.36H77.46v-3.08ZM136,129.19a33.93,33.93,0,0,1-1.43,5.64l1.65-.16a28.72,28.72,0,0,0,2.18-5.18h.06a11.34,11.34,0,0,0,4.51-.89l-.5-2.76a8,8,0,0,1-3.31.7c-3.06,0-5.31-2.29-5.31-6.14,0-3.44,1.9-6.24,5.34-6.24a6.87,6.87,0,0,1,3.15.7l.73-2.83a9.44,9.44,0,0,0-3.91-.79c-5.63,0-9.07,4-9.07,9.32,0,4.52,2.27,7.67,5.91,8.63ZM90.56,112.26a8.72,8.72,0,0,0-4.17-1c-3.68,0-6.07,2.32-6.07,5.25,0,2,1.37,3.78,4.48,5,2.1.89,2.84,1.62,2.84,3s-1,2.29-2.93,2.29a8.52,8.52,0,0,1-4-1.18l-.82,2.74a9.66,9.66,0,0,0,4.77,1.17c4,0,6.55-2,6.55-5.37,0-2.55-1.53-4.14-4.42-5.31-2.13-.93-2.93-1.53-2.93-2.74s.89-2.13,2.54-2.13a6.33,6.33,0,0,1,3.34,1l.83-2.67Zm7.54,2-.19-2.67H94.66c.07,1.56.13,3.37.13,5.66v19h3.69v-9.16h.06a5.35,5.35,0,0,0,4.68,2.41c3.69,0,7.41-2.89,7.41-9.32,0-5.43-3-8.93-6.9-8.93a6.22,6.22,0,0,0-5.57,3.05Zm.38,4.55a4.41,4.41,0,0,1,4.07-4.64c2.83,0,4.33,2.76,4.33,6.1,0,3.63-1.56,6.27-4.42,6.27-1.82,0-4-1.34-4-4.49v-3.24Zm28.05-.48c0-3.72-1.43-7.12-6.58-7.12a11,11,0,0,0-5.66,1.46l.76,2.45a8.07,8.07,0,0,1,4.26-1.21c3.53,0,3.53,2.61,3.53,3.91-6,0-9.79,2.17-9.79,6.52a4.94,4.94,0,0,0,5.15,5.12,6,6,0,0,0,4.9-2.38h.09l.26,2h3.34a23,23,0,0,1-.26-4.16v-6.62Zm-3.59,4.87a3.58,3.58,0,0,1-3.66,3.56,2.5,2.5,0,0,1-2.58-2.8c0-3.12,3.34-3.66,6.24-3.66v2.9Zm30.5-12c-4.65,0-8.27,3.34-8.27,9.25,0,5.66,3.46,9,8,9,3.95,0,8.21-2.7,8.21-9.25,0-5.38-3.15-9-7.95-9Zm4.16,9.09c0,3.5-1.65,6.4-4.32,6.4s-4.33-2.9-4.33-6.33c0-3,1.21-6.4,4.36-6.4s4.29,3.44,4.29,6.33Zm29.87,5.19a10.88,10.88,0,0,1-4.39.86c-5,0-8.14-3.34-8.14-9.32,0-6.33,3.49-9.51,8.2-9.51a10,10,0,0,1,4.26.89l.8-3a11.8,11.8,0,0,0-5.19-1c-6.74,0-11.95,4.52-11.95,12.79,0,7.76,4.54,12.24,11.32,12.24a13.89,13.89,0,0,0,5.72-1l-.63-3Zm18.35-13.9h-3.69v10.84a3.76,3.76,0,0,1-3.66,4c-2.42,0-3.27-2-3.27-5v-9.79h-3.69V122c0,5.59,2.64,7.46,5.66,7.46a6.11,6.11,0,0,0,5.28-2.89h.09l.19,2.54H206c-.07-1.4-.16-3-.16-5V111.62Zm8.43-8h-3.69v25.5h3.69v-25.5Zm5.43,8H217.2v2.77h2.48v9.06c0,2.29.42,3.75,1.31,4.71a4.52,4.52,0,0,0,3.46,1.33,8.32,8.32,0,0,0,2.87-.41l-.13-2.83a5.31,5.31,0,0,1-1.62.22c-1.56,0-2.23-1-2.23-3.21v-8.87h4.17v-2.77h-4.17v-4.33l-3.66,1.15v3.18Zm25.26,0h-3.69v10.84a3.76,3.76,0,0,1-3.66,4c-2.42,0-3.28-2-3.28-5v-9.79h-3.69V122c0,5.59,2.64,7.46,5.66,7.46a6.08,6.08,0,0,0,5.28-2.89h.1l.19,2.54h3.24c-.06-1.4-.15-3-.15-5V111.62Zm13.54-.29a4.49,4.49,0,0,0-.92-.09,5,5,0,0,0-4.55,3.59h-.12l-.13-3.21h-3.21c.09,1.62.12,3.31.12,5.34v12.18h3.69v-9.28c0-3.06,1.56-5.09,4-5.09a5.66,5.66,0,0,1,1.08.09v-3.53Zm15.14,7c0-3.72-1.43-7.12-6.58-7.12a11,11,0,0,0-5.66,1.46l.76,2.45a8.09,8.09,0,0,1,4.26-1.21c3.53,0,3.53,2.61,3.53,3.91-6,0-9.79,2.17-9.79,6.52a4.94,4.94,0,0,0,5.15,5.12,6,6,0,0,0,4.9-2.38h.09l.26,2h3.34a23,23,0,0,1-.26-4.16v-6.62ZM270,123.23a3.58,3.58,0,0,1-3.66,3.56,2.5,2.5,0,0,1-2.57-2.8c0-3.12,3.33-3.66,6.23-3.66v2.9ZM282,103.64h-3.69v25.5H282Z"/></g></g></svg>