<svg xmlns="http://www.w3.org/2000/svg" viewBox="0 0 388.11 180.14"><defs><style>.cls-1{fill:#231f20;}.cls-1,.cls-2{fill-rule:evenodd;}.cls-2{fill:#c4161c;}</style></defs><title>Asset 1</title><g id="Layer_2" data-name="Layer 2"><g id="Camada_1" data-name="Camada 1"><path class="cls-1" d="M221.36,90.44a21.49,21.49,0,0,1-8.65,1.69c-9.89,0-16-6.58-16-18.35,0-12.47,6.89-18.73,16.16-18.73a19.7,19.7,0,0,1,8.39,1.75l1.57-5.95c-1.32-.69-4.7-1.88-10.21-1.88C199.31,49,189,57.87,189,74.15c0,15.29,9,24.12,22.3,24.12,5.2,0,9.27-1,11.28-2l-1.25-5.83ZM323,174.9a38.18,38.18,0,0,1-2.69,5l1.87.26a31.48,31.48,0,0,0,3.59-4.84H326a13,13,0,0,0,5.19-1l-.58-3.17a9.24,9.24,0,0,1-3.8.8c-3.51,0-6.1-2.63-6.1-7,0-4,2.19-7.16,6.14-7.16a7.81,7.81,0,0,1,3.61.8l.84-3.25a10.74,10.74,0,0,0-4.49-.92c-6.47,0-10.42,4.61-10.42,10.71,0,5.11,2.51,8.69,6.57,9.86ZM349,147.54c0,1.79-.55,2.71-1.62,2.71a9.09,9.09,0,0,1-3.73-1.33c-2-1-3.15-1.5-4.54-1.5-2.34,0-4.13,1.65-4,5.15h2.23c.06-1.94.72-2.72,1.79-2.72s2.14.61,3.7,1.42c2.08,1,3.24,1.47,4.6,1.47,2.2,0,4-1.44,3.84-5.2ZM208.38,133.33a12.58,12.58,0,0,1-5,1c-5.78,0-9.36-3.83-9.36-10.7,0-7.27,4-10.93,9.43-10.93a11.42,11.42,0,0,1,4.89,1l.92-3.48a13.62,13.62,0,0,0-6-1.09c-7.74,0-13.74,5.19-13.74,14.69,0,8.91,5.23,14.06,13,14.06a16.2,16.2,0,0,0,6.58-1.16l-.73-3.4Zm18.74.36a12.51,12.51,0,0,1-5.08.95c-3.18,0-6-1.72-6.1-6.25h12.79a13.09,13.09,0,0,0,.11-1.79c0-5-2.27-9.68-7.93-9.68s-9.06,4.79-9.06,10.78c0,6.14,3.51,10.19,9.57,10.19a15.76,15.76,0,0,0,6.4-1.2l-.7-3ZM216,125.36c.22-2.34,1.53-5.41,4.64-5.41s4.24,3,4.2,5.41Zm33.58-.18c0-6.21-3.51-8.26-6.65-8.26a6.92,6.92,0,0,0-6.11,3.44h-.1l-.22-3h-3.69c.07,1.72.14,3.43.14,5.66v14.47h4.24V125.36c0-3.21,2.23-4.93,4.31-4.93,2.89,0,3.84,2.41,3.84,5.26v11.8h4.24V125.18Zm6.17-7.82h-2.85v3.18h2.85V131c0,2.63.48,4.31,1.5,5.41a5.21,5.21,0,0,0,4,1.53,9.41,9.41,0,0,0,3.29-.47l-.14-3.25a6.49,6.49,0,0,1-1.87.25c-1.79,0-2.56-1.2-2.56-3.69V120.54h4.79v-3.18h-4.79v-5l-4.2,1.32v3.65ZM278.5,117a5.22,5.22,0,0,0-1.06-.11,5.79,5.79,0,0,0-5.23,4.13h-.14l-.15-3.69h-3.69c.11,1.86.15,3.8.15,6.14v14h4.23V126.82c0-3.5,1.79-5.84,4.64-5.84a5.87,5.87,0,0,1,1.25.11V117Zm11.51-.11c-5.34,0-9.5,3.84-9.5,10.63,0,6.51,4,10.34,9.2,10.34,4.53,0,9.43-3.1,9.43-10.63,0-6.17-3.62-10.34-9.13-10.34Zm4.78,10.45c0,4-1.9,7.35-5,7.35s-5-3.33-5-7.28c0-3.47,1.39-7.34,5-7.34s4.93,4,4.93,7.27Zm33.55-19.18H324.1v11.44H324a5.92,5.92,0,0,0-5.34-2.71c-4.49,0-8.4,3.87-8.4,10.71,0,6.21,3.47,10.26,8,10.26a6.71,6.71,0,0,0,6.11-3.54h.11l.22,3.14h3.72c-.07-1.39-.14-3.54-.14-5.37V108.19Zm-4.24,21c0,2.82-1.79,5.23-4.53,5.23-3.22,0-5-3-5-7s1.79-7.2,5-7.2c2.38,0,4.46,1.94,4.46,5.23v3.72Zm23.68,4.46a12.55,12.55,0,0,1-5.08.95c-3.18,0-6-1.72-6.11-6.25h12.79a11.66,11.66,0,0,0,.11-1.79c0-5-2.26-9.68-7.93-9.68s-9.06,4.79-9.06,10.78c0,6.14,3.51,10.19,9.58,10.19a15.71,15.71,0,0,0,6.39-1.2l-.69-3Zm-11.15-8.33c.22-2.34,1.54-5.41,4.64-5.41,3.25,0,4.24,3,4.2,5.41ZM208.38,170.74a12.4,12.4,0,0,1-5,1c-5.78,0-9.36-3.84-9.36-10.71,0-7.27,4-10.92,9.43-10.92a11.43,11.43,0,0,1,4.89,1l.92-3.47a13.57,13.57,0,0,0-6-1.1c-7.74,0-13.74,5.19-13.74,14.69,0,8.92,5.23,14.07,13,14.07a16.16,16.16,0,0,0,6.58-1.17l-.73-3.4Zm12.93-16.41c-5.33,0-9.5,3.84-9.5,10.64,0,6.5,4,10.34,9.21,10.34,4.53,0,9.43-3.11,9.43-10.64,0-6.17-3.62-10.34-9.14-10.34Zm4.79,10.45c0,4-1.9,7.35-5,7.35s-5-3.33-5-7.27c0-3.47,1.39-7.35,5-7.35s4.93,4,4.93,7.27Zm25.18-2.19c0-6.21-3.51-8.26-6.66-8.26a6.9,6.9,0,0,0-6.1,3.44h-.11l-.22-3H234.5c.08,1.72.15,3.44.15,5.67v14.47h4.24V162.77c0-3.21,2.23-4.93,4.31-4.93,2.89,0,3.84,2.41,3.84,5.26v11.81h4.24V162.59Zm17-7.82-3.25,10.75c-.51,1.75-1,3.39-1.35,5.07h-.11c-.37-1.68-.8-3.36-1.35-5.11L259,154.77h-4.57l7.05,20.14h4.06l7.23-20.14Zm21.6,16.34a12.72,12.72,0,0,1-5.08.95c-3.18,0-6-1.72-6.1-6.25H291.5a11.75,11.75,0,0,0,.11-1.79c0-5-2.26-9.69-7.92-9.69s-9.07,4.79-9.07,10.78,3.51,10.2,9.58,10.2a15.65,15.65,0,0,0,6.39-1.21l-.69-3Zm-11.15-8.34c.22-2.33,1.54-5.4,4.64-5.4,3.26,0,4.24,3,4.21,5.4Zm33.58-.18c0-6.21-3.51-8.26-6.65-8.26a6.9,6.9,0,0,0-6.1,3.44h-.11l-.22-3h-3.69c.07,1.72.15,3.44.15,5.67v14.47H300V162.77c0-3.21,2.22-4.93,4.31-4.93,2.88,0,3.83,2.41,3.83,5.26v11.81h4.24V162.59Zm30.91-8.26c-5.33,0-9.5,3.84-9.5,10.64,0,6.5,4,10.34,9.21,10.34,4.53,0,9.43-3.11,9.43-10.64,0-6.17-3.62-10.34-9.14-10.34ZM348,164.78c0,4-1.9,7.35-5,7.35s-5-3.33-5-7.27c0-3.47,1.39-7.35,5-7.35s4.93,4,4.93,7.27Zm22.58,6.33a12.68,12.68,0,0,1-5.08.95c-3.18,0-6-1.72-6.1-6.25h12.79a13.19,13.19,0,0,0,.11-1.79c0-5-2.27-9.69-7.93-9.69s-9.06,4.79-9.06,10.78,3.51,10.2,9.57,10.2a15.74,15.74,0,0,0,6.4-1.21l-.7-3Zm-11.14-8.34c.22-2.33,1.53-5.4,4.64-5.4s4.24,3,4.2,5.4Zm27.91-7.27a10,10,0,0,0-4.78-1.17c-4.24,0-7,2.67-7,6,0,2.34,1.57,4.35,5.15,5.78,2.41,1,3.25,1.86,3.25,3.39s-1.09,2.64-3.36,2.64a9.76,9.76,0,0,1-4.6-1.36l-.95,3.15a11.17,11.17,0,0,0,5.48,1.35c4.57,0,7.52-2.3,7.52-6.18,0-2.92-1.75-4.75-5.07-6.1-2.45-1.06-3.37-1.75-3.37-3.14s1-2.45,2.93-2.45a7.34,7.34,0,0,1,3.83,1.13l.95-3.07Zm-157.57-58a78.87,78.87,0,0,0,10.4.56c8.46,0,15.28-2.13,19.61-6.33s6.89-10.4,6.89-19.1v-.07c0-10.64-4.26-23.23-24.68-23.23a76.39,76.39,0,0,0-12.22,1V97.46Zm7.27-41.91a28.94,28.94,0,0,1,5.64-.5c10.33,0,16.34,6,16.34,17.66,0,13.22-6.51,19.55-17.28,19.48a34.53,34.53,0,0,1-4.7-.25V55.55Zm66.83,34.89a21.4,21.4,0,0,1-8.64,1.69c-9.9,0-16-6.58-16-18.35,0-12.47,6.89-18.73,16.16-18.73a19.75,19.75,0,0,1,8.4,1.75l1.57-5.95C304,50.16,300.66,49,295.14,49c-13.28,0-23.55,8.9-23.55,25.18,0,15.29,9,24.12,22.3,24.12,5.2,0,9.27-1,11.28-2Z"/><path class="cls-2" d="M175.51,175.31A87.66,87.66,0,1,1,175.51,0Z"/><path class="cls-1" d="M175.51,117.15a49,49,0,1,1,0-97.94Z"/><path class="cls-2" d="M87.65,175.31A87.66,87.66,0,0,1,87.65,0Z"/><path class="cls-1" d="M87.65,117.15a49,49,0,0,1,0-97.94Z"/></g></g></svg>