<svg xmlns="http://www.w3.org/2000/svg" viewBox="0 0 742.04 328.99"><defs><style>.cls-1{fill:#231f20;fill-rule:evenodd;}</style></defs><title>centro-cultural-unicamp-logo</title><g id="Layer_2" data-name="Layer 2"><g id="Camada_1" data-name="Camada 1"><path class="cls-1" d="M741.76,41.54V52.46H592.06V41.54Zm0,12.34V244.72H592.18V80.83H572.34V244.72H490v-7.37H477v-7.53H456.61v-8.23h-169v8.23H267.25v7.53h-13v7.37h-81V81.57H153.44V244.72H1.29V53.88h152.3v1.85h-14v2h465v-2H592.06V53.88ZM1.29,52.46V41.54h152.3V52.46ZM545,14.39l-16.89,5.25c26.53,6.89,51.16,13.44,76.25,20l137.7.26L643.12,14.39ZM300.69.08,445.05,0,597.24,39.61,148,39.53,300.69.08ZM103,14.13,1.76,39.55l139.21,0L220.35,19l-18.43-4.87ZM650,133.52h1.84v8.7h5.31v-8.7h1.24V122.59h0v-2.81H639.65l1.88,8.61H625.25l1.8-8.6H608.17v13.74h1.26v8.7h5.3v-8.7h1.78V188H612.3v4h42.05v-4H650V133.52Zm-1.21,7.89v-5h-31v5Zm0,6.39v-5h-31v5Zm-31,35v5h31v-5Zm31-1.42v-5.72h-31v5.72Zm-31-12.17v5h31v-5Zm31-1.42v-5h-31v5Zm0-6.39v-5h-31v5Zm0-6.46v-5.72h-31v5.72Zm0-20v-5h-31v5ZM638,115h-9.39L626,127.82h14.87L638,115Zm77.68,18.55h1.85v8.7h5.3v-8.7h1.24V122.59h0v-2.81H705.42l1.87,8.61H691l1.8-8.6H673.93v13.74h1.26v8.7h5.31v-8.7h1.77V188h-4.21v4h42.05v-4h-4.4V133.52Zm-1.21,7.89v-5h-31v5Zm0,6.39v-5h-31v5Zm-31,35v5h31v-5Zm31-1.42v-5.72h-31v5.72Zm-31-12.17v5h31v-5Zm31-1.42v-5h-31v5Zm0-6.39v-5h-31v5Zm0-6.46v-5.72h-31v5.72Zm0-20v-5h-31v5Zm-10.71-20H694.4l-2.69,12.85h14.88L703.79,115ZM128.12,133.52H130v8.7h5.3v-8.7h1.24V122.59h0v-2.81H117.82l1.88,8.61H103.43l1.8-8.6H86.34v13.74H87.6v8.7h5.31v-8.7h1.77V188H90.47v4h42.05v-4h-4.4V133.52Zm-1.21,7.89v-5h-31v5Zm0,6.39v-5h-31v5Zm-31,35v5h31v-5Zm31-1.42v-5.72h-31v5.72Zm-31-12.17v5h31v-5Zm31-1.42v-5h-31v5Zm0-6.39v-5h-31v5Zm0-6.46v-5.72h-31v5.72Zm0-20v-5h-31v5ZM116.2,115h-9.39l-2.69,12.85H119L116.2,115ZM62.36,133.52H64.2v8.7h5.31v-8.7h1.24V122.59h0v-2.81H52.06l1.88,8.61H37.66l1.8-8.6H20.58v13.74h1.26v8.7h5.3v-8.7h1.78V188H24.71v4h42v-4H62.36V133.52Zm-1.21,7.89v-5h-31v5Zm0,6.39v-5h-31v5Zm-31,35v5h31v-5Zm31-1.42v-5.72h-31v5.72Zm-31-12.17v5h31v-5Zm31-1.42v-5h-31v5Zm0-6.39v-5h-31v5Zm0-6.46v-5.72h-31v5.72Zm0-20v-5h-31v5ZM50.44,115H41.05l-2.69,12.85H53.23L50.44,115ZM577.51,41.54H168.13V55.73H577.51V41.54Zm62.15,29.53v4.44h53V71.07Zm-486.22-1.8V71.1H117.86v4.45l35.55-.12,0,2.35h19.85V75.43h39.64V71.22l-39.64-.12V69.27ZM43.24,71.1v4.45h5V71.1Zm65.93,0v4.45h5V71.1Zm346.1.06v4.45h5V71.16Zm-86.7-.06v4.45h5V71.1Zm-152.5,0v4.45h5V71.1Zm160.9.06v4.45h74.54V71.16Zm-99.42-.06H224.67v4.33l52.88.12V71.1Zm3.42,0v4.45h5V71.1Zm84.1,0H289.66v4.45h75.43l0-4.45Zm-325.86,0H4.53v4.45H39.21V71.1Zm65.95,0H52.29l.06,4.57h52.83l0-4.57Zm467.25-1.83-.08,1.93-43.52.27v4.45l43.49,0v1.91h19.85l0-1.91h34.8V71.38l-34.74-.28.08-1.83Zm58.35,1.62v4.66h5V70.89Zm65.78.21v4.45h5V71.1Zm-176.36.06v4.45h5V71.16Zm-56,0v4.45h52.18V71.16Zm241.68-.09v4.44h32.63V71.07ZM143.61,60.41v2h457v-2ZM150.39,65v2h444V65Zm203,135.93-.12,0,.12,0Zm27.92,0,.27.08-.27-.08Zm.27.1-.27-.08.27.08Zm7.25-.1-.27.08.27-.08Zm-.26.1.27-.08-.27.08Zm-27.77-.1-.28.08.28-.08Zm-.27.1.27-.08-.27.08Zm.27-29.63-.28-.08.28.08Zm-.27-.1.27.08-.27-.08Zm20.78.1.27-.08-.27.08Zm.27-.1-.27.08.27-.08Zm7.25.1-.27-.08.27.08Zm-.26-.1.27.08-.27-.08Zm-35.32.1.28-.08-.28.08Zm.27-.1-.27.08.27-.08Zm-.25,29.65.12,0-.12,0Zm51.5-56.77h2.92v-5.92H411V125.34h-3.29c-2.65-15.18-15.11-27.13-30.83-29.48V91.79H365.27v4.1c-15.62,2.44-28,14.34-30.61,29.45h-3.51v12.83h3.26v5.92h8v0h.14v76.22h56.93v-.57h0V144.05l5.25,0Zm-23.46,56.76a3.26,3.26,0,0,0,.09-.45l0-.28v-.33a3.38,3.38,0,0,0-3.23-3.2v2.93l1.68,6.26,1.43-4.93Zm-3.39-1.3v-3l-.4,0a3.7,3.7,0,0,0-2,1,2.69,2.69,0,0,0-.82,1.75v.32a1.66,1.66,0,0,0,0,.22c.15,1,.75,3.39,1.43,5.93h.16l1.6-6.3Zm3.79.57v5.73h3.22V195.78h-3.22v4.34Zm-.28-1.59v-2.75h-3.23v.53a3.61,3.61,0,0,1,2.45,1.06,3.88,3.88,0,0,1,.78,1.16Zm-3.51-2.22v-.53h-3.22v2.51a3.22,3.22,0,0,1,.63-.86,4,4,0,0,1,2.15-1.08,3.42,3.42,0,0,1,.44,0Zm-3.5,3.06v-3.59h-3.22v10.07h3.22V199.7a.86.86,0,0,1,0-.16,1,1,0,0,1,0-.17Zm.28,1.86v4.62h1.17c-.47-1.75-.9-3.43-1.17-4.62Zm1.32,5.19h-1.32v5.81l1.4-5.51-.08-.3Zm-1.32,8.14v1h3.22v-1a1.44,1.44,0,0,1-.27.34,1.9,1.9,0,0,1-2.95-.35Zm3.5-.71v1.71h3.23v-1.73a1.84,1.84,0,0,1-.27.34,2,2,0,0,1-1.36.55,1.87,1.87,0,0,1-1.34-.56,1.94,1.94,0,0,1-.26-.31Zm3.51-.88v2.59h3.22v-9.14h-3.22V213Zm-.28-1.46v-5.09H380l1.38,5.09Zm-1.28-5.66h1.28v-4.39l-1.28,4.39Zm-3.9,1.43-1.5,5.89,0,.2a1.23,1.23,0,0,0,0,.2,1.61,1.61,0,0,0,2.75,1.14,1.62,1.62,0,0,0,.47-1v-.28a1.15,1.15,0,0,1,0-.14c-.16-.59-.39-1.42-.67-2.41s-.63-2.31-1-3.57Zm1.26,3.49.41,1.51v-5.86h-1.45l-.08.3c.39,1.43.78,2.85,1.12,4.05Zm-.9-4.92h1.31V200.7l-1.31,5.15Zm1.59-5.24v5.24h1.4l-1.4-5.24Zm1.49,5.81h-1.49v5c.46-1.67,1-3.39,1.49-5Zm.18.41-1.62,5.6a1.29,1.29,0,0,0,0,.19V213a1.58,1.58,0,0,0,.46,1,1.62,1.62,0,0,0,1.14.47A1.6,1.6,0,0,0,381.4,213v-.25a.25.25,0,0,1,0-.08c0-.07,0-.14,0-.21l-1.51-5.58Zm9-6,1.43,4.93,1.67-6.26v-2.93a3.42,3.42,0,0,0-2.24,1,3.35,3.35,0,0,0-1,2.21v.35a2.45,2.45,0,0,0,0,.27,3.27,3.27,0,0,0,.1.45Zm3.38-1.3,1.6,6.3H394c.68-2.54,1.28-4.95,1.43-5.93a1.64,1.64,0,0,0,0-.22v-.32a2.69,2.69,0,0,0-.82-1.75,3.67,3.67,0,0,0-2-1l-.4,0v3Zm-3.78.57a1.45,1.45,0,0,1,0-.34v-4h-3.23v10.07h3.23v-5.73Zm.28-1.59a3.54,3.54,0,0,1,.78-1.16,3.61,3.61,0,0,1,2.44-1.06v-.53h-3.22v2.75Zm3.5-2.22a3.13,3.13,0,0,1,.44,0,4,4,0,0,1,2.16,1.08,3.08,3.08,0,0,1,.62.87v-2.52h-3.22v.53Zm3.51,3.06v6.48h3.22V195.78H395.7v3.59Zm-.29,1.85c-.26,1.2-.69,2.88-1.16,4.63h1.16v-4.63Zm-1.31,5.2-.09.3,1.4,5.51v-5.81Zm1.31,8.14a1.82,1.82,0,0,1-.27.35,1.91,1.91,0,0,1-2.68,0,2.24,2.24,0,0,1-.27-.34v1h3.22v-1Zm-3.5-.71a1.53,1.53,0,0,1-.26.31,1.84,1.84,0,0,1-1.33.56,1.93,1.93,0,0,1-1.36-.55,1.5,1.5,0,0,1-.27-.34v1.73h3.22v-1.71Zm-3.5-.88a1,1,0,0,1,0-.28v-6.27h-3.23v9.14h3.23V213Zm.28-1.46,1.38-5.09h-1.38v5.09Zm1.28-5.66-1.28-4.39v4.39Zm3.89,1.43c-.34,1.26-.68,2.5-1,3.57l-.66,2.41a.46.46,0,0,0,0,.14v.28a1.67,1.67,0,0,0,.47,1,1.61,1.61,0,0,0,2.75-1.14,1.27,1.27,0,0,0,0-.2,1.18,1.18,0,0,0,0-.2l-1.5-5.89Zm-1.25,3.49,1.11-4.05-.07-.3h-1.46v5.86l.42-1.51Zm.89-4.92-1.31-5.15v5.15Zm-1.59-5.24-1.4,5.24h1.4v-5.24Zm-1.49,5.81c.48,1.63,1,3.35,1.49,5v-5Zm-.17.41-1.51,5.58a1.55,1.55,0,0,0,0,.21V213a1.59,1.59,0,0,0,.47,1,1.64,1.64,0,0,0,1.16.46,1.6,1.6,0,0,0,1.13-.47,1.53,1.53,0,0,0,.46-1v-.34l0-.19-1.62-5.6Zm-29.48-6,1.43,4.93,1.67-6.26v-2.93a3.42,3.42,0,0,0-2.24,1,3.37,3.37,0,0,0-1,2.22v.33a2.4,2.4,0,0,0,0,.28,3.26,3.26,0,0,0,.09.45Zm3.39-1.3,1.6,6.3h.16c.68-2.54,1.28-4.95,1.43-5.93l0-.22v-.32a2.65,2.65,0,0,0-.83-1.75,3.67,3.67,0,0,0-2-1l-.39,0v3Zm-3.79.57c0-.06,0-.11,0-.17s0-.11,0-.17v-4h-3.22v10.07h3.22v-5.73Zm.28-1.59a3.7,3.7,0,0,1,.78-1.16,3.61,3.61,0,0,1,2.44-1.06v-.53h-3.22v2.75Zm3.51-2.22a3.42,3.42,0,0,1,.44,0,4,4,0,0,1,2.15,1.08,3.46,3.46,0,0,1,.63.86v-2.51h-3.22v.53Zm3.5,3.06c0,.06,0,.11,0,.17s0,.11,0,.16v6.15h3.22V195.78h-3.22v3.59Zm-.28,1.86c-.27,1.19-.7,2.87-1.17,4.62h1.17v-4.62Zm-1.32,5.19-.08.3,1.4,5.51v-5.81Zm1.32,8.14a1.91,1.91,0,0,1-1.62.9,1.92,1.92,0,0,1-1.34-.55,1.7,1.7,0,0,1-.26-.34v1h3.22v-1Zm-3.51-.71a1.9,1.9,0,0,1-1.59.87,1.93,1.93,0,0,1-1.36-.55,1.84,1.84,0,0,1-.27-.34v1.73h3.22v-1.71Zm-3.5-.88c0-.05,0-.09,0-.14s0-.09,0-.13v-6.28h-3.22v9.14h3.22V213Zm.28-1.46,1.38-5.09h-1.38v5.09Zm1.28-5.66-1.28-4.39v4.39Zm3.9,1.43c-.35,1.26-.69,2.5-1,3.57l-.66,2.41s0,.08,0,.14v.28a1.61,1.61,0,0,0,.46,1,1.64,1.64,0,0,0,1.14.47,1.6,1.6,0,0,0,1.14-.47,1.62,1.62,0,0,0,.47-1.14,1.27,1.27,0,0,0,0-.2l0-.2-1.5-5.89Zm-1.26,3.49c.33-1.2.73-2.62,1.12-4.05l-.08-.3h-1.45v5.86l.41-1.51Zm.89-4.92-1.3-5.15v5.15Zm-1.59-5.24-1.4,5.24h1.4v-5.24Zm-1.48,5.81c.48,1.63,1,3.35,1.48,5v-5Zm-.18.41-1.51,5.58a1.55,1.55,0,0,0,0,.21s0,0,0,.08V213a1.59,1.59,0,0,0,.47,1,1.64,1.64,0,0,0,1.16.46,1.62,1.62,0,0,0,1.14-.47,1.57,1.57,0,0,0,.45-1v-.34c0-.06,0-.13,0-.19l-1.62-5.6Zm-1.44-35.53a3.58,3.58,0,0,0-.09.45,2.66,2.66,0,0,0,0,.28v.33a3.37,3.37,0,0,0,1,2.22,3.42,3.42,0,0,0,2.24,1v-2.93l-1.67-6.26-1.43,4.93Zm3.39,1.3v3l.39,0a3.67,3.67,0,0,0,2-1,2.65,2.65,0,0,0,.83-1.75v-.32l0-.22c-.16-1-.8-3.59-1.51-6.24l-1.68,6.61Zm-3.79-.57V159.45s0-.09,0-.13,0-.09,0-.13v-1.6l-3.22.59v17.87h3.22v-3.68c0-.06,0-.11,0-.17s0-.11,0-.17Zm.28,1.59v2.43h3.22v-.21a3.61,3.61,0,0,1-2.44-1.06,3.7,3.7,0,0,1-.78-1.16Zm3.51,2.22v.21h3.22v-2.19a3.46,3.46,0,0,1-.63.86,4,4,0,0,1-2.15,1.08,3.42,3.42,0,0,1-.44,0Zm3.5-3.06v3.27h3.22V155.64l-3.22.6v16.21c0,.05,0,.11,0,.16s0,.11,0,.17Zm-.28-1.85v-11l-1.4,5.51c.55,2,1.08,4.11,1.4,5.5Zm0-13.34v-1.3l-3.22.6v.69a1.7,1.7,0,0,1,.26-.34,1.92,1.92,0,0,1,1.34-.55,1.88,1.88,0,0,1,1.34.55,2.26,2.26,0,0,1,.28.35Zm-3.51.71v-1.36l-3.22.59v.79a1.84,1.84,0,0,1,.27-.34,1.93,1.93,0,0,1,1.36-.55,1.9,1.9,0,0,1,1.59.87Zm-3.22,2.34v10.05l1.41-4.84-1.41-5.21Zm5.18,4.23,1.5-5.89,0-.2a1.27,1.27,0,0,0,0-.2,1.64,1.64,0,0,0-.47-1.14,1.6,1.6,0,0,0-1.14-.47,1.64,1.64,0,0,0-1.14.47,1.61,1.61,0,0,0-.46,1v.28c0,.06,0,.11,0,.14l.66,2.41c.3,1.07.64,2.31,1,3.57Zm-1.26-3.49-.41-1.51v11.58l1.53-6c-.39-1.43-.79-2.85-1.12-4.05Zm-.7,10.16V160.72c-.46,1.7-1,3.46-1.52,5.13l1.52,5.69Zm-1.66-6.22,1.62-5.6c0-.06,0-.12,0-.19v-.34a1.57,1.57,0,0,0-.45-1,1.62,1.62,0,0,0-1.14-.47,1.64,1.64,0,0,0-1.16.46,1.59,1.59,0,0,0-.47,1v.25s0,.06,0,.08a1.55,1.55,0,0,0,0,.21l1.51,5.58Zm19.07,6-1.43-4.93-1.68,6.26v2.93a3.38,3.38,0,0,0,3.23-3.2V172l0-.28a3.58,3.58,0,0,0-.09-.45Zm-3.39,1.3L376.21,166c-.72,2.65-1.36,5.22-1.51,6.24a1.66,1.66,0,0,0,0,.22v.32a2.69,2.69,0,0,0,.82,1.75,3.7,3.7,0,0,0,2,1l.4,0v-3Zm3.79-.57v4h3.22v-17.9l-3.22-.59V172Zm-.28,1.59a3.88,3.88,0,0,1-.78,1.16,3.61,3.61,0,0,1-2.45,1.06v.21h3.23v-2.43Zm-3.51,2.22a3.42,3.42,0,0,1-.44,0,4,4,0,0,1-2.15-1.08,3.22,3.22,0,0,1-.63-.86v2.19h3.22v-.21Zm-3.5-3.06a1,1,0,0,1,0-.17.86.86,0,0,1,0-.16V156.23l-3.22-.59v20.41h3.22v-3.27Zm.28-1.85c.31-1.39.84-3.45,1.4-5.5l-1.4-5.51v11Zm0-13.34a2.26,2.26,0,0,1,.28-.35,1.9,1.9,0,0,1,2.67,0,1.44,1.44,0,0,1,.27.34v-.71l-3.22-.59v1.31Zm3.5.71a1.94,1.94,0,0,1,.26-.31,1.87,1.87,0,0,1,1.34-.56,2,2,0,0,1,1.36.55,1.84,1.84,0,0,1,.27.34v-.81l-3.23-.59v1.38Zm3.23,2.34L380,165.85l1.41,4.84V160.64Zm-5.18,4.23c.35-1.26.69-2.5,1-3.57s.51-1.82.67-2.41a1.15,1.15,0,0,1,0-.14v-.28a1.62,1.62,0,0,0-.47-1,1.62,1.62,0,0,0-2.75,1.14,1.23,1.23,0,0,0,0,.2l0,.2,1.5,5.89Zm1.26-3.49c-.34,1.2-.73,2.62-1.12,4.05l1.53,6V159.87l-.41,1.51Zm.69,10.16,1.52-5.69c-.48-1.67-1.05-3.43-1.52-5.13v10.82Zm1.67-6.22,1.51-5.58c0-.07,0-.14,0-.21a.25.25,0,0,1,0-.08v-.25a1.6,1.6,0,0,0-1.63-1.48,1.62,1.62,0,0,0-1.14.47,1.58,1.58,0,0,0-.46,1v.34a1.06,1.06,0,0,0,0,.19l1.62,5.6Zm9,6a3.63,3.63,0,0,0-.1.45,2.46,2.46,0,0,0,0,.28v.34a3.35,3.35,0,0,0,1,2.21,3.42,3.42,0,0,0,2.24,1v-2.93l-1.67-6.26-1.43,4.93Zm3.38,1.3v3l.4,0a3.67,3.67,0,0,0,2-1,2.69,2.69,0,0,0,.82-1.75v-.32a1.64,1.64,0,0,0,0-.22c-.16-1-.8-3.59-1.52-6.24l-1.68,6.61Zm-3.78-.57V159.46a1,1,0,0,1,0-.28v-1.65l-3.23.59v17.93h3.23v-3.68a1.45,1.45,0,0,1,0-.34Zm.28,1.59v2.43h3.22v-.21a3.61,3.61,0,0,1-2.44-1.06,3.54,3.54,0,0,1-.78-1.16Zm3.5,2.22v.21h3.22v-2.19a3.18,3.18,0,0,1-.62.86,4,4,0,0,1-2.16,1.08,3.13,3.13,0,0,1-.44,0Zm3.51-3.06v3.27h3.22V155.63l-3.22.58v16.57Zm-.29-1.85v-11l-1.4,5.51c.56,2,1.09,4.11,1.4,5.5Zm0-13.34v-1.33l-3.22.59v.73a2.24,2.24,0,0,1,.27-.34,1.91,1.91,0,0,1,2.68,0,2.19,2.19,0,0,1,.27.35Zm-3.5.71v-1.4l-3.22.58v.84A1.5,1.5,0,0,1,389,158a1.93,1.93,0,0,1,1.36-.55,1.84,1.84,0,0,1,1.33.56,1.53,1.53,0,0,1,.26.31Zm-3.22,2.34v10.05l1.41-4.84-1.41-5.21Zm5.17,4.23,1.5-5.89a1.18,1.18,0,0,0,0-.2,1.27,1.27,0,0,0,0-.2,1.64,1.64,0,0,0-.47-1.14,1.62,1.62,0,0,0-2.28,0,1.67,1.67,0,0,0-.47,1v.28a.46.46,0,0,0,0,.14l.66,2.41c.3,1.07.64,2.31,1,3.57Zm-1.25-3.49-.42-1.51v11.58l1.53-6-1.11-4.05Zm-.7,10.16V160.72c-.46,1.7-1,3.46-1.52,5.13l1.52,5.69Zm-1.66-6.22,1.62-5.6,0-.19v-.34a1.53,1.53,0,0,0-.46-1,1.6,1.6,0,0,0-1.13-.47,1.64,1.64,0,0,0-1.16.46,1.59,1.59,0,0,0-.47,1v.34a1.55,1.55,0,0,0,0,.21l1.51,5.58Zm-37,6-1.43-4.93-1.65,6.19v3a3.39,3.39,0,0,0,2.22-1,3.35,3.35,0,0,0,1-2.38,3.19,3.19,0,0,0,0-.45,3.58,3.58,0,0,0-.09-.45Zm-3.37,1.37L348.16,166c-.72,2.65-1.36,5.22-1.52,6.24V173a2.69,2.69,0,0,0,.81,1.56,3.67,3.67,0,0,0,2,1l.41,0v-2.89Zm3.51.9a3.63,3.63,0,0,1-3.22,2.27v.21h3.22v-2.48Zm-3.51,2.27a3.42,3.42,0,0,1-.45,0,4,4,0,0,1-2.16-1.08,3.29,3.29,0,0,1-.61-.83v2.16h3.22v-.21Zm-3.5-2.86a2.23,2.23,0,0,1,0-.37,2.11,2.11,0,0,1,0-.35V158.82a1.94,1.94,0,0,1,0-.24,1.64,1.64,0,0,1,0-.23v-2.11l-3.22-.6v20.41h3.22V173Zm.28-2.14c.32-1.38.84-3.4,1.38-5.41L346.63,160v10.85Zm0-13.28a2.6,2.6,0,0,1,.26-.32,1.91,1.91,0,0,1,2.68,0,2,2,0,0,1,.28.37v-.72l-3.22-.6v1.27Zm3.51.72a2.26,2.26,0,0,1,.23-.29,1.88,1.88,0,0,1,1.34-.56,1.93,1.93,0,0,1,1.36.55,1.76,1.76,0,0,1,.29.37v-.82l-3.22-.59v1.34Zm3.22,2.29-1.43,5.28,1.43,4.9V160.57Zm-5.19,4.3c.34-1.26.68-2.5,1-3.57l.66-2.41a.46.46,0,0,0,0-.14.91.91,0,0,0,0-.17,1.64,1.64,0,0,0-.47-1.14,1.62,1.62,0,0,0-1.14-.47,1.6,1.6,0,0,0-1.14.47,1.68,1.68,0,0,0-.46.92v.44a1,1,0,0,0,0,.18l1.5,5.89Zm1.25-3.49c-.33,1.2-.73,2.62-1.11,4.05l1.54,6.09V159.8l-.43,1.58Zm.72,10.09,1.5-5.62c-.48-1.65-1-3.38-1.5-5.06v10.68Zm1.64-6.15,1.51-5.58a1.55,1.55,0,0,0,0-.21,1.34,1.34,0,0,0,0-.21,1.62,1.62,0,0,0-.47-1.14,1.64,1.64,0,0,0-1.16-.46,1.6,1.6,0,0,0-1.13.47,1.49,1.49,0,0,0-.44.85v.57a.36.36,0,0,0,0,.11l1.62,5.6Zm1.46,35.53a3.26,3.26,0,0,0,.09-.45,2.48,2.48,0,0,0,0-.27v-.35a3.35,3.35,0,0,0-1-2.21,3.42,3.42,0,0,0-2.24-1v2.93l1.67,6.26,1.43-4.93Zm-3.39-4.26-.39,0a3.67,3.67,0,0,0-2,1,2.65,2.65,0,0,0-.83,1.75v.32l0,.22c.15,1,.75,3.39,1.43,5.93h.16l1.6-6.3v-3Zm3.51,4.87-1.28,4.39h1.28v-4.39Zm-1.38,5,1.38,5.09v-5.09Zm1.66,6.27a1,1,0,0,1,0,.28v2.59h3.22v-9.14h-3.22v6.27Zm-.28,1.14a1.84,1.84,0,0,1-.27.34,1.93,1.93,0,0,1-1.36.55,1.9,1.9,0,0,1-1.59-.87v1.71h3.22v-1.73Zm-3.51.74a1.7,1.7,0,0,1-.26.34,1.91,1.91,0,0,1-2.68,0,1.87,1.87,0,0,1-.28-.35v1h3.22v-1Zm-3.22-2.34,1.4-5.51-.08-.3h-1.32v5.81Zm1.17-6.38c-.47-1.75-.9-3.43-1.17-4.63v4.63Zm-1.45-6.15c0-.06,0-.11,0-.16s0-.11,0-.17v-3.59h-3.22v10.07h3.22V199.7Zm.28-1.4a3.33,3.33,0,0,1,.63-.87,4,4,0,0,1,2.15-1.08,3.42,3.42,0,0,1,.44,0v-.53h-3.22v2.52Zm3.51-2a3.61,3.61,0,0,1,2.44,1.06,3.7,3.7,0,0,1,.78,1.16v-2.75h-3.22v.53Zm3.5,3.47c0,.05,0,.11,0,.17s0,.12,0,.17v5.73h3.22V195.78h-3.22v4Zm-5.46,7.5-1.49,5.89a1.18,1.18,0,0,0,0,.2,1.27,1.27,0,0,0,0,.2,1.62,1.62,0,0,0,.47,1.14,1.6,1.6,0,0,0,1.14.47,1.59,1.59,0,0,0,1.6-1.5v-.28a.46.46,0,0,0,0-.14l-.66-2.41c-.3-1.07-.64-2.31-1-3.57Zm1.26,3.49.41,1.51v-5.86H348.4l-.07.3c.38,1.43.78,2.85,1.11,4.05Zm.7.67c.45-1.67,1-3.39,1.48-5h-1.48v5Zm1.4-5.59-1.4-5.24v5.24Zm-1.69-5.15-1.3,5.15h1.3V200.7Zm1.95,6.13-1.62,5.6c0,.06,0,.13,0,.19V213a1.57,1.57,0,0,0,.45,1,1.62,1.62,0,0,0,1.14.47,1.64,1.64,0,0,0,1.16-.46,1.59,1.59,0,0,0,.47-1v-.34a1.55,1.55,0,0,0,0-.21l-1.51-5.58Zm47.12-.41H395.7v9.14h3.22v-9.14Zm-24.53,0h-3.22v9.14h3.22v-9.14Zm-3.51,0h-3.22v9.14h3.22v-9.14Zm-24.53,0h-3.22v9.14h3.22v-9.14Zm-3.22,13.34h3.22v-3.92h-3.22v3.92Zm3.5,0h3.22v-.32a1.63,1.63,0,0,1-1.48-1.62,1.62,1.62,0,0,1,.47-1.15,1.64,1.64,0,0,1,1-.47v-.36h-3.22v3.92Zm3.51,0h3.22v-3.92h-3.22v.36a1.64,1.64,0,0,1,1,.47,1.64,1.64,0,0,1,0,2.3,1.64,1.64,0,0,1-1,.47v.32Zm3.5,0h3.22v-3.92h-3.22v3.92Zm3.51,0h3.22v-3.92h-3.22v3.92Zm3.5,0h3.22v-.32a1.64,1.64,0,0,1-1-.47,1.64,1.64,0,0,1,0-2.3,1.64,1.64,0,0,1,1-.47v-.36h-3.22v3.92Zm3.51,0h3.22v-3.92h-3.22v.36a1.64,1.64,0,0,1,1,.47,1.64,1.64,0,0,1,0,2.3,1.64,1.64,0,0,1-1,.47v.32Zm3.5,0h3.22v-3.92h-3.22v3.92Zm3.51,0h3.22v-3.92h-3.22v3.92Zm3.5,0h3.22v-.32a1.64,1.64,0,0,1-1-.47,1.63,1.63,0,0,1,1-2.77v-.36h-3.22v3.92Zm3.5,0h3.23v-3.92h-3.23v.36a1.63,1.63,0,0,1,0,3.24v.32Zm3.51,0h3.22v-3.92h-3.22v3.92Zm3.5,0h3.23v-3.92h-3.23v3.92Zm3.51,0h3.22v-.32a1.63,1.63,0,0,1,0-3.24v-.36h-3.22v3.92Zm3.5,0h3.22v-3.92h-3.22v.36a1.63,1.63,0,0,1,0,3.24v.32Zm3.51,0h3.22v-3.92H395.7v3.92Zm-3.79-3.28a1.41,1.41,0,0,0-.81.39,1.35,1.35,0,0,0,0,1.9,1.41,1.41,0,0,0,.81.39v-2.68Zm.28,2.68a1.38,1.38,0,0,0,.81-.39,1.35,1.35,0,0,0-.81-2.29v2.68Zm-14.3-2.68a1.41,1.41,0,0,0-.81.39,1.35,1.35,0,0,0,0,1.9,1.41,1.41,0,0,0,.81.39v-2.68Zm.28,2.68a1.38,1.38,0,0,0,.81-.39,1.35,1.35,0,0,0-.81-2.29v2.68Zm-14.3-2.68a1.44,1.44,0,0,0-.81.39,1.35,1.35,0,0,0,0,1.9,1.44,1.44,0,0,0,.81.39v-2.68Zm.29,2.68a1.44,1.44,0,0,0,.81-.39,1.35,1.35,0,0,0,0-1.9,1.38,1.38,0,0,0-.81-.39v2.68Zm-14.31-2.68a1.38,1.38,0,0,0-.8.39,1.31,1.31,0,0,0-.4.95,1.35,1.35,0,0,0,.39,1,1.44,1.44,0,0,0,.81.39v-2.68Zm.29,2.68a1.44,1.44,0,0,0,.81-.39,1.35,1.35,0,0,0-.81-2.29v2.68Zm-7-23.67h3.22v-3.75h-3.22v3.75Zm3.5,0h3.22v-.91a2,2,0,0,1-.19.24,1.68,1.68,0,0,1-1.16.48,1.55,1.55,0,0,1-.77-.2,1.64,1.64,0,0,1-.6-.54l.24-.15a1.3,1.3,0,0,0,.49.44,1.27,1.27,0,0,0,.64.16,1.39,1.39,0,0,0,1-.39,1.36,1.36,0,0,0,.39-1v0a1.32,1.32,0,0,0-.39-.94,1.35,1.35,0,0,0-1-.4,1.38,1.38,0,0,0-.64.16,1.33,1.33,0,0,0-.49.45l-.24-.16a1.79,1.79,0,0,1,.59-.54,1.73,1.73,0,0,1,.78-.19,1.63,1.63,0,0,1,1.16.48,1.12,1.12,0,0,1,.19.24v-1h-3.22v3.75Zm3.51,0h3.22v-3.75h-3.22v1a1.55,1.55,0,0,1,.19-.24,1.63,1.63,0,0,1,1.16-.48,1.61,1.61,0,0,1,1.37.73l-.24.16a1.33,1.33,0,0,0-.49-.45,1.35,1.35,0,0,0-.64-.16,1.31,1.31,0,0,0-.95.4,1.29,1.29,0,0,0-.4.94v0a1.36,1.36,0,0,0,.39,1,1.39,1.39,0,0,0,1,.39,1.24,1.24,0,0,0,.64-.16,1.3,1.3,0,0,0,.49-.44l.24.15a1.61,1.61,0,0,1-.59.54,1.59,1.59,0,0,1-.78.2,1.68,1.68,0,0,1-1.16-.48l-.19-.24v.91Zm3.5,0h3.22v-3.75h-3.22v3.75Zm3.51,0h3.22v-3.75h-3.22v3.75Zm3.5,0h3.22v-.91l-.19.24a1.68,1.68,0,0,1-1.16.48,1.59,1.59,0,0,1-.78-.2,1.61,1.61,0,0,1-.59-.54l.24-.15a1.3,1.3,0,0,0,.49.44,1.24,1.24,0,0,0,.64.16,1.39,1.39,0,0,0,1-.39,1.36,1.36,0,0,0,.39-1v0a1.32,1.32,0,0,0-.39-.94,1.36,1.36,0,0,0-1.6-.24,1.33,1.33,0,0,0-.49.45l-.24-.16a1.79,1.79,0,0,1,.59-.54,1.7,1.7,0,0,1,.78-.19,1.63,1.63,0,0,1,1.16.48,1.55,1.55,0,0,1,.19.24v-1h-3.22v3.75Zm3.51,0h3.22v-3.75h-3.22v1a1.12,1.12,0,0,1,.19-.24,1.63,1.63,0,0,1,1.16-.48,1.73,1.73,0,0,1,.78.19,1.79,1.79,0,0,1,.59.54l-.24.16a1.33,1.33,0,0,0-.49-.45,1.38,1.38,0,0,0-.64-.16,1.35,1.35,0,0,0-1,.4,1.32,1.32,0,0,0-.39.94v0a1.36,1.36,0,0,0,.39,1,1.39,1.39,0,0,0,1,.39,1.27,1.27,0,0,0,.64-.16,1.3,1.3,0,0,0,.49-.44l.24.15a1.64,1.64,0,0,1-.6.54,1.55,1.55,0,0,1-.77.2,1.68,1.68,0,0,1-1.16-.48,2,2,0,0,1-.19-.24v.91Zm3.5,0h3.22v-3.75h-3.22v3.75Zm3.51,0h3.22v-3.75h-3.22v3.75Zm3.5,0h3.22v-.91a2.12,2.12,0,0,1-.2.24,1.63,1.63,0,0,1-1.15.48,1.59,1.59,0,0,1-.78-.2,1.61,1.61,0,0,1-.59-.54l.24-.15a1.3,1.3,0,0,0,.49.44,1.24,1.24,0,0,0,.64.16,1.35,1.35,0,0,0,.95-.39,1.33,1.33,0,0,0,.4-1v0a1.29,1.29,0,0,0-.4-.94,1.31,1.31,0,0,0-.95-.4,1.35,1.35,0,0,0-.64.16,1.33,1.33,0,0,0-.49.45l-.24-.16a1.61,1.61,0,0,1,1.37-.73,1.59,1.59,0,0,1,1.15.48,1.16,1.16,0,0,1,.2.24v-1h-3.22v3.75Zm3.5,0h3.23v-3.75h-3.23v1a1.59,1.59,0,0,1,.2-.24,1.63,1.63,0,0,1,1.16-.48,1.66,1.66,0,0,1,.77.19,1.73,1.73,0,0,1,.6.54l-.24.16a1.33,1.33,0,0,0-.49-.45,1.38,1.38,0,0,0-.64-.16,1.35,1.35,0,0,0-1,.4,1.37,1.37,0,0,0-.4.94v0a1.42,1.42,0,0,0,.4,1,1.39,1.39,0,0,0,1,.39,1.27,1.27,0,0,0,.64-.16,1.3,1.3,0,0,0,.49-.44l.24.15a1.64,1.64,0,0,1-.6.54,1.55,1.55,0,0,1-.77.2,1.68,1.68,0,0,1-1.16-.48l-.2-.24v.91Zm3.51,0h3.22v-3.75h-3.22v3.75Zm3.5,0h3.23v-3.75h-3.23v3.75Zm3.51,0h3.22v-.91a2.12,2.12,0,0,1-.2.24,1.64,1.64,0,0,1-1.16.48,1.58,1.58,0,0,1-.77-.2,1.61,1.61,0,0,1-.59-.54l.23-.15a1.47,1.47,0,0,0,.49.44,1.27,1.27,0,0,0,.64.16,1.35,1.35,0,0,0,1-.39,1.37,1.37,0,0,0,.4-1v0a1.37,1.37,0,0,0-1.36-1.34,1.38,1.38,0,0,0-.64.16,1.5,1.5,0,0,0-.49.45l-.23-.16a1.61,1.61,0,0,1,1.36-.73,1.6,1.6,0,0,1,1.16.48,1.16,1.16,0,0,1,.2.24v-1h-3.22v3.75Zm3.5,0h3.22v-3.75h-3.22v1a1.59,1.59,0,0,1,.2-.24,1.63,1.63,0,0,1,1.16-.48,1.66,1.66,0,0,1,.77.19,1.62,1.62,0,0,1,.59.54l-.23.16a1.33,1.33,0,0,0-.49-.45,1.38,1.38,0,0,0-.64-.16,1.35,1.35,0,0,0-1,.4,1.37,1.37,0,0,0-.4.94v0a1.42,1.42,0,0,0,.4,1,1.39,1.39,0,0,0,1,.39,1.27,1.27,0,0,0,.64-.16,1.3,1.3,0,0,0,.49-.44l.23.15a1.65,1.65,0,0,1-1.36.74,1.68,1.68,0,0,1-1.16-.48l-.2-.24v.91Zm3.51,0h3.22v-3.75H395.7v3.75Zm-52.57-4h3.22v-3.24a3.91,3.91,0,0,1,0-.49v-3.56a3.91,3.91,0,0,1,0-.49v-3.33h-3.22v11.11Zm3.5,0h3.22v-.05a3.67,3.67,0,0,1-2.46-1.08,3.86,3.86,0,0,1-.76-1.1v2.23Zm3.51,0h3.22v-2.23a3.86,3.86,0,0,1-.76,1.1,3.67,3.67,0,0,1-2.46,1.08v.05Zm3.5,0h3.22V180.35h-3.22v3.33a1.37,1.37,0,0,1,0,.19c0,.1,0,.2,0,.3v3.56c0,.11,0,.21,0,.31a1.1,1.1,0,0,1,0,.18v3.24Zm3.51,0h3.22v-3.24a3.91,3.91,0,0,1,0-.49v-3.56a4,4,0,0,1,0-.49v-3.33h-3.22v11.11Zm3.5,0h3.22v-.05a3.67,3.67,0,0,1-2.46-1.08,3.86,3.86,0,0,1-.76-1.1v2.23Zm3.51,0h3.22v-2.23a3.86,3.86,0,0,1-.76,1.1,3.67,3.67,0,0,1-2.46,1.08v.05Zm3.5,0h3.22V180.35h-3.22v3.33a1.11,1.11,0,0,1,0,.19c0,.1,0,.2,0,.3v3.56c0,.11,0,.21,0,.31a1.1,1.1,0,0,1,0,.18v3.24Zm3.51,0h3.22v-3.24a3.89,3.89,0,0,1,0-.49v-3.56a3.89,3.89,0,0,1,0-.49v-3.33h-3.22v11.11Zm3.5,0h3.22v-.05a3.7,3.7,0,0,1-3.22-2.18v2.23Zm3.5,0h3.23v-2.23a3.7,3.7,0,0,1-.77,1.1,3.65,3.65,0,0,1-2.46,1.08v.05Zm3.51,0h3.22V180.35h-3.22v3.33c0,.07,0,.13,0,.19s0,.2,0,.3v3.56c0,.11,0,.21,0,.31s0,.12,0,.18v3.24Zm3.5,0h3.23v-3.24a2.63,2.63,0,0,1,0-.49v-3.56a2.7,2.7,0,0,1,0-.49v-3.33h-3.23v11.11Zm3.51,0h3.22v-.05a3.65,3.65,0,0,1-2.46-1.08,3.5,3.5,0,0,1-.76-1.1v2.23Zm3.5,0h3.22v-2.23a3.5,3.5,0,0,1-.76,1.1,3.65,3.65,0,0,1-2.46,1.08v.05Zm3.51,0h3.22V180.35H395.7v3.33c0,.06,0,.12,0,.19s0,.2,0,.3v3.56c0,.11,0,.21,0,.31s0,.12,0,.18v3.24Zm-35.05-3.26a3.36,3.36,0,0,0,1,1.93,3.4,3.4,0,0,0,2.26,1V188.9L362,186.2l-1.33,1.9v.1Zm0-.6,1.16-1.65-1.16-1.65v3.3Zm0-3.79,1.33,1.9,1.89-2.71v-2.22a3.39,3.39,0,0,0-3.22,2.92v.11Zm0-1.13a3.91,3.91,0,0,1,.76-1.11,3.72,3.72,0,0,1,2.46-1.08v-.14h-3.22v2.33Zm3.22.82L362.15,186l1.72,2.46V183.5Zm.29,7.63a3.41,3.41,0,0,0,3.22-2.93v-.1l-1.33-1.9-1.89,2.7v2.23Zm0-2.72,1.72-2.46-1.72-2.45v4.91Zm0-5.41,1.89,2.71,1.33-1.9v-.11a3.39,3.39,0,0,0-3.22-2.92V183Zm0-2.51a3.72,3.72,0,0,1,2.46,1.08,3.91,3.91,0,0,1,.76,1.11v-2.33h-3.22v.14Zm3.22,3.81L366.22,186l1.16,1.65v-3.3Zm7.29,3.9a3.36,3.36,0,0,0,1,1.93,3.4,3.4,0,0,0,2.26,1V188.9L376,186.2l-1.33,1.9v.1Zm0-.6,1.16-1.65-1.16-1.65v3.3Zm0-3.79,1.33,1.9,1.89-2.71v-2.22a3.39,3.39,0,0,0-3.22,2.92v.11Zm0-1.13a3.68,3.68,0,0,1,3.22-2.19v-.14h-3.22v2.33Zm3.22.82L376.17,186l1.72,2.46V183.5Zm.28,7.63a3.36,3.36,0,0,0,2.26-1,3.43,3.43,0,0,0,1-1.93v-.1l-1.33-1.9-1.9,2.7v2.23Zm0-2.72L379.9,186l-1.73-2.45v4.91Zm0-5.41,1.9,2.71,1.33-1.9v-.11a3.43,3.43,0,0,0-1-1.93,3.35,3.35,0,0,0-2.26-1V183Zm0-2.51a3.7,3.7,0,0,1,2.46,1.08,3.74,3.74,0,0,1,.77,1.11v-2.33h-3.23v.14Zm3.23,3.81L380.24,186l1.16,1.65v-3.3Zm7.29,3.9a3.41,3.41,0,0,0,3.22,2.93V188.9L390,186.2l-1.33,1.9v.1Zm0-.6,1.16-1.65-1.16-1.65v3.3Zm0-3.79,1.33,1.9,1.89-2.71v-2.22a3.39,3.39,0,0,0-3.22,2.92v.11Zm0-1.13a3.54,3.54,0,0,1,.76-1.11,3.7,3.7,0,0,1,2.46-1.08v-.14h-3.22v2.33Zm3.22.82L390.19,186l1.72,2.46V183.5Zm.28,7.63a3.41,3.41,0,0,0,3.22-2.93v-.1l-1.32-1.9-1.9,2.7v2.23Zm0-2.72,1.72-2.46-1.72-2.46v4.92Zm0-5.41,1.9,2.71,1.32-1.9v-.11a3.39,3.39,0,0,0-3.22-2.92V183Zm0-2.51a3.65,3.65,0,0,1,2.46,1.08,3.54,3.54,0,0,1,.76,1.11v-2.33h-3.22v.14Zm3.22,3.81L394.26,186l1.15,1.65v-3.3Zm-48.78,3.9a3.48,3.48,0,0,0,1,1.93,3.4,3.4,0,0,0,2.26,1V188.9L348,186.2l-1.33,1.9v.1Zm0-.6,1.16-1.65-1.16-1.65v3.3Zm0-3.79,1.33,1.9,1.89-2.71v-2.22a3.39,3.39,0,0,0-2.26,1,3.48,3.48,0,0,0-1,1.93v.11Zm0-1.13a3.91,3.91,0,0,1,.76-1.11,3.67,3.67,0,0,1,2.46-1.08v-.14h-3.22v2.33Zm3.22.81L348.13,186l1.72,2.46v-4.92Zm.29,7.64a3.4,3.4,0,0,0,2.26-1,3.36,3.36,0,0,0,1-1.93v-.1L352,186.2l-1.89,2.7v2.23Zm0-2.72,1.72-2.46-1.72-2.45v4.91Zm0-5.41,1.89,2.71,1.33-1.9v-.11a3.39,3.39,0,0,0-3.22-2.92V183Zm0-2.51a3.72,3.72,0,0,1,2.46,1.08,3.91,3.91,0,0,1,.76,1.11v-2.33h-3.22v.14Zm3.22,3.81L352.2,186l1.16,1.65v-3.3Zm-10.23-4.23h3.22v-3.74h-3.22v3.74Zm3.5,0h3.22v-1a1.12,1.12,0,0,1-.19.24,1.63,1.63,0,0,1-1.16.48,1.66,1.66,0,0,1-.77-.19,1.73,1.73,0,0,1-.6-.54l.24-.16a1.33,1.33,0,0,0,.49.45,1.38,1.38,0,0,0,.64.16,1.35,1.35,0,0,0,1-.4,1.32,1.32,0,0,0,.39-.94v0a1.36,1.36,0,0,0-.39-.94,1.39,1.39,0,0,0-1-.39,1.27,1.27,0,0,0-.64.16,1.3,1.3,0,0,0-.49.44l-.24-.15a1.65,1.65,0,0,1,1.37-.74,1.68,1.68,0,0,1,1.16.48,2,2,0,0,1,.19.24v-.94h-3.22v3.74Zm3.51,0h3.22v-3.74h-3.22v.94l.19-.24a1.68,1.68,0,0,1,1.16-.48,1.59,1.59,0,0,1,.78.2,1.53,1.53,0,0,1,.59.54l-.24.15a1.3,1.3,0,0,0-.49-.44,1.24,1.24,0,0,0-.64-.16,1.39,1.39,0,0,0-1,.39,1.41,1.41,0,0,0-.39.93v.07a1.38,1.38,0,0,0,.39.92,1.36,1.36,0,0,0,1.6.24,1.33,1.33,0,0,0,.49-.45l.24.16a1.61,1.61,0,0,1-1.37.73,1.63,1.63,0,0,1-1.16-.48,1.55,1.55,0,0,1-.19-.24v1Zm3.5,0h3.22v-3.74h-3.22v3.74Zm3.51,0h3.22v-3.74h-3.22v3.74Zm3.5,0h3.22v-1a1.55,1.55,0,0,1-.19.24,1.63,1.63,0,0,1-1.16.48,1.61,1.61,0,0,1-1.37-.73l.24-.16a1.33,1.33,0,0,0,.49.45,1.36,1.36,0,0,0,1.6-.24,1.32,1.32,0,0,0,.39-.94v0a1.36,1.36,0,0,0-.39-.94,1.39,1.39,0,0,0-1-.39,1.24,1.24,0,0,0-.64.16,1.3,1.3,0,0,0-.49.44l-.24-.15a1.65,1.65,0,0,1,1.37-.74,1.68,1.68,0,0,1,1.16.48l.19.24v-.94h-3.22v3.74Zm3.51,0h3.22v-3.74h-3.22v.94a2,2,0,0,1,.19-.24,1.68,1.68,0,0,1,1.16-.48,1.65,1.65,0,0,1,1.37.74l-.24.15a1.3,1.3,0,0,0-.49-.44,1.27,1.27,0,0,0-.64-.16,1.39,1.39,0,0,0-1,.39,1.36,1.36,0,0,0-.39.94v0a1.32,1.32,0,0,0,.39.94,1.35,1.35,0,0,0,1,.4,1.38,1.38,0,0,0,.64-.16,1.33,1.33,0,0,0,.49-.45l.24.16a1.73,1.73,0,0,1-.6.54,1.66,1.66,0,0,1-.77.19,1.63,1.63,0,0,1-1.16-.48,1.12,1.12,0,0,1-.19-.24v1Zm3.5,0h3.22v-3.74h-3.22v3.74Zm3.51,0h3.22v-3.74h-3.22v3.74Zm3.5,0h3.22v-1a1.16,1.16,0,0,1-.2.24,1.59,1.59,0,0,1-1.15.48,1.61,1.61,0,0,1-1.37-.73l.24-.16a1.33,1.33,0,0,0,.49.45,1.35,1.35,0,0,0,.64.16,1.31,1.31,0,0,0,.95-.4,1.29,1.29,0,0,0,.4-.94v0a1.32,1.32,0,0,0-.4-.94,1.35,1.35,0,0,0-.95-.39,1.24,1.24,0,0,0-.64.16,1.3,1.3,0,0,0-.49.44l-.24-.15a1.53,1.53,0,0,1,.59-.54,1.59,1.59,0,0,1,.78-.2,1.63,1.63,0,0,1,1.15.48,2.12,2.12,0,0,1,.2.24v-.94h-3.22v3.74Zm3.5,0h3.23v-3.74h-3.23v.94l.2-.24a1.68,1.68,0,0,1,1.16-.48,1.69,1.69,0,0,1,1.37.74l-.24.15a1.3,1.3,0,0,0-.49-.44,1.27,1.27,0,0,0-.64-.16,1.39,1.39,0,0,0-1,.39,1.41,1.41,0,0,0-.4.94v0a1.37,1.37,0,0,0,.4.94,1.35,1.35,0,0,0,1,.4,1.38,1.38,0,0,0,.64-.16,1.33,1.33,0,0,0,.49-.45l.24.16a1.73,1.73,0,0,1-.6.54,1.66,1.66,0,0,1-.77.19,1.63,1.63,0,0,1-1.16-.48,1.59,1.59,0,0,1-.2-.24v1Zm3.51,0h3.22v-3.74h-3.22v3.74Zm3.5,0h3.23v-3.74h-3.23v3.74Zm3.51,0h3.22v-1a1.16,1.16,0,0,1-.2.24,1.6,1.6,0,0,1-1.16.48,1.61,1.61,0,0,1-1.36-.73l.23-.16a1.5,1.5,0,0,0,.49.45,1.38,1.38,0,0,0,.64.16,1.37,1.37,0,0,0,1.36-1.34v0a1.37,1.37,0,0,0-.4-.94,1.35,1.35,0,0,0-1-.39,1.27,1.27,0,0,0-.64.16,1.47,1.47,0,0,0-.49.44l-.23-.15a1.53,1.53,0,0,1,.59-.54,1.58,1.58,0,0,1,.77-.2,1.64,1.64,0,0,1,1.16.48,2.12,2.12,0,0,1,.2.24v-.94h-3.22v3.74Zm3.5,0h3.22v-3.74h-3.22v.94l.2-.24a1.68,1.68,0,0,1,1.16-.48,1.55,1.55,0,0,1,.77.2,1.46,1.46,0,0,1,.59.54l-.23.15a1.3,1.3,0,0,0-.49-.44,1.27,1.27,0,0,0-.64-.16,1.39,1.39,0,0,0-1,.39,1.41,1.41,0,0,0-.4.94v0a1.37,1.37,0,0,0,.4.94,1.35,1.35,0,0,0,1,.4,1.38,1.38,0,0,0,.64-.16,1.33,1.33,0,0,0,.49-.45l.23.16a1.62,1.62,0,0,1-.59.54,1.66,1.66,0,0,1-.77.19,1.63,1.63,0,0,1-1.16-.48,1.59,1.59,0,0,1-.2-.24v1Zm3.51,0h3.22v-3.74H395.7v3.74Zm-42.06-4h3.22V158.18l-3.22-.59v18.46Zm10.52-20a1.44,1.44,0,0,0,.81-.39,1.35,1.35,0,0,0,0-1.9,1.44,1.44,0,0,0-.81-.39V156Zm-.29-2.68a1.44,1.44,0,0,0-.81.39,1.35,1.35,0,0,0,0,1.9,1.44,1.44,0,0,0,.81.39v-2.68Zm1.3,2.49a1.64,1.64,0,0,1-1,.47v.28l3.22-.6v-4l-3.22.6v.5a1.64,1.64,0,0,1,1,.47,1.64,1.64,0,0,1,0,2.3Zm-1.3.47a1.64,1.64,0,0,1-1-.47,1.64,1.64,0,0,1,0-2.3,1.64,1.64,0,0,1,1-.47v-.45l-3.22.6v4l3.22-.6v-.33Zm14.3-.28a1.38,1.38,0,0,0,.81-.39,1.33,1.33,0,0,0,0-1.9,1.38,1.38,0,0,0-.81-.39V156Zm-.28-2.68a1.41,1.41,0,0,0-.81.39,1.35,1.35,0,0,0,0,1.9,1.41,1.41,0,0,0,.81.39v-2.68Zm1.29,2.49a1.6,1.6,0,0,1-1,.47v.32l3.23.59v-4l-3.23-.59v.47a1.62,1.62,0,0,1,1,2.77Zm-1.29.47a1.64,1.64,0,0,1-1-.47,1.63,1.63,0,0,1,1-2.77v-.52l-3.22-.59v4l3.22.58v-.26Zm14.3-.28a1.38,1.38,0,0,0,.81-.39,1.33,1.33,0,0,0,0-1.9,1.38,1.38,0,0,0-.81-.39V156Zm-.28-2.68a1.41,1.41,0,0,0-.81.39,1.35,1.35,0,0,0,0,1.9,1.41,1.41,0,0,0,.81.39v-2.68Zm1.29,2.49a1.6,1.6,0,0,1-1,.47v.24l3.22-.58v-4l-3.22.58v.54a1.62,1.62,0,0,1,1,2.77Zm-1.29.47a1.63,1.63,0,0,1,0-3.24v-.49l-3.22.58v4l3.22-.58v-.29ZM350.14,156a1.44,1.44,0,0,0,.81-.39,1.35,1.35,0,0,0,0-1.9,1.41,1.41,0,0,0-.81-.39V156Zm-.29-2.68a1.38,1.38,0,0,0-.8.39,1.31,1.31,0,0,0-.4.95,1.35,1.35,0,0,0,.39,1,1.44,1.44,0,0,0,.81.39v-2.68Zm1.3,2.49a1.64,1.64,0,0,1-1,.47v.33l3.22.6v-4l-3.22-.6v.45a1.64,1.64,0,0,1,1,.47,1.64,1.64,0,0,1,0,2.3Zm-1.3.47a1.63,1.63,0,0,1-1.48-1.62,1.62,1.62,0,0,1,.47-1.15,1.64,1.64,0,0,1,1-.47v-.5l-3.22-.6v4l3.22.6v-.28Zm3.82-8.14c0,.1,0,.2,0,.3a1.1,1.1,0,0,1,0,.18V153l3.22.6V139.41h-3.22v4.72a1.1,1.1,0,0,1,0,.18c0,.1,0,.2,0,.3v3.57Zm-.31,1.49a4.05,4.05,0,0,1-.76,1.11,3.67,3.67,0,0,1-2.46,1.07v.49l3.22.6v-3.27Zm-3.51,2.18a3.67,3.67,0,0,1-2.46-1.07,3.91,3.91,0,0,1-.76-1.11v2l3.22.6v-.44Zm-3.5-3.18a4,4,0,0,1,0-.49v-3.57a4,4,0,0,1,0-.49v-4.71h-3.22v11.64l3.22.59v-3Zm.28-5.55a3.91,3.91,0,0,1,.76-1.11,3.67,3.67,0,0,1,2.46-1.07v-1.53h-3.22v3.71Zm3.51-2.18A3.67,3.67,0,0,1,352.6,142a4.05,4.05,0,0,1,.76,1.11v-3.71h-3.22v1.53Zm17.55,7.24c0,.1,0,.2,0,.3a1.37,1.37,0,0,1,0,.19v3l3.22-.6V139.41h-3.22v4.72a1.1,1.1,0,0,1,0,.18c0,.1,0,.2,0,.3v3.57Zm-.31,1.49a4.05,4.05,0,0,1-.76,1.11,3.67,3.67,0,0,1-2.46,1.07v.44l3.22-.6v-2Zm-3.51,2.18a3.67,3.67,0,0,1-2.46-1.07,3.91,3.91,0,0,1-.76-1.11v3.27l3.22-.6v-.49Zm-3.5-3.19a3.87,3.87,0,0,1,0-.48v-3.57a3.87,3.87,0,0,1,0-.48v-4.72h-3.22v14.18l3.22-.6v-4.33Zm.28-5.54a3.91,3.91,0,0,1,.76-1.11,3.67,3.67,0,0,1,2.46-1.07v-1.53h-3.22v3.71Zm3.51-2.18a3.67,3.67,0,0,1,2.46,1.07,4.05,4.05,0,0,1,.76,1.11v-3.71h-3.22v1.53Zm2.26,9.64a3.42,3.42,0,0,0,1-1.93v-.11l-1.33-1.9-1.89,2.7v2.23a3.44,3.44,0,0,0,2.26-1Zm-2.55-1.24-1.89-2.7-1.33,1.9v.1a3.38,3.38,0,0,0,1,1.94,3.44,3.44,0,0,0,2.26,1v-2.23Zm-3.22-1.29,1.16-1.65-1.16-1.66v3.31Zm1-5.84a3.38,3.38,0,0,0-1,1.94v.1l1.33,1.9,1.89-2.7v-2.23a3.44,3.44,0,0,0-2.26,1Zm2.55,1.24,1.89,2.7,1.33-1.9v-.11a3.39,3.39,0,0,0-3.22-2.92v2.23Zm3.22,1.29-1.16,1.66,1.16,1.65v-3.31Zm-5.23,1.66,1.72,2.45v-4.91l-1.72,2.46Zm2,2.45,1.72-2.45-1.72-2.46v4.91Zm17.55-.67c0,.1,0,.2,0,.3s0,.12,0,.18V153l3.22.59V139.41h-3.22v4.72c0,.06,0,.12,0,.18s0,.2,0,.3v3.57Zm-.31,1.49a3.88,3.88,0,0,1-.77,1.11,3.65,3.65,0,0,1-2.46,1.07v.48l3.23.59v-3.25Zm-3.51,2.18a3.67,3.67,0,0,1-2.46-1.07,3.71,3.71,0,0,1-.76-1.11v2l3.22.59v-.43Zm-3.5-3.18a4,4,0,0,1,0-.49v-3.57a4,4,0,0,1,0-.49v-4.71h-3.22V151l3.22.59v-3Zm.28-5.55a3.71,3.71,0,0,1,.76-1.11,3.67,3.67,0,0,1,2.46-1.07v-1.53h-3.22v3.71Zm3.5-2.18a3.65,3.65,0,0,1,2.46,1.07,3.88,3.88,0,0,1,.77,1.11v-3.71h-3.23v1.53Zm2.26,9.64a3.46,3.46,0,0,0,1-1.94v-.1l-1.33-1.9-1.9,2.7v2.23a3.39,3.39,0,0,0,2.26-1Zm-2.54-1.24-1.89-2.7-1.33,1.9v.11a3.36,3.36,0,0,0,1,1.93,3.44,3.44,0,0,0,2.26,1v-2.23Zm-3.22-1.29,1.16-1.65-1.16-1.66v3.31Zm1-5.84a3.38,3.38,0,0,0-1,1.94v.1l1.33,1.9,1.89-2.7v-2.23a3.44,3.44,0,0,0-2.26,1Zm2.54,1.24,1.9,2.7,1.33-1.9v-.1a3.46,3.46,0,0,0-1-1.94,3.39,3.39,0,0,0-2.26-1v2.23Zm3.23,1.29-1.16,1.66,1.16,1.65v-3.31Zm-5.23,1.66,1.72,2.45v-4.91l-1.72,2.46Zm2,2.45,1.73-2.45-1.73-2.46v4.91Zm17.56-.67c0,.1,0,.2,0,.3s0,.12,0,.19v3l3.22-.58V139.41H395.7v4.72c0,.06,0,.12,0,.18s0,.2,0,.3v3.57Zm-.32,1.49a3.66,3.66,0,0,1-3.22,2.18v.4l3.22-.58v-2Zm-3.5,2.18a3.65,3.65,0,0,1-2.46-1.07,3.54,3.54,0,0,1-.76-1.11v3.22l3.22-.59v-.45Zm-3.5-3.19a2.59,2.59,0,0,1,0-.48v-3.57a2.59,2.59,0,0,1,0-.48v-4.72h-3.23v14.11l3.23-.58v-4.28Zm.28-5.54a3.54,3.54,0,0,1,.76-1.11,3.65,3.65,0,0,1,2.46-1.07v-1.53h-3.22v3.71Zm3.5-2.18a3.66,3.66,0,0,1,3.22,2.18v-3.71h-3.22v1.53Zm2.26,9.64a3.36,3.36,0,0,0,1-1.93v-.11l-1.32-1.9-1.9,2.7v2.23a3.41,3.41,0,0,0,2.26-1Zm-2.54-1.24-1.89-2.7-1.33,1.9v.1a3.39,3.39,0,0,0,3.22,2.93v-2.23Zm-3.22-1.29,1.16-1.65-1.16-1.66v3.31Zm1-5.84a3.38,3.38,0,0,0-1,1.94v.1l1.33,1.9,1.89-2.7v-2.23a3.41,3.41,0,0,0-2.26,1Zm2.54,1.24,1.9,2.7,1.32-1.9v-.11a3.36,3.36,0,0,0-1-1.93,3.41,3.41,0,0,0-2.26-1v2.23Zm3.22,1.29-1.15,1.66,1.15,1.65v-3.31Zm-5.22,1.66,1.72,2.45v-4.91l-1.72,2.46Zm2,2.45,1.72-2.45-1.72-2.46v4.91Zm-39.79,1.73a3.38,3.38,0,0,0,1-1.94v-.1l-1.33-1.9-1.89,2.7v2.23a3.44,3.44,0,0,0,2.26-1Zm-2.55-1.24-1.89-2.7-1.33,1.9v.11a3.48,3.48,0,0,0,1,1.93,3.44,3.44,0,0,0,2.26,1v-2.23Zm-3.22-1.29,1.16-1.65-1.16-1.66v3.31Zm1-5.84a3.51,3.51,0,0,0-1,1.94v.1l1.33,1.9,1.89-2.7v-2.23a3.44,3.44,0,0,0-2.26,1Zm2.55,1.24,1.89,2.7,1.33-1.9v-.1a3.38,3.38,0,0,0-1-1.94,3.44,3.44,0,0,0-2.26-1v2.23Zm3.22,1.29-1.16,1.66,1.16,1.65v-3.31Zm-5.23,1.66,1.72,2.45v-4.91l-1.72,2.46Zm2,2.45,1.72-2.45-1.72-2.46v4.91Zm48.78,6.49v-4l-3.22.59v4l3.22-.58Zm-10.51-2.11-3.23.58v4l3.23-.58v-4Zm-3.51.61-3.22-.58v4l3.22.59v-4Zm-10.51-1.92-3.22-.59v4l3.22.59v-4Zm-3.51-.59-3.22.6v4l3.22-.6v-4Zm-10.51,1.95-3.22.59v4l3.22-.6v-4Zm-3.51.59-3.22-.59v4l3.22.6v-4Zm-10.51-1.94-3.22-.6v4l3.22.6v-4ZM23.71,256v9.21a12.75,12.75,0,0,0-3.45-2.82,7.86,7.86,0,0,0-3.69-.9,7.58,7.58,0,0,0-5.88,2.48,9.25,9.25,0,0,0-2.25,6.47,8.66,8.66,0,0,0,2.29,6.17A7.67,7.67,0,0,0,16.57,279a7.86,7.86,0,0,0,3.69-.9,12.39,12.39,0,0,0,3.45-2.82v9.21a20.35,20.35,0,0,1-4,1.47,17,17,0,0,1-4,.48,17.33,17.33,0,0,1-4.68-.6A13.2,13.2,0,0,1,7.1,284a15.56,15.56,0,0,1-5.28-5.85A17.14,17.14,0,0,1,0,270.23a17.34,17.34,0,0,1,1.15-6.45,15.93,15.93,0,0,1,3.47-5.27,14.51,14.51,0,0,1,5-3.38A16.09,16.09,0,0,1,15.71,254a17,17,0,0,1,4,.48,20.35,20.35,0,0,1,4,1.47Zm38.82,29.72V254.74h8.52v30.94Zm50.53-10a15.11,15.11,0,0,0,3.71,3.18,7.27,7.27,0,0,0,3.64,1.06,4.2,4.2,0,0,0,2.77-.91,2.86,2.86,0,0,0,1.09-2.3,3,3,0,0,0-.93-2.37,11.76,11.76,0,0,0-4.25-1.73c-3-.81-5.18-1.88-6.43-3.19a7.43,7.43,0,0,1-1.89-5.38,9.48,9.48,0,0,1,3-7.24,10.78,10.78,0,0,1,7.71-2.8,17.07,17.07,0,0,1,4.85.68,16.13,16.13,0,0,1,4.35,2.09L128,262.84a11.11,11.11,0,0,0-3-1.85,7.8,7.8,0,0,0-3-.62,3.94,3.94,0,0,0-2.47.73,2.26,2.26,0,0,0-.95,1.87,2.3,2.3,0,0,0,.83,1.86,9.07,9.07,0,0,0,3.21,1.32l.39.11q5.16,1.39,6.78,3.07a7.52,7.52,0,0,1,1.68,2.73,10.47,10.47,0,0,1,.57,3.54,10.25,10.25,0,0,1-3.24,7.91,12.16,12.16,0,0,1-8.62,3,15.3,15.3,0,0,1-5.89-1.09,16.61,16.61,0,0,1-5.1-3.45l3.8-6.27Zm85.86-1.39v-6.49h16.57c0,.21,0,.45,0,.7v1.12q0,8-4.21,12.38t-11.87,4.41a18.49,18.49,0,0,1-6.68-1.13,14.75,14.75,0,0,1-5.23-3.46,15.8,15.8,0,0,1-3.42-5.25,17.5,17.5,0,0,1,0-12.71,15.69,15.69,0,0,1,8.87-8.66,18,18,0,0,1,6.49-1.16,17.31,17.31,0,0,1,8,1.8,15.77,15.77,0,0,1,5.89,5.34l-7.31,3.51a8.88,8.88,0,0,0-2.95-2.67,7.63,7.63,0,0,0-3.67-.88,7.47,7.47,0,0,0-6,2.52,12.09,12.09,0,0,0,0,13.85,7.46,7.46,0,0,0,6,2.54,8.83,8.83,0,0,0,5.35-1.57,6,6,0,0,0,2.51-4.19Zm55.43-19.56h8.39v15.05a46.94,46.94,0,0,0,.17,4.76,9.06,9.06,0,0,0,.57,2.43,3.54,3.54,0,0,0,1.69,1.81,7.23,7.23,0,0,0,5.86,0,3.6,3.6,0,0,0,1.7-1.81,9.06,9.06,0,0,0,.57-2.43,46.94,46.94,0,0,0,.17-4.76V254.74h8.4V271.1a33.13,33.13,0,0,1-.62,7.51,10.11,10.11,0,0,1-2.07,4.14,9.53,9.53,0,0,1-4.35,2.82,24.74,24.74,0,0,1-13.44,0,9.73,9.73,0,0,1-4.36-2.82,10.34,10.34,0,0,1-2.06-4.14,32.55,32.55,0,0,1-.62-7.51V254.74Zm75.18,19.39h8.39l-3.15-10.21c-.1-.31-.23-.81-.4-1.5l-.66-2.66c-.18.75-.36,1.48-.54,2.17s-.35,1.35-.53,2l-3.11,10.21Zm-11.82,11.55,10.68-30.94H339l10.69,30.94h-8.39l-1.57-5.54h-12l-1.6,5.54Zm68.73,0V254.74h8.13l11.7,15.91c.22.33.59,1,1.1,2s1.08,2.15,1.7,3.5q-.24-1.92-.36-3.42c-.08-1-.12-1.89-.12-2.66V254.74h8.09v30.94h-8.09l-11.69-16a17.81,17.81,0,0,1-1.13-2c-.52-1-1.08-2.13-1.68-3.46.16,1.3.29,2.45.37,3.45s.11,1.89.11,2.66v15.28Zm78.89-11.55h8.39l-3.15-10.21c-.1-.31-.24-.81-.4-1.5l-.66-2.66c-.18.75-.36,1.48-.54,2.17s-.35,1.35-.53,2l-3.11,10.21Zm-11.82,11.55,10.68-30.94h10.57l10.68,30.94h-8.38l-1.57-5.54h-12l-1.61,5.54Zm76.56-18.56h1.68a9.19,9.19,0,0,0,4.29-.69,2.53,2.53,0,0,0,1.17-2.38,2.69,2.69,0,0,0-1.09-2.45,8.61,8.61,0,0,0-4.24-.71h-1.81v6.23Zm-7.84,18.56V254.74h8.49a53.92,53.92,0,0,1,7.32.34,11.42,11.42,0,0,1,3.58,1.16,6.67,6.67,0,0,1,2.61,2.55,7.38,7.38,0,0,1,.89,3.69,6.19,6.19,0,0,1-1.34,4.2A8.5,8.5,0,0,1,539.5,269a7.36,7.36,0,0,1,5.15,2.31,7.89,7.89,0,0,1,1.86,5.51,8.74,8.74,0,0,1-1,4.34,7.17,7.17,0,0,1-3,2.92,12.44,12.44,0,0,1-3.9,1.2,56,56,0,0,1-7.6.36Zm7.84-6.31H533a8.69,8.69,0,0,0,4.24-.76,2.69,2.69,0,0,0,1.24-2.5,3.05,3.05,0,0,0-1.14-2.72,8,8,0,0,0-4.21-.78h-3.08v6.76Zm63.54-5.24H602l-3.15-10.21c-.09-.31-.23-.81-.4-1.5s-.38-1.58-.65-2.66c-.18.75-.36,1.48-.54,2.17s-.36,1.35-.54,2l-3.1,10.21Zm-11.82,11.55,10.68-30.94H603l10.69,30.94h-8.39l-1.56-5.54h-12l-1.61,5.54Zm68.72,0V254.74h8.83a36.41,36.41,0,0,1,7.21.48,9.46,9.46,0,0,1,3.52,1.59,8.49,8.49,0,0,1,2.57,3.23,10.49,10.49,0,0,1,.89,4.34,9.17,9.17,0,0,1-1.77,5.84,8.62,8.62,0,0,1-5.15,3L675,285.68h-9.51l-7.1-12.11v12.11Zm7.92-16.31H660a6.77,6.77,0,0,0,4-.93,3.4,3.4,0,0,0,1.25-2.91,4.11,4.11,0,0,0-1.17-3.31,6.11,6.11,0,0,0-3.93-1h-1.69v8.14Zm61.85,4.76h8.39l-3.15-10.21c-.1-.31-.23-.81-.4-1.5l-.66-2.66c-.18.75-.36,1.48-.54,2.17s-.35,1.35-.53,2l-3.11,10.21Zm-11.82,11.55,10.68-30.94h10.57l10.68,30.94H732l-1.57-5.54h-12l-1.61,5.54ZM236.14,135.33h1V144h5.31v-8.62h1.29V124.4h-1.31a24.06,24.06,0,0,0-19.54-19.7v-3.42h-8.62v3.48A24,24,0,0,0,195,124.4H193.7v10.93H195v8.56h5.31v-8.56h1V189.8h-3.59v4h42.05v-4h-3.6V135.33Zm-1.41,26.06v-5h-32v5Zm0,6.39v-5h-32v5Zm-32,1.42v5h32v-5Zm32,12.17v-5.72h-32v5.72Zm-32,1.42v5h32v-5Zm32-41.38v-5h-32v5Zm0-6.45v-5h-32v5ZM218.15,123.1v-5.85a10.09,10.09,0,0,0-4.68,1.45,10.24,10.24,0,0,1,2.4,2,8.81,8.81,0,0,1,1.45,2.65,4.68,4.68,0,0,1,.84-.2Zm1.13-5.85,0,5.85a4.75,4.75,0,0,1,.63.14,8.64,8.64,0,0,1,1.49-2.72,8.13,8.13,0,0,1,1.51-1.33c.28-.2.58-.4.88-.59a10.15,10.15,0,0,0-4.53-1.35Zm-7.39-4.91a16.4,16.4,0,0,0-4.71,3.3,15.25,15.25,0,0,0-1.08,1.19c.32.2.63.4.92.61a8.49,8.49,0,0,1,1.44,1.27,6.8,6.8,0,0,1,1,1.51c.07.15.14.3.2.45a10.87,10.87,0,0,1,1.08-1.26,11.29,11.29,0,0,1,4.83-2.87,8.09,8.09,0,0,0-1.25-2.32,10.38,10.38,0,0,0-2.4-1.88Zm6.23-1.48a16.16,16.16,0,0,0-4.94,1,9.52,9.52,0,0,1,2,1.67,9.15,9.15,0,0,1,1.5,2.8,10.17,10.17,0,0,1,1.47-.17v-5.25Zm5.73.81a16.18,16.18,0,0,0-4.58-.81v5.24c.41,0,.82.07,1.22.13.15-.44.31-.87.5-1.29a7.34,7.34,0,0,1,1-1.61,9.43,9.43,0,0,1,1.88-1.66Zm7.23,4.86c-.31-.35-.63-.7-1-1a16.41,16.41,0,0,0-5-3.34,10.44,10.44,0,0,0-2.3,1.88,5.89,5.89,0,0,0-.81,1.36c-.16.35-.29.7-.42,1.06a11.35,11.35,0,0,1,5,2.85,12.1,12.1,0,0,1,1,1.14c.07-.17.14-.34.22-.51a6.64,6.64,0,0,1,.94-1.53,11.3,11.3,0,0,1,2.28-1.89Zm-27.78,10c0-.14-.06-.27-.1-.4a3.07,3.07,0,0,0-.3-.8,2.42,2.42,0,0,0-.32-.49c-.07.55-.12,1.11-.14,1.68Zm4.14,0a11.16,11.16,0,0,1,1.42-4.74c-.14-.4-.3-.78-.46-1.13a5.87,5.87,0,0,0-.81-1.26,7.39,7.39,0,0,0-1.24-1.08c-.3-.22-.62-.43-.95-.63a16.32,16.32,0,0,0-2.56,5.71c.14.15.28.29.41.45a4.4,4.4,0,0,1,.67.93,4.91,4.91,0,0,1,.39,1q.09.35.15.69Zm1.71,0a2.48,2.48,0,0,0-.2-.5,2.94,2.94,0,0,0-.26-.39c-.05.29-.08.59-.11.89Zm5.31,0a4.31,4.31,0,0,1,1.19-2.27,3.8,3.8,0,0,1,.62-.52,7.94,7.94,0,0,0-1.28-2.43,11.21,11.21,0,0,0-2.56-2,9.94,9.94,0,0,0-.91.81,10.19,10.19,0,0,0-2.5,4.13,5.19,5.19,0,0,1,.94,1.2,4.11,4.11,0,0,1,.37,1Zm3.7,0v-2.36a3.21,3.21,0,0,0-1.7.88,3.15,3.15,0,0,0-.83,1.48Zm3.64,0a3.18,3.18,0,0,0-2.5-2.38v2.37Zm5.32,0c0-.08,0-.17.07-.27a5,5,0,0,1,.31-.83,8.34,8.34,0,0,1,.88-1.31,10.27,10.27,0,0,0-2.55-4.1,9.86,9.86,0,0,0-1-.84c-.43.27-.86.54-1.26.82a7.39,7.39,0,0,0-1.31,1.15,7.79,7.79,0,0,0-1.3,2.43,4.37,4.37,0,0,1,2,2.94Zm1.73,0a7.47,7.47,0,0,0-.12-1l-.2.35a4.08,4.08,0,0,0-.23.6Zm3.92,0a6.39,6.39,0,0,1,.51-1.53,11.68,11.68,0,0,1,1.26-1.85,16.2,16.2,0,0,0-2.75-5.86,10.07,10.07,0,0,0-2.11,1.73,5.56,5.56,0,0,0-.78,1.27c-.17.38-.32.78-.47,1.19a11.26,11.26,0,0,1,1.57,5Zm2.22,0a16.62,16.62,0,0,0-.16-1.88,8.29,8.29,0,0,0-.53.85,5.14,5.14,0,0,0-.35,1Zm-.26,28.25v-5.72h-32v5.72Zm0-7.13v-5h-32v5Zm64.91,0v-5h-32v5Zm1.42-12.47h1V144h5.31v-8.62h1.29V124.4h-1.31a24.07,24.07,0,0,0-19.53-19.7v-3.42h-8.63v3.48a24,24,0,0,0-19.24,19.64h-1.32v10.93h1.29v8.56h5.31v-8.56h1V189.8h-3.6v4h42v-4h-3.59V135.33Zm-1.42,26.06v-5h-32v5Zm0,6.39v-5h-32v5Zm-32,1.42v5h32v-5Zm32,12.17v-5.72h-32v5.72Zm-32,1.42v5h32v-5Zm32-41.38v-5h-32v5Zm0-6.45v-5h-32v5ZM283.07,123.1l0-5.85a10.09,10.09,0,0,0-4.68,1.45,10.3,10.3,0,0,1,2.41,2,9,9,0,0,1,1.44,2.65,4.59,4.59,0,0,1,.85-.2Zm1.13-5.85v5.85a4.13,4.13,0,0,1,.63.14,7.4,7.4,0,0,1,3-4c.29-.2.58-.4.88-.59a10.11,10.11,0,0,0-4.52-1.35Zm-7.4-4.91a16.54,16.54,0,0,0-4.71,3.3c-.37.38-.73.77-1.07,1.19.31.2.62.4.91.61a8.49,8.49,0,0,1,1.44,1.27,6.46,6.46,0,0,1,1,1.51c.07.15.14.3.2.45a10.87,10.87,0,0,1,1.08-1.26,11.35,11.35,0,0,1,4.83-2.87,8.09,8.09,0,0,0-1.25-2.32,10.38,10.38,0,0,0-2.4-1.88Zm6.23-1.48a16.16,16.16,0,0,0-4.93,1,9.78,9.78,0,0,1,2,1.67,9.37,9.37,0,0,1,1.5,2.8,10.17,10.17,0,0,1,1.47-.17l0-5.25Zm5.73.81a16.18,16.18,0,0,0-4.58-.81v5.24c.41,0,.82.07,1.22.13.15-.44.31-.87.5-1.29a7,7,0,0,1,1-1.61,9.37,9.37,0,0,1,1.87-1.66Zm7.23,4.86c-.31-.35-.63-.7-1-1a16.17,16.17,0,0,0-5-3.34,10.44,10.44,0,0,0-2.3,1.88,6.69,6.69,0,0,0-.81,1.36c-.16.35-.29.7-.42,1.06a11.44,11.44,0,0,1,5,2.85,13.7,13.7,0,0,1,1,1.14c.06-.17.14-.34.21-.51a6.69,6.69,0,0,1,1-1.53,11,11,0,0,1,2.27-1.89Zm-27.78,10-.09-.4a4,4,0,0,0-.3-.8,3.74,3.74,0,0,0-.32-.49,15.42,15.42,0,0,0-.15,1.68Zm4.14,0a11,11,0,0,1,1.43-4.74c-.15-.4-.3-.78-.47-1.13a5.82,5.82,0,0,0-.8-1.26,7.48,7.48,0,0,0-1.25-1.08c-.3-.22-.62-.43-.94-.63a16.14,16.14,0,0,0-2.56,5.71l.41.45a4.74,4.74,0,0,1,.66.93,4.94,4.94,0,0,1,.4,1c.06.23.1.46.15.69Zm1.71,0a2,2,0,0,0-.2-.5,2.84,2.84,0,0,0-.25-.39,8.65,8.65,0,0,0-.11.89Zm5.31,0a4.31,4.31,0,0,1,1.19-2.27,3.87,3.87,0,0,1,.63-.52,8.18,8.18,0,0,0-1.29-2.43,11,11,0,0,0-2.56-2,9.94,9.94,0,0,0-.91.81,10.19,10.19,0,0,0-2.5,4.13,5.19,5.19,0,0,1,.94,1.2,4.56,4.56,0,0,1,.38,1Zm3.71,0v-2.36a3.18,3.18,0,0,0-1.69.88,3.26,3.26,0,0,0-.84,1.48Zm3.64,0a3.22,3.22,0,0,0-.87-1.52,3.18,3.18,0,0,0-1.64-.86v2.37Zm5.31,0a1.76,1.76,0,0,0,.07-.27,5,5,0,0,1,.32-.83,7.62,7.62,0,0,1,.87-1.31,10.16,10.16,0,0,0-2.55-4.1,9.74,9.74,0,0,0-1-.84c-.44.27-.87.54-1.26.82a7.39,7.39,0,0,0-1.31,1.15,8,8,0,0,0-1.31,2.43,4.43,4.43,0,0,1,.77.6,4.33,4.33,0,0,1,1.23,2.34Zm1.73,0c0-.32-.06-.64-.11-1-.08.12-.15.24-.21.35a3.13,3.13,0,0,0-.22.6Zm3.92,0a6.39,6.39,0,0,1,.51-1.53,12.39,12.39,0,0,1,1.26-1.85,16.18,16.18,0,0,0-2.74-5.86,9.58,9.58,0,0,0-2.11,1.73,5.61,5.61,0,0,0-.79,1.27c-.17.38-.32.78-.46,1.19a11.25,11.25,0,0,1,1.56,5Zm2.23,0c0-.64-.08-1.26-.16-1.88a6.85,6.85,0,0,0-.53.85,4.61,4.61,0,0,0-.36,1Zm-.27,28.25v-5.72h-32v5.72Zm72-49.22.06,9.26a18.16,18.16,0,0,1,2.35.24c.25-.67.52-1.34.83-2a11.26,11.26,0,0,1,1.59-2.52,17.36,17.36,0,0,1,4.12-3.25,26.63,26.63,0,0,0-9-1.75Zm-3.81,9.54a16.53,16.53,0,0,1,2.46-.27l-.06-9.27a26.76,26.76,0,0,0-8.89,1.79,17.08,17.08,0,0,1,4,3.21,11.26,11.26,0,0,1,1.59,2.52c.31.65.59,1.33.85,2Zm-11.44,7.24a19,19,0,0,1,1.83-2.18,18.12,18.12,0,0,1,8.21-4.76c-.22-.58-.46-1.15-.73-1.71a9.75,9.75,0,0,0-1.38-2.21,19.42,19.42,0,0,0-4.57-3.45,27,27,0,0,0-7.92,5.61c-.61.62-1.19,1.27-1.73,1.94.71.44,1.41.88,2.1,1.37a12.24,12.24,0,0,1,2.18,1.9,11.59,11.59,0,0,1,2,3.49Zm12.06,4.22a6.52,6.52,0,0,1,1.92-.48l-.07-9.84a16.5,16.5,0,0,0-7.54,2.19,18.06,18.06,0,0,1,3.93,3.87,11.6,11.6,0,0,1,1.29,2.68c.17.52.33,1.05.47,1.58Zm17.1-4.39c.14-.36.29-.71.46-1.06a10.06,10.06,0,0,1,1.47-2.26,12.24,12.24,0,0,1,2.18-1.9c.73-.52,1.48-1,2.23-1.45a26.74,26.74,0,0,0-9.72-7.53v0a19.71,19.71,0,0,0-4.64,3.49,10.15,10.15,0,0,0-1.39,2.21c-.25.54-.48,1.1-.7,1.67a17.92,17.92,0,0,1,8.12,4.54,18.62,18.62,0,0,1,2,2.27Zm-12.12,4.32a13.49,13.49,0,0,1,1.74-4.19,13.25,13.25,0,0,1,2.07-2.32c.62-.56,1.27-1.09,1.94-1.62a16.44,16.44,0,0,0-7.47-2.12l.07,9.85a6.42,6.42,0,0,1,1.65.4Zm22.39,5.28H398a27.69,27.69,0,0,0-.32-3.31,7.74,7.74,0,0,0-1.29,1.64,6.72,6.72,0,0,0-.58,1.67Zm-6.82,0h5.37a8.83,8.83,0,0,1,.78-2.34,11.58,11.58,0,0,1,2.16-2.59h0l.09.09a27.15,27.15,0,0,0-4.63-10.3c-.8.49-1.6,1-2.29,1.47a11.55,11.55,0,0,0-1.94,1.68,8.78,8.78,0,0,0-1.26,1.95c-.29.6-.54,1.24-.78,1.88a17.83,17.83,0,0,1,2.5,8.16Zm-3.38,0h2a16.83,16.83,0,0,0-.36-2.59l-.29.31a7,7,0,0,0-.9,1.18,5.12,5.12,0,0,0-.41,1.1Zm-7.92,0h6.47a7,7,0,0,1,.62-1.77,8,8,0,0,1,1.09-1.45c.29-.34.61-.67.9-.95a16.65,16.65,0,0,0-6.33-8.44c-.78.62-1.56,1.23-2.26,1.87a12,12,0,0,0-1.84,2,13.11,13.11,0,0,0-1.63,4.07,6,6,0,0,1,1,.81,6.7,6.7,0,0,1,2,3.81Zm-5.88,0h4.44a5.31,5.31,0,0,0-1.51-2.8,5.37,5.37,0,0,0-3-1.46l0,4.26Zm-6,0h4.62l0-4.27a5.33,5.33,0,0,0-3.15,1.54,5.44,5.44,0,0,0-1.44,2.73Zm-8.1,0h6.67a6.72,6.72,0,0,1,1.87-3.72,6,6,0,0,1,.94-.79c-.16-.62-.33-1.23-.53-1.82a10.06,10.06,0,0,0-1.13-2.36,19,19,0,0,0-4-3.85,17.33,17.33,0,0,0-2.27,1.92,16.74,16.74,0,0,0-4,6.64h0c.33.33.66.66,1,1a6.27,6.27,0,0,1,.86,1.2,6.66,6.66,0,0,1,.62,1.77Zm-3.22,0h1.77a5.12,5.12,0,0,0-.41-1.1,5.46,5.46,0,0,0-.68-.94c-.11-.12-.22-.25-.35-.37a18.65,18.65,0,0,0-.33,2.41Zm-7,0h5.57a18,18,0,0,1,2.38-8,12.75,12.75,0,0,0-2.12-4,11.55,11.55,0,0,0-1.94-1.68c-.65-.46-1.4-.93-2.15-1.39a27.27,27.27,0,0,0-4.58,10.23,10.85,10.85,0,0,1,2.06,2.49,8.83,8.83,0,0,1,.78,2.34Zm-3.44,0h2a6.72,6.72,0,0,0-.58-1.67,6.54,6.54,0,0,0-1.12-1.46,29.11,29.11,0,0,0-.29,3.13ZM289,223v6.82H455.19V223Zm-20.35,8.24v6.11H475.53v-6.11Zm-13,7.53v5.95H488.53v-5.95ZM13.45,309.66a7.26,7.26,0,0,0-1.72-1.15,4.34,4.34,0,0,0-1.74-.36,3.71,3.71,0,0,0-2.9,1.2A4.77,4.77,0,0,0,6,312.62a4.43,4.43,0,0,0,1.12,3.18,3.92,3.92,0,0,0,3,1.19,4.29,4.29,0,0,0,1.75-.37,5.1,5.1,0,0,0,1.56-1.15v5.31a9.5,9.5,0,0,1-2.2.91A9.06,9.06,0,0,1,9,322a8.59,8.59,0,0,1-6.49-2.57A9.3,9.3,0,0,1,0,312.65,9.1,9.1,0,0,1,2.53,306a8.72,8.72,0,0,1,6.52-2.59,10.21,10.21,0,0,1,2.38.26,7.09,7.09,0,0,1,2,.82v5.18Zm30.9.74A3.75,3.75,0,0,0,43.22,308a3.3,3.3,0,0,0-2.35-.9,3.37,3.37,0,0,0-2.39.82,4.32,4.32,0,0,0-1.18,2.45Zm6,3.45H37.17a4.47,4.47,0,0,0,1,3.1A3.74,3.74,0,0,0,41.08,318a4.83,4.83,0,0,0,2.35-.52A3.43,3.43,0,0,0,44.88,316l4.61,1.86a6,6,0,0,1-2.92,3.08A11.2,11.2,0,0,1,41.42,322a10.37,10.37,0,0,1-7.28-2.51,8.61,8.61,0,0,1-2.74-6.65,9,9,0,0,1,2.74-6.74,9.5,9.5,0,0,1,6.93-2.68,8.74,8.74,0,0,1,6.8,2.72,10.59,10.59,0,0,1,2.5,7.44v.29Zm18.68,7.46V304h5.61v3.52a8.49,8.49,0,0,1,2.82-3.1,7.19,7.19,0,0,1,3.82-1,7.83,7.83,0,0,1,3,.54,5,5,0,0,1,3.11,3.69,17.42,17.42,0,0,1,.3,3.75v9.93H81.58V312a5.3,5.3,0,0,0-.68-3,2.48,2.48,0,0,0-2.17-.94,3,3,0,0,0-2.79,1.4,9.09,9.09,0,0,0-.87,4.58v7.28Zm39.1,0v-13h-2.6V304h2.6v-5.17h6V304h2.6v4.33h-2.6v13Zm26.68,0V304h5.78v4.09a7.37,7.37,0,0,1,2.44-3.35,6.19,6.19,0,0,1,3.75-1.12c.24,0,.48,0,.73,0l.75.08-.6,5.56a7.75,7.75,0,0,0-1.08-.27,7.51,7.51,0,0,0-1-.08,4.35,4.35,0,0,0-3.43,1.37,5.63,5.63,0,0,0-1.21,3.87v7.18ZM178,312.68a4.52,4.52,0,0,0-1-3.06,3.7,3.7,0,0,0-5.3,0,5.33,5.33,0,0,0,0,6.12,3.77,3.77,0,0,0,5.32,0,4.48,4.48,0,0,0,1-3.06Zm6.09,0a9,9,0,0,1-.73,3.56,9.13,9.13,0,0,1-2.13,3,9.83,9.83,0,0,1-3.15,2,10.52,10.52,0,0,1-7.44,0,9.29,9.29,0,0,1-3.12-2,9,9,0,0,1-2.1-3,9.1,9.1,0,0,1-.72-3.59,9,9,0,0,1,2.82-6.62,8.86,8.86,0,0,1,3.1-2,10.29,10.29,0,0,1,3.76-.67,10.18,10.18,0,0,1,3.74.67,9.09,9.09,0,0,1,3.11,2,9.25,9.25,0,0,1,2.14,3.05,9,9,0,0,1,.72,3.57Zm53.18-3a7.06,7.06,0,0,0-1.72-1.15,4.26,4.26,0,0,0-1.73-.36,3.7,3.7,0,0,0-2.9,1.2,4.72,4.72,0,0,0-1.07,3.27A4.43,4.43,0,0,0,231,315.8a3.92,3.92,0,0,0,3,1.19,4.32,4.32,0,0,0,1.75-.37,5.07,5.07,0,0,0,1.55-1.15v5.31a9.16,9.16,0,0,1-2.2.91,9,9,0,0,1-2.27.29,8.56,8.56,0,0,1-6.48-2.57,9.3,9.3,0,0,1-2.49-6.76,9.1,9.1,0,0,1,2.53-6.66,8.72,8.72,0,0,1,6.51-2.59,10.29,10.29,0,0,1,2.39.26,6.92,6.92,0,0,1,2,.82v5.18ZM274,304v8.86a14.64,14.64,0,0,1-.48,4.36A6.27,6.27,0,0,1,272,319.7a7.08,7.08,0,0,1-2.86,1.71,12.65,12.65,0,0,1-4.05.57,12.44,12.44,0,0,1-4-.57,7.56,7.56,0,0,1-2.91-1.71,5.94,5.94,0,0,1-1.59-2.5,15.33,15.33,0,0,1-.46-4.38V304h5.84v9.26a5.38,5.38,0,0,0,.72,3.15,3.34,3.34,0,0,0,4.69,0,5.39,5.39,0,0,0,.72-3.17V304Zm19.74,17.35V294.67h6.12v26.64Zm26.93,0v-13h-2.61V304h2.61v-5.17h6V304h2.61v4.33h-2.61v13ZM365.15,304v8.86a15,15,0,0,1-.47,4.36,6.49,6.49,0,0,1-1.59,2.52,7.19,7.19,0,0,1-2.87,1.71,12.63,12.63,0,0,1-4,.57,12.46,12.46,0,0,1-4-.57,7.56,7.56,0,0,1-2.91-1.71,5.94,5.94,0,0,1-1.59-2.5,15.33,15.33,0,0,1-.46-4.38V304H353v9.26a5.38,5.38,0,0,0,.72,3.15,3.34,3.34,0,0,0,4.69,0,5.39,5.39,0,0,0,.72-3.17V304Zm19.6,17.35V304h5.78v4.09A7.37,7.37,0,0,1,393,304.7a6.19,6.19,0,0,1,3.75-1.12c.24,0,.48,0,.73,0l.75.08-.6,5.56a7.75,7.75,0,0,0-1.08-.27,7.51,7.51,0,0,0-1-.08,4.35,4.35,0,0,0-3.43,1.37,5.63,5.63,0,0,0-1.21,3.87v7.18Zm44.09-8.69a4.58,4.58,0,0,0-1.08-3.21,4.26,4.26,0,0,0-5.9,0,4.57,4.57,0,0,0-1.07,3.22,4.5,4.5,0,0,0,1.08,3.2,4.29,4.29,0,0,0,5.89,0,4.54,4.54,0,0,0,1.08-3.2Zm5.39-8.66v17.35H428.6V318.5a8,8,0,0,1-2.7,2.64,7.18,7.18,0,0,1-3.54.84,6.82,6.82,0,0,1-5.55-2.53,10.38,10.38,0,0,1-2.08-6.8,9.94,9.94,0,0,1,2.18-6.75,7.35,7.35,0,0,1,5.85-2.5,6.52,6.52,0,0,1,3.38.84,6.93,6.93,0,0,1,2.42,2.57V304Zm20,17.35V294.67h6.13v26.64ZM520,304v8.86a15,15,0,0,1-.47,4.36A6.38,6.38,0,0,1,518,319.7a7.19,7.19,0,0,1-2.87,1.71,12.59,12.59,0,0,1-4,.57,12.35,12.35,0,0,1-4-.57,7.53,7.53,0,0,1-2.92-1.71,6,6,0,0,1-1.58-2.5,15.25,15.25,0,0,1-.47-4.38V304h5.85v9.26a5.38,5.38,0,0,0,.72,3.15,3.33,3.33,0,0,0,4.68,0,5.39,5.39,0,0,0,.72-3.17V304Zm19.57,17.35V304h5.61v3.52a8.39,8.39,0,0,1,2.81-3.1,7.2,7.2,0,0,1,3.83-1,7.78,7.78,0,0,1,3,.54A5.24,5.24,0,0,1,557,305.5a5.3,5.3,0,0,1,1,2.13,18.24,18.24,0,0,1,.29,3.75v9.93h-6.12V312a5.3,5.3,0,0,0-.68-3,2.49,2.49,0,0,0-2.17-.94,3,3,0,0,0-2.79,1.4,9.09,9.09,0,0,0-.87,4.58v7.28Zm38-22.77a3.17,3.17,0,0,1,1-2.36,3.25,3.25,0,0,1,2.38-1,3.3,3.3,0,0,1,2.41,1,3.2,3.2,0,0,1,1,2.38,3.3,3.3,0,0,1-1,2.42,3.32,3.32,0,0,1-4.77,0,3.31,3.31,0,0,1-1-2.4Zm.32,22.77V304H584v17.35Zm38.44-11.65a7.26,7.26,0,0,0-1.72-1.15,4.3,4.3,0,0,0-1.74-.36,3.71,3.71,0,0,0-2.9,1.2,4.77,4.77,0,0,0-1.07,3.27A4.47,4.47,0,0,0,610,315.8a3.93,3.93,0,0,0,3,1.19,4.25,4.25,0,0,0,1.75-.37,5.1,5.1,0,0,0,1.56-1.15v5.31a9.5,9.5,0,0,1-2.2.91,9.06,9.06,0,0,1-2.27.29,8.59,8.59,0,0,1-6.49-2.57,9.3,9.3,0,0,1-2.49-6.76,9.1,9.1,0,0,1,2.54-6.66,8.7,8.7,0,0,1,6.51-2.59,10.29,10.29,0,0,1,2.39.26,7,7,0,0,1,2,.82v5.18Zm32.16,3a4.58,4.58,0,0,0-1.08-3.21,4.26,4.26,0,0,0-5.9,0,4.62,4.62,0,0,0-1.07,3.22,4.54,4.54,0,0,0,1.08,3.2,4.29,4.29,0,0,0,5.89,0,4.54,4.54,0,0,0,1.08-3.2Zm5.39-8.66v17.35h-5.63V318.5a8,8,0,0,1-2.7,2.64A7.17,7.17,0,0,1,642,322a6.83,6.83,0,0,1-5.56-2.53,10.44,10.44,0,0,1-2.08-6.8,9.94,9.94,0,0,1,2.18-6.75,7.35,7.35,0,0,1,5.85-2.5,6.52,6.52,0,0,1,3.38.84,7,7,0,0,1,2.43,2.57V304Zm42.77,17.35v-9.47a6.17,6.17,0,0,0-.55-3.11,2.16,2.16,0,0,0-2-.86,2.51,2.51,0,0,0-2.39,1.2c-.44.79-.67,2.42-.67,4.89v7.35h-5.91v-9.47a6.18,6.18,0,0,0-.55-3.13,2.13,2.13,0,0,0-1.92-.84,2.56,2.56,0,0,0-2.41,1.18c-.45.78-.68,2.42-.68,4.91v7.35h-6V304h6v3a7.51,7.51,0,0,1,2.5-2.71,6.25,6.25,0,0,1,3.34-.87,6.66,6.66,0,0,1,3.46.81,4.62,4.62,0,0,1,1.93,2.46,6.84,6.84,0,0,1,2.47-2.46,7,7,0,0,1,3.44-.81,6.83,6.83,0,0,1,2.74.52,5,5,0,0,1,2,1.58,5.16,5.16,0,0,1,.9,1.92,16.77,16.77,0,0,1,.27,3.58v10.31Zm31-8.62a4.58,4.58,0,0,0,1.06,3.2,3.71,3.71,0,0,0,2.91,1.17,3.77,3.77,0,0,0,2.93-1.17,5.3,5.3,0,0,0,0-6.4,3.77,3.77,0,0,0-2.94-1.16,3.7,3.7,0,0,0-2.91,1.16,4.58,4.58,0,0,0-1.06,3.2ZM722.26,329V304h5.64v2.92a8.37,8.37,0,0,1,2.62-2.62,6.34,6.34,0,0,1,3.25-.86,7.29,7.29,0,0,1,5.82,2.5,10,10,0,0,1,2.17,6.78,10.11,10.11,0,0,1-2.16,6.73A7,7,0,0,1,734,322a6.17,6.17,0,0,1-6.05-3.46,11.53,11.53,0,0,1,.13,1.25c0,.49,0,1.1,0,1.82V329ZM475.35,135.33h1V144h5.31v-8.62h1.29V124.4h-1.31a24.07,24.07,0,0,0-19.53-19.7v-3.42h-8.63v3.48a24,24,0,0,0-19.25,19.64H432.9v10.93h1.29v8.56h5.31v-8.56h1V189.8h-3.59v4h42.05v-4h-3.59V135.33Zm-1.42,26.06v-5h-32v5Zm0,6.39v-5h-32v5Zm-32,1.42v5h32v-5Zm32,12.17v-5.72h-32v5.72Zm-32,1.42v5h32v-5Zm32-27.86v-5.72h-32v5.72Zm0-7.13v-5h-32v5Zm0-6.39v-5h-32v5Zm0-6.45v-5h-32v5ZM457.35,123.1v-5.85a10.09,10.09,0,0,0-4.68,1.45,10.24,10.24,0,0,1,2.4,2,8.81,8.81,0,0,1,1.45,2.65,4.68,4.68,0,0,1,.84-.2Zm16.84,3.58a16.62,16.62,0,0,0-.16-1.88,6.72,6.72,0,0,0-.52.85,4.61,4.61,0,0,0-.36,1Zm-2.22,0a6.39,6.39,0,0,1,.51-1.53,12.39,12.39,0,0,1,1.26-1.85,16.35,16.35,0,0,0-2.74-5.86,9.89,9.89,0,0,0-2.12,1.73,5.56,5.56,0,0,0-.78,1.27c-.17.38-.32.78-.46,1.19a11.38,11.38,0,0,1,1.56,5Zm-3.92,0c0-.32-.06-.64-.11-1-.08.12-.15.24-.21.35a4.08,4.08,0,0,0-.23.6Zm-1.73,0c0-.08.05-.17.07-.27a5,5,0,0,1,.31-.83,8.34,8.34,0,0,1,.88-1.31,10.27,10.27,0,0,0-2.55-4.1,9.86,9.86,0,0,0-1-.84c-.43.27-.86.54-1.26.82a7.76,7.76,0,0,0-1.31,1.15,8,8,0,0,0-1.3,2.43,4,4,0,0,1,.76.6,4.33,4.33,0,0,1,1.23,2.34Zm-5.32,0a3.12,3.12,0,0,0-.86-1.52,3.22,3.22,0,0,0-1.64-.86v2.37Zm-3.64,0v-2.36a3.21,3.21,0,0,0-1.7.88,3.24,3.24,0,0,0-.83,1.48Zm-3.7,0a4.31,4.31,0,0,1,1.19-2.27,3.49,3.49,0,0,1,.63-.52,8.18,8.18,0,0,0-1.29-2.43,11.21,11.21,0,0,0-2.56-2,9.94,9.94,0,0,0-.91.81,10.19,10.19,0,0,0-2.5,4.13,5.19,5.19,0,0,1,.94,1.2,4.11,4.11,0,0,1,.37,1Zm-5.31,0a2.48,2.48,0,0,0-.2-.5,2.94,2.94,0,0,0-.26-.39c0,.29-.08.59-.11.89Zm-1.71,0a11.16,11.16,0,0,1,1.42-4.74,10.64,10.64,0,0,0-.46-1.13,5.51,5.51,0,0,0-.81-1.26,7,7,0,0,0-1.24-1.08c-.3-.22-.62-.43-.94-.63a16.34,16.34,0,0,0-2.57,5.71c.14.15.28.29.41.45a4.23,4.23,0,0,1,1.06,2q.09.35.15.69Zm-4.14,0c0-.14-.06-.27-.1-.4a3.46,3.46,0,0,0-.29-.8,3,3,0,0,0-.33-.49c-.07.55-.12,1.11-.14,1.68Zm27.78-10c-.31-.35-.63-.7-1-1a16.41,16.41,0,0,0-5-3.34,10.44,10.44,0,0,0-2.3,1.88,6.27,6.27,0,0,0-.81,1.36c-.16.35-.29.7-.42,1.06a11.35,11.35,0,0,1,5,2.85,12.1,12.1,0,0,1,1,1.14c.07-.17.14-.34.22-.51a6.64,6.64,0,0,1,.94-1.53,11.3,11.3,0,0,1,2.28-1.89Zm-7.23-4.86a16.18,16.18,0,0,0-4.58-.81v5.24c.41,0,.82.07,1.22.13.15-.44.31-.87.5-1.29a7.34,7.34,0,0,1,1-1.61,9.43,9.43,0,0,1,1.88-1.66Zm-5.73-.81a16.16,16.16,0,0,0-4.94,1,9.58,9.58,0,0,1,2,1.67,9.34,9.34,0,0,1,1.49,2.8,10.31,10.31,0,0,1,1.48-.17l0-5.25Zm-6.23,1.48a16.4,16.4,0,0,0-4.71,3.3,15.25,15.25,0,0,0-1.08,1.19c.32.2.63.4.92.61a8.49,8.49,0,0,1,1.44,1.27,6.8,6.8,0,0,1,1,1.51c.07.15.14.3.2.45a10.87,10.87,0,0,1,1.08-1.26,11.35,11.35,0,0,1,4.83-2.87,8.09,8.09,0,0,0-1.25-2.32,10.38,10.38,0,0,0-2.4-1.88Zm7.39,4.91,0,5.85a4.75,4.75,0,0,1,.63.14,8.64,8.64,0,0,1,1.49-2.72,8.13,8.13,0,0,1,1.51-1.33c.28-.2.58-.4.88-.59a10.15,10.15,0,0,0-4.53-1.35Zm81.78,18.08h1V144h5.31v-8.62h1.29V124.4h-1.31A24.07,24.07,0,0,0,527,104.7v-3.42h-8.63v3.48a24,24,0,0,0-19.24,19.64h-1.32v10.93h1.3v8.56h5.3v-8.56h1V189.8h-3.59v4h42v-4h-3.59V135.33Zm-1.42,26.06v-5h-32v5Zm0,6.39v-5h-32v5Zm-32,1.42v5h32v-5Zm32,12.17v-5.72h-32v5.72Zm-32,1.42v5h32v-5Zm32-27.86v-5.72h-32v5.72Zm0-7.13v-5h-32v5Zm0-6.39v-5h-32v5Zm0-6.45v-5h-32v5ZM522.27,123.1l0-5.85a10.09,10.09,0,0,0-4.68,1.45,10.3,10.3,0,0,1,2.41,2,9,9,0,0,1,1.44,2.65,4.78,4.78,0,0,1,.85-.2Zm16.84,3.58c0-.64-.08-1.26-.16-1.88a6.85,6.85,0,0,0-.53.85,4.61,4.61,0,0,0-.36,1Zm-2.22,0a5.93,5.93,0,0,1,.5-1.53,12.39,12.39,0,0,1,1.26-1.85,16.18,16.18,0,0,0-2.74-5.86,9.58,9.58,0,0,0-2.11,1.73,5.61,5.61,0,0,0-.79,1.27c-.17.38-.32.78-.46,1.19a11.25,11.25,0,0,1,1.56,5Zm-3.93,0c0-.32-.06-.64-.11-1-.08.12-.15.24-.21.35a3.13,3.13,0,0,0-.22.6Zm-1.72,0q0-.12.06-.27a5,5,0,0,1,.32-.83,7.62,7.62,0,0,1,.87-1.31,10.16,10.16,0,0,0-2.55-4.1,9.74,9.74,0,0,0-1-.84c-.44.27-.87.54-1.26.82a7.39,7.39,0,0,0-1.31,1.15,8,8,0,0,0-1.31,2.43,4.08,4.08,0,0,1,.77.6,4.33,4.33,0,0,1,1.23,2.34Zm-5.32,0a3.22,3.22,0,0,0-.87-1.52,3.18,3.18,0,0,0-1.64-.86v2.37Zm-3.64,0v-2.36a3.18,3.18,0,0,0-1.69.88,3.26,3.26,0,0,0-.84,1.48Zm-3.71,0a4.26,4.26,0,0,1,1.2-2.27,3.8,3.8,0,0,1,.62-.52,8.18,8.18,0,0,0-1.29-2.43,11.14,11.14,0,0,0-2.55-2,8.88,8.88,0,0,0-.92.81,10.3,10.3,0,0,0-2.5,4.13,5.19,5.19,0,0,1,.94,1.2,3.79,3.79,0,0,1,.38,1Zm-5.31,0a2,2,0,0,0-.2-.5,2.84,2.84,0,0,0-.25-.39,8.65,8.65,0,0,0-.11.89Zm-1.71,0a11.17,11.17,0,0,1,1.43-4.74c-.15-.4-.3-.78-.47-1.13a5.82,5.82,0,0,0-.8-1.26,7.48,7.48,0,0,0-1.25-1.08c-.3-.22-.62-.43-.94-.63a16.14,16.14,0,0,0-2.56,5.71c.14.15.28.29.41.45a4.74,4.74,0,0,1,.66.93,4.94,4.94,0,0,1,.4,1c.06.23.1.46.15.69Zm-4.14,0-.09-.4a4,4,0,0,0-.3-.8,3.74,3.74,0,0,0-.32-.49,15.42,15.42,0,0,0-.15,1.68Zm27.78-10c-.31-.35-.63-.7-1-1a16.17,16.17,0,0,0-5-3.34,10.44,10.44,0,0,0-2.3,1.88,6.69,6.69,0,0,0-.81,1.36c-.15.35-.29.7-.42,1.06a11.39,11.39,0,0,1,5,2.85,12.1,12.1,0,0,1,1,1.14c.06-.17.14-.34.21-.51a6.69,6.69,0,0,1,.95-1.53,11,11,0,0,1,2.27-1.89ZM528,111.67a16.12,16.12,0,0,0-4.58-.81v5.24a12,12,0,0,1,1.22.13c.15-.44.32-.87.5-1.29a7,7,0,0,1,1-1.61,9.37,9.37,0,0,1,1.87-1.66Zm-5.72-.81a16.16,16.16,0,0,0-4.94,1,9.78,9.78,0,0,1,2,1.67,9.37,9.37,0,0,1,1.5,2.8,10.17,10.17,0,0,1,1.47-.17v-5.25ZM516,112.34a16.54,16.54,0,0,0-4.71,3.3c-.37.38-.73.77-1.07,1.19.31.2.62.4.91.61a8.49,8.49,0,0,1,1.44,1.27,6.46,6.46,0,0,1,1,1.51c.07.15.14.3.2.45a10.87,10.87,0,0,1,1.08-1.26,11.35,11.35,0,0,1,4.83-2.87,8.09,8.09,0,0,0-1.25-2.32,10.38,10.38,0,0,0-2.4-1.88Zm7.4,4.91v5.85a4.13,4.13,0,0,1,.63.14,7.4,7.4,0,0,1,3-4c.29-.2.58-.4.88-.59A10.07,10.07,0,0,0,523.4,117.25Z"/></g></g></svg>