<?xml version="1.0" encoding="UTF-8"?>
<!DOCTYPE svg PUBLIC "-//W3C//DTD SVG 1.1//EN" "http://www.w3.org/Graphics/SVG/1.1/DTD/svg11.dtd">
<!-- Creator: CorelDRAW X7 -->
<svg xmlns="http://www.w3.org/2000/svg" xml:space="preserve" width="160mm" height="60mm" version="1.1" style="shape-rendering:geometricPrecision; text-rendering:geometricPrecision; image-rendering:optimizeQuality; fill-rule:evenodd; clip-rule:evenodd"
viewBox="0 0 16000 6000"
 xmlns:xlink="http://www.w3.org/1999/xlink">
 <defs>
  <style type="text/css">
   <![CDATA[
    .fil1 {fill:black}
    .fil0 {fill:#BD2628}
    .fil2 {fill:black;fill-rule:nonzero}
   ]]>
  </style>
 </defs>
 <g id="Camada_x0020_1">
  <metadata id="CorelCorpID_0Corel-Layer"/>
  <path class="fil0" d="M2580 500c-1380,0 -2500,1119 -2500,2500 0,1381 1120,2500 2500,2500l0 -5000z"/>
  <path class="fil1" d="M2580 2000c967,0 1750,783 1750,1750 0,966 -783,1750 -1750,1750l0 -3500z"/>
  <path class="fil2" d="M4941 4087c107,15 244,23 414,23 336,0 608,-85 780,-252 167,-162 275,-414 275,-761l0 -2c0,-424 -170,-926 -983,-926 -179,0 -349,18 -486,40l0 1878zm289 -1668c50,-10 125,-20 225,-20 411,0 650,239 650,703 0,526 -259,778 -688,776 -67,0 -137,-3 -187,-10l0 -1449zm2661 1389c-82,40 -214,67 -344,67 -394,0 -639,-262 -639,-730 0,-497 275,-746 644,-746 142,0 254,32 334,70l62 -237c-52,-28 -187,-75 -406,-75 -529,0 -938,354 -938,1003 0,608 357,960 888,960 207,0 369,-40 449,-80l-50 -232zm1439 -1090l-289 0 0 851c0,207 -155,311 -287,311 -190,0 -257,-157 -257,-394l0 -768 -289 0 0 816c0,439 207,586 444,586 222,0 356,-133 414,-227l7 0 15 199 254 0c-5,-110 -12,-239 -12,-393l0 -981zm661 -626l-289 0 0 2000 289 0 0 -2000zm426 626l-194 0 0 217 194 0 0 711c0,179 33,294 102,369 60,67 158,105 272,105 98,0 175,-13 225,-33l-10 -222c-35,10 -70,18 -127,18 -123,0 -175,-83 -175,-252l0 -696 327 0 0 -217 -327 0 0 -339 -287 90 0 249z"/>
  <path class="fil2" d="M4952 5484c54,7 123,11 207,11 169,0 304,-42 391,-126 83,-81 137,-207 137,-380l0 -1c0,-212 -85,-463 -492,-463 -89,0 -174,9 -243,20l0 939zm145 -834c25,-5 62,-10 112,-10 206,0 326,120 326,351 0,264 -130,389 -345,388 -33,0 -68,-1 -93,-5l0 -724zm888 -40c0,-49 -34,-85 -84,-85 -50,0 -85,36 -85,85 0,46 34,84 84,84 52,0 85,-38 85,-84zm-13 190l-144 0 0 686 144 0 0 -686zm531 -12c-12,-2 -22,-3 -36,-3 -75,0 -147,53 -178,140l-5 0 -5 -125 -126 0c4,63 5,129 5,209l0 477 145 0 0 -364c0,-119 61,-199 158,-199 16,0 30,1 42,4l0 -139zm591 569c-45,18 -97,32 -173,32 -109,0 -205,-58 -208,-213l436 0c3,-17 4,-37 4,-61 0,-170 -77,-330 -271,-330 -194,0 -309,163 -309,367 0,210 120,348 327,348 93,0 169,-19 218,-41l-24 -102zm-380 -284c7,-80 52,-185 158,-185 111,0 145,102 144,185l-302 0zm607 -273l-97 0 0 108 97 0 0 355c0,90 16,147 51,185 30,33 79,52 136,52 49,0 87,-6 112,-16l-5 -111c-17,5 -35,9 -63,9 -61,0 -88,-41 -88,-126l0 -348 164 0 0 -108 -164 0 0 -170 -143 45 0 125zm712 -15c-182,0 -324,130 -324,362 0,222 136,353 314,353 155,0 322,-106 322,-363 0,-210 -124,-352 -312,-352zm163 356c0,137 -65,251 -169,251 -106,0 -170,-114 -170,-248 0,-119 48,-251 171,-251 121,0 168,135 168,248zm637 -353c-12,-2 -22,-3 -36,-3 -75,0 -147,53 -178,140l-5 0 -5 -125 -126 0c4,63 5,129 5,209l0 477 145 0 0 -364c0,-119 61,-199 158,-199 16,0 30,1 42,4l0 -139zm270 -178c0,-49 -34,-85 -84,-85 -50,0 -85,36 -85,85 0,46 34,84 84,84 52,0 85,-38 85,-84zm-13 190l-144 0 0 686 144 0 0 -686zm667 264c0,-146 -56,-279 -258,-279 -92,0 -173,26 -222,57l30 96c44,-29 106,-47 167,-47 139,0 139,102 139,153 -236,0 -384,85 -384,255 0,106 73,201 202,201 86,0 153,-40 192,-93l3 0 10 79 131 0c-9,-44 -10,-104 -10,-163l0 -259zm-141 191c0,79 -65,139 -143,139 -54,0 -101,-33 -101,-110 0,-122 131,-143 244,-143l0 114zm1176 -768l-145 0 0 390 -2 0c-30,-53 -94,-92 -182,-92 -153,0 -287,132 -287,365 0,212 119,350 274,350 98,0 172,-51 209,-121l3 0 8 107 127 0c-3,-47 -5,-120 -5,-183l0 -816zm-145 718c0,96 -61,178 -154,178 -110,0 -170,-104 -170,-238 0,-136 61,-246 172,-246 81,0 152,66 152,179l0 127zm808 152c-45,18 -97,32 -173,32 -109,0 -205,-58 -208,-213l436 0c3,-17 4,-37 4,-61 0,-170 -77,-330 -271,-330 -194,0 -309,163 -309,367 0,210 120,348 327,348 93,0 169,-19 218,-41l-24 -102zm-380 -284c7,-80 52,-185 158,-185 111,0 145,102 144,185l-302 0zm1457 271c-41,20 -107,34 -172,34 -197,0 -319,-131 -319,-365 0,-248 137,-373 322,-373 71,0 127,16 167,35l31 -119c-26,-13 -93,-37 -203,-37 -264,0 -469,177 -469,501 0,304 178,480 444,480 103,0 184,-20 224,-40l-25 -116zm720 -544l-145 0 0 425c0,103 -77,155 -143,155 -95,0 -129,-78 -129,-197l0 -383 -144 0 0 408c0,219 103,292 222,292 111,0 178,-66 207,-113l3 0 8 99 127 0c-2,-54 -6,-119 -6,-196l0 -490zm330 -313l-144 0 0 999 144 0 0 -999zm213 313l-97 0 0 108 97 0 0 355c0,90 17,147 51,185 30,33 79,52 136,52 49,0 88,-6 113,-16l-5 -111c-18,5 -35,9 -64,9 -61,0 -87,-41 -87,-126l0 -348 163 0 0 -108 -163 0 0 -170 -144 45 0 125zm990 0l-144 0 0 425c0,103 -78,155 -144,155 -95,0 -128,-78 -128,-197l0 -383 -145 0 0 408c0,219 104,292 222,292 111,0 178,-66 207,-113l4 0 7 99 127 0c-2,-54 -6,-119 -6,-196l0 -490zm531 -12c-12,-2 -22,-3 -36,-3 -75,0 -147,53 -178,140l-5 0 -5 -125 -126 0c4,63 5,129 5,209l0 477 145 0 0 -364c0,-119 61,-199 158,-199 16,0 30,1 42,4l0 -139zm594 276c0,-146 -56,-279 -258,-279 -93,0 -174,26 -222,57l30 96c43,-29 106,-47 167,-47 138,0 138,102 138,153 -235,0 -384,85 -384,255 0,106 74,201 202,201 86,0 153,-40 192,-93l4 0 10 79 131 0c-9,-44 -10,-104 -10,-163l0 -259zm-141 191c0,79 -65,139 -143,139 -54,0 -101,-33 -101,-110 0,-122 130,-143 244,-143l0 114z"/>
 </g>
</svg>
