<svg xmlns="http://www.w3.org/2000/svg" viewBox="0 0 358.09 105.32"><defs><style>.cls-1{fill:#c4161c;}</style></defs><title>dext</title><g id="Camada_2" data-name="Camada 2"><g id="Layer_1" data-name="Layer 1"><path d="M355.65,99.19c0,2.26-1.07,4.13-2.8,4.13s-2.8-1.87-2.8-4.09c0-2,.78-4.13,2.82-4.13s2.78,2.22,2.78,4.09ZM353,93.31c-3,0-5.34,2.16-5.34,6,0,3.66,2.24,5.82,5.18,5.82,2.55,0,5.3-1.75,5.3-6,0-3.48-2-5.82-5.14-5.82ZM343,101.06a2.31,2.31,0,0,1-2.36,2.3,1.61,1.61,0,0,1-1.67-1.81c0-2,2.16-2.36,4-2.36v1.87Zm2.32-3.15c0-2.4-.92-4.6-4.25-4.6a7.11,7.11,0,0,0-3.66.94l.49,1.59a5.16,5.16,0,0,1,2.76-.78c2.28,0,2.28,1.68,2.28,2.53-3.89,0-6.33,1.39-6.33,4.21a3.2,3.2,0,0,0,3.33,3.31,3.82,3.82,0,0,0,3.16-1.54h.07l.16,1.32h2.16a15.86,15.86,0,0,1-.17-2.7V97.91ZM334.65,94a5.59,5.59,0,0,0-2.69-.66c-2.39,0-3.93,1.5-3.93,3.39,0,1.32.89,2.45,2.9,3.25,1.36.58,1.83,1,1.83,1.91s-.62,1.48-1.89,1.48a5.47,5.47,0,0,1-2.59-.76l-.54,1.77a6.29,6.29,0,0,0,3.09.76c2.57,0,4.23-1.29,4.23-3.47,0-1.65-1-2.68-2.85-3.44-1.38-.59-1.9-1-1.9-1.77s.58-1.37,1.65-1.37a4.23,4.23,0,0,1,2.16.63l.53-1.72Zm-9.17,4c0-3.5-2-4.65-3.74-4.65a3.88,3.88,0,0,0-3.43,1.93h-.07l-.12-1.68H316c0,1,.09,1.93.09,3.18v8.15h2.38V98.06a2.55,2.55,0,0,1,2.43-2.78c1.62,0,2.16,1.36,2.16,3v6.65h2.38V98Zm-18.9.1c.13-1.32.87-3,2.62-3s2.38,1.69,2.36,3Zm6.28,4.69a7.07,7.07,0,0,1-2.86.53,3.23,3.23,0,0,1-3.44-3.51h7.2a7.41,7.41,0,0,0,.06-1c0-2.8-1.27-5.45-4.46-5.45s-5.1,2.69-5.1,6.06,2,5.74,5.39,5.74a8.87,8.87,0,0,0,3.6-.68l-.39-1.68Zm-15-9.19h-1.61v1.78h1.61v5.87a4.25,4.25,0,0,0,.84,3,2.94,2.94,0,0,0,2.24.86,5.12,5.12,0,0,0,1.85-.27L302.7,103a3.25,3.25,0,0,1-1.05.15c-1,0-1.44-.68-1.44-2.08V95.34h2.69V93.56h-2.69v-2.8l-2.36.74v2.06Zm-4.86,0-1.29,2.26c-.33.59-.66,1.21-1,1.85h0c-.33-.62-.64-1.2-1-1.83l-1.36-2.29h-2.63l3.52,5.58-3.66,5.75h2.59l1.34-2.4c.37-.66.7-1.26,1-1.91h0c.33.68.66,1.27,1,1.89l1.4,2.42h2.7L292,99l3.55-5.47H293Zm-8.43,9.33h-6.19V97.67h5.51v-2h-5.51V91.13h5.84v-2H276v15.76h8.57v-2Zm-22.84-4.83c.12-1.32.86-3,2.61-3s2.38,1.69,2.36,3Zm6.27,4.69a7.07,7.07,0,0,1-2.86.53,3.21,3.21,0,0,1-3.43-3.51h7.19a6,6,0,0,0,.07-1c0-2.8-1.28-5.45-4.47-5.45s-5.1,2.69-5.1,6.06,2,5.74,5.39,5.74a8.87,8.87,0,0,0,3.6-.68l-.39-1.68Zm-13.33-2.51a2.7,2.7,0,0,1-2.55,2.94c-1.8,0-2.79-1.71-2.79-3.93s1-4,2.84-4a2.64,2.64,0,0,1,2.5,2.94v2.1Zm2.39-11.85h-2.39v6.44h0a3.32,3.32,0,0,0-3-1.52c-2.53,0-4.73,2.18-4.73,6,0,3.5,2,5.78,4.53,5.78a3.77,3.77,0,0,0,3.43-2h.06l.13,1.77h2.09c0-.79-.08-2-.08-3V88.39Zm-19.39,12.67a2.31,2.31,0,0,1-2.36,2.3,1.61,1.61,0,0,1-1.67-1.81c0-2,2.16-2.36,4-2.36v1.87ZM240,97.91c0-2.4-.92-4.6-4.25-4.6a7.08,7.08,0,0,0-3.66.94l.49,1.59a5.16,5.16,0,0,1,2.76-.78c2.28,0,2.28,1.68,2.28,2.53-3.89,0-6.34,1.39-6.34,4.21a3.2,3.2,0,0,0,3.34,3.31,3.85,3.85,0,0,0,3.16-1.54h.06l.17,1.32h2.16a14.9,14.9,0,0,1-.17-2.7V97.91Zm-11-4.35H226.6v11.33H229V93.56Zm.21-3.13a1.34,1.34,0,0,0-1.38-1.4,1.39,1.39,0,0,0,0,2.78,1.34,1.34,0,0,0,1.4-1.38Zm-4.44,2.94a2.91,2.91,0,0,0-.6-.06,3.25,3.25,0,0,0-2.94,2.32h-.08l-.08-2.08H219c.06,1,.08,2.14.08,3.46v7.87h2.39v-6c0-2,1-3.29,2.61-3.29a3.73,3.73,0,0,1,.7.06V93.37Zm-10.51,5.82c0,2.26-1.07,4.13-2.8,4.13s-2.79-1.87-2.79-4.09c0-2,.78-4.13,2.81-4.13s2.78,2.22,2.78,4.09Zm-2.69-5.88c-3,0-5.35,2.16-5.35,6,0,3.66,2.24,5.82,5.18,5.82,2.55,0,5.31-1.75,5.31-6,0-3.48-2-5.82-5.14-5.82Zm-11.75.25h-1.6v1.78h1.6v5.87a4.25,4.25,0,0,0,.85,3,2.94,2.94,0,0,0,2.24.86,5.12,5.12,0,0,0,1.85-.27l-.08-1.83a3.25,3.25,0,0,1-1,.15c-1,0-1.44-.68-1.44-2.08V95.34h2.69V93.56h-2.69v-2.8l-2.37.74v2.06Zm-10,4.5c.12-1.32.87-3,2.61-3s2.39,1.69,2.37,3Zm6.27,4.69a7,7,0,0,1-2.86.53,3.22,3.22,0,0,1-3.43-3.51H197a7.41,7.41,0,0,0,.06-1c0-2.8-1.28-5.45-4.46-5.45s-5.1,2.69-5.1,6.06,2,5.74,5.38,5.74a8.83,8.83,0,0,0,3.6-.68l-.39-1.68Zm-9.74-9.38a2.91,2.91,0,0,0-.6-.06,3.25,3.25,0,0,0-2.94,2.32h-.08l-.09-2.08h-2.07c.06,1,.08,2.14.08,3.46v7.87H183v-6c0-2,1-3.29,2.61-3.29a3.73,3.73,0,0,1,.7.06V93.37Zm-8.76.19h-2.39v11.33h2.39V93.56Zm.2-3.13a1.33,1.33,0,0,0-1.38-1.4,1.39,1.39,0,0,0,0,2.78,1.33,1.33,0,0,0,1.4-1.38Zm-14.64.66a9.58,9.58,0,0,1,1.85-.17c3.39,0,5.37,2,5.37,5.8,0,4.34-2.14,6.42-5.68,6.4a11.76,11.76,0,0,1-1.54-.08v-12Zm180.51-.86c0,.84-.26,1.27-.76,1.27a4.24,4.24,0,0,1-1.75-.62,4.63,4.63,0,0,0-2.13-.71c-1.09,0-1.93.78-1.89,2.42h1c0-.91.34-1.28.84-1.28a4.25,4.25,0,0,1,1.73.67,4.8,4.8,0,0,0,2.16.69c1,0,1.88-.68,1.8-2.44ZM160.74,104.84a24.22,24.22,0,0,0,3.41.19c2.78,0,5-.7,6.44-2.08a8.46,8.46,0,0,0,2.26-6.27v0c0-3.5-1.4-7.63-8.1-7.63a25.76,25.76,0,0,0-4,.33v15.48Zm0-29.6a120.9,120.9,0,0,0,16.24.88c13.21,0,23.87-3.32,30.62-9.88,6.56-6.36,10.77-16.24,10.77-29.84v-.1c0-16.63-6.66-36.3-38.55-36.3a119,119,0,0,0-19.08,1.57V75.24ZM172.09,9.78A45.33,45.33,0,0,1,180.9,9c16.14,0,25.53,9.39,25.53,27.59,0,20.65-10.17,30.53-27,30.43a53.47,53.47,0,0,1-7.34-.39V9.78ZM270.81,66H241.36V41.09h26.22V31.7H241.36V10h27.79V.49H230v75h40.8V66Zm40.12-44.42-6.16,10.76q-2.36,4.26-4.7,8.8h-.2c-1.56-2.93-3-5.67-4.79-8.7l-6.46-10.86H276.1L292.83,48l-17.42,27.4h12.33L294.1,64c1.76-3.13,3.33-6,4.89-9.1h.2c1.56,3.23,3.13,6.07,4.79,9l6.66,11.55h12.81L306.23,47.55l16.93-26Zm23.09,0h-7.63V30H334V57.92c0,7,1.27,11.55,4,14.48,2.35,2.64,6.17,4.11,10.67,4.11a25.06,25.06,0,0,0,8.8-1.27l-.39-8.71a16.54,16.54,0,0,1-5,.69c-4.79,0-6.85-3.23-6.85-9.88V30h12.82V21.53H345.27V8.22L334,11.74v9.79Z"/><path class="cls-1" d="M108,.32a52.38,52.38,0,0,0-40,18.5A52.41,52.41,0,0,0,28,.32H0v25H28a27.5,27.5,0,1,1,0,55H0v25H28A52.34,52.34,0,0,0,68,86.81a52.45,52.45,0,0,0,40,18.51h28v-25H108a27.26,27.26,0,0,1-10.7-2.16,27.65,27.65,0,0,1-12.11-10,27.53,27.53,0,0,1-2.53-26.06A27.58,27.58,0,0,1,92.63,30,27.26,27.26,0,0,1,108,25.32h28V.32Z"/><path class="cls-1" d="M93,52.82h0a12.5,12.5,0,0,0,12.5,12.5H136v-25H105.5A12.5,12.5,0,0,0,93,52.82Z"/></g></g></svg>