<svg xmlns="http://www.w3.org/2000/svg" viewBox="0 0 283.82 176.72"><defs><style>.cls-1{fill:#939598;}.cls-1,.cls-3,.cls-4{fill-rule:evenodd;}.cls-2,.cls-3{fill:#c4161c;}.cls-4{fill:#231f20;}</style></defs><title>Asset 2</title><g id="Layer_2" data-name="Layer 2"><g id="Camada_1" data-name="Camada 1"><path class="cls-1" d="M53.28,53.28H0a53.29,53.29,0,0,1,106.57,0Z"/><rect class="cls-2" x="65.61" y="69.68" width="16.83" height="34.98"/><path class="cls-3" d="M39.2,103.29A52.35,52.35,0,0,1,.89,61.13H18A35.62,35.62,0,0,0,39.2,85.66Z"/><polygon class="cls-3" points="44.09 104.33 44.03 104.32 44.03 87.22 44.09 87.23 44.09 78.72 60.91 78.72 60.91 104.33 44.09 104.33 44.09 104.33 44.09 104.33"/><rect class="cls-2" x="87.13" y="60.84" width="17.62" height="43.43"/><path class="cls-4" d="M125.68,104.4a81.88,81.88,0,0,0,11,.6c9,0,16.19-2.26,20.77-6.71s7.3-11,7.3-20.24V78c0-11.28-4.51-24.62-26.15-24.62a81.22,81.22,0,0,0-12.94,1.06v50Zm7.7-44.4a31.11,31.11,0,0,1,6-.53c11,0,17.32,6.37,17.32,18.72,0,14-6.9,20.7-18.31,20.63a36.83,36.83,0,0,1-5-.26V60Zm39.29,44.53h7.63V84.62a21.15,21.15,0,0,0,4.31.33c9.16,0,19-4.24,19-16.59a14.11,14.11,0,0,0-4.58-11c-3-2.72-7.76-4-14-4a71.54,71.54,0,0,0-12.34,1v50.17Zm7.63-44.66a26.74,26.74,0,0,1,5.17-.46c6.18,0,10.42,3.11,10.42,9.29,0,6.5-4.24,10.15-11.28,10.15a15.92,15.92,0,0,1-4.31-.4V59.87Zm49.17,7.5a9.12,9.12,0,0,0-1.92-.2c-4,0-7.83,2.85-9.49,7.5h-.27l-.26-6.7h-6.71c.2,3.38.27,6.9.27,11.14v25.42h7.7V85.15c0-6.37,3.25-10.61,8.43-10.61a10.81,10.81,0,0,1,2.25.2V67.37Zm20.91-.2c-9.69,0-17.26,7-17.26,19.31,0,11.81,7.23,18.78,16.72,18.78,8.23,0,17.13-5.64,17.13-19.31,0-11.21-6.57-18.78-16.59-18.78Zm8.69,19c0,7.3-3.45,13.34-9,13.34s-9-6-9-13.21c0-6.3,2.52-13.34,9.09-13.34s9,7.17,9,13.21Zm24.75-28.27a4.26,4.26,0,0,0-4.44-4.51,4.48,4.48,0,1,0-.07,9,4.3,4.3,0,0,0,4.51-4.45ZM283.23,68v33.31c0,7.43-1.27,12-4.45,15.06-2.92,2.79-7.57,4-11.35,4l-.8-6c8-.8,8.9-4.71,8.9-15.4V68Z"/><path class="cls-4" d="M0,146.1a38.68,38.68,0,0,0,5.09.28c4.15,0,7.49-1,9.61-3.1s3.37-5.1,3.37-9.36v0c0-5.22-2.08-11.38-12.09-11.38A37.34,37.34,0,0,0,0,123v23.1Zm203.35,5.3c0,1.42-.43,2.15-1.28,2.15a7.16,7.16,0,0,1-2.94-1.05,7.87,7.87,0,0,0-3.59-1.19c-1.85,0-3.27,1.3-3.2,4.06h1.76c.05-1.53.57-2.14,1.42-2.14a7.17,7.17,0,0,1,2.92,1.12,7.93,7.93,0,0,0,3.63,1.16c1.74,0,3.18-1.14,3-4.11ZM3.56,125.57a14.4,14.4,0,0,1,2.76-.24c5.06,0,8,2.94,8,8.65,0,6.47-3.19,9.57-8.47,9.54a17.38,17.38,0,0,1-2.3-.12V125.57Zm21.85-1a2,2,0,0,0-2.06-2.08,2.07,2.07,0,1,0,0,4.14,2,2,0,0,0,2.09-2.06Zm-.31,4.67H21.54v16.9H25.1v-16.9ZM38.17,129a4.26,4.26,0,0,0-.89-.09,4.87,4.87,0,0,0-4.39,3.46h-.12l-.12-3.09h-3.1c.09,1.56.12,3.19.12,5.15v11.75h3.56v-9c0-2.94,1.5-4.91,3.9-4.91a4.65,4.65,0,0,1,1,.1V129Zm14.54,14a10.51,10.51,0,0,1-4.26.8c-2.67,0-5-1.44-5.13-5.25H54.06a10.88,10.88,0,0,0,.09-1.5c0-4.17-1.9-8.13-6.65-8.13s-7.61,4-7.61,9.05,2.94,8.56,8,8.56a13.28,13.28,0,0,0,5.37-1L52.71,143Zm-9.36-7c.19-2,1.29-4.55,3.9-4.55S50.81,134,50.78,136Zm14.95-6.72H55.9v2.66h2.4v8.75c0,2.21.4,3.62,1.25,4.54a4.4,4.4,0,0,0,3.35,1.29,7.7,7.7,0,0,0,2.76-.4l-.12-2.73a5.31,5.31,0,0,1-1.57.21c-1.5,0-2.14-1-2.14-3.09v-8.57h4v-2.66h-4v-4.18l-3.53,1.11v3.07Zm17.52-.37c-4.48,0-8,3.22-8,8.93,0,5.46,3.34,8.68,7.73,8.68,3.8,0,7.92-2.61,7.92-8.93,0-5.18-3-8.68-7.67-8.68Zm4,8.77c0,3.38-1.59,6.17-4.17,6.17s-4.17-2.79-4.17-6.11c0-2.91,1.16-6.16,4.2-6.16s4.14,3.31,4.14,6.1ZM95.51,129a4.19,4.19,0,0,0-.89-.09,4.85,4.85,0,0,0-4.38,3.46h-.13L90,129.26h-3.1c.09,1.56.12,3.19.12,5.15v11.75h3.56v-9c0-2.94,1.51-4.91,3.9-4.91a4.59,4.59,0,0,1,1,.1V129Zm6.63-4.39a2,2,0,0,0-2.06-2.08,2.07,2.07,0,1,0,2.06,2.08Zm-.31,4.67H98.27v16.9h3.56v-16.9Zm16.42,6.5c0-3.59-1.38-6.87-6.35-6.87a10.5,10.5,0,0,0-5.46,1.41l.73,2.36a7.85,7.85,0,0,1,4.11-1.16c3.41,0,3.41,2.51,3.41,3.77-5.8,0-9.45,2.09-9.45,6.29a4.77,4.77,0,0,0,5,4.94,5.7,5.7,0,0,0,4.72-2.3h.1l.24,2h3.22a23.47,23.47,0,0,1-.24-4v-6.38Zm-3.47,4.69a3.45,3.45,0,0,1-3.53,3.44,2.41,2.41,0,0,1-2.48-2.7c0-3,3.22-3.53,6-3.53v2.79Zm28.93-18.9h-3.56v9.61h-.06a5,5,0,0,0-4.48-2.27c-3.77,0-7.05,3.25-7.05,9,0,5.21,2.91,8.62,6.75,8.62a5.63,5.63,0,0,0,5.12-3h.09l.19,2.64h3.13c-.06-1.16-.13-3-.13-4.51v-20.1Zm-3.56,17.68c0,2.36-1.5,4.38-3.8,4.38-2.7,0-4.17-2.54-4.17-5.86s1.5-6,4.23-6c2,0,3.74,1.63,3.74,4.39v3.13ZM160,143a10.6,10.6,0,0,1-4.27.8c-2.67,0-5-1.44-5.12-5.25h10.74a10.88,10.88,0,0,0,.09-1.5c0-4.17-1.9-8.13-6.66-8.13s-7.61,4-7.61,9.05,2.95,8.56,8,8.56a13.28,13.28,0,0,0,5.37-1L160,143Zm-9.36-7c.18-2,1.29-4.55,3.89-4.55s3.56,2.52,3.53,4.55ZM172,146.16h3.53V137a10.14,10.14,0,0,0,2,.15c4.24,0,8.78-2,8.78-7.67a6.51,6.51,0,0,0-2.12-5.06c-1.41-1.26-3.59-1.87-6.47-1.87A32.54,32.54,0,0,0,172,123v23.19Zm3.53-20.65a12.69,12.69,0,0,1,2.39-.21c2.86,0,4.82,1.44,4.82,4.29,0,3-2,4.7-5.22,4.7a7,7,0,0,1-2-.19v-8.59ZM198.23,129a4.19,4.19,0,0,0-.89-.09,4.85,4.85,0,0,0-4.38,3.46h-.13l-.12-3.09h-3.1c.09,1.56.13,3.19.13,5.15v11.75h3.55v-9c0-2.94,1.51-4.91,3.9-4.91a4.59,4.59,0,0,1,1,.1V129Zm9.67-.09c-4.48,0-8,3.22-8,8.93,0,5.46,3.35,8.68,7.73,8.68,3.81,0,7.92-2.61,7.92-8.93,0-5.18-3-8.68-7.67-8.68Zm4,8.77c0,3.38-1.6,6.17-4.17,6.17s-4.18-2.79-4.18-6.11c0-2.91,1.17-6.16,4.21-6.16s4.14,3.31,4.14,6.1Zm11.44-13.07a2,2,0,0,0-2.05-2.08,2.07,2.07,0,1,0,0,4.14,2,2,0,0,0,2.08-2.06Zm-.27,4.67v15.4c0,3.43-.59,5.52-2.06,7a7.9,7.9,0,0,1-5.25,1.84l-.36-2.79c3.68-.37,4.11-2.18,4.11-7.12V129.26ZM239.35,143a10.6,10.6,0,0,1-4.27.8c-2.67,0-5-1.44-5.12-5.25H240.7a10.88,10.88,0,0,0,.09-1.5c0-4.17-1.9-8.13-6.66-8.13s-7.61,4-7.61,9.05,2.95,8.56,8,8.56a13.28,13.28,0,0,0,5.37-1l-.58-2.52ZM230,136c.18-2,1.29-4.55,3.9-4.55s3.56,2.52,3.52,4.55Zm14.94-6.72h-2.39v2.66h2.39v8.75c0,2.21.4,3.62,1.26,4.54a4.38,4.38,0,0,0,3.34,1.29,7.8,7.8,0,0,0,2.77-.4l-.13-2.73a5.28,5.28,0,0,1-1.56.21c-1.51,0-2.15-1-2.15-3.09v-8.57h4v-2.66h-4v-4.18l-3.53,1.11v3.07Zm17.52-.37c-4.48,0-8,3.22-8,8.93,0,5.46,3.35,8.68,7.73,8.68,3.81,0,7.92-2.61,7.92-8.93,0-5.18-3-8.68-7.67-8.68Zm4,8.77c0,3.38-1.6,6.17-4.17,6.17s-4.18-2.79-4.18-6.11c0-2.91,1.17-6.16,4.21-6.16s4.14,3.31,4.14,6.1Zm16.38-7.79a8.42,8.42,0,0,0-4-1c-3.55,0-5.86,2.24-5.86,5.06,0,2,1.32,3.65,4.33,4.85,2,.86,2.73,1.56,2.73,2.85s-.92,2.21-2.82,2.21a8.15,8.15,0,0,1-3.87-1.14l-.8,2.64a9.34,9.34,0,0,0,4.61,1.14c3.83,0,6.32-1.93,6.32-5.19,0-2.45-1.48-4-4.27-5.12-2.05-.89-2.82-1.47-2.82-2.64s.86-2.05,2.45-2.05a6.19,6.19,0,0,1,3.23.95l.79-2.58ZM73.28,151.78H69.72v9.6h-.06a5,5,0,0,0-4.48-2.27c-3.77,0-7.05,3.25-7.05,9,0,5.21,2.91,8.62,6.75,8.62a5.63,5.63,0,0,0,5.12-3h.09l.19,2.64h3.13c-.06-1.16-.13-3-.13-4.51V151.78Zm-3.56,17.67c0,2.36-1.5,4.39-3.8,4.39-2.7,0-4.17-2.55-4.17-5.86s1.5-6,4.23-6c2,0,3.74,1.63,3.74,4.39v3.13Zm19.89,3.74a10.6,10.6,0,0,1-4.27.8c-2.67,0-5-1.44-5.12-5.25H91a10.88,10.88,0,0,0,.09-1.5c0-4.17-1.9-8.13-6.66-8.13s-7.61,4-7.61,9,3,8.56,8,8.56a13.28,13.28,0,0,0,5.37-1l-.58-2.52Zm-9.36-7c.18-2,1.29-4.54,3.9-4.54s3.55,2.51,3.52,4.54Zm34.09,7.21H105.1v-7.8h8.22v-2.94H105.1v-6.81h8.71v-3H101.54v23.5h12.8v-3Zm12.58-13.93L125,162.85q-.74,1.34-1.47,2.76h-.06c-.49-.92-1-1.78-1.51-2.73l-2-3.4H116l5.25,8.31-5.46,8.59h3.86l2-3.59c.55-1,1-1.87,1.53-2.85h.06c.49,1,1,1.9,1.51,2.82l2.08,3.62h4l-5.4-8.74,5.31-8.16Zm7.24,0h-2.4v2.67h2.4v8.74c0,2.21.39,3.62,1.25,4.54a4.4,4.4,0,0,0,3.35,1.29,7.74,7.74,0,0,0,2.76-.4l-.12-2.73a5.26,5.26,0,0,1-1.57.22c-1.5,0-2.15-1-2.15-3.1v-8.56h4v-2.67h-4V155.3l-3.52,1.11v3.07Zm22.39,13.71a10.51,10.51,0,0,1-4.26.8c-2.67,0-5-1.44-5.12-5.25H157.9a10.74,10.74,0,0,0,.1-1.5c0-4.17-1.91-8.13-6.66-8.13s-7.61,4-7.61,9,2.94,8.56,8,8.56a13.28,13.28,0,0,0,5.37-1l-.59-2.52Zm-9.35-7c.18-2,1.28-4.54,3.89-4.54s3.56,2.51,3.53,4.54Zm28.19-.16c0-5.21-2.94-6.93-5.58-6.93a5.81,5.81,0,0,0-5.13,2.88h-.09l-.18-2.51h-3.1c.06,1.44.12,2.88.12,4.75v12.15H165V166.2c0-2.7,1.87-4.15,3.62-4.15,2.43,0,3.22,2,3.22,4.42v9.91h3.56V166Zm13.69-5.95a8.45,8.45,0,0,0-4-1c-3.56,0-5.86,2.24-5.86,5.06,0,2,1.32,3.65,4.32,4.85,2,.86,2.73,1.56,2.73,2.85s-.92,2.21-2.82,2.21a8.19,8.19,0,0,1-3.86-1.13l-.8,2.63a9.27,9.27,0,0,0,4.6,1.14c3.84,0,6.32-1.93,6.32-5.19,0-2.45-1.47-4-4.26-5.12-2.06-.89-2.83-1.47-2.83-2.64s.86-2.05,2.46-2.05a6.18,6.18,0,0,1,3.22.95l.8-2.58ZM205,166c0-3.59-1.38-6.87-6.35-6.87a10.5,10.5,0,0,0-5.46,1.41l.73,2.36a7.86,7.86,0,0,1,4.12-1.16c3.4,0,3.4,2.51,3.4,3.77-5.8,0-9.45,2.09-9.45,6.29a4.77,4.77,0,0,0,5,4.94,5.72,5.72,0,0,0,4.73-2.3h.09l.24,2h3.23a22.37,22.37,0,0,1-.25-4V166Zm-3.47,4.7a3.45,3.45,0,0,1-3.53,3.43,2.41,2.41,0,0,1-2.48-2.7c0-3,3.22-3.53,6-3.53v2.8Zm14.85-11.57c-4.48,0-8,3.22-8,8.93,0,5.46,3.34,8.68,7.73,8.68,3.8,0,7.91-2.61,7.91-8.93,0-5.18-3-8.68-7.67-8.68Zm4,8.77c0,3.38-1.59,6.17-4.17,6.17s-4.17-2.79-4.17-6.1c0-2.92,1.16-6.17,4.2-6.17S220.4,165.09,220.4,167.88Z"/></g></g></svg>