<svg xmlns="http://www.w3.org/2000/svg" viewBox="0 0 144.84 150.01"><defs><style>.cls-1{fill:#fff;}.cls-1,.cls-2{fill-rule:evenodd;}.cls-2{fill:#a81b20;}</style></defs><title>dtic-red_rodape</title><g id="Layer_2" data-name="Layer 2"><g id="Camada_1" data-name="Camada 1"><path class="cls-1" d="M21.1,74.3a18.22,18.22,0,0,0,0-36.44V74.3Zm0,1.41a18.22,18.22,0,0,1,0,36.44V75.71Zm0,74.3a18.22,18.22,0,0,0,0-36.44V150Zm0-150a18.22,18.22,0,0,1,0,36.44V0ZM42.21,75.71a18.22,18.22,0,0,1,0,36.44V75.71Zm0,74.3a18.22,18.22,0,0,0,0-36.44V150Zm0-150a18.22,18.22,0,0,1,0,36.44V0Zm21.1,74.3a18.22,18.22,0,0,0,0-36.44V74.3Zm0,75.71a18.22,18.22,0,0,0,0-36.44V150Zm0-150a18.22,18.22,0,0,1,0,36.44V0ZM84.42,75.71a18.22,18.22,0,0,1,0,36.44V75.71Zm0,74.3a18.22,18.22,0,0,0,0-36.44V150Zm21.1-75.71a18.22,18.22,0,0,0,0-36.44V74.3Zm0,1.41a18.22,18.22,0,0,1,0,36.44V75.71Zm0-75.71a18.22,18.22,0,0,1,0,36.44V0Zm21.11,74.3a18.22,18.22,0,0,0,0-36.44V74.3Zm0-74.3a18.22,18.22,0,0,1,0,36.44Z"/><path class="cls-2" d="M105.52,150a18.22,18.22,0,1,0,0-36.44V150Zm21.11,0a18.22,18.22,0,0,0,0-36.44V150Zm0-74.3a18.22,18.22,0,0,1,0,36.44V75.71ZM84.42,0a18.22,18.22,0,0,1,0,36.44V0Zm0,74.3a18.22,18.22,0,0,0,0-36.44V74.3ZM63.31,75.71a18.22,18.22,0,0,1,0,36.44V75.71ZM42.21,74.3a18.22,18.22,0,0,0,0-36.44V74.3ZM0,74.3A18.22,18.22,0,0,0,18.22,56.08,18.22,18.22,0,0,0,0,37.86V74.3Zm0,1.41A18.22,18.22,0,0,1,18.22,93.93,18.22,18.22,0,0,1,0,112.15V75.71ZM0,150a18.22,18.22,0,0,0,18.22-18.22A18.22,18.22,0,0,0,0,113.57V150ZM0,0A18.22,18.22,0,0,1,18.22,18.22,18.22,18.22,0,0,1,0,36.44Z"/></g></g></svg>