<?xml version="1.0" encoding="utf-8"?>
<!-- Generator: Adobe Illustrator 16.0.3, SVG Export Plug-In . SVG Version: 6.00 Build 0)  -->
<!DOCTYPE svg PUBLIC "-//W3C//DTD SVG 1.1//EN" "http://www.w3.org/Graphics/SVG/1.1/DTD/svg11.dtd">
<svg version="1.1" xmlns="http://www.w3.org/2000/svg" xmlns:xlink="http://www.w3.org/1999/xlink" x="0px" y="0px"
	 width="453.288px" height="154.237px" viewBox="0 0 453.288 154.237" enable-background="new 0 0 453.288 154.237"
	 xml:space="preserve">
<g id="Camada_1">
	<path fill-rule="evenodd" clip-rule="evenodd" d="M22.521,74.296c10.063,0,18.22-8.157,18.22-18.22s-8.157-18.22-18.22-18.22
		V74.296L22.521,74.296z M22.521,75.713c10.063,0,18.22,8.157,18.22,18.22s-8.157,18.22-18.22,18.22V75.713L22.521,75.713z
		 M21.104,150.009c10.063,0,18.22-8.156,18.22-18.219s-8.157-18.22-18.22-18.22V150.009L21.104,150.009z M22.521,0
		c10.063,0,18.22,8.157,18.22,18.22c0,10.062-8.157,18.22-18.22,18.22V0L22.521,0z M43.625,75.713c10.063,0,18.22,8.157,18.22,18.22
		s-8.157,18.22-18.22,18.22V75.713L43.625,75.713z M43.625,150.009c10.063,0,18.22-8.156,18.22-18.219s-8.157-18.22-18.22-18.22
		V150.009L43.625,150.009z M43.625,0c10.063,0,18.22,8.157,18.22,18.22c0,10.062-8.157,18.22-18.22,18.22V0L43.625,0z M64.73,74.296
		c10.063,0,18.22-8.157,18.22-18.22s-8.157-18.22-18.22-18.22V74.296L64.73,74.296z M64.73,150.009
		c10.063,0,18.22-8.156,18.22-18.219s-8.157-18.22-18.22-18.22V150.009L64.73,150.009z M64.73,0c10.063,0,18.22,8.157,18.22,18.22
		c0,10.062-8.157,18.22-18.22,18.22V0L64.73,0z M85.834,75.713c10.063,0,18.22,8.157,18.22,18.22s-8.157,18.22-18.22,18.22V75.713
		L85.834,75.713z M85.834,150.009c10.063,0,18.22-8.156,18.22-18.219s-8.157-18.22-18.22-18.22V150.009L85.834,150.009z
		 M106.938,74.296c10.063,0,18.22-8.157,18.22-18.22s-8.157-18.22-18.22-18.22V74.296L106.938,74.296z M106.938,75.713
		c10.063,0,18.22,8.157,18.22,18.22s-8.157,18.22-18.22,18.22V75.713L106.938,75.713z M106.938,0c10.063,0,18.22,8.157,18.22,18.22
		c0,10.062-8.157,18.22-18.22,18.22V0L106.938,0z M128.042,74.296c10.063,0,18.22-8.157,18.22-18.22s-8.157-18.22-18.22-18.22
		V74.296L128.042,74.296z M128.042,0c10.063,0,18.22,8.157,18.22,18.22c0,10.062-8.157,18.22-18.22,18.22V0z"/>
	<path fill-rule="evenodd" clip-rule="evenodd" fill="#C4161C" d="M106.938,150.009c10.063,0,18.22-8.156,18.22-18.219
		s-8.157-18.22-18.22-18.22V150.009L106.938,150.009z M128.042,150.009c10.063,0,18.22-8.156,18.22-18.219s-8.157-18.22-18.22-18.22
		V150.009L128.042,150.009z M128.042,75.713c10.063,0,18.22,8.157,18.22,18.22s-8.157,18.22-18.22,18.22V75.713L128.042,75.713z
		 M85.834,0c10.063,0,18.22,8.157,18.22,18.22c0,10.062-8.157,18.22-18.22,18.22V0L85.834,0z M85.834,74.296
		c10.063,0,18.22-8.157,18.22-18.22s-8.157-18.22-18.22-18.22V74.296L85.834,74.296z M64.73,75.713
		c10.063,0,18.22,8.157,18.22,18.22s-8.157,18.22-18.22,18.22V75.713L64.73,75.713z M43.625,74.296
		c10.063,0,18.22-8.157,18.22-18.22s-8.157-18.22-18.22-18.22V74.296L43.625,74.296z M1.417,74.296
		c10.062,0,18.22-8.157,18.22-18.22s-8.158-18.22-18.22-18.22V74.296L1.417,74.296z M1.417,75.713c10.062,0,18.22,8.157,18.22,18.22
		s-8.158,18.22-18.22,18.22V75.713L1.417,75.713z M0,150.009c10.063,0,18.22-8.156,18.22-18.219S10.063,113.57,0,113.57V150.009
		L0,150.009z M1.417,0c10.062,0,18.22,8.157,18.22,18.22c0,10.062-8.158,18.22-18.22,18.22V0z"/>
	<path fill-rule="evenodd" clip-rule="evenodd" d="M266.731,78.766c1.438-0.281,2.729-0.684,3.713-1.16l0.323-0.157l1.322,6.146
		l-0.197,0.098c-1.065,0.533-2.722,1.065-4.815,1.438c-1.754,0.312-3.819,0.514-6.11,0.514c-6.562,0-12.035-2.209-15.84-6.323
		c-3.691-3.992-5.804-9.772-5.804-17.061c0-7.609,2.324-13.558,6.179-17.678c4.13-4.416,10.01-6.726,16.665-6.726
		c2.189,0,4.037,0.196,5.541,0.473c2.156,0.396,3.611,0.963,4.369,1.36l0.2,0.105l-1.644,6.245l-0.307-0.144
		c-1.024-0.48-2.277-0.926-3.749-1.233c-1.236-0.258-2.629-0.418-4.171-0.418c-4.522,0-8.438,1.58-11.158,4.731
		c-2.534,2.937-4.039,7.247-4.039,12.925c0,5.515,1.417,9.816,3.978,12.747c2.602,2.978,6.397,4.55,11.1,4.55
		C263.805,79.196,265.336,79.039,266.731,78.766L266.731,78.766z M236.127,84.983h-7.243V38.457h7.526v46.527H236.127
		L236.127,84.983z M192.267,38.457h32.023v6.507h-12.42v40.02h-7.527v-40.02h-12.36v-6.507H192.267L192.267,38.457z M167.367,44.362
		c-0.904,0.08-1.671,0.194-2.296,0.311v34.38c0.496,0.064,1.06,0.111,1.658,0.143c0.804,0.043,1.687,0.061,2.559,0.061l0.151,0.001
		c5.004-0.001,9.018-1.469,11.783-4.461c2.774-3.002,4.308-7.548,4.343-13.696l0-0.221c-0.001-5.447-1.384-9.583-3.957-12.362
		c-2.623-2.834-6.499-4.274-11.42-4.274C169.119,44.244,168.18,44.291,167.367,44.362L167.367,44.362z M162.23,85.268
		c1.671,0.09,3.521,0.136,5.557,0.136c4.104,0,7.815-0.521,11.024-1.558c3.178-1.025,5.865-2.556,7.953-4.583
		c2.11-2.047,3.828-4.68,4.995-7.914c1.084-3.006,1.692-6.532,1.692-10.589V60.7c0-5.154-1.035-10.782-4.548-15.132
		c-3.515-4.353-9.497-7.411-19.375-7.411c-2.021,0-3.991,0.092-5.855,0.245c-2.126,0.174-4.119,0.43-5.891,0.72l-0.238,0.039v45.666
		l0.245,0.034C159.085,85.041,160.564,85.177,162.23,85.268L162.23,85.268z M445.784,107.676c-0.507,0.592-0.793,1.401-0.908,2.143
		h5.202c-0.025-0.677-0.182-1.394-0.535-1.956c-0.372-0.592-0.974-1.017-1.89-1.03h-0.048
		C446.81,106.833,446.214,107.176,445.784,107.676L445.784,107.676z M450.378,115.743c0.521-0.106,0.973-0.257,1.391-0.431
		l0.308-0.129l0.584,2.519l-0.209,0.096c-0.52,0.24-1.193,0.458-1.991,0.608c-0.691,0.13-1.475,0.211-2.327,0.211
		c-2.049,0-3.677-0.683-4.803-1.882c-1.15-1.226-1.769-2.983-1.769-5.098c0-2.094,0.61-3.977,1.734-5.314
		c1.07-1.272,2.598-2.05,4.501-2.05c1.805,0,3.116,0.696,4.007,1.783c1.03,1.259,1.484,3.037,1.484,4.86
		c0,0.228-0.006,0.443-0.019,0.65c-0.013,0.203-0.031,0.392-0.057,0.566l-0.035,0.243h-8.35c0.078,1.146,0.447,1.973,0.996,2.535
		c0.686,0.702,1.666,1.002,2.717,1.002C449.255,115.914,449.854,115.851,450.378,115.743L450.378,115.743z M435.252,114.924
		c0.503-0.58,0.789-1.396,0.789-2.278v-2.448c0-0.964-0.288-1.732-0.744-2.268c-0.487-0.571-1.17-0.881-1.9-0.881
		c-0.927,0-1.654,0.442-2.16,1.165c-0.569,0.813-0.868,1.978-0.868,3.279c0,1.282,0.289,2.404,0.844,3.182
		c0.496,0.698,1.216,1.119,2.137,1.119C434.135,115.794,434.788,115.458,435.252,114.924L435.252,114.924z M436.325,98.538h3.067
		v16.003c0,0.575,0.01,1.164,0.024,1.709c0.018,0.664,0.044,1.306,0.07,1.805l0.016,0.298h-3.01l-0.11-1.571
		c-0.354,0.468-0.807,0.872-1.338,1.181c-0.708,0.412-1.559,0.655-2.513,0.655c-1.612,0-3.029-0.728-4.031-2.008
		c-0.956-1.222-1.531-2.947-1.531-5.02c0-2.213,0.61-3.975,1.583-5.214c1.076-1.371,2.593-2.103,4.22-2.103
		c0.858,0,1.605,0.187,2.219,0.498c0.412,0.208,0.764,0.473,1.05,0.776v-7.01H436.325L436.325,98.538z M418.089,104.482
		c0.612,0.149,1.144,0.366,1.551,0.597l0.198,0.112l-0.801,2.587l-0.313-0.199c-0.279-0.178-0.677-0.378-1.154-0.52
		c-0.362-0.106-0.772-0.179-1.214-0.179c-0.527,0-0.933,0.141-1.206,0.37c-0.283,0.237-0.431,0.576-0.431,0.954
		c0,0.37,0.122,0.648,0.406,0.903c0.323,0.29,0.852,0.564,1.625,0.899c1.133,0.459,2.002,1.007,2.595,1.694
		c0.606,0.704,0.919,1.545,0.919,2.575c0,1.351-0.516,2.434-1.431,3.183c-0.913,0.749-2.219,1.157-3.798,1.157
		c-0.698,0-1.383-0.089-2.007-0.243c-0.662-0.163-1.258-0.4-1.736-0.685l-0.191-0.114l0.793-2.625l0.313,0.189
		c0.354,0.215,0.87,0.451,1.446,0.621c0.46,0.135,0.955,0.226,1.432,0.226c0.651,0,1.132-0.146,1.447-0.393
		c0.32-0.25,0.477-0.618,0.477-1.053c0-0.428-0.114-0.757-0.394-1.046c-0.308-0.317-0.813-0.605-1.568-0.925
		c-1.187-0.474-2.054-1.046-2.633-1.695c-0.63-0.707-0.925-1.502-0.925-2.357c0-1.211,0.505-2.296,1.398-3.067
		c0.846-0.73,2.036-1.177,3.469-1.177C416.977,104.273,417.563,104.354,418.089,104.482L418.089,104.482z M405.091,115.308
		c0.438-0.427,0.71-1.021,0.71-1.702v-1.898c-0.977,0.017-1.992,0.128-2.774,0.472c-0.802,0.352-1.362,0.963-1.362,2.003
		c0,0.606,0.17,1.049,0.441,1.343c0.304,0.331,0.745,0.485,1.22,0.485C404.014,116.01,404.641,115.746,405.091,115.308
		L405.091,115.308z M407.745,105.722c0.99,1.072,1.335,2.608,1.335,4.212v4.992c0,0.568,0.006,1.139,0.032,1.657
		c0.025,0.522,0.072,1.014,0.154,1.433l0.065,0.337h-3.113l-0.151-1.21c-0.366,0.389-0.814,0.724-1.332,0.976
		c-0.642,0.313-1.392,0.499-2.227,0.499c-1.26,0-2.267-0.447-2.977-1.154c-0.778-0.772-1.195-1.853-1.195-2.993
		c0-1.712,0.729-3.003,2.041-3.876c1.277-0.851,3.108-1.292,5.349-1.325c-0.008-0.438-0.054-0.981-0.296-1.431
		c-0.288-0.531-0.88-0.957-2.082-0.957c-0.554,0-1.112,0.084-1.633,0.23c-0.535,0.151-1.027,0.37-1.428,0.634l-0.314,0.207
		l-0.752-2.412l0.182-0.117c0.52-0.332,1.221-0.637,2.038-0.848c0.72-0.187,1.53-0.302,2.388-0.302
		C405.672,104.273,406.924,104.833,407.745,105.722L407.745,105.722z M393.173,104.562h3.067v13.791h-3.352v-13.791H393.173
		L393.173,104.562z M395.945,99.823c0.339,0.344,0.534,0.826,0.534,1.374c0,0.532-0.195,1.017-0.547,1.362
		c-0.332,0.328-0.8,0.529-1.368,0.529c-0.55,0-1.015-0.205-1.347-0.537c-0.346-0.345-0.545-0.825-0.545-1.354
		c0-0.549,0.201-1.029,0.545-1.373c0.339-0.339,0.815-0.542,1.371-0.542C395.143,99.282,395.611,99.484,395.945,99.823
		L395.945,99.823z M385.834,114.728c0.435-0.501,0.719-1.227,0.719-2.178v-2.593c0-0.824-0.273-1.57-0.747-2.101
		c-0.446-0.499-1.076-0.808-1.825-0.808c-0.872,0-1.613,0.42-2.135,1.164c-0.534,0.763-0.846,1.863-0.846,3.208
		c0,1.266,0.288,2.338,0.827,3.077c0.496,0.681,1.217,1.08,2.129,1.08C384.649,115.578,385.342,115.294,385.834,114.728
		L385.834,114.728z M386.919,105.821l0.085-1.26h3.042l-0.023,0.305c-0.036,0.474-0.066,0.982-0.087,1.581
		c-0.02,0.594-0.031,1.31-0.031,2.214v7.536c0,1.35-0.057,3.273-0.926,4.88c-0.882,1.632-2.577,2.916-5.838,2.916
		c-0.805,0-1.632-0.091-2.39-0.265c-0.731-0.168-1.402-0.416-1.933-0.736l-0.186-0.112l0.785-2.718l0.313,0.184
		c0.425,0.25,0.982,0.494,1.633,0.664c0.54,0.142,1.147,0.232,1.8,0.232c1.054,0,1.942-0.302,2.541-0.982
		c0.551-0.626,0.872-1.583,0.872-2.935v-0.48c-0.319,0.352-0.707,0.656-1.154,0.894c-0.646,0.342-1.416,0.543-2.282,0.543
		c-1.636,0-3.017-0.718-3.992-1.916c-0.979-1.204-1.547-2.894-1.547-4.824c0-2.188,0.631-3.926,1.612-5.151
		c1.108-1.385,2.661-2.116,4.263-2.116c0.938,0,1.697,0.22,2.302,0.564C386.248,105.105,386.624,105.448,386.919,105.821
		L386.919,105.821z M371.922,114.743c0.565-0.835,0.879-2.018,0.879-3.322c0-1.16-0.265-2.436-0.874-3.334
		c-0.469-0.691-1.15-1.158-2.082-1.158c-0.961,0-1.657,0.465-2.133,1.162c-0.61,0.896-0.872,2.173-0.872,3.379
		c0,1.285,0.311,2.461,0.877,3.29c0.506,0.741,1.222,1.202,2.104,1.202C370.694,115.962,371.413,115.496,371.922,114.743
		L371.922,114.743z M365.188,106.304c1.185-1.325,2.862-2.03,4.752-2.03c1.891,0,3.461,0.716,4.562,1.962
		c1.098,1.243,1.722,3.011,1.722,5.114c0,2.316-0.69,4.024-1.733,5.201c-1.265,1.427-3.042,2.066-4.742,2.066
		c-1.842,0-3.462-0.697-4.604-1.98c-1.079-1.211-1.727-2.941-1.727-5.096C363.417,109.309,364.085,107.539,365.188,106.304
		L365.188,106.304z M358.204,98.538h3.067v19.814h-3.351V98.538H358.204L358.204,98.538z M351.426,114.743
		c0.565-0.835,0.879-2.018,0.879-3.322c0-1.16-0.265-2.436-0.874-3.334c-0.47-0.691-1.15-1.158-2.082-1.158
		c-0.961,0-1.657,0.465-2.133,1.162c-0.61,0.896-0.872,2.173-0.872,3.379c0,1.285,0.311,2.461,0.877,3.29
		c0.506,0.741,1.222,1.202,2.104,1.202C350.198,115.962,350.917,115.496,351.426,114.743L351.426,114.743z M344.692,106.304
		c1.185-1.325,2.862-2.03,4.752-2.03c1.891,0,3.461,0.716,4.562,1.962c1.098,1.243,1.722,3.011,1.722,5.114
		c0,2.316-0.69,4.024-1.733,5.201c-1.265,1.427-3.042,2.066-4.742,2.066c-1.842,0-3.462-0.697-4.604-1.98
		c-1.079-1.211-1.727-2.941-1.727-5.096C342.921,109.309,343.589,107.539,344.692,106.304L344.692,106.304z M339.616,105.86
		c0.726,0.901,1.207,2.234,1.207,4.121v8.371h-3.351v-8.035c0-0.956-0.167-1.826-0.593-2.41c-0.344-0.472-0.873-0.763-1.644-0.763
		c-0.657,0-1.34,0.292-1.832,0.855c-0.431,0.492-0.717,1.196-0.717,2.102v8.251h-3.351v-9.787c0-1.479-0.048-2.594-0.095-3.709
		l-0.002-0.295h2.971l0.11,1.512c0.353-0.439,0.815-0.85,1.379-1.167c0.682-0.384,1.512-0.633,2.472-0.633
		C337.394,104.273,338.696,104.718,339.616,105.86L339.616,105.86z M325.605,115.662c0.39-0.095,0.725-0.222,1.024-0.349
		l0.324-0.137l0.487,2.649l-0.199,0.092c-0.371,0.172-0.952,0.376-1.675,0.518c-0.545,0.107-1.172,0.182-1.852,0.182
		c-1.994,0-3.647-0.691-4.803-1.926c-1.144-1.223-1.793-2.971-1.793-5.102c0-2.121,0.705-3.981,1.984-5.297
		c1.229-1.263,2.98-2.02,5.14-2.02c0.59,0,1.149,0.066,1.64,0.166c0.604,0.122,1.104,0.297,1.438,0.464l0.204,0.103l-0.696,2.697
		l-0.313-0.157c-0.225-0.112-0.519-0.237-0.89-0.333c-0.37-0.096-0.82-0.164-1.36-0.164c-1.157,0-2.064,0.451-2.693,1.184
		c-0.69,0.806-1.055,1.957-1.055,3.237c0,1.35,0.382,2.426,1.024,3.168c0.661,0.764,1.606,1.18,2.7,1.18
		C324.773,115.817,325.22,115.755,325.605,115.662L325.605,115.662z M308.312,107.676c-0.508,0.592-0.794,1.401-0.908,2.143h5.202
		c-0.025-0.677-0.183-1.394-0.535-1.956c-0.372-0.592-0.975-1.017-1.89-1.03h-0.049C309.336,106.833,308.74,107.176,308.312,107.676
		L308.312,107.676z M312.904,115.743c0.521-0.106,0.973-0.257,1.391-0.431l0.309-0.129l0.584,2.519l-0.209,0.096
		c-0.52,0.24-1.193,0.458-1.991,0.608c-0.691,0.13-1.475,0.211-2.327,0.211c-2.049,0-3.677-0.683-4.803-1.882
		c-1.151-1.226-1.769-2.983-1.769-5.098c0-2.094,0.61-3.977,1.734-5.314c1.069-1.272,2.597-2.05,4.501-2.05
		c1.805,0,3.116,0.696,4.007,1.783c1.03,1.259,1.484,3.037,1.484,4.86c0,0.228-0.007,0.443-0.02,0.65
		c-0.012,0.203-0.031,0.392-0.056,0.566l-0.035,0.243h-8.35c0.077,1.146,0.447,1.973,0.995,2.535
		c0.687,0.702,1.667,1.002,2.718,1.002C311.782,115.914,312.382,115.851,312.904,115.743L312.904,115.743z M290.572,99.401h12.979
		v2.943h-4.969v16.008h-3.351v-16.008h-4.944v-2.943H290.572L290.572,99.401z M276.92,107.676c-0.508,0.592-0.794,1.401-0.908,2.143
		h5.201c-0.024-0.677-0.182-1.394-0.534-1.956c-0.372-0.592-0.975-1.017-1.89-1.03h-0.049
		C277.944,106.833,277.349,107.176,276.92,107.676L276.92,107.676z M281.513,115.743c0.521-0.106,0.973-0.257,1.391-0.431
		l0.309-0.129l0.583,2.519l-0.209,0.096c-0.519,0.24-1.193,0.458-1.991,0.608c-0.691,0.13-1.475,0.211-2.327,0.211
		c-2.049,0-3.676-0.683-4.803-1.882c-1.15-1.226-1.769-2.983-1.769-5.098c0-2.094,0.61-3.977,1.735-5.314
		c1.069-1.272,2.597-2.05,4.5-2.05c1.806,0,3.116,0.696,4.008,1.783c1.03,1.259,1.484,3.037,1.484,4.86
		c0,0.228-0.007,0.443-0.02,0.65c-0.013,0.203-0.031,0.392-0.057,0.566l-0.035,0.243h-8.349c0.077,1.146,0.446,1.973,0.995,2.535
		c0.687,0.702,1.667,1.002,2.717,1.002C280.39,115.914,280.99,115.851,281.513,115.743L281.513,115.743z M266.388,114.924
		c0.503-0.58,0.789-1.396,0.789-2.278v-2.448c0-0.964-0.288-1.732-0.745-2.268c-0.486-0.571-1.17-0.881-1.9-0.881
		c-0.926,0-1.654,0.442-2.16,1.165c-0.569,0.813-0.868,1.978-0.868,3.279c0,1.282,0.29,2.404,0.844,3.182
		c0.497,0.698,1.217,1.119,2.137,1.119C265.27,115.794,265.924,115.458,266.388,114.924L266.388,114.924z M267.46,98.538h3.067
		v16.003c0,0.575,0.01,1.164,0.024,1.709c0.018,0.664,0.044,1.306,0.07,1.805l0.016,0.298h-3.01l-0.109-1.571
		c-0.355,0.468-0.807,0.872-1.339,1.181c-0.708,0.412-1.559,0.655-2.512,0.655c-1.613,0-3.029-0.728-4.032-2.008
		c-0.956-1.222-1.531-2.947-1.531-5.02c0-2.213,0.61-3.975,1.583-5.214c1.076-1.371,2.593-2.103,4.22-2.103
		c0.859,0,1.605,0.187,2.22,0.498c0.411,0.208,0.763,0.473,1.05,0.776v-7.01H267.46L267.46,98.538z M246.617,115.308
		c0.438-0.427,0.711-1.021,0.711-1.702v-1.898c-0.977,0.017-1.992,0.128-2.774,0.472c-0.802,0.352-1.362,0.963-1.362,2.003
		c0,0.606,0.17,1.049,0.441,1.343c0.304,0.331,0.745,0.485,1.219,0.485C245.54,116.01,246.167,115.746,246.617,115.308
		L246.617,115.308z M249.272,105.722c0.99,1.072,1.335,2.608,1.335,4.212v4.992c0,0.568,0.006,1.139,0.031,1.657
		c0.026,0.522,0.073,1.014,0.155,1.433l0.064,0.337h-3.113l-0.15-1.21c-0.366,0.389-0.814,0.724-1.332,0.976
		c-0.642,0.313-1.393,0.499-2.227,0.499c-1.26,0-2.267-0.447-2.977-1.154c-0.778-0.772-1.195-1.853-1.195-2.993
		c0-1.712,0.729-3.003,2.041-3.876c1.277-0.851,3.107-1.292,5.349-1.325c-0.008-0.438-0.054-0.981-0.297-1.431
		c-0.287-0.531-0.879-0.957-2.081-0.957c-0.554,0-1.113,0.084-1.633,0.23c-0.535,0.151-1.027,0.37-1.429,0.634l-0.313,0.207
		l-0.752-2.412l0.182-0.117c0.52-0.332,1.221-0.637,2.038-0.848c0.719-0.187,1.53-0.302,2.387-0.302
		C247.199,104.273,248.451,104.833,249.272,105.722L249.272,105.722z M234.699,104.562h3.068v13.791h-3.352v-13.791H234.699
		L234.699,104.562z M237.473,99.823c0.339,0.344,0.534,0.826,0.534,1.374c0,0.532-0.195,1.017-0.547,1.362
		c-0.332,0.328-0.8,0.529-1.368,0.529c-0.55,0-1.015-0.205-1.347-0.537c-0.346-0.345-0.545-0.825-0.545-1.354
		c0-0.549,0.201-1.029,0.544-1.373c0.34-0.339,0.816-0.542,1.371-0.542S237.139,99.484,237.473,99.823L237.473,99.823z
		 M232.23,104.294c0.124,0.014,0.24,0.032,0.364,0.058l0.229,0.046v3.242l-0.339-0.068c-0.109-0.021-0.226-0.039-0.351-0.05
		c-0.126-0.011-0.263-0.017-0.41-0.017c-0.84,0-1.522,0.341-1.995,0.937c-0.494,0.622-0.77,1.526-0.77,2.62v7.291h-3.351v-9.475
		c0-0.797-0.006-1.501-0.021-2.128c-0.015-0.651-0.038-1.271-0.074-1.888l-0.018-0.301h2.995l0.068,1.73
		c0.289-0.482,0.647-0.89,1.052-1.21c0.659-0.521,1.438-0.809,2.232-0.809C231.981,104.273,232.105,104.28,232.23,104.294
		L232.23,104.294z M219.113,114.743c0.565-0.835,0.879-2.018,0.879-3.322c0-1.16-0.265-2.436-0.875-3.334
		c-0.469-0.691-1.15-1.158-2.082-1.158c-0.96,0-1.657,0.465-2.133,1.162c-0.61,0.896-0.872,2.173-0.872,3.379
		c0,1.285,0.311,2.461,0.877,3.29c0.506,0.741,1.222,1.202,2.104,1.202C217.886,115.962,218.604,115.496,219.113,114.743
		L219.113,114.743z M212.38,106.304c1.184-1.325,2.862-2.03,4.751-2.03c1.891,0,3.461,0.716,4.562,1.962
		c1.098,1.243,1.722,3.011,1.722,5.114c0,2.316-0.69,4.024-1.733,5.201c-1.265,1.427-3.042,2.066-4.742,2.066
		c-1.842,0-3.462-0.697-4.605-1.98c-1.079-1.211-1.727-2.941-1.727-5.096C210.608,109.309,211.276,107.539,212.38,106.304
		L212.38,106.304z M201.555,104.562h1.589v-2.323l3.327-1.042v3.365h3.144v2.655h-3.144v6.413c0,0.76,0.11,1.313,0.349,1.665
		c0.216,0.318,0.56,0.475,1.047,0.475c0.262,0,0.47-0.017,0.651-0.044c0.179-0.027,0.337-0.067,0.496-0.112l0.344-0.099l0.121,2.695
		l-0.187,0.074c-0.266,0.106-0.604,0.192-1.001,0.249c-0.372,0.054-0.796,0.084-1.264,0.084c-0.584,0-1.129-0.098-1.607-0.281
		c-0.487-0.188-0.903-0.465-1.221-0.822c-0.365-0.393-0.631-0.887-0.805-1.511c-0.169-0.608-0.251-1.342-0.251-2.229v-6.557h-1.872
		v-2.655H201.555L201.555,104.562z M192.967,107.676c-0.507,0.592-0.793,1.401-0.908,2.143h5.202
		c-0.025-0.677-0.182-1.394-0.535-1.956c-0.372-0.592-0.974-1.017-1.889-1.03h-0.049
		C193.992,106.833,193.396,107.176,192.967,107.676L192.967,107.676z M197.56,115.743c0.521-0.106,0.973-0.257,1.391-0.431
		l0.309-0.129l0.583,2.519l-0.209,0.096c-0.519,0.24-1.193,0.458-1.992,0.608c-0.691,0.13-1.474,0.211-2.327,0.211
		c-2.049,0-3.676-0.683-4.803-1.882c-1.151-1.226-1.769-2.983-1.769-5.098c0-2.094,0.61-3.977,1.735-5.314
		c1.069-1.272,2.597-2.05,4.5-2.05c1.805,0,3.116,0.696,4.007,1.783c1.03,1.259,1.484,3.037,1.484,4.86
		c0,0.228-0.006,0.443-0.019,0.65c-0.012,0.202-0.031,0.39-0.056,0.564l-0.035,0.245h-8.35c0.078,1.146,0.447,1.973,0.996,2.535
		c0.686,0.702,1.667,1.002,2.717,1.002C196.438,115.914,197.037,115.851,197.56,115.743L197.56,115.743z M187.374,104.294
		c0.124,0.014,0.24,0.032,0.364,0.058l0.229,0.046v3.242l-0.339-0.068c-0.109-0.021-0.225-0.039-0.35-0.05
		c-0.126-0.011-0.263-0.017-0.411-0.017c-0.839,0-1.522,0.341-1.995,0.937c-0.494,0.622-0.769,1.526-0.769,2.62v7.291h-3.351v-9.475
		c0-0.797-0.006-1.501-0.02-2.128c-0.015-0.651-0.039-1.271-0.075-1.888l-0.018-0.301h2.995l0.069,1.73
		c0.289-0.482,0.647-0.89,1.052-1.21c0.659-0.521,1.438-0.809,2.232-0.809C187.125,104.273,187.25,104.28,187.374,104.294
		L187.374,104.294z M174.675,104.562h3.067v13.791h-3.351v-13.791H174.675L174.675,104.562z M177.448,99.823
		c0.339,0.344,0.534,0.826,0.534,1.374c0,0.532-0.195,1.017-0.547,1.362c-0.333,0.328-0.8,0.529-1.368,0.529
		c-0.55,0-1.015-0.205-1.347-0.537c-0.346-0.345-0.544-0.825-0.544-1.354c0-0.549,0.201-1.029,0.544-1.373
		c0.339-0.339,0.815-0.542,1.371-0.542C176.645,99.282,177.114,99.484,177.448,99.823L177.448,99.823z M161.539,102.114
		c-0.24,0.024-0.456,0.055-0.645,0.087v13.459c0.157,0.017,0.326,0.029,0.502,0.039c0.313,0.017,0.664,0.022,1.015,0.022l0.06,0.002
		c1.954-0.001,3.517-0.571,4.588-1.73c1.082-1.17,1.679-2.951,1.693-5.365l0-0.087c-0.001-2.135-0.539-3.75-1.538-4.83
		c-1.015-1.097-2.523-1.654-4.444-1.654C162.295,102.057,161.885,102.08,161.539,102.114L161.539,102.114z M159.58,118.466
		c-0.671-0.036-1.269-0.092-1.792-0.164l-0.245-0.034V99.709l0.238-0.039c0.715-0.117,1.518-0.22,2.37-0.289
		c0.75-0.062,1.544-0.099,2.355-0.099c4.011,0,6.446,1.25,7.882,3.028c1.435,1.775,1.857,4.065,1.857,6.159v0.023
		c0,1.642-0.247,3.072-0.687,4.293c-0.476,1.319-1.178,2.394-2.039,3.229c-0.854,0.83-1.952,1.455-3.248,1.874
		c-1.301,0.42-2.804,0.631-4.462,0.631C161,118.521,160.256,118.502,159.58,118.466L159.58,118.466z M275.585,146.703
		c0.565-0.836,0.88-2.019,0.88-3.322c0-1.16-0.265-2.437-0.875-3.335c-0.469-0.691-1.15-1.157-2.082-1.157
		c-0.961,0-1.657,0.464-2.133,1.162c-0.61,0.895-0.872,2.172-0.872,3.378c0,1.286,0.311,2.462,0.877,3.291
		c0.507,0.74,1.223,1.201,2.104,1.201C274.358,147.921,275.076,147.455,275.585,146.703L275.585,146.703z M268.853,138.263
		c1.184-1.325,2.862-2.029,4.751-2.029c1.891,0,3.461,0.715,4.562,1.961c1.099,1.243,1.723,3.011,1.723,5.114
		c0,2.317-0.69,4.025-1.734,5.202c-1.264,1.426-3.042,2.065-4.741,2.065c-1.843,0-3.463-0.696-4.605-1.979
		c-1.078-1.211-1.727-2.941-1.727-5.096C267.08,141.269,267.749,139.498,268.853,138.263L268.853,138.263z M260.993,147.267
		c0.438-0.426,0.711-1.021,0.711-1.702v-1.897c-0.978,0.017-1.992,0.128-2.774,0.471c-0.802,0.352-1.362,0.963-1.362,2.003
		c0,0.607,0.17,1.05,0.441,1.344c0.304,0.33,0.745,0.485,1.219,0.485C259.916,147.97,260.543,147.705,260.993,147.267
		L260.993,147.267z M263.648,137.682c0.99,1.072,1.335,2.607,1.335,4.211v4.992c0,0.568,0.006,1.14,0.031,1.658
		c0.026,0.522,0.073,1.014,0.154,1.433l0.065,0.337h-3.113l-0.151-1.211c-0.365,0.389-0.813,0.725-1.331,0.977
		c-0.642,0.313-1.393,0.498-2.228,0.498c-1.259,0-2.266-0.447-2.977-1.153c-0.777-0.772-1.194-1.854-1.194-2.994
		c0-1.712,0.729-3.003,2.041-3.876c1.277-0.851,3.107-1.291,5.349-1.325c-0.008-0.438-0.054-0.981-0.297-1.43
		c-0.287-0.531-0.879-0.958-2.081-0.958c-0.554,0-1.113,0.084-1.633,0.231c-0.535,0.151-1.027,0.37-1.429,0.634l-0.313,0.206
		l-0.752-2.412l0.182-0.116c0.52-0.333,1.221-0.638,2.038-0.849c0.719-0.186,1.53-0.301,2.387-0.301
		C261.575,136.233,262.826,136.792,263.648,137.682L263.648,137.682z M236.825,147.267c0.438-0.426,0.711-1.021,0.711-1.702v-1.897
		c-0.978,0.017-1.992,0.128-2.774,0.471c-0.803,0.352-1.362,0.963-1.362,2.003c0,0.607,0.17,1.05,0.44,1.344
		c0.305,0.33,0.746,0.485,1.22,0.485C235.748,147.97,236.375,147.705,236.825,147.267L236.825,147.267z M239.479,137.682
		c0.991,1.072,1.336,2.607,1.336,4.211v4.992c0,0.568,0.006,1.14,0.031,1.658c0.026,0.522,0.073,1.014,0.154,1.433l0.066,0.337
		h-3.114l-0.151-1.211c-0.365,0.389-0.813,0.725-1.331,0.977c-0.642,0.313-1.393,0.498-2.228,0.498
		c-1.259,0-2.266-0.447-2.977-1.153c-0.777-0.772-1.194-1.854-1.194-2.994c0-1.712,0.729-3.003,2.041-3.876
		c1.277-0.851,3.107-1.291,5.349-1.325c-0.009-0.438-0.054-0.981-0.297-1.43c-0.288-0.531-0.879-0.958-2.082-0.958
		c-0.553,0-1.112,0.084-1.632,0.231c-0.535,0.151-1.028,0.37-1.429,0.634l-0.313,0.206l-0.752-2.412l0.182-0.116
		c0.52-0.333,1.221-0.638,2.037-0.849c0.72-0.186,1.531-0.301,2.388-0.301C237.407,136.233,238.658,136.792,239.479,137.682
		L239.479,137.682z M226.937,137.842c0.684,0.913,1.135,2.268,1.135,4.195v8.275h-3.303v-7.844c0-1.092-0.18-1.985-0.569-2.58
		c-0.336-0.516-0.845-0.809-1.548-0.809c-0.59,0-1.189,0.286-1.625,0.808c-0.397,0.476-0.659,1.148-0.659,1.981v8.443h-3.303v-8.252
		c0-0.916-0.176-1.712-0.557-2.251c-0.322-0.456-0.803-0.729-1.464-0.729c-0.594,0-1.234,0.294-1.701,0.856
		c-0.406,0.491-0.68,1.188-0.68,2.076v8.3h-3.303v-9.788c0-1.479-0.046-2.56-0.092-3.655l-0.015-0.348h2.958l0.11,1.493
		c0.345-0.441,0.785-0.856,1.336-1.175c0.638-0.368,1.42-0.606,2.371-0.606c0.888,0,1.673,0.246,2.313,0.689
		c0.529,0.366,0.958,0.865,1.26,1.469c0.415-0.59,0.907-1.085,1.49-1.451c0.716-0.45,1.564-0.707,2.568-0.707
		C224.831,136.233,226.066,136.679,226.937,137.842L226.937,137.842z M207.174,136.254c0.125,0.013,0.24,0.032,0.365,0.057
		l0.228,0.046v3.242l-0.338-0.067c-0.109-0.022-0.226-0.039-0.35-0.05c-0.126-0.012-0.263-0.017-0.411-0.017
		c-0.839,0-1.522,0.34-1.995,0.937c-0.494,0.622-0.769,1.525-0.769,2.619v7.292h-3.351v-9.476c0-0.796-0.006-1.5-0.02-2.127
		c-0.015-0.651-0.039-1.272-0.075-1.889l-0.018-0.3h2.995l0.069,1.73c0.289-0.482,0.647-0.891,1.052-1.21
		c0.659-0.521,1.438-0.809,2.232-0.809C206.925,136.233,207.049,136.24,207.174,136.254L207.174,136.254z M194.057,146.703
		c0.565-0.836,0.879-2.019,0.879-3.322c0-1.16-0.264-2.437-0.874-3.335c-0.469-0.691-1.15-1.157-2.083-1.157
		c-0.96,0-1.657,0.464-2.133,1.162c-0.61,0.895-0.872,2.172-0.872,3.378c0,1.286,0.31,2.462,0.877,3.291
		c0.506,0.74,1.222,1.201,2.104,1.201C192.83,147.921,193.548,147.455,194.057,146.703L194.057,146.703z M187.324,138.263
		c1.184-1.325,2.862-2.029,4.751-2.029c1.891,0,3.461,0.715,4.562,1.961c1.098,1.243,1.722,3.011,1.722,5.114
		c0,2.317-0.69,4.025-1.733,5.202c-1.264,1.426-3.042,2.065-4.742,2.065c-1.842,0-3.462-0.696-4.605-1.979
		c-1.079-1.211-1.727-2.941-1.727-5.096C185.552,141.269,186.22,139.498,187.324,138.263L187.324,138.263z M177.008,138.893v0.284
		h1.776v11.136h3.351v-11.136h2.88v-2.655h-2.904v-0.437c0-0.915,0.143-1.763,0.528-2.332c0.301-0.444,0.764-0.721,1.445-0.721
		c0.305,0,0.55,0.028,0.758,0.071c0.208,0.044,0.387,0.105,0.553,0.172l0.336,0.135l0.366-2.714l-0.205-0.082
		c-0.275-0.11-0.613-0.213-1.011-0.285c-0.329-0.059-0.7-0.096-1.11-0.096c-0.607,0-1.26,0.102-1.883,0.339
		c-0.547,0.208-1.074,0.522-1.529,0.966l-0.002,0.002c-0.79,0.79-1.184,1.746-1.38,2.694c-0.168,0.814-0.189,1.611-0.192,2.287
		h-1.776V138.893L177.008,138.893z M174.279,137.819c0.726,0.902,1.208,2.235,1.208,4.121v8.372h-3.351v-8.035
		c0-0.957-0.167-1.826-0.593-2.411c-0.344-0.471-0.873-0.762-1.644-0.762c-0.657,0-1.339,0.292-1.832,0.854
		c-0.431,0.493-0.717,1.197-0.717,2.102v8.252H164v-9.788c0-1.479-0.047-2.594-0.095-3.708l-0.001-0.295h2.97l0.111,1.512
		c0.352-0.439,0.814-0.851,1.378-1.167c0.682-0.385,1.512-0.633,2.472-0.633C172.057,136.233,173.359,136.678,174.279,137.819
		L174.279,137.819z M247.119,152.03c0.147-0.574,0.281-1.171,0.383-1.721c-1.38-0.385-2.505-1.177-3.294-2.299
		c-0.818-1.163-1.271-2.679-1.271-4.462c0-2.121,0.705-3.981,1.984-5.296c1.229-1.263,2.979-2.02,5.139-2.02
		c0.59,0,1.149,0.065,1.641,0.166c0.603,0.122,1.104,0.297,1.438,0.464l0.205,0.103l-0.697,2.696l-0.313-0.156
		c-0.225-0.113-0.519-0.237-0.89-0.333c-0.37-0.097-0.82-0.164-1.36-0.164c-1.156,0-2.064,0.45-2.692,1.184
		c-0.691,0.806-1.056,1.957-1.056,3.236c0,1.35,0.383,2.426,1.024,3.168c0.661,0.765,1.606,1.181,2.7,1.181
		c0.529,0,0.976-0.063,1.361-0.156c0.391-0.095,0.725-0.222,1.025-0.349l0.323-0.137l0.487,2.65l-0.199,0.092
		c-0.371,0.171-0.952,0.375-1.675,0.518c-0.495,0.098-1.059,0.167-1.668,0.179c-0.206,0.609-0.446,1.237-0.691,1.81
		c-0.262,0.614-0.529,1.163-0.767,1.556l-0.072,0.121l-1.766,0.177l0.156-0.424C246.76,153.313,246.95,152.685,247.119,152.03
		L247.119,152.03z M262.189,133.158c0.118-0.201,0.179-0.52,0.186-0.951l0.005-0.278h1.741l0.014,0.27l0.007,0.273
		c0,0.953-0.246,1.635-0.642,2.091c-0.408,0.47-0.967,0.693-1.577,0.722l-0.134,0.004c-0.394,0-0.76-0.063-1.177-0.202
		c-0.401-0.133-0.847-0.336-1.416-0.62l-0.16-0.082c-0.722-0.375-1.246-0.647-1.7-0.647c-0.192,0-0.347,0.067-0.453,0.219
		c-0.133,0.189-0.213,0.503-0.227,0.964l-0.008,0.275h-1.747c-0.001-0.049,0.002-0.387-0.007-0.413c0-0.95,0.255-1.663,0.676-2.147
		c0.433-0.498,1.032-0.749,1.709-0.766l0.072-0.002c0.405,0,0.771,0.071,1.184,0.216c0.394,0.139,0.825,0.346,1.378,0.621
		c0.432,0.215,0.79,0.393,1.093,0.509c0.289,0.111,0.541,0.175,0.783,0.175C261.968,133.387,262.101,133.31,262.189,133.158
		L262.189,133.158z M435.846,133.158c0.118-0.201,0.18-0.52,0.187-0.951l0.004-0.278h1.742l0.013,0.27l0.008,0.273
		c0,0.953-0.246,1.635-0.643,2.091c-0.408,0.47-0.967,0.693-1.577,0.722l-0.134,0.004c-0.394,0-0.759-0.063-1.177-0.202
		c-0.401-0.133-0.847-0.336-1.416-0.62l-0.159-0.082c-0.722-0.375-1.246-0.647-1.7-0.647c-0.193,0-0.348,0.067-0.454,0.219
		c-0.133,0.189-0.212,0.503-0.226,0.964l-0.009,0.275h-1.747c-0.001-0.049,0.003-0.387-0.006-0.413c0-0.95,0.255-1.663,0.675-2.147
		c0.433-0.498,1.032-0.749,1.71-0.766l0.072-0.002c0.404,0,0.771,0.071,1.183,0.216c0.394,0.139,0.825,0.346,1.378,0.621
		c0.433,0.215,0.791,0.393,1.094,0.509c0.288,0.111,0.54,0.175,0.782,0.175C435.624,133.387,435.757,133.31,435.846,133.158
		L435.846,133.158z M448.986,146.703c0.565-0.836,0.879-2.019,0.879-3.322c0-1.16-0.264-2.437-0.874-3.335
		c-0.469-0.691-1.15-1.157-2.082-1.157c-0.961,0-1.657,0.464-2.133,1.162c-0.61,0.895-0.872,2.172-0.872,3.378
		c0,1.286,0.311,2.462,0.877,3.291c0.507,0.74,1.222,1.201,2.104,1.201C447.76,147.921,448.478,147.455,448.986,146.703
		L448.986,146.703z M442.253,138.263c1.185-1.325,2.863-2.029,4.752-2.029c1.891,0,3.461,0.715,4.562,1.961
		c1.098,1.243,1.722,3.011,1.722,5.114c0,2.317-0.689,4.025-1.733,5.202c-1.265,1.426-3.042,2.065-4.741,2.065
		c-1.843,0-3.463-0.696-4.605-1.979c-1.078-1.211-1.727-2.941-1.727-5.096C440.481,141.269,441.149,139.498,442.253,138.263
		L442.253,138.263z M434.395,147.267c0.438-0.426,0.711-1.021,0.711-1.702v-1.897c-0.978,0.017-1.992,0.128-2.774,0.471
		c-0.803,0.352-1.362,0.963-1.362,2.003c0,0.607,0.17,1.05,0.44,1.344c0.305,0.33,0.746,0.485,1.22,0.485
		C433.317,147.97,433.944,147.705,434.395,147.267L434.395,147.267z M437.05,137.682c0.99,1.072,1.335,2.607,1.335,4.211v4.992
		c0,0.568,0.006,1.14,0.031,1.658c0.026,0.522,0.073,1.014,0.154,1.433l0.065,0.337h-3.113l-0.151-1.211
		c-0.365,0.389-0.813,0.725-1.331,0.977c-0.642,0.313-1.393,0.498-2.228,0.498c-1.259,0-2.266-0.447-2.977-1.153
		c-0.777-0.772-1.194-1.854-1.194-2.994c0-1.712,0.729-3.003,2.041-3.876c1.277-0.851,3.107-1.291,5.349-1.325
		c-0.009-0.438-0.054-0.981-0.297-1.43c-0.287-0.531-0.879-0.958-2.082-0.958c-0.553,0-1.112,0.084-1.632,0.231
		c-0.535,0.151-1.027,0.37-1.429,0.634l-0.313,0.206l-0.752-2.412l0.182-0.116c0.52-0.333,1.221-0.638,2.037-0.849
		c0.72-0.186,1.531-0.301,2.388-0.301C434.977,136.233,436.228,136.792,437.05,137.682L437.05,137.682z M410.227,147.267
		c0.438-0.426,0.711-1.021,0.711-1.702v-1.897c-0.978,0.017-1.992,0.128-2.774,0.471c-0.803,0.352-1.363,0.963-1.363,2.003
		c0,0.607,0.171,1.05,0.441,1.344c0.305,0.33,0.746,0.485,1.22,0.485C409.149,147.97,409.776,147.705,410.227,147.267
		L410.227,147.267z M412.881,137.682c0.991,1.072,1.335,2.607,1.335,4.211v4.992c0,0.568,0.007,1.14,0.032,1.658
		c0.026,0.522,0.073,1.014,0.154,1.433l0.065,0.337h-3.113l-0.151-1.211c-0.366,0.389-0.813,0.725-1.331,0.977
		c-0.643,0.313-1.393,0.498-2.228,0.498c-1.259,0-2.267-0.447-2.977-1.153c-0.777-0.772-1.194-1.854-1.194-2.994
		c0-1.712,0.729-3.003,2.041-3.876c1.277-0.851,3.107-1.291,5.349-1.325c-0.009-0.438-0.055-0.981-0.297-1.43
		c-0.288-0.531-0.88-0.958-2.082-0.958c-0.554,0-1.112,0.084-1.632,0.231c-0.535,0.151-1.028,0.37-1.429,0.634l-0.313,0.206
		l-0.752-2.412l0.182-0.116c0.52-0.333,1.221-0.638,2.037-0.849c0.72-0.186,1.531-0.301,2.388-0.301
		C410.808,136.233,412.06,136.792,412.881,137.682L412.881,137.682z M400.654,147.621c0.39-0.095,0.725-0.222,1.024-0.349
		l0.324-0.137l0.487,2.65l-0.199,0.092c-0.371,0.171-0.952,0.375-1.675,0.518c-0.545,0.107-1.172,0.181-1.852,0.181
		c-1.994,0-3.647-0.69-4.804-1.926c-1.144-1.222-1.792-2.971-1.792-5.102c0-2.121,0.705-3.981,1.984-5.296
		c1.229-1.263,2.98-2.02,5.14-2.02c0.59,0,1.148,0.065,1.64,0.166c0.604,0.122,1.104,0.297,1.438,0.464l0.204,0.103l-0.697,2.696
		l-0.312-0.156c-0.225-0.113-0.52-0.237-0.89-0.333c-0.37-0.097-0.82-0.164-1.36-0.164c-1.157,0-2.064,0.45-2.693,1.184
		c-0.69,0.806-1.055,1.957-1.055,3.236c0,1.35,0.382,2.426,1.024,3.168c0.66,0.765,1.606,1.181,2.7,1.181
		C399.822,147.777,400.269,147.715,400.654,147.621L400.654,147.621z M386.908,136.521h3.067v13.791h-3.351v-13.791H386.908
		L386.908,136.521z M389.682,131.783c0.339,0.344,0.534,0.825,0.534,1.374c0,0.532-0.195,1.016-0.547,1.362
		c-0.332,0.327-0.801,0.529-1.368,0.529c-0.55,0-1.015-0.206-1.347-0.538c-0.346-0.345-0.545-0.825-0.545-1.354
		c0-0.549,0.201-1.029,0.544-1.373c0.34-0.34,0.815-0.543,1.371-0.543C388.879,131.241,389.348,131.444,389.682,131.783
		L389.682,131.783z M382.48,137.819c0.726,0.902,1.207,2.235,1.207,4.121v8.372h-3.351v-8.035c0-0.957-0.167-1.826-0.593-2.411
		c-0.344-0.471-0.873-0.762-1.644-0.762c-0.657,0-1.34,0.292-1.832,0.854c-0.431,0.493-0.717,1.197-0.717,2.102v8.252h-3.351v-9.788
		c0-1.479-0.048-2.594-0.095-3.708l-0.001-0.295h2.97l0.11,1.512c0.353-0.439,0.815-0.851,1.379-1.167
		c0.682-0.385,1.512-0.633,2.472-0.633C380.258,136.233,381.561,136.678,382.48,137.819L382.48,137.819z M366.124,136.521h3.068
		v9.724c0,1.27,0.051,2.345,0.096,3.279l0.036,0.788h-3.007l-0.112-1.498c-0.344,0.411-0.811,0.832-1.407,1.159
		c-0.65,0.356-1.455,0.603-2.417,0.603c-1.316,0-2.547-0.446-3.403-1.575c-0.71-0.937-1.152-2.339-1.152-4.34v-8.14h3.351v7.676
		c0,1.092,0.15,1.993,0.512,2.607c0.337,0.573,0.877,0.9,1.677,0.9c0.619,0,1.297-0.268,1.785-0.8
		c0.413-0.447,0.691-1.086,0.691-1.916v-8.468H366.124L366.124,136.521z M353.825,137.842c0.684,0.913,1.135,2.268,1.135,4.195
		v8.275h-3.303v-7.844c0-1.092-0.18-1.985-0.568-2.58c-0.337-0.516-0.846-0.809-1.549-0.809c-0.59,0-1.189,0.286-1.625,0.808
		c-0.397,0.476-0.659,1.148-0.659,1.981v8.443h-3.303v-8.252c0-0.916-0.177-1.712-0.557-2.251c-0.322-0.456-0.804-0.729-1.464-0.729
		c-0.594,0-1.234,0.294-1.7,0.856c-0.406,0.491-0.681,1.188-0.681,2.076v8.3h-3.303v-9.788c0-1.479-0.047-2.56-0.093-3.655
		l-0.015-0.348h2.957l0.111,1.493c0.345-0.441,0.785-0.856,1.336-1.175c0.638-0.368,1.42-0.606,2.37-0.606
		c0.889,0,1.674,0.246,2.313,0.689c0.529,0.366,0.958,0.865,1.261,1.469c0.415-0.59,0.907-1.085,1.489-1.451
		c0.717-0.451,1.565-0.707,2.569-0.707C351.72,136.233,352.955,136.679,353.825,137.842L353.825,137.842z M329.754,146.703
		c0.564-0.836,0.879-2.019,0.879-3.322c0-1.16-0.265-2.437-0.874-3.335c-0.47-0.691-1.15-1.157-2.083-1.157
		c-0.96,0-1.656,0.464-2.133,1.162c-0.609,0.895-0.871,2.172-0.871,3.378c0,1.286,0.31,2.462,0.877,3.291
		c0.506,0.74,1.222,1.201,2.104,1.201C328.526,147.921,329.244,147.455,329.754,146.703L329.754,146.703z M323.021,138.263
		c1.185-1.325,2.862-2.029,4.752-2.029c1.891,0,3.461,0.715,4.561,1.961c1.099,1.243,1.723,3.011,1.723,5.114
		c0,2.317-0.69,4.025-1.733,5.202c-1.265,1.426-3.042,2.065-4.742,2.065c-1.842,0-3.462-0.696-4.604-1.979
		c-1.079-1.211-1.727-2.941-1.727-5.096C321.249,141.269,321.917,139.498,323.021,138.263L323.021,138.263z M420.768,152.061
		c0.145-0.561,0.277-1.145,0.379-1.688c-1.448-0.347-2.633-1.128-3.464-2.26c-0.864-1.176-1.346-2.729-1.346-4.563
		c0-2.121,0.705-3.981,1.984-5.296c1.229-1.263,2.98-2.02,5.14-2.02c0.59,0,1.149,0.065,1.64,0.166
		c0.604,0.122,1.104,0.297,1.438,0.464l0.205,0.103l-0.697,2.696l-0.313-0.156c-0.225-0.113-0.519-0.237-0.89-0.333
		c-0.37-0.097-0.82-0.164-1.36-0.164c-1.157,0-2.064,0.45-2.692,1.184c-0.691,0.806-1.056,1.957-1.056,3.236
		c0,1.35,0.382,2.426,1.024,3.168c0.661,0.765,1.606,1.181,2.7,1.181c0.529,0,0.976-0.063,1.361-0.156
		c0.39-0.095,0.725-0.222,1.024-0.349l0.324-0.137l0.487,2.65l-0.199,0.092c-0.351,0.162-0.888,0.353-1.555,0.493
		c-0.452,0.095-0.968,0.168-1.529,0.193c-0.207,0.612-0.449,1.244-0.694,1.819c-0.262,0.613-0.529,1.163-0.767,1.556l-0.073,0.121
		l-1.765,0.177l0.156-0.424C420.414,153.32,420.601,152.703,420.768,152.061L420.768,152.061z M317.71,147.488
		c0.561-0.109,1.063-0.266,1.443-0.45l0.323-0.157l0.603,2.799l-0.197,0.098c-0.439,0.22-1.119,0.439-1.973,0.591
		c-0.71,0.126-1.547,0.208-2.474,0.208c-2.673,0-4.905-0.902-6.46-2.584c-1.506-1.629-2.367-3.98-2.367-6.939
		c0-3.088,0.947-5.508,2.518-7.188c1.686-1.802,4.082-2.744,6.79-2.744c0.885,0,1.635,0.08,2.247,0.192
		c0.882,0.162,1.482,0.396,1.796,0.561l0.2,0.105l-0.744,2.825l-0.307-0.145c-0.398-0.187-0.887-0.36-1.463-0.48
		c-0.482-0.101-1.028-0.163-1.634-0.163c-1.759,0-3.281,0.612-4.335,1.833c-0.987,1.145-1.573,2.831-1.573,5.06
		c0,2.163,0.552,3.846,1.548,4.986c1.008,1.153,2.482,1.762,4.313,1.762C316.561,147.657,317.162,147.596,317.71,147.488
		L317.71,147.488z M291.736,139.636c-0.508,0.591-0.794,1.4-0.908,2.142h5.202c-0.025-0.677-0.183-1.394-0.535-1.955
		c-0.372-0.593-0.975-1.018-1.89-1.031h-0.049C292.761,138.792,292.165,139.136,291.736,139.636L291.736,139.636z M296.329,147.703
		c0.521-0.106,0.973-0.258,1.391-0.432l0.309-0.128l0.584,2.518l-0.209,0.097c-0.52,0.239-1.194,0.458-1.992,0.608
		c-0.691,0.13-1.474,0.21-2.326,0.21c-2.05,0-3.677-0.682-4.803-1.881c-1.151-1.226-1.769-2.984-1.769-5.099
		c0-2.094,0.609-3.977,1.734-5.314c1.069-1.271,2.597-2.049,4.501-2.049c1.805,0,3.116,0.695,4.007,1.783
		c1.03,1.258,1.484,3.037,1.484,4.86c0,0.227-0.007,0.442-0.02,0.649c-0.012,0.203-0.031,0.392-0.056,0.566l-0.035,0.243h-8.35
		c0.077,1.146,0.447,1.974,0.995,2.535c0.687,0.702,1.667,1.002,2.718,1.002C295.207,147.873,295.807,147.81,296.329,147.703
		L296.329,147.703z M160.611,150.313h-3.068v-18.951h3.351v18.951H160.611z"/>
</g>
<g id="Camada_1_1_">
</g>
<g id="Camada_1_2_">
</g>
</svg>
