<?xml version="1.0" encoding="utf-8"?>
<!-- Generator: Adobe Illustrator 16.0.3, SVG Export Plug-In . SVG Version: 6.00 Build 0)  -->
<!DOCTYPE svg PUBLIC "-//W3C//DTD SVG 1.1//EN" "http://www.w3.org/Graphics/SVG/1.1/DTD/svg11.dtd">
<svg version="1.1" id="Camada_1" xmlns="http://www.w3.org/2000/svg" xmlns:xlink="http://www.w3.org/1999/xlink" x="0px" y="0px"
	 width="146.355px" height="98px" viewBox="74.671 52 146.355 98" enable-background="new 74.671 52 146.355 98"
	 xml:space="preserve">
<g>
	<g>
		<polygon fill="#1A171B" points="165.113,61.033 125.962,61.033 128.523,52 167.674,52 		"/>
		<polygon fill="#E1001A" points="170.624,95.192 131.473,95.192 134.034,86.159 173.185,86.159 		"/>
		<polygon fill="#E1001A" points="176.838,72.419 137.687,72.419 140.248,63.386 179.399,63.386 		"/>
		<polygon fill="#1A171B" points="152.585,106.578 113.434,106.578 115.995,97.545 155.145,97.545 		"/>
		<polygon fill="#1A171B" points="158.694,83.806 119.543,83.806 122.104,74.773 161.255,74.773 		"/>
		<polygon fill="#E1001A" points="164.11,117.964 124.959,117.964 127.519,108.931 166.671,108.931 		"/>
	</g>
	<g>
		<path fill="#1A171B" d="M74.671,149.521l4.832-18.44c0.157-0.598,0.492-1.107,1.009-1.526c0.516-0.419,1.064-0.629,1.644-0.629
			H94.57l-0.927,3.533H83.201l-1.159,4.431h7.772l-0.361,1.377c-0.157,0.598-0.494,1.106-1.008,1.526
			c-0.517,0.419-1.064,0.629-1.645,0.629h-5.684l-1.38,5.268h10.44l-1.004,3.832H74.671L74.671,149.521z"/>
		<path fill="#1A171B" d="M89.869,149.521l9.026-10.537l-3.63-10.059h4.757l2.178,7.185l5.096-6.165
			c0.564-0.68,1.253-1.02,2.065-1.02h3.538L104,138.984l3.504,10.537h-4.7l-2.251-7.125l-5.927,7.125H89.869z"/>
		<path fill="#1A171B" d="M114.29,149.521l4.439-16.943h-5.917l0.393-1.497c0.156-0.598,0.494-1.106,1.011-1.525
			c0.515-0.419,1.063-0.63,1.643-0.63h13.806l-0.956,3.652h-5.861l-4.44,16.943H114.29L114.29,149.521z"/>
		<path fill="#1A171B" d="M125.022,149.521l4.832-18.44c0.157-0.598,0.493-1.107,1.009-1.526c0.515-0.419,1.064-0.629,1.644-0.629
			h12.414l-0.926,3.533h-10.443l-1.159,4.431h7.772l-0.361,1.377c-0.157,0.598-0.493,1.106-1.01,1.526
			c-0.515,0.419-1.063,0.629-1.644,0.629h-5.685l-1.38,5.268h10.442l-1.004,3.832H125.022L125.022,149.521z"/>
		<path fill="#1A171B" d="M159.896,142.397c-0.821,2.394-2.185,4.271-4.085,5.627c-1.931,1.316-4.193,1.976-6.783,1.976
			c-3.016,0-5.072-0.937-6.166-2.814c-1.115-1.796-1.212-4.449-0.292-7.962c0.941-3.593,2.46-6.286,4.554-8.083
			c2.154-1.876,4.799-2.814,7.931-2.814c2.553,0,4.411,0.66,5.573,1.978c1.096,1.277,1.438,3.072,1.024,5.388h-2.495
			c-0.928,0-1.476-0.419-1.642-1.258c-0.136-0.518-0.344-0.978-0.625-1.377c-0.618-0.599-1.563-0.897-2.84-0.897
			c-1.779,0-3.31,0.6-4.589,1.796c-1.242,1.198-2.166,2.955-2.774,5.27c-0.585,2.235-0.571,3.951,0.043,5.148
			c0.566,1.237,1.738,1.856,3.517,1.856c1.237,0,2.346-0.319,3.325-0.96c0.891-0.598,1.664-1.556,2.32-2.873L159.896,142.397
			L159.896,142.397z"/>
		<path fill="#1A171B" d="M172.881,128.926h3.25l1.854,20.596h-4.351l-0.221-4.252h-7.773l-2.391,4.252h-4.351l11.649-19.218
			C171.136,129.386,171.914,128.926,172.881,128.926z M172.727,133.057l-5.075,8.742h5.568L172.727,133.057z"/>
		<path fill="#1A171B" d="M178.913,149.521l4.831-18.44c0.156-0.598,0.493-1.107,1.011-1.526c0.514-0.419,1.068-0.648,1.659-0.688
			h4.002l-0.181,15.745l8.068-15.745h6.093l-5.412,20.655h-3.828l4.36-16.645l-8.421,16.645h-4.236l0.243-16.645l-4.36,16.645
			H178.913L178.913,149.521z"/>
		<path fill="#1A171B" d="M207.801,142.157l-1.93,7.364h-4.118l4.831-18.44c0.155-0.598,0.493-1.107,1.01-1.526
			c0.516-0.419,1.063-0.629,1.644-0.629h6.786c2.127,0,3.566,0.56,4.318,1.677c0.789,1.118,0.896,2.774,0.32,4.97
			c-0.543,2.076-1.493,3.712-2.852,4.908c-1.337,1.119-2.991,1.677-4.964,1.677H207.801L207.801,142.157z M208.772,138.445h4.002
			c1.083,0,1.92-0.239,2.51-0.719c0.615-0.438,1.067-1.197,1.35-2.275c0.241-0.917,0.202-1.655-0.114-2.214
			c-0.418-0.479-1.069-0.719-1.96-0.719h-4.233L208.772,138.445z"/>
	</g>
</g>
</svg>
