<?xml version="1.0" encoding="utf-8"?>
<!-- Generator: Adobe Illustrator 22.1.0, SVG Export Plug-In . SVG Version: 6.00 Build 0)  -->
<svg version="1.1" id="Camada_1" xmlns="http://www.w3.org/2000/svg" xmlns:xlink="http://www.w3.org/1999/xlink" x="0px" y="0px"
	 viewBox="0 0 419 158" style="enable-background:new 0 0 419 158;" xml:space="preserve">
<style type="text/css">
	.st0{fill-rule:evenodd;clip-rule:evenodd;fill:#C4161C;}
	.st1{fill-rule:evenodd;clip-rule:evenodd;fill:#FFFFFF;}
	.st2{fill-rule:evenodd;clip-rule:evenodd;}
	.st3{fill-rule:evenodd;clip-rule:evenodd;fill:#BCBEC0;}
	.st4{fill-rule:evenodd;clip-rule:evenodd;fill:#ED1C24;}
	.st5{fill-rule:evenodd;clip-rule:evenodd;fill:#052043;}
</style>
<g>
	<g>
		<path class="st0" d="M33.3,92.6h352.5c17.9,0,32.5,14.6,32.5,32.5l0,0c0,17.9-14.6,32.6-32.5,32.6H33.3
			c-17.9,0-32.5-14.6-32.5-32.6l0,0C0.8,107.3,15.4,92.6,33.3,92.6z"/>
		<path class="st1" d="M38.1,108.8H53c2.6,0,4.9,0.5,6.7,1.4c1.8,0.9,3.2,2.1,4,3.7c0.9,1.5,1.4,3.3,1.4,5.1c0,2.8-0.9,5.1-2.6,6.8
			c-1.7,1.7-4.4,2.6-8,2.6h-7.3v13.2h-9.2V108.8L38.1,108.8z M47.3,113.2v10.7h3.1c1.6,0,2.9-0.5,3.8-1.4c0.9-0.9,1.4-2.2,1.4-3.7
			c0-1.5-0.4-2.9-1.3-3.9c-0.9-1.1-2.3-1.6-4.2-1.6H47.3L47.3,113.2z M70.4,108.9h20.8v4.3H79.6v9.3h10.9v4.4H79.6v10.2h12.2v4.4
			H70.4V108.9L70.4,108.9z M98.1,108.8h16.6c1.6,0,3.3,0.3,5,1c1.7,0.6,3.2,1.6,4.4,3c1.2,1.3,1.9,3,2.1,5c0,2.6-0.7,4.8-2.1,6.4
			c-1.4,1.6-3.3,2.8-5.6,3.4l8,14H116l-8.1-16.7c0.1,0,0.3,0,0.6,0c0.3,0,0.5,0,0.6,0c2,0,3.5-0.2,4.6-0.7c1.1-0.5,1.9-1.2,2.3-2.1
			c0.4-0.9,0.6-2.1,0.6-3.6c0-1.6-0.5-2.9-1.6-4.1c-1.1-1.1-2.5-1.7-4.3-1.7h-3.4v28.8h-9.2V108.8L98.1,108.8z M131.6,108.8h9.2
			l7.4,17.1l7-17.1h9.2v32.7h-9.3v-20.8H155l-8.7,20.8h-1.1l-8.7-20.6h-0.1v20.6h-4.9V108.8L131.6,108.8z M180,108.8h9.2l12.2,32.7
			h-10.2l-3.5-9.5h-11.1l-3.1,9.5h-4.7L180,108.8L180,108.8z M181.9,116.2h-0.2l-3.7,11.5h8L181.9,116.2L181.9,116.2z M206.1,108.8
			h10.3l10.9,16.6h0.1v-16.6h5v32.7H227l-15.9-24.1H211v24.1h-4.9V108.8L206.1,108.8z M241,108.9h20.8v4.3h-11.6v9.3h10.9v4.4h-10.9
			v10.2h12.2v4.4H241V108.9L241,108.9z M268.9,108.8h10.3l10.9,16.6h0.1v-16.6h5v32.7h-5.3l-15.9-24.1h-0.1v24.1h-4.9V108.8
			L268.9,108.8z M300,108.8h26.9v4.4H318v28.3h-9.2v-28.3H300V108.8L300,108.8z M331.9,108.9h20.8v4.3h-11.6v9.3H352v4.4h-10.9v10.2
			h12.2v4.4h-21.4V108.9L331.9,108.9z M380.3,114.3l-3.7,2.9c-1.5-3-3.2-4.6-5.3-4.9c-3.1,0-4.6,1.2-4.8,3.7c0,0.9,0.3,1.7,0.8,2.3
			c0.5,0.6,1.5,1.3,3,2c1.3,0.6,2.6,1.2,4,1.8c1.4,0.6,2.6,1.4,3.6,2.1c1,0.8,1.8,1.8,2.4,3c0.6,1.2,0.9,2.7,0.9,4.4
			c-0.1,2-0.6,3.8-1.7,5.5c-1,1.6-2.4,2.9-4.1,3.8c-1.7,0.9-3.6,1.4-5.6,1.4c-2.8,0-5.2-0.5-7.2-1.4c-2-0.9-3.7-2.6-5.2-5.1l4.5-2.9
			c1.7,3.3,3.7,4.9,6,4.9c1.2,0,2.2-0.4,3-1.1c0.8-0.7,1.2-1.6,1.2-2.8c0-1.8-1.3-3.2-3.9-4.3c-2.1-1-3.6-1.7-4.4-2.1
			c-0.8-0.4-1.6-1-2.5-1.7c-2.2-1.9-3.3-4.2-3.3-7.1c0-2.1,0.4-4,1.3-5.5c0.8-1.5,1.9-2.8,3.3-3.6c1.4-0.9,2.8-1.4,4.4-1.7
			c1-0.1,1.8-0.2,2.4-0.2c1.5,0,3,0.3,4.4,0.8c1.4,0.5,2.6,1.2,3.8,2.2C378.6,111.8,379.5,113,380.3,114.3z"/>
		<path class="st2" d="M38.2,19.4h38.7v7.8H54.8V45h20.4v8H54.8v25.3H38.2V19.4L38.2,19.4z M115.8,24.6c-3.2,0-5.7,0.9-7.7,2.7
			c-2,1.8-3.4,4.2-4.4,7.1c-1,3-1.6,6.4-1.9,10.4c0,1.8-0.1,3.1-0.2,4.1c0.1,4.3,0.6,8.3,1.5,11.9c1,3.6,2.4,6.5,4.4,8.7
			c2,2.2,4.5,3.3,7.6,3.3c8.7,0,13.1-7.9,13.3-23.6c0-7.4-1.1-13.4-3.3-17.7C123,27,119.9,24.7,115.8,24.6L115.8,24.6z M115.2,17.5
			c4.4,0,8.5,0.8,12.3,2.3c3.8,1.5,7.1,3.7,10,6.4c2.8,2.8,5,6,6.6,9.7c1.6,3.7,2.4,7.6,2.6,11.7c0,5.9-1.4,11.3-4.1,16.3
			c-2.7,5-6.4,8.9-11.2,11.7c-4.8,2.9-10,4.3-15.8,4.3c-5,0-9.5-0.9-13.5-2.8c-4-1.8-7.4-4.3-10.1-7.4c-2.8-3.1-4.8-6.5-6.2-10.2
			c-1.4-3.7-2.1-7.4-2.1-11.1c0.2-5,1.3-9.5,3.1-13.4c1.8-3.9,4.2-7.2,7.2-9.8c3-2.6,6.3-4.6,10-5.9
			C107.5,18.2,111.3,17.5,115.2,17.5L115.2,17.5z M117.6,0.3h9.3L114.5,13h-5.2L117.6,0.3L117.6,0.3z M157.9,19.2h29.9
			c2.9,0,5.9,0.6,9,1.7c3.1,1.2,5.7,3,7.9,5.4c2.2,2.4,3.5,5.4,3.8,9c0,4.7-1.3,8.6-3.9,11.5c-2.6,2.9-5.9,5-10.1,6.1l14.5,25.3
			h-18.9l-14.7-30.1c0.2,0,0.6,0,1.1,0c0.5,0,0.9,0,1.1,0c3.6,0,6.4-0.4,8.4-1.3c2-0.9,3.4-2.1,4.2-3.8c0.8-1.7,1.2-3.8,1.2-6.5
			c0-2.9-1-5.3-2.9-7.3c-2-2-4.5-3-7.7-3h-6.2v52h-16.6V19.2L157.9,19.2z M218.3,19.2h16.8v39.3c0,7.7,3.6,11.6,10.7,11.8
			c4.2,0,7.2-1.1,8.8-3.4c1.6-2.3,2.4-5.1,2.4-8.3V19.2h8.8v40.2c0,4.4-0.9,8.2-2.7,11.3c-1.8,3.1-4.5,5.4-8,6.9
			c-3.6,1.6-8,2.3-13.2,2.3c-4.5,0-8.6-0.9-12.2-2.6c-3.6-1.7-6.4-4.2-8.4-7.3c-2-3.1-3-6.7-3-10.7V19.2L218.3,19.2z M280.1,19.2
			h18.5l19.6,29.9h0.2V19.2h8.9v59.1h-9.7l-28.7-43.5h-0.2v43.5h-8.8V19.2L280.1,19.2z M379.6,29.1l-6.8,5.2
			c-2.6-5.4-5.8-8.3-9.6-8.8c-5.5,0-8.4,2.3-8.6,6.8c0,1.6,0.5,3.1,1.4,4.2c0.9,1.2,2.7,2.4,5.4,3.6c2.3,1,4.7,2.1,7.2,3.3
			c2.5,1.2,4.7,2.4,6.5,3.9c1.8,1.4,3.3,3.2,4.4,5.4c1.1,2.2,1.6,4.8,1.6,8c-0.1,3.6-1.1,6.9-3,9.9c-1.9,3-4.4,5.3-7.5,6.9
			c-3.1,1.7-6.5,2.5-10.1,2.5c-5,0-9.4-0.9-13-2.5c-3.6-1.7-6.8-4.8-9.5-9.2l8.2-5.2c3.1,5.9,6.7,8.9,10.9,8.9c2.2,0,4-0.6,5.5-1.9
			c1.5-1.3,2.2-3,2.2-5c0-3.2-2.4-5.8-7.1-7.8c-3.9-1.8-6.5-3-8-3.8c-1.4-0.7-2.9-1.7-4.5-3c-4-3.3-6-7.6-6-12.8
			c0-3.9,0.8-7.2,2.3-10c1.5-2.8,3.5-5,5.9-6.6c2.5-1.6,5.1-2.6,8-3c1.8-0.2,3.3-0.4,4.3-0.4c2.8,0,5.4,0.5,7.9,1.4
			c2.5,0.9,4.8,2.3,6.8,4C376.5,24.7,378.2,26.7,379.6,29.1z"/>
	</g>
</g>
</svg>
