<svg xmlns="http://www.w3.org/2000/svg" viewBox="0 0 198.9 86.28"><defs><style>.cls-1{fill:#c4161c;}.cls-1,.cls-2{fill-rule:evenodd;}.cls-2{fill:#231f20;}</style></defs><title>Asset 1</title><g id="Layer_2" data-name="Layer 2"><g id="Camada_1" data-name="Camada 1"><path class="cls-1" d="M4.22,42.28,6.91,57.92l65,6.92L83.12,26.19,4.22,42.28ZM0,25.83,82.82,0c20.89,9,41.76,17.69,44.2,27.8l3.62,13.78c-8.26-7.73-26.45-15.22-45-18L.42,41.17,0,25.83Zm85.49.36c15.32,1.77,28,6.24,43.36,16.21-2.32,5.6-5.6,15.3-7.93,20.89L74.15,64.67Z"/><path class="cls-2" d="M151.82,51.2H144v3h4.25v7a7.83,7.83,0,0,1-3.29.52c-4.83,0-8.22-3.29-8.22-9.51s3.65-9.45,8.71-9.45a11.48,11.48,0,0,1,4.9.94l.84-3.07a13.88,13.88,0,0,0-5.74-1c-7.38,0-12.64,4.77-12.64,12.77,0,3.93,1.36,12.41,12,12.41a20.49,20.49,0,0,0,7-1.26V51.2Zm25-11.41h-4.68l-3.57,10.83c-1,3.06-1.74,5.87-2.36,8.51h-.09c-.62-2.71-1.36-5.45-2.26-8.48l-3.48-10.86h-4.64l-1.68,24.69h3.48l.55-10.19c.19-3.44.39-7.34.45-10.41h.1c.61,3,1.48,6.19,2.48,9.42l3.38,11h2.81L171,53.07c1-3.13,2-6.29,2.74-9.19h.1c0,3.07.16,6.87.32,10.22l.55,10.38h3.61l-1.48-24.69Zm21.7,0h-3.73V54.73c0,4.92-1.94,7-5,7-2.84,0-4.87-2.09-4.87-7V39.79h-3.74V54.51c0,7.36,3.42,10.33,8.48,10.33,5.25,0,8.89-3.1,8.89-10.43Z"/><path class="cls-2" d="M7.55,78.17H4.43v1.19H6.12v2.76a3.24,3.24,0,0,1-1.3.2c-1.92,0-3.26-1.3-3.26-3.77S3,74.81,5,74.81A4.49,4.49,0,0,1,7,75.18L7.28,74A5.31,5.31,0,0,0,5,73.56a4.72,4.72,0,0,0-5,5c0,1.56.54,4.92,4.77,4.92A8.08,8.08,0,0,0,7.55,83V78.17Zm3-3.72a.82.82,0,0,0-.85-.87.87.87,0,1,0,.85.87Zm-.13,1.94H9v7h1.48v-7Zm7.44,2.74c0-2.18-1.22-2.89-2.32-2.89a2.44,2.44,0,0,0-2.14,1.2h0l-.08-1H12c0,.6.05,1.2.05,2v5.06h1.48V79.19a1.58,1.58,0,0,1,1.51-1.72c1,0,1.34.84,1.34,1.83v4.13h1.48v-4.3Zm6.52,0c0-1.49-.57-2.86-2.64-2.86a4.4,4.4,0,0,0-2.28.59l.31,1a3.29,3.29,0,0,1,1.71-.48c1.42,0,1.42,1,1.42,1.57-2.42,0-3.94.86-3.94,2.61a2,2,0,0,0,2.07,2.06,2.38,2.38,0,0,0,2-1h0l.1.82h1.34a9.48,9.48,0,0,1-.1-1.67V79.1Zm-1.44,2a1.45,1.45,0,0,1-1.47,1.44,1,1,0,0,1-1-1.13c0-1.25,1.34-1.47,2.51-1.47v1.16Zm6.86-4.4a3.44,3.44,0,0,0-1.67-.41,2.2,2.2,0,0,0-2.44,2.11c0,.81.55,1.52,1.8,2,.84.35,1.14.65,1.14,1.18s-.39.92-1.18.92A3.4,3.4,0,0,1,25.87,82l-.33,1.1a3.89,3.89,0,0,0,1.92.47c1.59,0,2.63-.8,2.63-2.16,0-1-.62-1.66-1.78-2.13-.85-.37-1.17-.61-1.17-1.1s.35-.85,1-.85a2.57,2.57,0,0,1,1.34.39l.33-1.07Zm3-2.2a.82.82,0,0,0-.85-.87.87.87,0,1,0,.85.87Zm-.13,1.94H31.25v7h1.48v-7Zm4.51-.15c-1.87,0-3.33,1.34-3.33,3.72s1.4,3.61,3.22,3.61c1.59,0,3.3-1.08,3.3-3.72,0-2.15-1.27-3.61-3.19-3.61Zm1.67,3.65c0,1.41-.67,2.57-1.74,2.57s-1.74-1.16-1.74-2.54c0-1.22.49-2.57,1.75-2.57s1.73,1.38,1.73,2.54Zm14.41-6.24H51.47l-1.42,4.29c-.38,1.21-.69,2.32-.93,3.37h0c-.24-1.07-.53-2.16-.89-3.36l-1.38-4.3H45l-.67,9.78h1.38l.22-4c.08-1.36.15-2.91.18-4.12h0c.24,1.17.59,2.45,1,3.73l1.34,4.34h1.11L51,78.91c.41-1.24.79-2.49,1.09-3.64h0c0,1.21.07,2.72.13,4l.22,4.11h1.43l-.59-9.78Zm7.73,2.74H59.57v4.36a1.5,1.5,0,0,1-1.47,1.59c-1,0-1.31-.8-1.31-2V76.39H55.31v4.18c0,2.25,1.06,3,2.27,3a2.45,2.45,0,0,0,2.12-1.16h0l.08,1h1.3c0-.56-.07-1.22-.07-2v-5Zm3.11-3.2H62.68V83.43h1.48V73.19Zm1.91,3.2h-1V77.5h1v3.64A2.69,2.69,0,0,0,66.59,83a1.83,1.83,0,0,0,1.4.54,3.4,3.4,0,0,0,1.15-.16l-.06-1.14a2.1,2.1,0,0,1-.65.09c-.62,0-.89-.42-.89-1.29V77.5h1.67V76.39H67.54V74.66l-1.47.45v1.28Zm5.75-1.94a.82.82,0,0,0-.85-.87.87.87,0,1,0,.85.87Zm-.12,1.94H70.21v7H71.7v-7Zm7.5-3.2H77.72v4h0a2.09,2.09,0,0,0-1.87-.94c-1.57,0-2.93,1.35-2.93,3.74,0,2.17,1.21,3.59,2.81,3.59a2.34,2.34,0,0,0,2.13-1.24h0l.08,1.1h1.3c0-.48,0-1.24,0-1.88V73.19Zm-1.48,7.35a1.68,1.68,0,0,1-1.59,1.83c-1.12,0-1.74-1.06-1.74-2.44s.63-2.52,1.77-2.52a1.65,1.65,0,0,1,1.56,1.83v1.3Zm4.7-6.09a.86.86,0,1,0-.87.86.83.83,0,0,0,.87-.86Zm-.13,1.94H80.81v7h1.48v-7Zm5.46.26a3.44,3.44,0,0,0-1.67-.41,2.2,2.2,0,0,0-2.44,2.11c0,.81.55,1.52,1.8,2,.84.35,1.14.65,1.14,1.18s-.39.92-1.18.92A3.4,3.4,0,0,1,83.79,82l-.33,1.1a3.89,3.89,0,0,0,1.92.47c1.59,0,2.63-.8,2.63-2.16,0-1-.62-1.66-1.78-2.13-.85-.37-1.17-.61-1.17-1.1s.35-.85,1-.85a2.57,2.57,0,0,1,1.34.39l.33-1.07Zm6,5.45a3.22,3.22,0,0,1-1.33.28,2.18,2.18,0,0,1-2.13-2.46,2.23,2.23,0,0,1,2.14-2.51,2.75,2.75,0,0,1,1.27.29L94,76.56a3.67,3.67,0,0,0-1.57-.32A3.51,3.51,0,0,0,88.74,80a3.26,3.26,0,0,0,3.36,3.59,4.4,4.4,0,0,0,1.81-.36l-.2-1.11Zm2.86-7.65a.82.82,0,0,0-.85-.87.87.87,0,1,0,.85.87Zm-.12,1.94H95v7h1.49v-7Zm3,1.08-.08-1.08H98c0,.63,0,1.36,0,2.28v7.61h1.48V82.6h0a2.12,2.12,0,0,0,1.88,1c1.48,0,3-1.16,3-3.74,0-2.19-1.19-3.59-2.77-3.59a2.47,2.47,0,0,0-2.23,1.23Zm.15,1.82a1.78,1.78,0,0,1,1.64-1.86c1.14,0,1.74,1.11,1.74,2.45s-.63,2.52-1.78,2.52a1.64,1.64,0,0,1-1.6-1.8V79.29Zm7.54-6.1h-1.48V83.43h1.48V73.19Zm3.23,1.26a.87.87,0,1,0-1.73,0,.84.84,0,0,0,.86.86.83.83,0,0,0,.87-.86Zm-.13,1.94h-1.48v7h1.48v-7Zm7.44,2.74c0-2.18-1.23-2.89-2.33-2.89a2.41,2.41,0,0,0-2.13,1.2h0l-.08-1h-1.29c0,.6.06,1.2.06,2v5.06h1.48V79.19a1.58,1.58,0,0,1,1.5-1.72c1,0,1.35.84,1.35,1.83v4.13h1.48v-4.3Zm6.52,0c0-1.49-.58-2.86-2.65-2.86a4.39,4.39,0,0,0-2.27.59l.3,1a3.3,3.3,0,0,1,1.72-.48c1.41,0,1.41,1,1.41,1.57-2.41,0-3.93.86-3.93,2.61a2,2,0,0,0,2.07,2.06,2.4,2.4,0,0,0,2-1h0l.1.82h1.34a9.48,9.48,0,0,1-.1-1.67V79.1Zm-1.45,2a1.44,1.44,0,0,1-1.47,1.44,1,1,0,0,1-1-1.13c0-1.25,1.34-1.47,2.5-1.47v1.16Zm6.57-4.77a1.45,1.45,0,0,0-.37,0,2,2,0,0,0-1.82,1.44H127l0-1.29h-1.29c0,.65,0,1.33,0,2.15v4.89h1.49V79.7c0-1.23.62-2,1.62-2a1.85,1.85,0,0,1,.43,0V76.28Zm9.61-3.09H137.4v4h0a2.09,2.09,0,0,0-1.87-.94c-1.57,0-2.94,1.35-2.94,3.74,0,2.17,1.22,3.59,2.81,3.59a2.34,2.34,0,0,0,2.14-1.24h0l.07,1.1h1.3c0-.48-.05-1.24-.05-1.88V73.19Zm-1.48,7.35a1.67,1.67,0,0,1-1.58,1.83c-1.13,0-1.74-1.06-1.74-2.44s.63-2.52,1.76-2.52a1.65,1.65,0,0,1,1.56,1.83v1.3Zm8-1.44c0-1.49-.58-2.86-2.65-2.86a4.39,4.39,0,0,0-2.27.59l.31,1a3.24,3.24,0,0,1,1.71-.48c1.42,0,1.42,1,1.42,1.57-2.42,0-3.94.86-3.94,2.61a2,2,0,0,0,2.07,2.06,2.4,2.4,0,0,0,2-1h0l.1.82h1.34a9.48,9.48,0,0,1-.1-1.67V79.1Zm-1.45,2a1.44,1.44,0,0,1-1.46,1.44,1,1,0,0,1-1-1.13c0-1.25,1.34-1.47,2.5-1.47v1.16Zm12.85-7.4h-1.48v5.92c0,1.94-.77,2.79-2,2.79s-1.93-.83-1.93-2.79V73.65h-1.48v5.83c0,2.92,1.36,4.09,3.36,4.09s3.53-1.23,3.53-4.13V73.65Zm7.47,5.48c0-2.18-1.22-2.89-2.32-2.89a2.41,2.41,0,0,0-2.13,1.2h0l-.08-1h-1.29c0,.6.05,1.2.05,2v5.06H160V79.19a1.58,1.58,0,0,1,1.51-1.72c1,0,1.34.84,1.34,1.83v4.13h1.48v-4.3Zm3.2-4.68a.82.82,0,0,0-.85-.87.87.87,0,1,0,.85.87Zm-.13,1.94h-1.48v7h1.48v-7Zm6.16,5.71a3.2,3.2,0,0,1-1.32.28,2.18,2.18,0,0,1-2.14-2.46,2.23,2.23,0,0,1,2.15-2.51,2.67,2.67,0,0,1,1.26.29l.3-1.14a3.7,3.7,0,0,0-1.57-.32A3.5,3.5,0,0,0,168.57,80a3.25,3.25,0,0,0,3.35,3.59,4.45,4.45,0,0,0,1.82-.36l-.21-1.11Zm6.19-3c0-1.49-.57-2.86-2.64-2.86a4.4,4.4,0,0,0-2.28.59l.31,1a3.29,3.29,0,0,1,1.71-.48c1.42,0,1.42,1,1.42,1.57-2.42,0-3.94.86-3.94,2.61a2,2,0,0,0,2.07,2.06,2.37,2.37,0,0,0,2-1h0l.1.82h1.34a9.48,9.48,0,0,1-.1-1.67V79.1Zm-1.44,2a1.45,1.45,0,0,1-1.47,1.44,1,1,0,0,1-1-1.13c0-1.25,1.35-1.47,2.51-1.47v1.16ZM191,79.18c0-2.23-1.15-2.94-2.2-2.94a2.42,2.42,0,0,0-2.17,1.29h0a1.91,1.91,0,0,0-1.86-1.29,2.3,2.3,0,0,0-2.06,1.19h0l-.07-1h-1.28c0,.6.05,1.19.05,2v5.06h1.46V79.16a1.55,1.55,0,0,1,1.41-1.71c.86,0,1.23.76,1.23,1.74v4.24h1.46V79.09a1.5,1.5,0,0,1,1.36-1.64c.9,0,1.28.78,1.28,2v4H191V79.18Zm2.9-1.71-.08-1.08h-1.3c0,.63,0,1.36,0,2.28v7.61H194V82.6h0a2.12,2.12,0,0,0,1.88,1c1.48,0,3-1.16,3-3.74,0-2.19-1.18-3.59-2.77-3.59a2.47,2.47,0,0,0-2.23,1.23Zm.15,1.82a1.78,1.78,0,0,1,1.64-1.86c1.14,0,1.74,1.11,1.74,2.45s-.63,2.52-1.78,2.52a1.64,1.64,0,0,1-1.6-1.8Z"/><polygon class="cls-2" points="21.48 75.74 22.45 73.67 24.2 73.67 22.59 75.74 21.48 75.74"/></g></g></svg>