<svg xmlns="http://www.w3.org/2000/svg" viewBox="0 0 701.83 239.88"><defs><style>.cls-1{fill:#0095da;}.cls-1,.cls-2,.cls-4{fill-rule:evenodd;}.cls-2,.cls-3{fill:#231f20;}.cls-4{fill:#ed1c24;}</style></defs><title>itcp</title><g id="Layer_2" data-name="Layer 2"><g id="Camada_3" data-name="Camada 3"><path class="cls-1" d="M264.09,235.14c-29.43-7.1-50.57-14.71-65.27-22.67s-22.95-16.27-26.61-24.74c-7.33-16.94,3.69-34.53,18.26-51.34,29.15-33.61,72.47-64.07,11.48-79.81l62.11-.11V235.14ZM170.66,56.47H.48V235.24l57.17-.19c-33.31-22.44-35.44-42.27-21.75-60s43.19-33.44,73.11-47.6c15-7.08,30-13.78,43.29-20.16S177,94.81,184.7,89s11.66-11.4,10-16.79-9-10.62-24-15.73ZM284.49,177.69V56.13H318V177.69Zm100.77,0V84.86h-27.2V56.13h87.56V84.86h-27.2v92.83ZM568.14,60.89V97.1A49.71,49.71,0,0,0,554.57,86a30.94,30.94,0,0,0-14.48-3.54q-14.28,0-23.12,9.75t-8.84,25.42q0,14.61,9,24.22t23,9.64A30.91,30.91,0,0,0,554.57,148a48.78,48.78,0,0,0,13.57-11.11V173.1a78.59,78.59,0,0,1-15.67,5.75,65.76,65.76,0,0,1-15.78,1.9,68.35,68.35,0,0,1-18.36-2.35,53,53,0,0,1-15.47-7.2,61.16,61.16,0,0,1-20.75-23A67.26,67.26,0,0,1,475,117a67.92,67.92,0,0,1,4.54-25.37,62,62,0,0,1,13.63-20.71A57,57,0,0,1,512.6,57.63a63.75,63.75,0,0,1,24.09-4.39,65.76,65.76,0,0,1,15.78,1.9,78.59,78.59,0,0,1,15.67,5.75Zm73.84,50h6.32q11.94,0,16.66-3.28t4.73-11.17c0-5.1-1.56-8.72-4.64-10.88s-8.59-3.23-16.44-3.23H642v28.56Zm0,66.82H610.87V56.13h34.68q20.33,0,28.56,2a33.87,33.87,0,0,1,13.95,6.8,36,36,0,0,1,10.25,13.92,47.16,47.16,0,0,1,3.52,18.56,48.65,48.65,0,0,1-3.49,19.12,33.25,33.25,0,0,1-10.28,13.58,32.34,32.34,0,0,1-12.13,5.72q-7,1.74-22.33,1.76H642Z"/><path class="cls-2" d="M682.77,217.57h2c2.54,0,4.3-.35,5.31-1a4,4,0,0,0,1.5-3.56,3.9,3.9,0,0,0-1.48-3.46c-1-.69-2.73-1-5.23-1h-2.11v9.09Zm0,21.28h-9.91V200.14h11a44.6,44.6,0,0,1,9.1.63,10.74,10.74,0,0,1,4.44,2.17,11.43,11.43,0,0,1,3.27,4.43,15,15,0,0,1,1.12,5.91,15.54,15.54,0,0,1-1.11,6.09,10.62,10.62,0,0,1-3.28,4.32,10.23,10.23,0,0,1-3.86,1.83,32.52,32.52,0,0,1-7.11.55h-3.7Z"/><path class="cls-2" d="M641.4,238.85h-9.87l-2.26-16.74c-.17-1.18-.31-2.49-.45-3.94s-.25-3-.35-4.73a48.81,48.81,0,0,1-1.45,6.14c-.16.5-.28.88-.35,1.13l-5.26,18.14h-7l-5.26-18.14-.32-1.13a44.69,44.69,0,0,1-1.46-6.11c-.09,1.46-.22,2.91-.37,4.35s-.3,2.87-.49,4.29l-2.28,16.74h-9.81l6-38.71h10.44l5.84,20c0,.14.11.37.22.7a25.8,25.8,0,0,1,1,4.57,19.46,19.46,0,0,1,.4-2.29c.19-.84.46-1.85.8-3L625,200.14h10.47Z"/><path class="cls-2" d="M523,238.85l13.37-38.71h13.22l13.37,38.71H552.44l-2-6.93h-15l-2,6.93Zm14.79-14.45h10.5l-4-12.78c-.11-.39-.28-1-.49-1.88s-.49-2-.82-3.33c-.23,1-.45,1.86-.68,2.73s-.44,1.68-.67,2.48Z"/><path class="cls-2" d="M491.51,201.65v11.54a15.91,15.91,0,0,0-4.32-3.53,9.86,9.86,0,0,0-4.62-1.13,9.48,9.48,0,0,0-7.36,3.11,11.54,11.54,0,0,0-2.82,8.09,10.87,10.87,0,0,0,2.87,7.72,9.56,9.56,0,0,0,7.31,3.06,10,10,0,0,0,4.62-1.11,15.78,15.78,0,0,0,4.32-3.54v11.53a25,25,0,0,1-5,1.83,20.86,20.86,0,0,1-5,.61,21.69,21.69,0,0,1-5.85-.75,16.9,16.9,0,0,1-4.92-2.29,19.53,19.53,0,0,1-6.61-7.32,23.11,23.11,0,0,1-.83-18,19.86,19.86,0,0,1,4.34-6.6,17.94,17.94,0,0,1,6.2-4.23,20.3,20.3,0,0,1,7.67-1.4,21.36,21.36,0,0,1,5,.6A25.6,25.6,0,0,1,491.51,201.65Z"/><rect class="cls-3" x="419.71" y="200.14" width="10.67" height="38.72"/><path class="cls-2" d="M350.39,238.85V200.14h10.18l14.64,19.91a26.54,26.54,0,0,1,1.38,2.45q1,1.83,2.13,4.38c-.21-1.61-.36-3-.46-4.29s-.14-2.36-.14-3.33V200.14h10.12v38.71H378.12l-14.63-20a19.78,19.78,0,0,1-1.42-2.44c-.65-1.23-1.34-2.67-2.1-4.33.21,1.62.36,3.06.46,4.31s.14,2.36.14,3.33v19.12Z"/><path class="cls-2" d="M284.49,200.14H295V219a58.56,58.56,0,0,0,.21,6,10.88,10.88,0,0,0,.72,3,4.39,4.39,0,0,0,2.11,2.27,9.13,9.13,0,0,0,7.34,0A4.58,4.58,0,0,0,307.5,228a11.63,11.63,0,0,0,.72-3c.13-1.2.21-3.2.21-6V200.14h10.5v20.47a41.21,41.21,0,0,1-.77,9.4,12.62,12.62,0,0,1-2.59,5.17,12,12,0,0,1-5.44,3.53,30.81,30.81,0,0,1-16.82,0,12.26,12.26,0,0,1-5.46-3.53,13,13,0,0,1-2.58-5.17,41.67,41.67,0,0,1-.78-9.4V200.14Z"/><path class="cls-4" d="M9,9.11h3.54V7.92A3.86,3.86,0,0,1,9.8,4.08,4.25,4.25,0,0,1,13.88,0,4.25,4.25,0,0,1,18,4.08a3.86,3.86,0,0,1-2.69,3.84V9.11h3.54l1.45.48,9.41,16.69L38.05,9.59l1.39-.48H43V7.92a3.87,3.87,0,0,1-2.7-3.84,4.08,4.08,0,0,1,8.16,0,3.86,3.86,0,0,1-2.69,3.84V9.11h3.55l1.45.48,10.09,15.3,7.89-15.3,1.4-.48h3.54V7.92A3.86,3.86,0,0,1,71,4.08a4.08,4.08,0,0,1,8.16,0,3.87,3.87,0,0,1-2.7,3.84V9.11H80l1.45.48,9.06,16.07L98.3,9.59l1.39-.48h3.54V7.92a3.86,3.86,0,0,1-2.69-3.84,4.08,4.08,0,1,1,8.16,0A3.86,3.86,0,0,1,106,7.92V9.11h3.54l1.45.48,10,17.68,7.79-17.68,1.39-.48h3.55V7.92A3.87,3.87,0,0,1,131,4.08a4.08,4.08,0,0,1,8.16,0,3.86,3.86,0,0,1-2.69,3.84V9.11H140l1.46.48L150.71,26l6.92-16.42L159,9.11h3.54V7.92a3.86,3.86,0,0,1-2.69-3.84,4.08,4.08,0,0,1,8.16,0,3.86,3.86,0,0,1-2.69,3.84V9.11h3.54l1.45.48,7.19,16.15,8.12-16.15L187,9.11h3.54V7.92a3.86,3.86,0,0,1-2.69-3.84,4.08,4.08,0,1,1,8.16,0,3.86,3.86,0,0,1-2.69,3.84V9.11h3.54l1.45.48L208.4,24.83l6.2-15.24L216,9.11h3.54V7.92a3.86,3.86,0,0,1-2.69-3.84,4.08,4.08,0,0,1,8.16,0,3.86,3.86,0,0,1-2.69,3.84V9.11h3.54l1.45.48,5.92,15.83,7.11-15.83,1.39-.48h3.55V7.92a3.87,3.87,0,0,1-2.7-3.84,4.08,4.08,0,1,1,8.16,0A3.86,3.86,0,0,1,248,7.92V9.11h3.54l1.46.48,9.65,19.47-3,1.06-7.7-14L255.32,38h-4.7l2.62,12.49,3.82.49.15,1.26-3.69.46-1.18.15-2,.24L247.43,38h-2.67L243.33,53.1,241.19,53l-1-.06-3.88-.19.07-1.27,3.93-.8L241.58,38H237l4.29-21.65-6.86,14.09-2.29-.81-.64.22-5.23-13.71.85,14.21h-2.23l2.62,20.14,3.81.49.16,1.26-3.7.46-1.18.15-2,.24-2.95-22.74H219L217.59,53.1,215.46,53l-1-.06-3.88-.19.07-1.27,3.93-.8,1.3-20.31h-1.13l.84-14-5,11.7.22.34-.43.15-.3.7-.84-.29-1.42.5L197.31,16.15,200.63,38h-4.7l2.62,12.49,3.81.49.16,1.26-3.69.46-1.18.15-2,.24L192.74,38h-2.67L188.63,53.1,186.5,53l-1-.06-3.88-.19.07-1.27,3.93-.8L186.89,38h-4.58l4.29-21.65-7.4,13.16h0l-.52.92-1-.37-1.42.5L169.3,16.15,172.62,38h-4.7l2.62,12.49,3.81.49.16,1.26-3.69.46-1.18.15-2,.24L164.73,38h-2.67L160.62,53.1,158.49,53l-1-.06-3.88-.19.07-1.27,3.93-.8L158.88,38H154.3l4.29-21.65-6.37,14.21-1.93-.69-.82.29-9.05-14,.85,14.21H139l2.62,20.14,3.82.49.15,1.26-3.69.46-1.18.15-2,.24-2.94-22.74h-2.67L131.75,53.1,129.61,53l-1-.06-3.88-.19.07-1.27,3.93-.8L130,30.36h-1.12l.83-14L123,30.55l-2.5-.89-1.45.51-9-14,.85,14.21h-2.23l2.62,20.14L115,51l.16,1.26-3.69.46-1.18.15-2,.24L105.4,30.36h-2.67L101.29,53.1,99.16,53l-1-.06-3.88-.19.07-1.27,3.93-.8,1.3-20.31H98.42l.84-14L92.4,29l0,.09-.12.05-.14.26-.3-.11-2.43.86-9-14,.84,14.21H79L81.66,50.5l3.81.49.16,1.26-3.7.46-1.18.15-2,.24-3-22.74H73.17L71.74,53.1,69.6,53l-1-.06-3.88-.19.06-1.27,3.93-.8L70,30.36H68.87l.83-14L62.86,27.93l.31.47-3,1.06L49.73,16.15,53,38H48.35L51,50.5l3.81.49.15,1.26-3.69.46-1.18.15-2,.24L45.15,38H42.48L41.05,53.1,38.91,53l-1-.06L34,52.74l.06-1.27,3.93-.8L39.3,38H34.72L39,16.36,31.09,30.45l-1.79-.64-1,.36-9-14,.85,14.21H17.85L20.47,50.5l3.81.49.16,1.26-3.7.46-1.18.15-2,.24-3-22.74H12L10.55,53.1,8.42,53l-1-.06-3.88-.19.07-1.27,3.93-.8,1.3-20.31H7.68l.84-14L3,31.93,0,30.87,7.56,9.59Z"/></g></g></svg>