<svg xmlns="http://www.w3.org/2000/svg" viewBox="0 0 484.26 142.81"><defs><style>.cls-1{fill:#635e5e;}.cls-2{fill:#bcb4b2;}.cls-3{fill:#a71c20;}.cls-4{fill:#a79a95;}</style></defs><title>Asset 2</title><g id="Layer_2" data-name="Layer 2"><g id="Layer_1-2" data-name="Layer 1"><path class="cls-1" d="M322.44,100.78V37.41L299.3,101.24h-7.71L270.1,38.63v62.15h-16V0h19.07l23,71L320.18,0H339.1V100.78Z"/><path class="cls-1" d="M401.54,100.78l-6.36-25.35H371.12l-6.5,25.35H345.71L374.76,0H391.4l29.05,100.77ZM382.93,25.05l-8.47,35.11h16.78Z"/><path class="cls-1" d="M465.35,0h18.91l-29,100.77H438.57L409.52,0h18.92l18.61,75.73Z"/><path class="cls-2" d="M271.27,141a11.52,11.52,0,0,1-6.93,1.79c-3.1,0-5.11-.52-7-1.79-2.53-1.75-3.35-3.8-3.35-8.31v-15h4.66V133c0,3.65,1.9,5.48,5.81,5.48,3.58,0,5.48-1.94,5.48-5.48V117.72h4.7v15C274.66,137.22,273.84,139.23,271.27,141Z"/><path class="cls-2" d="M307.5,142.55,297,126.63c-.07-.11-.22-.44-.52-1-.15-.29-.26-.48-.29-.52a3.67,3.67,0,0,1-.34-.86v18.05h-4.47V117.72h5.4l10.33,16.18c0,.08.15.26.26.52s.18.41.22.49l.23.63.22.45V117.72h4.44v24.83Z"/><path class="cls-2" d="M329.65,142.33V117.72h4.7v24.61Z"/><path class="cls-2" d="M367.86,123.35a9.47,9.47,0,0,0-5.67-1.71,7.78,7.78,0,0,0-8.12,8c0,5.3,3.5,8.76,8.87,8.76a13.82,13.82,0,0,0,5.4-1.15l.86,4a14.9,14.9,0,0,1-3.32,1.19,18.37,18.37,0,0,1-3.95.41c-3.84,0-6.6-1-8.91-3.06a13.26,13.26,0,0,1-4.13-9.84,12.76,12.76,0,0,1,3.76-9.21c2.46-2.42,5.22-3.42,9.28-3.42a12.23,12.23,0,0,1,7.72,2.34Z"/><path class="cls-2" d="M398.06,142.33l-1.94-6.08h-8.24l-2,6.08H381l8.9-24.61h4.22L403,142.33Zm-6.08-19-2.83,8.91h5.7Z"/><path class="cls-2" d="M438.09,142.33V124.28a11.23,11.23,0,0,1-.93,3.51l-5.63,14.54h-4.21l-5.14-14.28a17.75,17.75,0,0,1-.94-3.92v18.2H417V117.72h5.62l6.56,17.56a6.13,6.13,0,0,1,.49,1.9,6,6,0,0,1,.45-1.9l6.82-17.56h5.63v24.61Z"/><path class="cls-2" d="M474.11,131.89c-1.76,1.49-3.92,2.12-7.27,2.12a20.26,20.26,0,0,1-2.28-.11v8.43h-4.69V117.72h8.42c3.21,0,5,.56,6.52,2a7.5,7.5,0,0,1,2.09,5.51A8.53,8.53,0,0,1,474.11,131.89Zm-6.27-10.18h-3.28v8.2l1.2,0c.52,0,.85,0,1,0,3.65,0,5.26-1.34,5.26-4.36C472.06,122.94,470.75,121.71,467.84,121.71Z"/><polygon class="cls-3" points="178.57 78.72 230.03 142.34 230.03 7.37 178.57 78.72"/><polygon class="cls-3" points="0 142.34 51.28 78.83 0 7.34 0 142.34"/><polygon class="cls-3" points="167.4 65.12 214.35 0.04 15.61 0.04 62.45 65.23 114.76 0.14 167.4 65.12"/><polygon class="cls-4" points="0 142.34 51.28 78.83 96.97 142.34 0 142.34"/><polygon class="cls-4" points="114.98 138.41 62.45 65.23 114.76 0.14 167.4 65.12 114.98 138.41"/><polygon class="cls-4" points="132.87 142.34 178.57 78.72 230.03 142.34 132.87 142.34"/></g></g></svg>