<?xml version="1.0" encoding="utf-8"?>
<!-- Generator: Adobe Illustrator 16.0.0, SVG Export Plug-In . SVG Version: 6.00 Build 0)  -->
<!DOCTYPE svg PUBLIC "-//W3C//DTD SVG 1.1//EN" "http://www.w3.org/Graphics/SVG/1.1/DTD/svg11.dtd">
<svg version="1.1" id="Camada_1" xmlns="http://www.w3.org/2000/svg" xmlns:xlink="http://www.w3.org/1999/xlink" x="0px" y="0px"
	 width="272.334px" height="68.378px" viewBox="0 0 272.334 68.378" enable-background="new 0 0 272.334 68.378"
	 xml:space="preserve">
<path fill="#CE545B" d="M89.304,12.922v19.494h-4.431l-0.006-13.16l-1.764,13.16H79.96L78.1,19.557l-0.006,12.859h-4.43V12.922
	h6.559c0.194,1.173,0.396,2.555,0.602,4.145l0.72,4.958l1.165-9.103H89.304z"/>
<polygon fill="#CE545B" points="91.338,12.922 99.79,12.922 99.79,16.824 96.407,16.824 96.407,20.521 99.574,20.521 99.574,24.229 
	96.407,24.229 96.407,28.515 100.128,28.515 100.128,32.417 91.338,32.417 "/>
<path fill="#CE545B" d="M117.225,12.922v19.494h-4.431l-0.005-13.16l-1.766,13.16h-3.143l-1.86-12.859l-0.006,12.859h-4.43V12.922
	h6.559c0.193,1.173,0.396,2.555,0.602,4.145l0.719,4.958l1.167-9.103H117.225z"/>
<path fill="#CE545B" d="M130.843,24.337c0,1.958-0.047,3.345-0.139,4.16c-0.093,0.814-0.383,1.559-0.867,2.234
	c-0.485,0.674-1.143,1.191-1.97,1.553c-0.826,0.361-1.789,0.541-2.889,0.541c-1.044,0-1.981-0.17-2.812-0.511
	s-1.499-0.854-2.004-1.535c-0.508-0.683-0.807-1.425-0.904-2.228c-0.097-0.802-0.145-2.207-0.145-4.214v-3.335
	c0-1.958,0.046-3.346,0.139-4.16c0.092-0.815,0.382-1.559,0.867-2.233c0.485-0.673,1.141-1.191,1.968-1.553
	c0.826-0.36,1.79-0.541,2.891-0.541c1.042,0,1.98,0.169,2.811,0.51c0.832,0.342,1.5,0.854,2.005,1.536
	c0.506,0.683,0.808,1.425,0.903,2.228c0.097,0.803,0.146,2.208,0.146,4.214V24.337z M125.772,17.932c0-0.908-0.05-1.487-0.149-1.74
	c-0.102-0.253-0.307-0.379-0.621-0.379c-0.265,0-0.468,0.102-0.608,0.307s-0.21,0.809-0.21,1.813v9.103
	c0,1.131,0.047,1.83,0.139,2.094c0.092,0.265,0.306,0.398,0.644,0.398c0.347,0,0.565-0.153,0.663-0.458
	c0.096-0.304,0.144-1.031,0.144-2.179V17.932z"/>
<path fill="#CE545B" d="M132.731,12.922h3.589c2.392,0,4.011,0.092,4.857,0.277c0.847,0.185,1.537,0.656,2.07,1.415
	c0.534,0.759,0.801,1.969,0.801,3.629c0,1.518-0.188,2.537-0.565,3.059c-0.378,0.521-1.12,0.834-2.227,0.94
	c1.004,0.248,1.676,0.582,2.021,1c0.347,0.416,0.562,0.799,0.646,1.148c0.083,0.35,0.125,1.311,0.125,2.884v5.142h-4.707v-6.479
	c0-1.042-0.083-1.689-0.246-1.938c-0.165-0.249-0.597-0.372-1.295-0.372v8.789h-5.069V12.922z M137.801,16.258v4.334
	c0.57,0,0.969-0.078,1.197-0.235c0.23-0.156,0.344-0.663,0.344-1.523v-1.071c0-0.617-0.109-1.023-0.331-1.216
	C138.79,16.354,138.388,16.258,137.801,16.258"/>
<rect x="146.012" y="12.922" fill="#CE545B" width="5.071" height="19.494"/>
<path fill="#CE545B" d="M161.878,12.922l2.898,19.494h-5.179l-0.274-3.504h-1.813l-0.303,3.504h-5.241l2.586-19.494H161.878z
	 M159.192,25.457c-0.257-2.208-0.515-4.938-0.773-8.188c-0.516,3.732-0.841,6.462-0.973,8.188H159.192z"/>
<polygon fill="#CE545B" points="170.707,12.922 170.707,28.515 173.789,28.515 173.789,32.417 165.638,32.417 165.638,12.922 "/>
<path fill="#CE545B" d="M191.2,21.411h-5.071v-3.388c0-0.985-0.054-1.6-0.162-1.845c-0.107-0.244-0.347-0.366-0.715-0.366
	c-0.419,0-0.684,0.148-0.796,0.445c-0.112,0.296-0.168,0.938-0.168,1.926v9.054c0,0.947,0.056,1.564,0.168,1.855
	c0.112,0.289,0.365,0.433,0.758,0.433c0.378,0,0.624-0.146,0.742-0.435c0.115-0.29,0.173-0.97,0.173-2.04v-2.45h5.071v0.759
	c0,2.018-0.144,3.449-0.429,4.292c-0.285,0.844-0.917,1.584-1.892,2.219c-0.976,0.635-2.178,0.952-3.604,0.952
	c-1.486,0-2.709-0.268-3.672-0.806s-1.604-1.283-1.914-2.234c-0.314-0.951-0.472-2.381-0.472-4.292v-5.694
	c0-1.405,0.049-2.458,0.146-3.161c0.096-0.703,0.383-1.379,0.86-2.029c0.479-0.651,1.141-1.163,1.987-1.535
	c0.848-0.373,1.817-0.56,2.919-0.56c1.494,0,2.724,0.288,3.695,0.865c0.971,0.577,1.611,1.296,1.914,2.158
	c0.308,0.862,0.461,2.203,0.461,4.022V21.411z"/>
<path fill="#CE545B" d="M204.599,24.337c0,1.958-0.045,3.345-0.14,4.16c-0.091,0.814-0.382,1.559-0.864,2.234
	c-0.487,0.674-1.145,1.191-1.97,1.553s-1.788,0.541-2.89,0.541c-1.044,0-1.981-0.17-2.812-0.511
	c-0.831-0.341-1.499-0.854-2.005-1.535c-0.506-0.683-0.806-1.425-0.903-2.228c-0.095-0.802-0.144-2.207-0.144-4.214v-3.335
	c0-1.958,0.045-3.346,0.139-4.16c0.092-0.815,0.38-1.559,0.866-2.233c0.486-0.673,1.142-1.191,1.97-1.553
	c0.825-0.36,1.788-0.541,2.889-0.541c1.044,0,1.981,0.169,2.811,0.51c0.831,0.342,1.499,0.854,2.005,1.536
	c0.508,0.683,0.806,1.425,0.904,2.228c0.095,0.803,0.144,2.208,0.144,4.214V24.337z M199.53,17.932c0-0.908-0.052-1.487-0.15-1.74
	c-0.103-0.253-0.307-0.379-0.621-0.379c-0.264,0-0.467,0.102-0.607,0.307c-0.14,0.205-0.21,0.809-0.21,1.813v9.103
	c0,1.131,0.045,1.83,0.138,2.094c0.092,0.265,0.307,0.398,0.645,0.398c0.346,0,0.566-0.153,0.66-0.458
	c0.099-0.304,0.146-1.031,0.146-2.179V17.932z"/>
<path fill="#CE545B" d="M218.54,12.922l-2.578,19.494h-7.701l-2.93-19.494h5.347c0.622,5.37,1.066,9.914,1.331,13.629
	c0.262-3.756,0.541-7.091,0.836-10.004l0.35-3.625H218.54z"/>
<rect x="219.397" y="12.922" fill="#CE545B" width="5.067" height="19.494"/>
<path fill="#CE545B" d="M226.502,12.922h3.789c2.449,0,4.104,0.113,4.969,0.337c0.86,0.226,1.517,0.595,1.968,1.109
	c0.45,0.513,0.729,1.084,0.843,1.714c0.112,0.63,0.17,1.869,0.17,3.715v6.827c0,1.75-0.083,2.919-0.249,3.509
	c-0.165,0.589-0.451,1.051-0.86,1.385c-0.409,0.333-0.917,0.566-1.518,0.698c-0.602,0.132-1.51,0.199-2.72,0.199h-6.392V12.922z
	 M231.567,16.258v12.822c0.732,0,1.18-0.146,1.35-0.439c0.169-0.292,0.252-1.09,0.252-2.39v-7.573c0-0.882-0.028-1.449-0.083-1.697
	c-0.058-0.249-0.186-0.432-0.386-0.548C232.5,16.316,232.123,16.258,231.567,16.258"/>
<rect x="239.551" y="22.748" fill="#CE545B" width="6.394" height="3.359"/>
<path fill="#CE545B" d="M254.746,12.922v19.494h-4.865V21.965c0-1.509-0.036-2.416-0.107-2.721
	c-0.072-0.304-0.271-0.536-0.598-0.692c-0.325-0.157-1.05-0.234-2.173-0.234h-0.48v-2.272c2.351-0.506,4.138-1.547,5.358-3.123
	H254.746z"/>
<path fill="#CE545B" d="M256.635,27.239h4.865c0,0.907,0.013,1.479,0.035,1.716c0.023,0.237,0.122,0.436,0.295,0.596
	c0.173,0.161,0.409,0.241,0.703,0.241c0.25,0,0.457-0.077,0.616-0.229c0.158-0.152,0.25-0.349,0.271-0.59
	c0.021-0.241,0.03-0.726,0.03-1.456v-3.107c-0.24,0.522-0.602,0.913-1.083,1.174c-0.482,0.261-1.08,0.391-1.795,0.391
	c-0.891,0-1.679-0.241-2.359-0.722c-0.684-0.481-1.116-1.06-1.301-1.734c-0.186-0.674-0.277-1.585-0.277-2.733v-1.552
	c0-1.364,0.056-2.379,0.164-3.047c0.107-0.665,0.387-1.281,0.836-1.847c0.449-0.566,1.071-1.005,1.866-1.319
	c0.796-0.313,1.718-0.469,2.77-0.469c1.302,0,2.366,0.18,3.204,0.541c0.833,0.362,1.478,0.881,1.938,1.559
	c0.456,0.679,0.721,1.391,0.794,2.138c0.07,0.747,0.108,2.191,0.108,4.334v2.709c0,2.319-0.033,3.87-0.096,4.653
	c-0.065,0.782-0.343,1.522-0.838,2.221c-0.493,0.699-1.161,1.223-2.005,1.572c-0.841,0.349-1.816,0.523-2.925,0.523
	c-1.372,0-2.495-0.221-3.365-0.662c-0.873-0.441-1.497-1.063-1.879-1.866C256.825,29.469,256.635,28.458,256.635,27.239
	 M261.5,21.159c0,0.818,0.105,1.324,0.317,1.517c0.213,0.192,0.434,0.289,0.658,0.289c0.337,0,0.583-0.122,0.741-0.367
	c0.154-0.245,0.233-0.725,0.233-1.438v-3.528c0-0.859-0.075-1.42-0.223-1.686c-0.147-0.265-0.395-0.397-0.741-0.397
	c-0.208,0-0.424,0.103-0.647,0.308c-0.227,0.205-0.339,0.756-0.339,1.655V21.159z"/>
<path fill="#363636" d="M75.13,44.735v-9.502h1.194v9.535c0,1.532,0.387,2.709,2.146,2.709c1.677,0,2.146-1.177,2.146-2.709v-9.535
	h1.178v9.502c0,2.178-0.743,3.727-3.323,3.727C75.791,48.462,75.13,46.913,75.13,44.735"/>
<path fill="#363636" d="M83.696,38.975h1.178v0.968c0.597-0.645,1.371-1.111,2.243-1.111c0.918,0,1.436,0.724,1.436,1.984V48.3
	h-1.178v-7.227c0-0.967-0.291-1.323-0.887-1.323c-0.55,0-1.131,0.372-1.614,0.872V48.3h-1.178V38.975z"/>
<path fill="#363636" d="M90.425,36.087h1.177v1.598h-1.177V36.087z M90.425,38.975h1.177V48.3h-1.177V38.975z"/>
<polygon fill="#363636" points="92.973,38.975 94.167,38.975 95.684,46.946 97.183,38.975 98.33,38.975 96.377,48.3 94.989,48.3 "/>
<path fill="#363636" d="M99.346,44.799v-2.355c0-2.758,0.807-3.612,2.532-3.612c1.953,0,2.422,1.225,2.422,3.854v0.839h-3.776v1.63
	c0,1.822,0.387,2.405,1.338,2.405c0.727,0,1.275-0.323,1.275-1.791v-0.646h1.146v0.516c0,1.694-0.613,2.808-2.421,2.808
	C100.104,48.446,99.346,47.511,99.346,44.799 M103.137,42.847v-0.774c0-1.468-0.129-2.354-1.275-2.354
	c-0.967,0-1.338,0.516-1.338,2.5v0.629H103.137z"/>
<path fill="#363636" d="M105.976,38.975h1.194v1.274c0.598-0.983,1.435-1.371,2.146-1.371c0.064,0,0.113,0,0.21,0.017v1.258
	c-0.146-0.047-0.388-0.097-0.581-0.097c-0.742,0-1.323,0.34-1.774,1.081V48.3h-1.194V38.975z"/>
<path fill="#363636" d="M110.283,45.8l0.985-0.307c0.128,1.437,0.677,2.066,1.629,2.066c0.807,0,1.274-0.485,1.274-1.324
	c0-0.613-0.339-1.21-1.129-1.871l-1.274-1.098c-0.84-0.693-1.275-1.339-1.275-2.34c0-1.339,0.887-2.096,2.227-2.096
	c1.42,0,2.13,1.015,2.21,2.451l-0.839,0.274c-0.064-1.259-0.517-1.839-1.322-1.839c-0.726,0-1.194,0.418-1.194,1.129
	c0,0.564,0.178,0.937,0.758,1.468l1.323,1.179c0.759,0.678,1.549,1.419,1.549,2.71c0,1.452-0.952,2.243-2.388,2.243
	C111.333,48.446,110.413,47.413,110.283,45.8"/>
<path fill="#363636" d="M116.672,36.087h1.177v1.598h-1.177V36.087z M116.672,38.975h1.177V48.3h-1.177V38.975z"/>
<path fill="#363636" d="M119.657,44.542v-1.726c0-2.437,0.42-3.984,2.194-3.984c0.741,0,1.273,0.402,1.645,0.806v-4.404h1.179V48.3
	h-1.179v-0.66c-0.371,0.402-0.888,0.807-1.597,0.807C120.303,48.446,119.657,47.333,119.657,44.542 M123.496,46.897v-6.485
	c-0.321-0.29-0.806-0.662-1.388-0.662c-1.048,0-1.274,0.92-1.274,2.678v2.212c0,1.887,0.227,2.872,1.308,2.872
	C122.642,47.511,123.125,47.237,123.496,46.897"/>
<path fill="#363636" d="M126.238,46.365c0-1.872,1.019-2.501,3.761-3.727v-0.661c0-1.694-0.275-2.259-1.163-2.259
	c-0.725,0-1.306,0.37-1.306,1.597v0.322l-1.162-0.016c0.016-1.889,0.742-2.79,2.533-2.79c1.661,0,2.274,0.983,2.274,3.081v4.533
	c0,0.484,0.033,1.516,0.081,1.854h-1.049c-0.05-0.402-0.146-1-0.178-1.29c-0.258,0.758-0.936,1.436-1.919,1.436
	C126.98,48.446,126.238,47.526,126.238,46.365 M129.999,46.333v-2.904c-1.841,0.969-2.582,1.371-2.582,2.646
	c0,0.984,0.5,1.372,1.064,1.372C129.175,47.446,129.724,46.85,129.999,46.333"/>
<path fill="#363636" d="M132.725,44.542v-1.726c0-2.437,0.419-3.984,2.193-3.984c0.742,0,1.275,0.402,1.647,0.806v-4.404h1.177V48.3
	h-1.177v-0.66c-0.372,0.402-0.888,0.807-1.599,0.807C133.37,48.446,132.725,47.333,132.725,44.542 M136.565,46.897v-6.485
	c-0.324-0.29-0.808-0.662-1.388-0.662c-1.05,0-1.275,0.92-1.275,2.678v2.212c0,1.887,0.226,2.872,1.307,2.872
	C135.709,47.511,136.193,47.237,136.565,46.897"/>
<path fill="#363636" d="M139.387,44.799v-2.355c0-2.758,0.807-3.612,2.534-3.612c1.951,0,2.419,1.225,2.419,3.854v0.839h-3.774v1.63
	c0,1.822,0.387,2.405,1.339,2.405c0.727,0,1.274-0.323,1.274-1.791v-0.646h1.146v0.516c0,1.694-0.613,2.808-2.421,2.808
	C140.146,48.446,139.387,47.511,139.387,44.799 M143.179,42.847v-0.774c0-1.468-0.128-2.354-1.274-2.354
	c-0.968,0-1.339,0.516-1.339,2.5v0.629H143.179z"/>
<polygon fill="#363636" points="149.455,35.233 154.181,35.233 154.181,36.184 150.696,36.184 150.696,41.089 153.535,41.089 
	153.535,41.993 150.696,41.993 150.696,47.38 154.214,47.38 154.214,48.3 149.455,48.3 "/>
<path fill="#363636" d="M155.052,45.8l0.984-0.307c0.129,1.437,0.678,2.066,1.631,2.066c0.806,0,1.273-0.485,1.273-1.324
	c0-0.613-0.338-1.21-1.128-1.871l-1.275-1.098c-0.84-0.693-1.274-1.339-1.274-2.34c0-1.339,0.888-2.096,2.228-2.096
	c1.42,0,2.128,1.015,2.21,2.451l-0.841,0.274c-0.064-1.259-0.516-1.839-1.322-1.839c-0.728,0-1.194,0.418-1.194,1.129
	c0,0.564,0.179,0.937,0.758,1.468l1.324,1.179c0.76,0.678,1.55,1.419,1.55,2.71c0,1.452-0.953,2.243-2.391,2.243
	C156.103,48.446,155.183,47.413,155.052,45.8"/>
<path fill="#363636" d="M161.846,46.365V39.75h-1.147v-0.773h1.147v-2.889h1.175v2.889h1.55v0.773h-1.55v6.503
	c0,0.904,0.13,1.241,0.824,1.241c0.194,0,0.451-0.031,0.678-0.08v0.904c-0.338,0.064-0.678,0.096-1,0.096
	C162.15,48.413,161.846,47.56,161.846,46.365"/>
<path fill="#363636" d="M165.572,46.365c0-1.872,1.015-2.501,3.759-3.727v-0.661c0-1.694-0.275-2.259-1.162-2.259
	c-0.725,0-1.307,0.37-1.307,1.597v0.322l-1.162-0.016c0.016-1.889,0.741-2.79,2.534-2.79c1.66,0,2.273,0.983,2.273,3.081v4.533
	c0,0.484,0.033,1.516,0.081,1.854h-1.05c-0.047-0.402-0.144-1-0.178-1.29c-0.257,0.758-0.935,1.436-1.917,1.436
	C166.313,48.446,165.572,47.526,165.572,46.365 M169.331,46.333v-2.904c-1.841,0.969-2.581,1.371-2.581,2.646
	c0,0.984,0.499,1.372,1.063,1.372C168.51,47.446,169.056,46.85,169.331,46.333"/>
<path fill="#363636" d="M172.057,44.542v-1.726c0-2.437,0.419-3.984,2.196-3.984c0.741,0,1.273,0.402,1.643,0.806v-4.404h1.18V48.3
	h-1.18v-0.66c-0.369,0.402-0.887,0.807-1.596,0.807C172.703,48.446,172.057,47.333,172.057,44.542 M175.896,46.897v-6.485
	c-0.322-0.29-0.806-0.662-1.388-0.662c-1.048,0-1.274,0.92-1.274,2.678v2.212c0,1.887,0.227,2.872,1.308,2.872
	C175.043,47.511,175.526,47.237,175.896,46.897"/>
<path fill="#363636" d="M178.816,46.462v-7.487h1.195v7.229c0,0.968,0.288,1.307,0.884,1.307c0.567,0,1.164-0.387,1.648-0.92v-7.615
	h1.178V48.3h-1.178v-1.032c-0.598,0.694-1.388,1.178-2.276,1.178C179.315,48.446,178.816,47.72,178.816,46.462"/>
<path fill="#363636" d="M185.285,46.365c0-1.872,1.017-2.501,3.76-3.727v-0.661c0-1.694-0.274-2.259-1.163-2.259
	c-0.724,0-1.306,0.37-1.306,1.597v0.322l-1.161-0.016c0.016-1.889,0.74-2.79,2.533-2.79c1.66,0,2.274,0.983,2.274,3.081v4.533
	c0,0.484,0.034,1.516,0.08,1.854h-1.05c-0.047-0.402-0.145-1-0.176-1.29c-0.259,0.758-0.937,1.436-1.919,1.436
	C186.026,48.446,185.285,47.526,185.285,46.365 M189.045,46.333v-2.904c-1.839,0.969-2.583,1.371-2.583,2.646
	c0,0.984,0.502,1.372,1.065,1.372C188.221,47.446,188.771,46.85,189.045,46.333"/>
<rect x="192.109" y="35.233" fill="#363636" width="1.178" height="13.067"/>
<path fill="#363636" d="M198.321,44.542v-1.726c0-2.437,0.419-3.984,2.194-3.984c0.741,0,1.274,0.402,1.644,0.806v-4.404h1.18V48.3
	h-1.18v-0.66c-0.369,0.402-0.884,0.807-1.596,0.807C198.968,48.446,198.321,47.333,198.321,44.542 M202.159,46.897v-6.485
	c-0.322-0.29-0.806-0.662-1.386-0.662c-1.048,0-1.275,0.92-1.275,2.678v2.212c0,1.887,0.228,2.872,1.309,2.872
	C201.306,47.511,201.79,47.237,202.159,46.897"/>
<path fill="#363636" d="M204.984,44.799v-2.355c0-2.758,0.808-3.612,2.533-3.612c1.951,0,2.42,1.225,2.42,3.854v0.839h-3.775v1.63
	c0,1.822,0.387,2.405,1.34,2.405c0.723,0,1.273-0.323,1.273-1.791v-0.646h1.144v0.516c0,1.694-0.613,2.808-2.417,2.808
	C205.74,48.446,204.984,47.511,204.984,44.799 M208.775,42.847v-0.774c0-1.468-0.129-2.354-1.273-2.354
	c-0.969,0-1.34,0.516-1.34,2.5v0.629H208.775z"/>
<path fill="#363636" d="M214.795,44.381v-5.196c0-2.403,0.707-4.082,3.305-4.082c2.34,0,3.098,1.437,3.098,3.711v0.792h-1.161v-0.76
	c0-1.693-0.291-2.759-1.921-2.759c-1.772,0-2.079,1.177-2.079,2.921v5.566c0,1.936,0.468,2.903,2.079,2.903
	c1.63,0,1.921-1.128,1.921-2.838v-0.854h1.161v0.772c0,2.293-0.659,3.905-3.098,3.905C215.454,48.462,214.795,46.656,214.795,44.381
	"/>
<path fill="#363636" d="M222.617,46.365c0-1.872,1.017-2.501,3.758-3.727v-0.661c0-1.694-0.272-2.259-1.159-2.259
	c-0.728,0-1.308,0.37-1.308,1.597v0.322l-1.161-0.016c0.015-1.889,0.743-2.79,2.531-2.79c1.662,0,2.276,0.983,2.276,3.081v4.533
	c0,0.484,0.031,1.516,0.08,1.854h-1.047c-0.051-0.402-0.146-1-0.179-1.29c-0.258,0.758-0.937,1.436-1.921,1.436
	C223.359,48.446,222.617,47.526,222.617,46.365 M226.375,46.333v-2.904c-1.837,0.969-2.578,1.371-2.578,2.646
	c0,0.984,0.499,1.372,1.063,1.372C225.553,47.446,226.103,46.85,226.375,46.333"/>
<path fill="#363636" d="M229.28,38.975h1.097v0.953c0.614-0.727,1.388-1.114,2.194-1.114c0.644,0,1.241,0.291,1.486,1.21
	c0.628-0.79,1.434-1.21,2.289-1.21c0.823,0,1.582,0.501,1.582,2.129V48.3h-1.098v-7.324c0-1.097-0.403-1.354-0.937-1.354
	c-0.58,0-1.225,0.387-1.76,0.968c0.017,0.113,0.034,0.227,0.034,0.354V48.3h-1.115v-7.324c0-1.097-0.384-1.354-0.936-1.354
	c-0.563,0-1.21,0.387-1.741,0.952V48.3h-1.097V38.975z"/>
<path fill="#363636" d="M239.67,38.975h1.178v0.774c0.371-0.468,0.953-0.918,1.79-0.918c1.81,0,2.116,1.838,2.116,3.709v1.968
	c0,2.389-0.502,3.938-2.245,3.938c-0.741,0-1.29-0.469-1.661-0.887v3.807h-1.178V38.975z M243.574,44.542v-2.001
	c0-1.822-0.177-2.791-1.273-2.791c-0.598,0-1.131,0.403-1.453,0.727v6.356c0.356,0.371,0.855,0.678,1.483,0.678
	C243.382,47.511,243.574,46.477,243.574,44.542"/>
<path fill="#363636" d="M246.526,36.087h1.18v1.598h-1.18V36.087z M246.526,38.975h1.18V48.3h-1.18V38.975z"/>
<path fill="#363636" d="M249.688,38.975h1.178v0.968c0.598-0.645,1.371-1.111,2.243-1.111c0.919,0,1.437,0.724,1.437,1.984V48.3
	h-1.18v-7.227c0-0.967-0.291-1.323-0.887-1.323c-0.548,0-1.129,0.372-1.613,0.872V48.3h-1.178V38.975z"/>
<path fill="#363636" d="M256.028,46.365c0-1.872,1.018-2.501,3.759-3.727v-0.661c0-1.694-0.272-2.259-1.161-2.259
	c-0.727,0-1.305,0.37-1.305,1.597v0.322l-1.164-0.016c0.016-1.889,0.742-2.79,2.533-2.79c1.662,0,2.275,0.983,2.275,3.081v4.533
	c0,0.484,0.03,1.516,0.081,1.854h-1.049c-0.049-0.402-0.146-1-0.177-1.29c-0.259,0.758-0.936,1.436-1.922,1.436
	C256.771,48.446,256.028,47.526,256.028,46.365 M259.787,46.333v-2.904c-1.837,0.969-2.58,1.371-2.58,2.646
	c0,0.984,0.5,1.372,1.066,1.372C258.965,47.446,259.515,46.85,259.787,46.333"/>
<path fill="#363636" d="M262.288,45.8l0.984-0.307c0.13,1.437,0.677,2.066,1.63,2.066c0.809,0,1.275-0.485,1.275-1.324
	c0-0.613-0.339-1.21-1.132-1.871l-1.274-1.098c-0.836-0.693-1.273-1.339-1.273-2.34c0-1.339,0.889-2.096,2.226-2.096
	c1.42,0,2.13,1.015,2.21,2.451l-0.838,0.274c-0.063-1.259-0.516-1.839-1.323-1.839c-0.726,0-1.193,0.418-1.193,1.129
	c0,0.564,0.178,0.937,0.759,1.468l1.321,1.179c0.759,0.678,1.549,1.419,1.549,2.71c0,1.452-0.952,2.243-2.386,2.243
	C263.336,48.446,262.418,47.413,262.288,45.8"/>
<path fill-rule="evenodd" clip-rule="evenodd" fill="#363636" d="M40.387,38.041V21.261c1.942,0.044,3.875,0.321,5.757,0.836
	c-0.194,1.15,0.299,2.3,1.255,2.964l-5.555,13.283C41.366,38.189,40.88,38.091,40.387,38.041"/>
<path fill-rule="evenodd" clip-rule="evenodd" fill="#363636" d="M38.922,38.041V21.283c-2.644,0.135-5.228,0.784-7.625,1.913
	l6.213,15.135C37.966,38.181,38.437,38.085,38.922,38.041"/>
<path fill-rule="evenodd" clip-rule="evenodd" fill="#363636" d="M36.389,38.752l-6.184-15.053
	c-2.374,1.216-4.517,2.859-6.309,4.838l11.126,11.125C35.44,39.312,35.895,39.005,36.389,38.752"/>
<path fill-rule="evenodd" clip-rule="evenodd" fill="#363636" d="M23.126,29.449c-1.636,1.941-2.876,4.188-3.645,6.601l13.829,5.786
	c0.239-0.47,0.538-0.918,0.881-1.32L23.126,29.449z"/>
<path fill-rule="evenodd" clip-rule="evenodd" fill="#363636" d="M32.825,42.948L19.19,37.244c-0.313,2.434-0.253,4.897,0.18,7.312
	h13.135C32.549,44.008,32.661,43.471,32.825,42.948"/>
<path fill-rule="evenodd" clip-rule="evenodd" fill="#363636" d="M32.509,45.759H19.71c0.776,2.017,1.785,3.927,2.995,5.712
	l10.109-4.152C32.658,46.813,32.553,46.29,32.509,45.759"/>
<path fill-rule="evenodd" clip-rule="evenodd" fill="#363636" d="M34.211,49.718c-0.359-0.418-0.665-0.873-0.911-1.365l-9.759,4.002
	c1.359,1.352,2.86,2.539,4.473,3.563L34.211,49.718z"/>
<path fill-rule="evenodd" clip-rule="evenodd" fill="#363636" d="M41.971,58.665c-0.143-1.156,0.388-2.285,1.374-2.912l-1.546-3.822
	c-2.337,0.725-4.884,0.209-6.75-1.373l-5.974,5.973C33.025,58.63,37.557,59.384,41.971,58.665"/>
<path fill-rule="evenodd" clip-rule="evenodd" fill="#363636" d="M42.842,51.499l1.552,3.855c1.204-0.203,2.397,0.342,3.039,1.373
	c0.666-0.314,1.322-0.643,1.972-0.986l-5.16-5.166C43.813,50.94,43.342,51.253,42.842,51.499"/>
<path fill-rule="evenodd" clip-rule="evenodd" fill="#363636" d="M61.409,47.263c-0.434-0.425-0.732-0.97-0.851-1.575H46.751
	c-0.119,1.486-0.709,2.897-1.665,4.034l5.413,5.412C54.435,52.954,58.093,50.31,61.409,47.263"/>
<path fill-rule="evenodd" clip-rule="evenodd" fill="#363636" d="M53.61,26.44c0.65,0.649,1.254,1.336,1.822,2.061L44.231,39.702
	c-0.411-0.345-0.851-0.636-1.322-0.881l5.556-13.286c1.03,0.209,2.099-0.149,2.809-0.932C52.094,25.156,52.877,25.774,53.61,26.44"
	/>
<path fill-rule="evenodd" clip-rule="evenodd" fill="#363636" d="M44.878,56.517c-0.991,0-1.798,0.813-1.798,1.807
	c0,0.996,0.808,1.807,1.798,1.807c0.992,0,1.801-0.811,1.801-1.807C46.679,57.329,45.87,56.517,44.878,56.517"/>
<path fill-rule="evenodd" clip-rule="evenodd" fill="#363636" d="M63.85,43.055c-0.996,0-1.808,0.813-1.808,1.808
	c0,0.996,0.812,1.808,1.808,1.808c0.995,0,1.807-0.812,1.807-1.808C65.657,43.868,64.845,43.055,63.85,43.055"/>
<path fill-rule="evenodd" clip-rule="evenodd" fill="#363636" d="M49.043,20.807c-0.996,0-1.808,0.812-1.808,1.807
	c0,0.995,0.812,1.807,1.808,1.807c0.995,0,1.807-0.812,1.807-1.807C50.85,21.618,50.038,20.807,49.043,20.807"/>
<path fill-rule="evenodd" clip-rule="evenodd" fill="#363636" d="M59.627,36.297c-0.672-1.59-1.411-3.15-2.218-4.681
	c-0.41-0.725-0.844-1.435-1.299-2.129L45.067,40.531c0.351,0.426,0.657,0.881,0.904,1.367L59.627,36.297z"/>
<path fill-rule="evenodd" clip-rule="evenodd" fill="#363636" d="M60.102,37.406c0.666,1.725,1.27,3.48,1.792,5.257
	c-0.672,0.426-1.149,1.112-1.322,1.897H46.759c-0.044-0.531-0.141-1.053-0.307-1.562L60.102,37.406z"/>
<path fill="#363636" d="M17.269,33.371c3.082-6.413,8.701-11.17,15.414-13.054c1.359-0.381,2.755-0.64,4.148-0.77
	c2.717-0.252,5.419-0.021,8.026,0.688c0.299,0.082,0.611-0.075,0.746-0.355c0.017-0.034,0.03-0.07,0.042-0.108
	c0.099-0.346-0.093-0.701-0.429-0.792c-2.75-0.747-5.598-0.991-8.464-0.724c-1.468,0.136-2.938,0.409-4.371,0.811
	c-7.076,1.985-12.999,7-16.246,13.759c-0.157,0.325-0.03,0.711,0.284,0.862C16.732,33.837,17.112,33.696,17.269,33.371"/>
<path fill="#363636" d="M40.524,11.579c0.024-0.358-0.239-0.661-0.588-0.675c-0.35-0.014-0.652,0.264-0.677,0.622
	c-0.025,0.358,0.238,0.659,0.588,0.675C40.197,12.215,40.5,11.937,40.524,11.579"/>
<path fill="#363636" d="M42.696,11.085c-0.024,0.358,0.238,0.66,0.588,0.675c0.35,0.015,0.652-0.263,0.677-0.621
	c0.025-0.359-0.239-0.661-0.587-0.675C43.023,10.449,42.721,10.727,42.696,11.085"/>
<path fill="#363636" d="M44.26,15.823c-0.024,0.357,0.239,0.66,0.588,0.674c0.35,0.015,0.652-0.264,0.677-0.621
	c0.025-0.359-0.238-0.66-0.587-0.675C44.587,15.186,44.284,15.464,44.26,15.823"/>
<path fill="#363636" d="M22.989,18.451c0.025-0.358-0.239-0.66-0.587-0.674c-0.349-0.015-0.652,0.264-0.677,0.622
	c-0.024,0.357,0.24,0.66,0.588,0.675C22.663,19.087,22.965,18.809,22.989,18.451"/>
<path fill="#363636" d="M31.067,16.49c0.263,0.011,0.501-0.146,0.611-0.375c0.037-0.076,0.06-0.158,0.066-0.247l0.091-1.346
	c0.756-0.08,1.459-0.358,2.069-0.778l0.87,0.998c0.229,0.263,0.63,0.28,0.894,0.038c0.064-0.059,0.115-0.129,0.152-0.205
	c0.111-0.231,0.084-0.513-0.088-0.711l-0.87-0.998c0.24-0.292,0.456-0.609,0.622-0.956c0.162-0.335,0.279-0.694,0.359-1.07
	l1.314,0.056c0.264,0.011,0.501-0.144,0.612-0.375c0.037-0.075,0.059-0.159,0.065-0.247c0.024-0.358-0.239-0.66-0.588-0.674
	l-1.314-0.056c-0.056-0.771-0.302-1.488-0.695-2.1l0.993-0.913c0.065-0.059,0.117-0.128,0.152-0.205
	c0.111-0.231,0.084-0.514-0.088-0.712c-0.23-0.263-0.631-0.28-0.895-0.038L34.403,6.49c-0.548-0.469-1.214-0.799-1.955-0.942
	L32.541,4.2c0.025-0.358-0.239-0.659-0.589-0.674c-0.349-0.015-0.651,0.266-0.676,0.622l-0.092,1.348
	c-0.741,0.077-1.453,0.335-2.077,0.767l-0.858-0.985c-0.23-0.264-0.631-0.281-0.894-0.039c-0.262,0.242-0.292,0.654-0.063,0.917
	l1.247,1.431c0.219,0.252,0.596,0.279,0.863,0.064c0.02-0.017,0.039-0.035,0.058-0.054c0.471-0.422,1.036-0.691,1.636-0.79
	l-0.04,0.582c-0.024,0.358,0.238,0.66,0.588,0.674c0.264,0.011,0.501-0.145,0.612-0.375c0.036-0.076,0.059-0.159,0.064-0.247
	l0.04-0.583c1.421,0.362,2.419,1.717,2.313,3.281c-0.045,0.661-0.283,1.264-0.649,1.763l-0.372-0.427
	c-0.23-0.263-0.63-0.28-0.894-0.037c-0.262,0.242-0.292,0.653-0.063,0.917l0.372,0.426c-0.522,0.318-1.134,0.494-1.778,0.467
	c-0.643-0.028-1.226-0.252-1.704-0.613l0.428-0.392c0.063-0.06,0.115-0.129,0.151-0.205c0.111-0.231,0.084-0.514-0.089-0.712
	c-0.229-0.264-0.63-0.28-0.895-0.037l-0.427,0.392c-0.296-0.526-0.449-1.146-0.404-1.805c0.015-0.222,0.052-0.441,0.109-0.652
	c0.094-0.349-0.104-0.701-0.441-0.786c-0.336-0.086-0.688,0.128-0.78,0.474c-0.023,0.086-0.039,0.176-0.058,0.264L25.864,9.12
	c-0.35-0.015-0.652,0.265-0.677,0.622c-0.025,0.356,0.239,0.66,0.587,0.674l1.315,0.055c0.055,0.772,0.301,1.488,0.694,2.099
	l-0.996,0.916c-0.263,0.241-0.292,0.654-0.063,0.917c0.23,0.262,0.63,0.28,0.894,0.037l0.997-0.915
	c0.548,0.469,1.215,0.799,1.955,0.94l-0.091,1.349C30.455,16.172,30.718,16.476,31.067,16.49"/>
<path fill="#363636" d="M32.775,10.061c0.349,0.015,0.651-0.263,0.676-0.621c0.024-0.358-0.239-0.66-0.588-0.675
	c-0.349-0.015-0.652,0.264-0.677,0.622C32.163,9.745,32.425,10.046,32.775,10.061"/>
<path fill="#363636" d="M30.789,11.277c-0.024,0.358,0.239,0.661,0.589,0.675c0.349,0.015,0.651-0.264,0.676-0.622
	c0.024-0.358-0.239-0.66-0.588-0.674C31.116,10.642,30.813,10.92,30.789,11.277"/>
<path fill="#363636" d="M30.246,9.955c0.349,0.015,0.652-0.264,0.677-0.621c0.024-0.359-0.239-0.66-0.588-0.675
	c-0.349-0.015-0.652,0.264-0.676,0.622C29.633,9.638,29.896,9.94,30.246,9.955"/>
<path fill="#363636" d="M29.002,19.007c0.067-0.059,0.121-0.131,0.16-0.211c0.055-0.114,0.077-0.244,0.062-0.373l-0.286-2.311
	c-0.043-0.355-0.36-0.596-0.707-0.542c-0.348,0.055-0.595,0.386-0.55,0.741l0.163,1.318l-2.75-0.78
	c-0.334-0.095-0.689,0.107-0.792,0.454c-0.103,0.346,0.085,0.702,0.42,0.798l3.687,1.047C28.614,19.207,28.837,19.154,29.002,19.007
	"/>
<path fill="#363636" d="M42.197,13.466c0.136-0.283,0.059-0.627-0.196-0.808c-0.283-0.202-0.679-0.126-0.885,0.17l-1.862,2.679
	l-1.464-1.237c-0.266-0.226-0.666-0.182-0.894,0.097c-0.231,0.279-0.197,0.687,0.069,0.913l1.987,1.678
	c0.133,0.115,0.31,0.165,0.486,0.138c0.174-0.026,0.334-0.126,0.438-0.277l2.264-3.259C42.164,13.529,42.181,13.499,42.197,13.466"
	/>
<path fill="#363636" d="M33.795,61.667c-6.82-2.029-12.406-6.824-15.328-13.156c-0.592-1.282-1.068-2.619-1.417-3.974
	c-0.679-2.644-0.878-5.347-0.59-8.034c0.032-0.308-0.17-0.592-0.468-0.681c-0.036-0.011-0.074-0.02-0.114-0.022
	c-0.356-0.044-0.677,0.202-0.713,0.548c-0.304,2.835-0.094,5.685,0.623,8.472c0.366,1.429,0.869,2.836,1.492,4.19
	c3.079,6.672,8.968,11.725,16.155,13.863c0.346,0.104,0.706-0.084,0.805-0.416C34.341,62.124,34.141,61.771,33.795,61.667"/>
<path fill="#363636" d="M8.6,42.151c-0.356,0.031-0.614,0.34-0.573,0.687c0.04,0.347,0.363,0.603,0.72,0.569
	c0.358-0.031,0.614-0.339,0.574-0.687C9.279,42.373,8.958,42.118,8.6,42.151"/>
<path fill="#363636" d="M7.769,40.083c0.357-0.032,0.614-0.339,0.574-0.687c-0.042-0.347-0.364-0.603-0.721-0.57
	s-0.614,0.341-0.574,0.688C7.088,39.861,7.412,40.117,7.769,40.083"/>
<path fill="#363636" d="M12.199,37.791c0.358-0.031,0.614-0.34,0.574-0.688c-0.042-0.348-0.364-0.603-0.721-0.568
	c-0.358,0.031-0.614,0.339-0.573,0.687C11.519,37.568,11.842,37.824,12.199,37.791"/>
<path fill="#66A8DE" d="M18.158,58.378c-0.356,0.031-0.613,0.34-0.573,0.688c0.041,0.346,0.364,0.602,0.721,0.57
	c0.357-0.033,0.614-0.344,0.574-0.689C18.839,58.601,18.516,58.347,18.158,58.378"/>
<path fill="#363636" d="M14.944,50.712c-0.031-0.262-0.222-0.473-0.467-0.545c-0.081-0.023-0.166-0.033-0.253-0.025l-1.343,0.123
	c-0.198-0.734-0.584-1.385-1.096-1.92l0.847-1.015c0.224-0.271,0.177-0.669-0.104-0.891c-0.069-0.055-0.146-0.094-0.227-0.117
	c-0.245-0.073-0.52-0.002-0.688,0.2l-0.847,1.016c-0.326-0.191-0.673-0.352-1.042-0.463c-0.356-0.105-0.73-0.165-1.113-0.184
	l-0.152-1.307c-0.031-0.263-0.222-0.473-0.468-0.545c-0.081-0.024-0.166-0.034-0.254-0.025c-0.356,0.031-0.613,0.341-0.573,0.688
	l0.154,1.307c-0.753,0.178-1.421,0.534-1.964,1.018l-1.058-0.835c-0.069-0.056-0.146-0.096-0.227-0.118
	C3.824,47,3.549,47.07,3.38,47.273c-0.223,0.269-0.177,0.666,0.104,0.888l1.059,0.838c-0.375,0.617-0.597,1.324-0.619,2.08
	L2.577,51.2c-0.357,0.031-0.614,0.34-0.573,0.688c0.04,0.348,0.364,0.602,0.72,0.568l1.346-0.121
	c0.194,0.721,0.562,1.381,1.086,1.93l-0.837,1.002c-0.223,0.271-0.177,0.67,0.104,0.889c0.281,0.221,0.692,0.188,0.916-0.082
	l1.215-1.455c0.214-0.258,0.181-0.635-0.074-0.863c-0.021-0.018-0.04-0.033-0.061-0.049c-0.493-0.396-0.849-0.914-1.04-1.49
	l0.581-0.053c0.356-0.033,0.613-0.34,0.573-0.686c-0.031-0.264-0.222-0.473-0.467-0.547c-0.081-0.023-0.167-0.033-0.253-0.025
	L5.231,50.96c0.132-1.461,1.313-2.66,2.875-2.805c0.659-0.059,1.292,0.08,1.842,0.363l-0.361,0.434
	c-0.224,0.27-0.177,0.668,0.104,0.889c0.28,0.223,0.691,0.188,0.915-0.084l0.362-0.432c0.398,0.465,0.667,1.041,0.742,1.68
	c0.076,0.641-0.055,1.252-0.336,1.781l-0.454-0.359c-0.07-0.057-0.146-0.094-0.226-0.119c-0.246-0.072-0.521-0.002-0.69,0.199
	c-0.223,0.27-0.177,0.668,0.104,0.891l0.456,0.361c-0.473,0.375-1.062,0.625-1.72,0.684c-0.22,0.02-0.443,0.02-0.661-0.004
	c-0.358-0.037-0.674,0.211-0.706,0.559c-0.032,0.346,0.234,0.66,0.591,0.695c0.089,0.012,0.18,0.012,0.27,0.016l0.153,1.307
	c0.041,0.35,0.365,0.604,0.721,0.57c0.356-0.033,0.613-0.34,0.573-0.686l-0.153-1.309c0.753-0.178,1.421-0.533,1.963-1.018
	l1.061,0.84c0.28,0.221,0.692,0.186,0.915-0.084c0.224-0.27,0.178-0.666-0.104-0.889l-1.062-0.84
	c0.376-0.615,0.598-1.326,0.622-2.078l1.345-0.123C14.728,51.366,14.985,51.06,14.944,50.712"/>
<path fill="#363636" d="M8.326,50.042c-0.04-0.346-0.363-0.602-0.721-0.57c-0.357,0.033-0.614,0.342-0.573,0.689
	c0.041,0.346,0.363,0.602,0.721,0.568C8.111,50.698,8.368,50.392,8.326,50.042"/>
<path fill="#363636" d="M9.842,51.81c0.358-0.031,0.614-0.34,0.574-0.686c-0.042-0.348-0.364-0.604-0.722-0.57
	c-0.357,0.031-0.615,0.34-0.573,0.688C9.162,51.589,9.485,51.843,9.842,51.81"/>
<path fill="#363636" d="M8.622,52.556c-0.042-0.346-0.363-0.602-0.721-0.568c-0.358,0.031-0.614,0.34-0.573,0.688
	c0.04,0.346,0.363,0.602,0.72,0.568C8.406,53.212,8.662,52.905,8.622,52.556"/>
<path fill="#363636" d="M17.757,52.353c-0.07-0.057-0.15-0.1-0.234-0.123c-0.122-0.037-0.252-0.039-0.377-0.004l-2.237,0.65
	c-0.342,0.098-0.532,0.449-0.422,0.783c0.109,0.334,0.475,0.525,0.819,0.426l1.276-0.369l-0.336,2.838
	c-0.041,0.346,0.215,0.662,0.573,0.709c0.357,0.047,0.68-0.195,0.721-0.541l0.45-3.807C18.016,52.704,17.928,52.491,17.757,52.353"
	/>
<path fill="#363636" d="M10.199,40.201c-0.301-0.09-0.628,0.04-0.767,0.32c-0.156,0.312-0.017,0.691,0.308,0.847l2.94,1.415
	l-0.992,1.641c-0.18,0.3-0.074,0.687,0.238,0.868c0.313,0.184,0.71,0.084,0.89-0.213l1.344-2.228c0.09-0.15,0.112-0.333,0.058-0.502
	c-0.054-0.168-0.178-0.309-0.342-0.39l-3.577-1.721C10.266,40.224,10.233,40.21,10.199,40.201"/>
<path fill="#86C5A9" d="M19.946,22.024c-0.147,0-0.266,0.12-0.266,0.267v0.133h-1.211c-0.051-0.461-0.234-0.882-0.509-1.227
	l0.423-0.423l0.095,0.094c0.104,0.103,0.272,0.103,0.375,0c0.104-0.104,0.104-0.273,0-0.375l-0.563-0.564
	c-0.104-0.104-0.273-0.104-0.377,0c-0.104,0.104-0.104,0.272,0,0.375l0.094,0.095l-0.423,0.423
	c-0.344-0.275-0.765-0.458-1.227-0.509v-1.21h0.133c0.146,0,0.267-0.119,0.267-0.267c0-0.146-0.12-0.265-0.267-0.265h-0.797
	c-0.147,0-0.265,0.119-0.265,0.265c0,0.147,0.118,0.267,0.265,0.267h0.133v1.21c-0.461,0.051-0.882,0.234-1.226,0.509l-0.423-0.423
	l0.094-0.095c0.104-0.104,0.104-0.271,0-0.375c-0.104-0.104-0.271-0.104-0.375,0l-0.564,0.564c-0.104,0.103-0.104,0.271,0,0.375
	c0.104,0.103,0.272,0.103,0.376,0l0.094-0.094l0.424,0.423c-0.275,0.344-0.457,0.765-0.508,1.227h-1.212v-0.133
	c0-0.147-0.119-0.267-0.265-0.267c-0.147,0-0.266,0.12-0.266,0.267v0.797c0,0.146,0.119,0.267,0.266,0.267
	c0.146,0,0.265-0.12,0.265-0.267v-0.133h1.212c0.051,0.461,0.233,0.882,0.508,1.227L13.8,24.604l-0.094-0.094
	c-0.104-0.104-0.272-0.104-0.376,0c-0.104,0.104-0.104,0.273,0,0.375l0.564,0.564c0.104,0.104,0.272,0.104,0.375,0
	c0.104-0.104,0.104-0.272,0-0.376l-0.094-0.094l0.423-0.424c0.344,0.275,0.765,0.457,1.226,0.508v1.212h-0.133
	c-0.147,0-0.265,0.119-0.265,0.265c0,0.147,0.118,0.266,0.265,0.266h0.797c0.146,0,0.267-0.119,0.267-0.266
	c0-0.146-0.12-0.265-0.267-0.265h-0.133v-1.212c0.461-0.051,0.882-0.233,1.227-0.508l0.423,0.424l-0.094,0.094
	c-0.104,0.104-0.104,0.272,0,0.376c0.104,0.104,0.273,0.104,0.377,0l0.563-0.564c0.104-0.103,0.104-0.272,0-0.375
	c-0.104-0.104-0.272-0.104-0.375,0l-0.095,0.094l-0.423-0.423c0.275-0.345,0.458-0.765,0.509-1.227h1.211v0.133
	c0,0.146,0.119,0.267,0.266,0.267c0.146,0,0.266-0.12,0.266-0.267v-0.797C20.211,22.144,20.092,22.024,19.946,22.024"/>
<path fill="#56877C" d="M16.091,21.64c0.01,0.284-0.211,0.522-0.495,0.534c-0.284,0.01-0.523-0.212-0.534-0.496
	c-0.009-0.284,0.211-0.522,0.496-0.534C15.842,21.134,16.082,21.356,16.091,21.64"/>
<path fill="#56877C" d="M17.347,23.96c-0.211,0.257-0.56,0.318-0.779,0.136c-0.219-0.181-0.226-0.534-0.015-0.791
	c0.211-0.256,0.56-0.316,0.779-0.136C17.552,23.351,17.558,23.705,17.347,23.96"/>
<path fill="#56877C" d="M17.607,21.777c0.096,0.217,0.032,0.455-0.141,0.532s-0.391-0.037-0.487-0.254
	c-0.096-0.216-0.034-0.454,0.141-0.531C17.293,21.447,17.513,21.562,17.607,21.777"/>
<path fill="#56877C" d="M15.203,23.364c-0.072,0.177-0.307,0.247-0.526,0.158s-0.34-0.303-0.27-0.479s0.307-0.247,0.527-0.158
	C15.153,22.974,15.273,23.189,15.203,23.364"/>
<g opacity="0.1">
	<g>
		<defs>
			<rect id="SVGID_1_" x="11.973" y="19.85" width="5.526" height="6.958"/>
		</defs>
		<clipPath id="SVGID_2_">
			<use xlink:href="#SVGID_1_"  overflow="visible"/>
		</clipPath>
		<path clip-path="url(#SVGID_2_)" d="M16.49,26.277h-0.133v-1.212c0.425-0.047,0.814-0.207,1.141-0.445
			c-0.174,0.039-0.356,0.062-0.542,0.062c-1.359,0-2.459-1.101-2.459-2.458c0-0.697,0.292-1.327,0.759-1.774
			c-0.239,0.089-0.46,0.214-0.657,0.372l-0.423-0.423l0.094-0.095c0.104-0.104,0.104-0.272,0-0.375
			c-0.104-0.104-0.273-0.104-0.375,0l-0.564,0.563c-0.104,0.104-0.104,0.273,0,0.377c0.104,0.104,0.272,0.104,0.376,0l0.094-0.094
			l0.424,0.423c-0.275,0.344-0.457,0.765-0.508,1.227h-1.212v-0.133c0-0.146-0.119-0.267-0.265-0.267
			c-0.147,0-0.266,0.12-0.266,0.267v0.797c0,0.146,0.119,0.265,0.266,0.265c0.146,0,0.265-0.119,0.265-0.265v-0.133h1.212
			c0.051,0.461,0.233,0.882,0.508,1.226L13.8,24.604l-0.094-0.094c-0.104-0.104-0.272-0.104-0.376,0
			c-0.104,0.104-0.104,0.273,0,0.375l0.564,0.564c0.103,0.104,0.272,0.104,0.375,0c0.104-0.104,0.104-0.272,0-0.376l-0.094-0.094
			l0.423-0.424c0.344,0.275,0.765,0.457,1.226,0.508v1.212h-0.133c-0.147,0-0.265,0.119-0.265,0.265
			c0,0.147,0.118,0.266,0.265,0.266h0.797c0.146,0,0.267-0.119,0.267-0.266C16.757,26.396,16.637,26.277,16.49,26.277"/>
	</g>
</g>
<path fill="#487B80" d="M22.337,65.188c0.146,0,0.267,0.119,0.267,0.266c0,0.145-0.12,0.266-0.267,0.266
	c-0.146,0-0.266-0.121-0.266-0.266C22.071,65.308,22.191,65.188,22.337,65.188"/>
<path fill="#487B80" d="M20.743,64.124c0.294,0,0.532,0.24,0.532,0.531c0,0.295-0.238,0.533-0.532,0.533s-0.531-0.238-0.531-0.533
	C20.211,64.364,20.449,64.124,20.743,64.124"/>
<path fill="#487B80" d="M21.407,62.796c0.146,0,0.266,0.119,0.266,0.268c0,0.145-0.119,0.264-0.266,0.264s-0.267-0.119-0.267-0.264
	C21.141,62.915,21.261,62.796,21.407,62.796"/>
<path fill="#74BFAB" d="M25.527,63.991c0.146,0,0.265,0.123,0.265,0.268s-0.12,0.266-0.265,0.266h-0.399
	c-0.34,0-0.732,0.107-0.973,0.186c-0.054,0.303-0.165,0.586-0.317,0.842c0.095,0.203,0.341,0.684,0.646,0.99l0.244,0.24h0.002
	c0.221,0,0.399,0.178,0.399,0.398c0,0.223-0.178,0.4-0.399,0.4c-0.22,0-0.399-0.178-0.399-0.4v-0.002l-0.242-0.244
	c-0.285-0.287-0.726-0.518-0.948-0.627c-0.296,0.213-0.64,0.365-1.015,0.434c-0.077,0.238-0.186,0.631-0.186,0.973v0.396
	c0,0.145-0.12,0.268-0.266,0.268c-0.146,0-0.266-0.123-0.266-0.268v-0.396c0-0.342-0.109-0.734-0.186-0.973
	c-0.375-0.068-0.719-0.221-1.015-0.434c-0.222,0.109-0.663,0.34-0.949,0.627l-0.242,0.244v0.002c0,0.223-0.178,0.4-0.398,0.4
	c-0.22,0-0.398-0.178-0.398-0.4c0-0.221,0.178-0.398,0.398-0.398h0.003l0.244-0.24c0.304-0.307,0.55-0.787,0.646-0.99
	c-0.153-0.256-0.263-0.539-0.317-0.842c-0.241-0.078-0.633-0.186-0.973-0.186H17.82c-0.146,0-0.267-0.121-0.267-0.266
	s0.12-0.268,0.267-0.268h0.398c0.34,0,0.732-0.107,0.973-0.186c0.054-0.305,0.164-0.588,0.317-0.84
	c-0.095-0.205-0.342-0.688-0.646-0.992l-0.244-0.238h-0.003c-0.22,0-0.398-0.18-0.398-0.402c0-0.221,0.178-0.396,0.398-0.396
	c0.221,0,0.398,0.176,0.398,0.396v0.006l0.242,0.242c0.286,0.285,0.728,0.52,0.949,0.625c0.296-0.213,0.64-0.361,1.015-0.43
	c0.077-0.242,0.186-0.633,0.186-0.975v-0.398c0-0.145,0.12-0.264,0.266-0.264c0.146,0,0.266,0.119,0.266,0.264v0.398
	c0,0.342,0.109,0.732,0.186,0.975c0.375,0.068,0.719,0.217,1.015,0.43c0.222-0.105,0.664-0.34,0.948-0.625l0.242-0.242v-0.006
	c0-0.221,0.179-0.396,0.399-0.396c0.221,0,0.399,0.176,0.399,0.396c0,0.223-0.178,0.402-0.399,0.402h-0.002l-0.244,0.238
	c-0.305,0.305-0.551,0.787-0.646,0.992c0.152,0.252,0.263,0.535,0.317,0.84c0.241,0.078,0.633,0.186,0.973,0.186H25.527z
	 M23.268,63.858c0-0.221-0.178-0.398-0.399-0.398c-0.22,0-0.398,0.178-0.398,0.398s0.178,0.4,0.398,0.4
	C23.09,64.259,23.268,64.079,23.268,63.858 M22.604,65.454c0-0.146-0.12-0.266-0.266-0.266c-0.146,0-0.267,0.119-0.267,0.266
	c0,0.145,0.12,0.266,0.267,0.266C22.483,65.72,22.604,65.599,22.604,65.454 M21.673,63.063c0-0.148-0.119-0.268-0.266-0.268
	s-0.267,0.119-0.267,0.268c0,0.145,0.12,0.264,0.267,0.264S21.673,63.208,21.673,63.063 M21.275,64.655
	c0-0.291-0.238-0.531-0.532-0.531s-0.531,0.24-0.531,0.531c0,0.295,0.237,0.533,0.531,0.533S21.275,64.95,21.275,64.655"/>
<path fill="#487B80" d="M22.869,63.46c0.221,0,0.399,0.178,0.399,0.398s-0.178,0.4-0.399,0.4c-0.22,0-0.398-0.18-0.398-0.4
	S22.648,63.46,22.869,63.46"/>
<path fill="#64A8A8" d="M21.673,62.132c-1.174,0-2.126,0.951-2.126,2.127c0,1.174,0.953,2.127,2.126,2.127
	c1.173,0,2.126-0.953,2.126-2.127C23.799,63.083,22.847,62.132,21.673,62.132 M20.743,65.188c-0.294,0-0.531-0.238-0.531-0.533
	c0-0.291,0.237-0.531,0.531-0.531s0.532,0.24,0.532,0.531C21.275,64.95,21.037,65.188,20.743,65.188 M21.407,63.327
	c-0.146,0-0.265-0.119-0.265-0.264c0-0.148,0.119-0.268,0.265-0.268s0.266,0.119,0.266,0.268
	C21.673,63.208,21.554,63.327,21.407,63.327 M22.337,65.72c-0.146,0-0.266-0.121-0.266-0.266c0-0.146,0.12-0.266,0.266-0.266
	c0.146,0,0.267,0.119,0.267,0.266C22.604,65.599,22.483,65.72,22.337,65.72 M22.869,64.259c-0.22,0-0.398-0.18-0.398-0.4
	s0.178-0.398,0.398-0.398c0.221,0,0.399,0.178,0.399,0.398S23.09,64.259,22.869,64.259"/>
<path fill="#56949A" d="M20.743,63.991c-0.368,0-0.664,0.299-0.664,0.664c0,0.369,0.296,0.664,0.664,0.664s0.665-0.295,0.665-0.664
	C21.407,64.29,21.11,63.991,20.743,63.991 M20.743,65.188c-0.294,0-0.531-0.238-0.531-0.533c0-0.291,0.237-0.531,0.531-0.531
	s0.532,0.24,0.532,0.531C21.275,64.95,21.037,65.188,20.743,65.188"/>
<path fill="#56949A" d="M21.407,62.663c-0.22,0-0.399,0.18-0.399,0.4c0,0.219,0.179,0.396,0.399,0.396
	c0.22,0,0.399-0.178,0.399-0.396C21.806,62.843,21.627,62.663,21.407,62.663 M21.407,63.327c-0.146,0-0.267-0.119-0.267-0.264
	c0-0.148,0.12-0.268,0.267-0.268s0.266,0.119,0.266,0.268C21.673,63.208,21.554,63.327,21.407,63.327"/>
<path fill="#56949A" d="M22.337,65.058c-0.22,0-0.398,0.176-0.398,0.396s0.178,0.398,0.398,0.398s0.399-0.178,0.399-0.398
	S22.557,65.058,22.337,65.058 M22.337,65.72c-0.146,0-0.266-0.119-0.266-0.266s0.12-0.266,0.266-0.266
	c0.146,0,0.267,0.119,0.267,0.266S22.483,65.72,22.337,65.72"/>
<path fill="#56949A" d="M22.869,63.327c-0.294,0-0.532,0.24-0.532,0.531c0,0.293,0.238,0.533,0.532,0.533
	c0.293,0,0.531-0.24,0.531-0.533C23.4,63.567,23.162,63.327,22.869,63.327 M22.869,64.259c-0.22,0-0.398-0.18-0.398-0.4
	s0.178-0.398,0.398-0.398c0.221,0,0.399,0.178,0.399,0.398S23.09,64.259,22.869,64.259"/>
<path fill="#64A8A8" d="M18.882,61.333c0,0.15-0.119,0.268-0.266,0.268c-0.147,0-0.266-0.117-0.266-0.268
	c0-0.145,0.119-0.264,0.266-0.264C18.764,61.069,18.882,61.188,18.882,61.333"/>
<path fill="#64A8A8" d="M24.996,61.333c0,0.15-0.12,0.268-0.267,0.268c-0.146,0-0.266-0.117-0.266-0.268
	c0-0.145,0.119-0.264,0.266-0.264C24.876,61.069,24.996,61.188,24.996,61.333"/>
<path fill="#64A8A8" d="M24.996,67.181c0,0.148-0.12,0.266-0.267,0.266c-0.146,0-0.266-0.117-0.266-0.266
	c0-0.146,0.119-0.266,0.266-0.266C24.876,66.915,24.996,67.034,24.996,67.181"/>
<path fill="#56949A" d="M23.268,64.923c0,0.145-0.119,0.266-0.266,0.266s-0.266-0.121-0.266-0.266c0-0.146,0.119-0.268,0.266-0.268
	S23.268,64.776,23.268,64.923"/>
<path fill="#56949A" d="M20.61,63.46c0,0.148-0.119,0.268-0.267,0.268c-0.146,0-0.265-0.119-0.265-0.268
	c0-0.145,0.119-0.266,0.265-0.266C20.491,63.194,20.61,63.315,20.61,63.46"/>
<path fill="#56949A" d="M22.471,62.929c0,0.146-0.119,0.266-0.267,0.266c-0.146,0-0.265-0.119-0.265-0.266s0.119-0.266,0.265-0.266
	C22.352,62.663,22.471,62.782,22.471,62.929"/>
<path fill="#64A8A8" d="M18.882,67.181c0,0.148-0.119,0.266-0.266,0.266c-0.147,0-0.266-0.117-0.266-0.266
	c0-0.146,0.119-0.266,0.266-0.266C18.764,66.915,18.882,67.034,18.882,67.181"/>
<path fill="#64A8A8" d="M25.659,64.259c0,0.072-0.06,0.133-0.132,0.133c-0.074,0-0.133-0.061-0.133-0.133
	c0-0.074,0.06-0.135,0.133-0.135C25.6,64.124,25.659,64.185,25.659,64.259"/>
<path fill="#56949A" d="M21.939,64.124c0,0.076-0.06,0.135-0.133,0.135c-0.074,0-0.133-0.059-0.133-0.135
	c0-0.072,0.06-0.133,0.133-0.133C21.879,63.991,21.939,64.052,21.939,64.124"/>
<path fill="#56949A" d="M21.54,65.72c0,0.074-0.059,0.133-0.133,0.133c-0.074,0-0.132-0.059-0.132-0.133s0.058-0.133,0.132-0.133
	C21.481,65.587,21.54,65.646,21.54,65.72"/>
<path fill="#64A8A8" d="M17.953,64.259c0,0.072-0.06,0.133-0.134,0.133c-0.072,0-0.133-0.061-0.133-0.133
	c0-0.074,0.061-0.135,0.133-0.135C17.893,64.124,17.953,64.185,17.953,64.259"/>
<path fill="#64A8A8" d="M21.806,60.403c0,0.072-0.06,0.133-0.133,0.133c-0.073,0-0.133-0.061-0.133-0.133s0.06-0.131,0.133-0.131
	C21.747,60.272,21.806,60.331,21.806,60.403"/>
<path fill="#64A8A8" d="M21.806,68.11c0,0.074-0.06,0.135-0.133,0.135c-0.073,0-0.133-0.061-0.133-0.135
	c0-0.072,0.06-0.131,0.133-0.131C21.747,67.979,21.806,68.038,21.806,68.11"/>
</svg>
