<?xml version="1.0" encoding="utf-8"?>
<!-- Generator: Adobe Illustrator 22.1.0, SVG Export Plug-In . SVG Version: 6.00 Build 0)  -->
<svg version="1.1" id="Camada_1" xmlns="http://www.w3.org/2000/svg" xmlns:xlink="http://www.w3.org/1999/xlink" x="0px" y="0px"
	 viewBox="0 0 270 98" style="enable-background:new 0 0 270 98;" xml:space="preserve">
<style type="text/css">
	.st0{fill-rule:evenodd;clip-rule:evenodd;fill:#C3161C;}
	.st1{fill-rule:evenodd;clip-rule:evenodd;fill:#FFFFFF;}
	.st2{fill-rule:evenodd;clip-rule:evenodd;fill:#231F20;}
</style>
<g>
	<g>
		<path class="st0" d="M219.5,0h10.9H256c7.3,0,13.3,6,13.3,13.3v27.1c0,7.3-6,13.3-13.3,13.3h-25.6h-10.9h-72.6V0H219.5z"/>
		<path class="st1" d="M151.6,3.8h50.9v10.8h-37.1v6.6h35.2v10.1h-35.2v7.4h37.3v11h-51.1V3.8L151.6,3.8z M250.8,32.1h14
			c0.1,2.2,0.1,3.7,0.1,4.3c0,3.5-0.5,6.3-1.6,8.3c-1.2,2.2-3.4,3.8-6.8,4.6c-3.4,0.8-9.2,1.2-17.6,1.2c-8.8,0-15-0.2-18.7-0.5
			c-3.7-0.3-6.5-1-8.4-2c-1.7-0.9-2.9-2.1-3.8-3.5c-0.8-1.5-1.4-3.5-1.6-6.1c-0.2-2.1-0.3-5.9-0.3-11.3c0-5.3,0.1-9.2,0.3-11.5
			c0.2-2.4,0.6-4.2,1.2-5.5c1.3-2.9,3.9-4.8,7.8-5.7c3.9-0.9,11.8-1.3,23.6-1.3c5.9,0,10.2,0.1,12.9,0.4c2.7,0.3,4.8,0.8,6.4,1.5
			c2.1,1,3.5,2.4,4.4,4.4c0.8,1.9,1.3,4.8,1.3,8.6c0,0.2,0,1-0.1,2.3h-14c-0.1-1.5-0.2-2.5-0.3-3c-0.1-0.5-0.4-0.9-0.8-1.3
			c-0.5-0.5-1.9-0.8-4.1-1c-2.2-0.2-5.5-0.3-9.9-0.3c-4.4,0-7.4,0.1-9.1,0.3c-1.7,0.2-2.9,0.6-3.6,1.1c-0.8,0.7-1.4,1.8-1.7,3.4
			c-0.3,1.6-0.5,4.1-0.5,7.6c0,3.5,0.1,5.9,0.4,7.3c0.3,1.4,0.8,2.4,1.7,3.1c0.8,0.6,2,1,3.8,1.2c1.7,0.2,4.8,0.3,9.1,0.3
			c5.4,0,8.9-0.1,10.7-0.3c1.8-0.2,3-0.6,3.6-1.2C250.3,36.8,250.8,35,250.8,32.1z"/>
		<path class="st2" d="M123.6,25.6c-4,0-6.7,0.3-8.2,0.9c-1,0.5-1.7,1.3-2.2,2.4c-0.4,1.1-0.6,2.7-0.6,4.9c0,2.1,0.2,3.7,0.5,4.6
			c0.4,0.9,1,1.6,2,2.1c1.5,0.7,4.3,1.1,8.3,1.1c4.6,0,7.6-0.5,8.8-1.4c1.3-1,1.9-3.2,1.9-6.6c0-2.2-0.2-3.7-0.6-4.7
			c-0.4-1-1.1-1.7-2.2-2.1C130,25.9,127.4,25.6,123.6,25.6L123.6,25.6z M14.4,27.1h17.5c3.2,0,5.1-0.1,5.8-0.1
			c0.7-0.1,1.3-0.2,1.9-0.5c0.7-0.4,1.2-1,1.5-1.7c0.3-0.8,0.4-2,0.4-3.6c0-1.6-0.2-2.8-0.5-3.6c-0.3-0.8-0.9-1.3-1.8-1.6
			c-0.6-0.3-3.1-0.4-7.3-0.5H14.4V27.1L14.4,27.1z M0.4,49.8v-46h31.5c6.2,0,10.2,0.1,12,0.4c4.5,0.6,7.6,2.1,9.2,4.4
			c1.6,2.3,2.4,6.5,2.4,12.4c0,5.7-0.7,9.7-2,12c-0.9,1.6-2.1,2.7-3.8,3.5c-1.6,0.8-3.8,1.4-6.6,1.7c-2,0.2-5.7,0.3-11.2,0.3H14.4
			v11.2H0.4L0.4,49.8z M59.7,17.2h11.4v4.9h0.7c1.1-2.1,2.7-3.5,4.6-4.4c1.9-0.9,4.6-1.3,8-1.3c4.9,0,8.3,1,10.3,2.9
			c1.9,1.9,2.9,5.3,2.9,10.2c0,0.3,0,1-0.1,2.2H86c0-1.9-0.2-3.2-0.6-4c-0.8-1.4-2.7-2.1-5.8-2.1c-2.9,0-4.9,0.8-6.2,2.4
			c-0.6,0.8-1,1.7-1.2,2.9c-0.2,1.1-0.3,3-0.3,5.5v13.5H59.7V17.2L59.7,17.2z M123.5,16.4c5.5,0,9.7,0.2,12.4,0.7
			c2.7,0.4,4.9,1.2,6.4,2.3c1.6,1.2,2.7,2.7,3.3,4.6c0.6,1.9,0.9,4.9,0.9,8.9c0,3-0.1,5.3-0.3,6.8c-0.2,1.5-0.5,2.9-0.9,4.1
			c-1.2,3-3.5,5-7.1,5.8c-3,0.7-7.9,1-14.7,1c-6.1,0-10.4-0.2-13-0.7c-2.6-0.4-4.7-1.3-6.3-2.6c-1.5-1.2-2.5-2.8-3-4.8
			c-0.5-2-0.8-5.4-0.8-10.1c0-2.7,0.1-4.7,0.3-6.1c0.2-1.4,0.6-2.7,1.2-3.8c1.2-2.4,3.3-4,6.2-4.8C111.2,16.8,116.3,16.4,123.5,16.4
			z"/>
	</g>
	<path class="st2" d="M27.3,75.2V59.2h11c2.2,0,3.6,0,4.2,0.1c1.6,0.2,2.7,0.7,3.2,1.5c0.6,0.8,0.8,2.3,0.8,4.4c0,2-0.2,3.4-0.7,4.2
		c-0.3,0.5-0.8,1-1.3,1.2c-0.6,0.3-1.3,0.5-2.3,0.6c-0.7,0.1-2,0.1-3.9,0.1h-6.1v3.9H27.3L27.3,75.2z M32.2,67.3h6.1
		c1.1,0,1.8,0,2,0c0.2,0,0.5-0.1,0.7-0.2c0.2-0.1,0.4-0.3,0.5-0.6c0.1-0.3,0.1-0.7,0.1-1.3c0-0.6-0.1-1-0.2-1.3
		c-0.1-0.3-0.3-0.5-0.6-0.6c-0.2-0.1-1.1-0.1-2.6-0.2h-6.1V67.3L32.2,67.3z M48,63.9h4v1.7h0.2c0.4-0.7,0.9-1.2,1.6-1.5
		c0.7-0.3,1.6-0.5,2.8-0.5c1.7,0,2.9,0.3,3.6,1c0.7,0.7,1,1.9,1,3.6c0,0.1,0,0.4,0,0.8h-4c0-0.7-0.1-1.1-0.2-1.4
		c-0.3-0.5-1-0.8-2-0.8c-1,0-1.7,0.3-2.2,0.8c-0.2,0.3-0.4,0.6-0.4,1c-0.1,0.4-0.1,1-0.1,1.9v4.7H48V63.9L48,63.9z M70.3,63.6
		c1.9,0,3.4,0.1,4.3,0.2c1,0.2,1.7,0.4,2.3,0.8c0.6,0.4,0.9,0.9,1.2,1.6c0.2,0.7,0.3,1.7,0.3,3.1c0,1.1,0,1.9-0.1,2.4
		c-0.1,0.5-0.2,1-0.3,1.4c-0.4,1.1-1.2,1.7-2.5,2c-1,0.2-2.7,0.4-5.1,0.4c-2.1,0-3.6-0.1-4.6-0.2c-0.9-0.2-1.6-0.5-2.2-0.9
		c-0.5-0.4-0.9-1-1.1-1.7c-0.2-0.7-0.3-1.9-0.3-3.5c0-0.9,0-1.7,0.1-2.1c0.1-0.5,0.2-0.9,0.4-1.3c0.4-0.8,1.2-1.4,2.2-1.7
		C66,63.7,67.8,63.6,70.3,63.6L70.3,63.6z M70.3,66.8c-1.4,0-2.4,0.1-2.8,0.3c-0.4,0.2-0.6,0.4-0.8,0.8c-0.1,0.4-0.2,1-0.2,1.7
		c0,0.7,0.1,1.3,0.2,1.6c0.1,0.3,0.4,0.6,0.7,0.7c0.5,0.3,1.5,0.4,2.9,0.4c1.6,0,2.6-0.2,3.1-0.5c0.4-0.3,0.7-1.1,0.7-2.3
		c0-0.8-0.1-1.3-0.2-1.6c-0.1-0.3-0.4-0.6-0.8-0.8C72.6,66.9,71.6,66.8,70.3,66.8L70.3,66.8z M67.9,61.4l5-4.9l2.2,2.9l-6,3.5
		L67.9,61.4L67.9,61.4z M79,67.8h10.1v3.3H79L79,67.8L79,67.8z M90.3,75.2V59.2h11.8c2.8,0,4.4,0,5,0.1c0.5,0.1,1.1,0.2,1.6,0.5
		c0.6,0.4,1,0.9,1.3,1.5c0.2,0.7,0.3,1.7,0.3,3.1c0,1.2-0.1,2-0.2,2.6c-0.1,0.5-0.4,1-0.8,1.3c-0.4,0.4-1.1,0.6-1.9,0.7
		c1,0.1,1.8,0.4,2.2,0.9c0.3,0.3,0.4,0.7,0.5,1.1c0.1,0.4,0.1,1.3,0.1,2.7v1.5h-4.8v-0.9c0-0.9,0-1.5-0.1-1.9
		c-0.1-0.4-0.2-0.7-0.4-0.9c-0.2-0.2-0.4-0.3-0.8-0.4c-0.3-0.1-1-0.1-2-0.1h-6.9v4.1H90.3L90.3,75.2z M95.2,67.1h6.9
		c1.2,0,1.9,0,2.1-0.1c0.2,0,0.4-0.1,0.6-0.2c0.2-0.1,0.4-0.3,0.4-0.6c0.1-0.3,0.1-0.7,0.1-1.2c0-0.5,0-0.9-0.1-1.2
		c-0.1-0.3-0.3-0.4-0.5-0.6c-0.2-0.1-0.4-0.1-0.6-0.1c-0.2,0-0.9,0-2,0h-6.9V67.1L95.2,67.1z M122.6,71.6h4.2
		c-0.1,1.2-0.5,2.1-1.1,2.7c-0.5,0.5-1.3,0.8-2.3,1c-1,0.2-2.5,0.3-4.5,0.3c-1.7,0-2.9-0.1-3.8-0.2c-0.9-0.2-1.6-0.4-2.1-0.8
		c-0.5-0.4-0.9-1-1.1-1.7c-0.2-0.7-0.3-1.8-0.3-3.2c0-1.1,0-1.9,0.1-2.4c0.1-0.5,0.2-1,0.4-1.5c0.5-0.9,1.3-1.5,2.5-1.8
		c1-0.2,2.6-0.4,4.7-0.4c1.9,0,3.2,0.1,4,0.2c1.4,0.2,2.3,0.8,2.8,1.5c0.5,0.8,0.8,2.1,0.8,4c0,0.2,0,0.6,0,1.2h-11.1
		c0,0.6,0,1,0.1,1.2c0.1,0.2,0.2,0.5,0.4,0.6c0.4,0.3,1.4,0.5,2.9,0.5c1,0,1.7,0,2.1-0.1c0.5-0.1,0.8-0.2,1-0.4
		C122.4,72.2,122.5,71.9,122.6,71.6L122.6,71.6z M122.6,68.1c0-0.4,0-0.8-0.1-0.9c0-0.2-0.1-0.3-0.3-0.5c-0.4-0.4-1.4-0.6-3-0.6
		c-1.4,0-2.4,0.1-2.8,0.4c-0.5,0.3-0.7,0.8-0.7,1.6H122.6L122.6,68.1z M128.5,63.9h4.3v11.4h-4.3V63.9L128.5,63.9z M128.5,59.2h4.3
		v3.2h-4.3V59.2L128.5,59.2z M136,61.2h4.3v2.6h6.7v3h-6.7v3.3c0,0.9,0.1,1.5,0.2,1.7c0.2,0.4,0.7,0.6,1.5,0.6
		c0.8,0,1.3-0.2,1.5-0.6c0.1-0.1,0.1-0.3,0.1-0.4c0-0.1,0-0.5,0-1.1h3.9c0,1.1-0.1,1.9-0.2,2.4c-0.1,0.5-0.3,0.9-0.7,1.4
		c-0.4,0.5-1,0.9-1.8,1.1c-0.7,0.2-1.9,0.3-3.3,0.3c-1.4,0-2.4-0.1-3-0.2c-0.7-0.1-1.2-0.4-1.6-0.8c-0.3-0.3-0.5-0.6-0.7-1
		c-0.1-0.4-0.2-0.8-0.2-1.5c0-0.2,0-0.8,0-1.8v-3.3h-2.2v-3h2.2V61.2L136,61.2z M156.6,63.6c1.9,0,3.4,0.1,4.3,0.2
		c1,0.2,1.7,0.4,2.3,0.8c0.6,0.4,0.9,0.9,1.2,1.6c0.2,0.7,0.3,1.7,0.3,3.1c0,1.1,0,1.9-0.1,2.4c-0.1,0.5-0.2,1-0.3,1.4
		c-0.4,1.1-1.2,1.7-2.5,2c-1,0.2-2.7,0.4-5.1,0.4c-2.1,0-3.6-0.1-4.6-0.2c-0.9-0.2-1.6-0.5-2.2-0.9c-0.5-0.4-0.9-1-1.1-1.7
		c-0.2-0.7-0.3-1.9-0.3-3.5c0-0.9,0-1.7,0.1-2.1c0.1-0.5,0.2-0.9,0.4-1.3c0.4-0.8,1.2-1.4,2.2-1.7C152.3,63.7,154,63.6,156.6,63.6
		L156.6,63.6z M156.6,66.8c-1.4,0-2.4,0.1-2.8,0.3c-0.4,0.2-0.6,0.4-0.8,0.8c-0.1,0.4-0.2,1-0.2,1.7c0,0.7,0.1,1.3,0.2,1.6
		c0.1,0.3,0.4,0.6,0.7,0.7c0.5,0.3,1.5,0.4,2.9,0.4c1.6,0,2.6-0.2,3.1-0.5c0.4-0.3,0.7-1.1,0.7-2.3c0-0.8-0.1-1.3-0.2-1.6
		c-0.1-0.3-0.4-0.6-0.8-0.8C158.9,66.9,157.9,66.8,156.6,66.8L156.6,66.8z M166.2,63.9h4v1.7h0.2c0.4-0.7,0.9-1.2,1.6-1.5
		c0.7-0.3,1.6-0.5,2.8-0.5c1.7,0,2.9,0.3,3.6,1c0.7,0.7,1,1.9,1,3.6c0,0.1,0,0.4,0,0.8h-4c0-0.7-0.1-1.1-0.2-1.4
		c-0.3-0.5-1-0.8-2-0.8c-1,0-1.7,0.3-2.2,0.8c-0.2,0.3-0.4,0.6-0.4,1c-0.1,0.4-0.1,1-0.1,1.9v4.7h-4.3V63.9L166.2,63.9z M180.6,63.9
		h4.3v11.4h-4.3V63.9L180.6,63.9z M180.6,59.2h4.3v3.2h-4.3V59.2L180.6,59.2z M191.2,67.4h-4.2c0.1-0.9,0.2-1.6,0.6-2
		c0.5-0.7,1.3-1.2,2.4-1.5c1.1-0.3,2.9-0.4,5.4-0.4c1.9,0,3.2,0.1,3.8,0.2c0.7,0.1,1.3,0.4,1.7,0.9c0.4,0.4,0.6,0.8,0.8,1.4
		c0.1,0.5,0.2,1.3,0.2,2.3v6.9h-4.1v-1.5h-0.2c-0.3,0.7-0.8,1.1-1.5,1.4c-0.4,0.2-0.9,0.3-1.5,0.3c-0.7,0.1-1.7,0.1-3.1,0.1
		c-1.1,0-2-0.1-2.6-0.2c-0.6-0.1-1.1-0.4-1.5-0.7c-0.5-0.5-0.8-1.4-0.8-2.6c0-1.3,0.3-2.3,1-2.9c0.5-0.5,1.2-0.8,2-0.9
		c0.8-0.1,2.4-0.2,4.7-0.2c1,0,1.7,0.1,2.1,0.2c0.4,0.1,0.8,0.4,1.1,0.7h0.2v-0.6c0-0.9-0.2-1.5-0.5-1.7c-0.3-0.2-1.1-0.3-2.4-0.3
		c-1.5,0-2.5,0.1-2.8,0.2C191.4,66.6,191.2,66.9,191.2,67.4L191.2,67.4z M194,70.4c-1.4,0-2.3,0.1-2.7,0.3c-0.4,0.2-0.6,0.5-0.6,0.9
		c0,0.5,0.2,0.8,0.6,0.9c0.4,0.2,1.2,0.2,2.3,0.2c1.5,0,2.5-0.1,3-0.3c0.5-0.2,0.8-0.5,0.8-1c0-0.5-0.2-0.8-0.7-0.9
		C196.6,70.5,195.7,70.5,194,70.4L194,70.4z M225.4,59.2v16.1h-4v-1.5h-0.2c-0.3,0.5-0.6,0.9-1,1.1c-0.8,0.5-2.1,0.7-4,0.7
		c-1.5,0-2.7-0.1-3.6-0.3c-0.8-0.2-1.5-0.5-2-0.9c-0.5-0.4-0.8-1-1-1.7c-0.2-0.7-0.3-1.8-0.3-3.2c0-1,0-1.8,0.1-2.4
		c0.1-0.6,0.3-1.1,0.5-1.6c0.4-0.9,1.2-1.4,2.4-1.7c0.8-0.2,2.1-0.3,3.8-0.3c1.5,0,2.6,0.1,3.2,0.4c0.6,0.2,1.2,0.7,1.6,1.5h0.2
		v-6.2H225.4L225.4,59.2z M217.6,66.7c-1.7,0-2.7,0.2-3.2,0.5c-0.5,0.3-0.7,1.1-0.7,2.2c0,0.9,0.1,1.5,0.2,1.8
		c0.1,0.4,0.4,0.6,0.8,0.8c0.5,0.2,1.4,0.3,2.7,0.3c1.6,0,2.6-0.2,3.2-0.5c0.3-0.2,0.4-0.4,0.5-0.8c0.1-0.3,0.2-0.9,0.2-1.5
		c0-0.8-0.1-1.3-0.2-1.7c-0.1-0.4-0.4-0.6-0.8-0.8C219.7,66.8,218.8,66.7,217.6,66.7L217.6,66.7z M238.1,71.6h4.2
		c-0.1,1.2-0.5,2.1-1.1,2.7c-0.5,0.5-1.3,0.8-2.3,1c-1,0.2-2.5,0.3-4.5,0.3c-1.7,0-2.9-0.1-3.8-0.2c-0.9-0.2-1.6-0.4-2.1-0.8
		c-0.5-0.4-0.9-1-1.1-1.7c-0.2-0.7-0.3-1.8-0.3-3.2c0-1.1,0-1.9,0.1-2.4c0.1-0.5,0.2-1,0.4-1.5c0.5-0.9,1.3-1.5,2.5-1.8
		c1-0.2,2.6-0.4,4.7-0.4c1.9,0,3.2,0.1,4,0.2c1.4,0.2,2.3,0.8,2.8,1.5c0.5,0.8,0.8,2.1,0.8,4c0,0.2,0,0.6,0,1.2h-11.1
		c0,0.6,0,1,0.1,1.2c0.1,0.2,0.2,0.5,0.4,0.6c0.4,0.3,1.4,0.5,2.9,0.5c1,0,1.7,0,2.1-0.1c0.5-0.1,0.8-0.2,1-0.4
		C237.9,72.2,238,71.9,238.1,71.6L238.1,71.6z M238.2,68.1c0-0.4,0-0.8-0.1-0.9c0-0.2-0.1-0.3-0.3-0.5c-0.4-0.4-1.4-0.6-3-0.6
		c-1.4,0-2.4,0.1-2.8,0.4c-0.5,0.3-0.7,0.8-0.7,1.6H238.2z"/>
	<path class="st2" d="M0,81.6h17.8v3.8h-13v2.3h12.3v3.5H4.8v2.6h13.1v3.9H0V81.6L0,81.6z M18.4,86.3h5.7l2.2,3h0.2l2.3-3h5.5
		l-4.6,5.3l5.1,6.1h-5.5l-2.7-3.9h-0.2l-2.8,3.9h-5.3l4.9-5.9L18.4,86.3L18.4,86.3z M37,83.7v2.6h-2.2v3H37v3.3c0,1,0,1.6,0,1.8
		c0,0.6,0.1,1.1,0.2,1.5c0.1,0.4,0.4,0.7,0.7,1c0.4,0.4,1,0.7,1.6,0.8c0.7,0.1,1.7,0.2,3,0.2c1.5,0,2.6-0.1,3.3-0.3
		c0.8-0.2,1.3-0.6,1.8-1.1c0.3-0.4,0.5-0.9,0.7-1.4c0.1-0.5,0.2-1.3,0.2-2.4h-3.9c0,0.6,0,1,0,1.1c0,0.1-0.1,0.3-0.1,0.4
		c-0.2,0.4-0.7,0.6-1.5,0.6c-0.8,0-1.3-0.2-1.5-0.6c-0.1-0.2-0.2-0.8-0.2-1.7v-3.3H48v-3h-6.7v-2.6H37L37,83.7z M60.6,94.1h4.2
		c-0.1,1.2-0.5,2.1-1.1,2.7c-0.5,0.5-1.3,0.8-2.3,1c-1,0.2-2.5,0.3-4.5,0.3c-1.7,0-2.9-0.1-3.8-0.2c-0.9-0.2-1.6-0.4-2.1-0.8
		c-0.5-0.4-0.9-1-1.1-1.7c-0.2-0.7-0.3-1.8-0.3-3.2c0-1.1,0-1.9,0.1-2.4c0.1-0.5,0.2-1,0.4-1.5c0.5-0.9,1.3-1.5,2.5-1.8
		c1-0.2,2.6-0.4,4.7-0.4c1.9,0,3.2,0.1,4,0.2c1.4,0.2,2.3,0.8,2.8,1.5c0.5,0.8,0.8,2.1,0.8,4c0,0.2,0,0.6,0,1.2H53.8
		c0,0.6,0,1,0.1,1.2c0.1,0.2,0.2,0.5,0.4,0.6c0.4,0.3,1.4,0.5,2.9,0.5c1,0,1.7,0,2.1-0.1c0.5-0.1,0.8-0.2,1-0.4
		C60.5,94.7,60.6,94.4,60.6,94.1L60.6,94.1z M60.7,90.6c0-0.4,0-0.8-0.1-0.9c0-0.2-0.1-0.3-0.3-0.5c-0.4-0.4-1.4-0.6-3-0.6
		c-1.4,0-2.4,0.1-2.8,0.4c-0.5,0.3-0.7,0.8-0.7,1.6H60.7L60.7,90.6z M66.5,86.3h4v1.7h0.2c0.4-0.7,0.9-1.3,1.7-1.6
		c0.7-0.3,1.8-0.5,3.2-0.5c1.4,0,2.4,0.1,3.2,0.3c0.8,0.2,1.4,0.6,1.9,1.1c0.5,0.5,0.9,1.1,1,1.8c0.2,0.6,0.2,1.7,0.2,3.3v5.2h-4.3
		v-5.2c0-0.9,0-1.5-0.1-1.9c-0.1-0.3-0.2-0.6-0.4-0.8c-0.4-0.4-1.4-0.6-2.8-0.6c-1.5,0-2.4,0.2-2.9,0.8c-0.3,0.3-0.4,0.6-0.5,1
		c-0.1,0.4-0.1,1.1-0.1,2.2v4.6h-4.3V86.3L66.5,86.3z M83.5,94.1h4.3c0,0.5,0.3,0.8,0.8,1c0.5,0.2,1.4,0.3,2.7,0.3
		c1.4,0,2.3-0.1,2.8-0.2c0.5-0.1,0.7-0.4,0.7-0.8c0-0.4-0.2-0.7-0.7-0.8c-0.2-0.1-1.4-0.1-3.6-0.1c-2.1,0-3.3,0-3.8-0.1
		c-1.3-0.2-2.2-0.6-2.7-1.3c-0.4-0.5-0.5-1.2-0.5-2.1c0-1.7,0.6-2.8,1.9-3.3c0.9-0.4,2.9-0.6,6-0.6c1.9,0,3.3,0.1,4.2,0.2
		c0.9,0.1,1.6,0.4,2,0.8c0.3,0.2,0.5,0.5,0.6,0.9c0.1,0.4,0.2,0.9,0.3,1.6h-4.3c-0.1-0.3-0.2-0.5-0.3-0.6c-0.4-0.2-1.2-0.3-2.7-0.3
		c-1.3,0-2.2,0.1-2.7,0.2c-0.5,0.1-0.7,0.4-0.7,0.7c0,0.5,0.3,0.7,1,0.8c0.5,0,2.5,0.1,5.8,0.1c1.6,0,2.8,0.3,3.5,0.8
		c0.7,0.5,1.1,1.4,1.1,2.7c0,0.9-0.1,1.6-0.4,2.1c-0.3,0.5-0.7,0.9-1.3,1.2c-1,0.5-3.1,0.7-6.4,0.7c-2.1,0-3.6-0.1-4.5-0.2
		s-1.6-0.5-2.1-0.9C83.8,96.2,83.5,95.3,83.5,94.1L83.5,94.1z M105.1,89.9h-4.2c0.1-0.9,0.2-1.6,0.6-2c0.5-0.7,1.3-1.2,2.4-1.5
		c1.1-0.3,2.9-0.4,5.4-0.4c1.9,0,3.2,0.1,3.8,0.2c0.7,0.1,1.3,0.4,1.7,0.9c0.4,0.4,0.6,0.8,0.8,1.4c0.1,0.5,0.2,1.3,0.2,2.3v6.9
		h-4.1v-1.5h-0.2c-0.3,0.7-0.8,1.1-1.5,1.4c-0.4,0.2-0.9,0.3-1.5,0.3c-0.7,0.1-1.7,0.1-3.1,0.1c-1.1,0-2-0.1-2.6-0.2
		c-0.6-0.1-1.1-0.4-1.5-0.7c-0.5-0.5-0.8-1.4-0.8-2.6c0-1.3,0.3-2.3,1-2.9c0.5-0.5,1.2-0.8,2-0.9c0.8-0.1,2.4-0.2,4.7-0.2
		c1,0,1.7,0.1,2.1,0.2c0.4,0.1,0.8,0.4,1.1,0.7h0.2v-0.6c0-0.9-0.2-1.5-0.5-1.7c-0.3-0.2-1.1-0.3-2.4-0.3c-1.5,0-2.5,0.1-2.8,0.2
		C105.4,89,105.2,89.4,105.1,89.9L105.1,89.9z M108,92.9c-1.4,0-2.3,0.1-2.7,0.3c-0.4,0.2-0.6,0.5-0.6,0.9c0,0.5,0.2,0.8,0.6,0.9
		c0.4,0.2,1.2,0.2,2.3,0.2c1.5,0,2.5-0.1,3-0.3c0.5-0.2,0.8-0.5,0.8-1c0-0.5-0.2-0.8-0.7-0.9C110.6,93,109.6,92.9,108,92.9L108,92.9
		z M111.8,80.8h2.1c0,1.2-0.1,2.1-0.4,2.6c-0.4,0.7-1,1.1-1.7,1.1c-0.7,0-1.8-0.3-3.2-0.8c-1.4-0.5-2.3-0.8-2.7-0.8
		c-0.3,0-0.5,0.1-0.6,0.3c-0.1,0.2-0.2,0.5-0.2,1h-2.1c0-1.2,0.2-2,0.5-2.6c0.5-0.8,1.1-1.1,2-1.1c0.4,0,0.7,0.1,1.1,0.2
		c0.4,0.1,1.1,0.4,2.3,0.8c1.2,0.5,2,0.7,2.4,0.7c0.3,0,0.5-0.2,0.6-0.5C111.8,81.5,111.8,81.2,111.8,80.8L111.8,80.8z M125.4,86
		c1.9,0,3.4,0.1,4.3,0.2c1,0.2,1.7,0.4,2.3,0.8c0.6,0.4,0.9,0.9,1.2,1.6c0.2,0.7,0.3,1.7,0.3,3.1c0,1.1,0,1.9-0.1,2.4
		c-0.1,0.5-0.2,1-0.3,1.4c-0.4,1.1-1.2,1.7-2.5,2c-1,0.2-2.7,0.4-5.1,0.4c-2.1,0-3.6-0.1-4.6-0.2c-0.9-0.2-1.6-0.5-2.2-0.9
		c-0.5-0.4-0.9-1-1.1-1.7c-0.2-0.7-0.3-1.9-0.3-3.5c0-0.9,0-1.7,0.1-2.1c0.1-0.5,0.2-0.9,0.4-1.3c0.4-0.8,1.2-1.4,2.2-1.7
		C121.1,86.2,122.9,86,125.4,86L125.4,86z M125.4,89.2c-1.4,0-2.4,0.1-2.8,0.3c-0.4,0.2-0.6,0.4-0.8,0.8c-0.1,0.4-0.2,1-0.2,1.7
		c0,0.7,0.1,1.3,0.2,1.6c0.1,0.3,0.4,0.6,0.7,0.7c0.5,0.3,1.5,0.4,2.9,0.4c1.6,0,2.6-0.2,3.1-0.5c0.4-0.3,0.7-1.1,0.7-2.3
		c0-0.8-0.1-1.3-0.2-1.6c-0.1-0.3-0.4-0.6-0.8-0.8C127.7,89.4,126.7,89.2,125.4,89.2L125.4,89.2z M151.8,94.1h4.2
		c-0.1,1.2-0.5,2.1-1.1,2.7c-0.5,0.5-1.3,0.8-2.3,1c-1,0.2-2.5,0.3-4.5,0.3c-1.7,0-2.9-0.1-3.8-0.2c-0.9-0.2-1.6-0.4-2.1-0.8
		c-0.5-0.4-0.9-1-1.1-1.7c-0.2-0.7-0.3-1.8-0.3-3.2c0-1.1,0-1.9,0.1-2.4c0.1-0.5,0.2-1,0.4-1.5c0.5-0.9,1.3-1.5,2.5-1.8
		c1-0.2,2.6-0.4,4.7-0.4c1.9,0,3.2,0.1,4,0.2c1.4,0.2,2.3,0.8,2.8,1.5c0.5,0.8,0.8,2.1,0.8,4c0,0.2,0,0.6,0,1.2H145
		c0,0.6,0,1,0.1,1.2c0.1,0.2,0.2,0.5,0.4,0.6c0.4,0.3,1.4,0.5,2.9,0.5c1,0,1.7,0,2.1-0.1c0.5-0.1,0.8-0.2,1-0.4
		C151.7,94.7,151.8,94.4,151.8,94.1L151.8,94.1z M151.9,90.6c0-0.4,0-0.8-0.1-0.9c0-0.2-0.1-0.3-0.3-0.5c-0.4-0.4-1.4-0.6-3-0.6
		c-1.4,0-2.4,0.1-2.8,0.4c-0.5,0.3-0.7,0.8-0.7,1.6H151.9L151.9,90.6z M179.2,91.5h4.9c0,0.8,0.1,1.3,0.1,1.5c0,1.2-0.2,2.2-0.6,2.9
		c-0.4,0.8-1.2,1.3-2.4,1.6c-1.2,0.3-3.2,0.4-6.1,0.4c-3.1,0-5.2-0.1-6.5-0.2c-1.3-0.1-2.3-0.3-2.9-0.7c-0.6-0.3-1-0.7-1.3-1.2
		c-0.3-0.5-0.5-1.2-0.6-2.1c-0.1-0.7-0.1-2-0.1-3.9c0-1.9,0-3.2,0.1-4c0.1-0.8,0.2-1.5,0.4-1.9c0.4-1,1.4-1.7,2.7-2
		c1.4-0.3,4.1-0.5,8.3-0.5c2.1,0,3.6,0,4.5,0.1c0.9,0.1,1.7,0.3,2.3,0.5c0.7,0.3,1.2,0.9,1.5,1.5c0.3,0.7,0.4,1.7,0.4,3
		c0,0.1,0,0.3,0,0.8H179c0-0.5-0.1-0.9-0.1-1.1c0-0.2-0.1-0.3-0.3-0.4c-0.2-0.2-0.7-0.3-1.4-0.4c-0.8-0.1-1.9-0.1-3.5-0.1
		c-1.5,0-2.6,0-3.2,0.1c-0.6,0.1-1,0.2-1.2,0.4c-0.3,0.2-0.5,0.6-0.6,1.2c-0.1,0.6-0.2,1.4-0.2,2.7c0,1.2,0.1,2.1,0.2,2.6
		c0.1,0.5,0.3,0.9,0.6,1.1c0.3,0.2,0.7,0.4,1.3,0.4c0.6,0.1,1.7,0.1,3.2,0.1c1.9,0,3.1,0,3.7-0.1c0.6-0.1,1-0.2,1.3-0.4
		C179,93.2,179.2,92.5,179.2,91.5L179.2,91.5z M201,97.7h-4V96h-0.2c-0.3,0.7-0.9,1.2-1.6,1.5c-0.7,0.3-1.8,0.5-3.3,0.5
		c-1.3,0-2.4-0.1-3.1-0.3c-0.8-0.2-1.4-0.6-1.9-1.1c-0.5-0.5-0.9-1.1-1-1.8c-0.2-0.6-0.2-1.7-0.2-3.3v-5.2h4.3v5.2
		c0,0.8,0,1.4,0.1,1.8c0.1,0.4,0.2,0.6,0.5,0.9c0.2,0.2,0.6,0.4,0.9,0.5c0.4,0.1,1,0.1,1.8,0.1c1.4,0,2.3-0.2,2.8-0.6
		c0.3-0.3,0.5-0.6,0.6-1c0.1-0.4,0.1-1.2,0.1-2.2v-4.6h4.3V97.7L201,97.7z M203,81.6h4.3v16.1H203V81.6L203,81.6z M210.4,83.7h4.3
		v2.6h6.7v3h-6.7v3.3c0,0.9,0.1,1.5,0.2,1.7c0.2,0.4,0.7,0.6,1.5,0.6c0.8,0,1.3-0.2,1.5-0.6c0.1-0.1,0.1-0.3,0.1-0.4
		c0-0.1,0-0.5,0-1.1h3.9c0,1.1-0.1,1.9-0.2,2.4c-0.1,0.5-0.3,0.9-0.7,1.4c-0.4,0.5-1,0.9-1.8,1.1c-0.7,0.2-1.9,0.3-3.3,0.3
		c-1.4,0-2.4-0.1-3-0.2c-0.7-0.1-1.2-0.4-1.6-0.8c-0.3-0.3-0.5-0.6-0.7-1c-0.1-0.4-0.2-0.8-0.2-1.5c0-0.2,0-0.8,0-1.8v-3.3h-2.2v-3
		h2.2V83.7L210.4,83.7z M238.4,97.7h-4V96h-0.2c-0.3,0.7-0.9,1.2-1.6,1.5c-0.7,0.3-1.8,0.5-3.3,0.5c-1.3,0-2.4-0.1-3.1-0.3
		c-0.8-0.2-1.4-0.6-1.9-1.1c-0.5-0.5-0.9-1.1-1-1.8c-0.2-0.6-0.2-1.7-0.2-3.3v-5.2h4.3v5.2c0,0.8,0,1.4,0.1,1.8
		c0.1,0.4,0.2,0.6,0.5,0.9c0.2,0.2,0.6,0.4,0.9,0.5c0.4,0.1,1,0.1,1.8,0.1c1.4,0,2.3-0.2,2.8-0.6c0.3-0.3,0.5-0.6,0.6-1
		c0.1-0.4,0.1-1.2,0.1-2.2v-4.6h4.3V97.7L238.4,97.7z M240.4,86.3h4V88h0.2c0.4-0.7,0.9-1.2,1.6-1.5c0.7-0.3,1.6-0.5,2.8-0.5
		c1.7,0,2.9,0.3,3.6,1c0.7,0.7,1,1.9,1,3.6c0,0.1,0,0.4,0,0.8h-4c0-0.7-0.1-1.1-0.2-1.4c-0.3-0.5-1-0.8-2-0.8c-1,0-1.7,0.3-2.2,0.8
		c-0.2,0.3-0.4,0.6-0.4,1c-0.1,0.4-0.1,1-0.1,1.9v4.7h-4.3V86.3L240.4,86.3z M259,89.9h-4.2c0.1-0.9,0.2-1.6,0.6-2
		c0.5-0.7,1.3-1.2,2.4-1.5c1.1-0.3,2.9-0.4,5.4-0.4c1.9,0,3.2,0.1,3.8,0.2c0.7,0.1,1.3,0.4,1.7,0.9c0.4,0.4,0.6,0.8,0.8,1.4
		c0.1,0.5,0.2,1.3,0.2,2.3v6.9h-4.1v-1.5h-0.2c-0.3,0.7-0.8,1.1-1.5,1.4c-0.4,0.2-0.9,0.3-1.5,0.3c-0.7,0.1-1.7,0.1-3.1,0.1
		c-1.1,0-2-0.1-2.6-0.2c-0.6-0.1-1.1-0.4-1.5-0.7c-0.5-0.5-0.8-1.4-0.8-2.6c0-1.3,0.3-2.3,1-2.9c0.5-0.5,1.2-0.8,2-0.9
		c0.8-0.1,2.4-0.2,4.7-0.2c1,0,1.7,0.1,2.1,0.2c0.4,0.1,0.8,0.4,1.1,0.7h0.2v-0.6c0-0.9-0.2-1.5-0.5-1.7c-0.3-0.2-1.1-0.3-2.4-0.3
		c-1.5,0-2.5,0.1-2.8,0.2C259.3,89,259.1,89.4,259,89.9L259,89.9z M261.9,92.9c-1.4,0-2.3,0.1-2.7,0.3c-0.4,0.2-0.6,0.5-0.6,0.9
		c0,0.5,0.2,0.8,0.6,0.9c0.4,0.2,1.2,0.2,2.3,0.2c1.5,0,2.5-0.1,3-0.3c0.5-0.2,0.8-0.5,0.8-1c0-0.5-0.2-0.8-0.7-0.9
		C264.5,93,263.5,92.9,261.9,92.9z"/>
</g>
</svg>
