<svg xmlns="http://www.w3.org/2000/svg" viewBox="0 0 683.26 164.17"><defs><style>.cls-1{fill:#231f20;}.cls-1,.cls-2{fill-rule:evenodd;}.cls-2{fill:#ed1c24;}</style></defs><title>Asset 1</title><g id="Layer_2" data-name="Layer 2"><g id="Logo_UniversIDADE"><path class="cls-1" d="M84.84,78.31V54.61A33.34,33.34,0,0,1,93,55.79,4.25,4.25,0,0,0,94.75,60L86.9,78.74A9.81,9.81,0,0,0,84.84,78.31Z"/><path class="cls-1" d="M82.77,78.31V54.64A28.7,28.7,0,0,0,72,57.34l8.77,21.38A8.91,8.91,0,0,1,82.77,78.31Z"/><path class="cls-1" d="M79.2,79.31,70.46,58.05a31.27,31.27,0,0,0-8.91,6.84L77.27,80.6A10.15,10.15,0,0,1,79.2,79.31Z"/><path class="cls-1" d="M60.46,66.17a27.36,27.36,0,0,0-5.14,9.33l19.53,8.17a10.12,10.12,0,0,1,1.24-1.87Z"/><path class="cls-1" d="M74.16,85.24,54.91,77.18a33.76,33.76,0,0,0,.25,10.33H73.71A10.38,10.38,0,0,1,74.16,85.24Z"/><path class="cls-1" d="M73.72,89.21H55.64a40,40,0,0,0,4.23,8.07l14.28-5.86A10.41,10.41,0,0,1,73.72,89.21Z"/><path class="cls-1" d="M76.12,94.8a9.29,9.29,0,0,1-1.29-1.93L61.05,98.53a37.85,37.85,0,0,0,6.32,5Z"/><path class="cls-1" d="M87.08,107.44A4.25,4.25,0,0,1,89,103.33l-2.18-5.4A10.15,10.15,0,0,1,77.3,96l-8.43,8.43A28.92,28.92,0,0,0,87.08,107.44Z"/><path class="cls-1" d="M88.31,97.32l2.19,5.44a4.26,4.26,0,0,1,4.3,1.94c.93-.44,1.86-.91,2.78-1.39L90.29,96A9.58,9.58,0,0,1,88.31,97.32Z"/><path class="cls-1" d="M114.53,91.34a4.36,4.36,0,0,1-1.2-2.23H93.83a10.16,10.16,0,0,1-2.35,5.7l7.65,7.64A80.5,80.5,0,0,0,114.53,91.34Z"/><path class="cls-1" d="M103.52,61.92a32.21,32.21,0,0,1,2.57,2.91L90.27,80.65a11,11,0,0,0-1.86-1.24l7.84-18.76a4.24,4.24,0,0,0,4-1.32A29.62,29.62,0,0,1,103.52,61.92Z"/><path class="cls-2" d="M91.19,104.4A2.56,2.56,0,1,0,93.73,107,2.55,2.55,0,0,0,91.19,104.4Z"/><path class="cls-2" d="M118,85.39a2.56,2.56,0,1,0,2.55,2.55A2.56,2.56,0,0,0,118,85.39Z"/><path class="cls-2" d="M97.07,54a2.55,2.55,0,1,0,2.55,2.55A2.55,2.55,0,0,0,97.07,54Z"/><path class="cls-1" d="M112,75.85c-1-2.25-2-4.45-3.13-6.62-.58-1-1.2-2-1.84-3l-15.6,15.6a10.26,10.26,0,0,1,1.28,1.93Z"/><path class="cls-1" d="M112.69,77.41c.94,2.44,1.79,4.92,2.53,7.43a4.27,4.27,0,0,0-1.87,2.68H93.84a9.82,9.82,0,0,0-.43-2.21Z"/><path class="cls-2" d="M13,121.53a13,13,0,1,0-13-13,13,13,0,0,0,13,13ZM23.64,33.6c-1,37.67,17.24,67.09,51,80.53,3.75,1.31,9,4.67,1.91,10.56-2.17,2.07-6.34,1.47-9.53-.33C12,96.37,12.13,49,18.88,32.78,20,30.16,23.72,30.36,23.64,33.6Z"/><path class="cls-1" d="M128.24,151.15a13,13,0,1,0-13,13,13,13,0,0,0,13-13ZM40.31,140.53c37.67,1,67.09-17.24,80.53-51,1.3-3.75,4.67-9,10.56-1.91,2.07,2.17,1.47,6.34-.33,9.53-28,55.07-75.34,54.93-91.59,48.17C36.87,144.21,37.07,140.45,40.31,140.53Z"/><path class="cls-2" d="M160.05,39.59a13,13,0,1,0,13,13,13,13,0,0,0-13-13Zm-10.61,87.93c1-37.67-17.24-67.09-51-80.53-3.74-1.3-9-4.67-1.91-10.56,2.18-2.07,6.34-1.47,9.53.33,55.07,28,54.93,75.34,48.17,91.59C153.12,131,149.36,130.76,149.44,127.52Z"/><path class="cls-1" d="M43.38,13a13,13,0,1,0,13-13,13,13,0,0,0-13,13ZM131.3,23.64c-37.66-1-67.08,17.24-80.52,51-1.31,3.75-4.67,9-10.56,1.91-2.07-2.17-1.47-6.34.33-9.53,28-55.07,75.34-54.92,91.58-48.17C134.75,20,134.55,23.72,131.3,23.64Z"/><path class="cls-1" d="M198,32.12H208.6V66.58A89.15,89.15,0,0,0,209,77.2a10.88,10.88,0,0,0,3.18,6.28,9.7,9.7,0,0,0,6.9,2.37c3,0,5.19-.74,6.7-2.24a9.36,9.36,0,0,0,2.71-5.49,88.91,88.91,0,0,0,.46-10.8V32.12h10.57V65.56c0,7.63-.28,13-.85,16.19a19.88,19.88,0,0,1-3.15,8,16.15,16.15,0,0,1-6.11,5.18,22.27,22.27,0,0,1-10,1.94q-7.45,0-11.3-2.1A16.91,16.91,0,0,1,202,89.28a19,19,0,0,1-2.94-7.06,92.46,92.46,0,0,1-1-16.15V32.12ZM285,95.7H275V72.22q0-7.47-.65-9.64a6.78,6.78,0,0,0-2.1-3.4,5.24,5.24,0,0,0-3.5-1.22,7.13,7.13,0,0,0-4.7,1.74,8.73,8.73,0,0,0-2.85,4.58q-.78,2.86-.78,10.59V95.7h-10V49.62h9.26v6.76q5-7.74,12.53-7.74a12.89,12.89,0,0,1,6.07,1.45,10.68,10.68,0,0,1,4.17,3.7,14.77,14.77,0,0,1,2,5.12A45.88,45.88,0,0,1,285,67.1V95.7Zm10.12-52.3V32.12h10V43.4Zm0,52.3V49.62h10V95.7Zm30.66,0L310.53,49.62H321l7.12,23.51L330.21,81c.55-2,.9-3.31,1-3.95.34-1.3.69-2.6,1.08-3.91l7.22-23.51h10.28l-15,46.08Zm52-14.56,10,2a20.31,20.31,0,0,1-6.06,10.19,15.64,15.64,0,0,1-10.38,3.49q-9.85,0-14.59-7.86Q353,82.7,353,73.09q0-11.46,4.91-18t12.41-6.5a15.53,15.53,0,0,1,13.31,6.79q4.86,6.8,4.65,20.83h-25q.11,5.42,2.41,8.43a7,7,0,0,0,5.74,3,5.43,5.43,0,0,0,3.94-1.55,10.19,10.19,0,0,0,2.41-5Zm.59-12.34c-.08-3.54-.82-6.23-2.24-8.07A6.35,6.35,0,0,0,370.94,58a6.45,6.45,0,0,0-5.39,2.92c-1.42,1.94-2.11,4.59-2.09,7.92ZM406,95.7H396V49.62h9.25v6.54c1.6-3.09,3-5.12,4.31-6.08a7,7,0,0,1,4.33-1.44,11.15,11.15,0,0,1,6.6,2.29l-3.1,10.63a7.82,7.82,0,0,0-4.7-2A5,5,0,0,0,409.14,61a10.37,10.37,0,0,0-2.3,5.09Q406,69.75,406,81.5V95.7Zm15.25-13,10.06-1.87a9.27,9.27,0,0,0,2.6,5.36,7.66,7.66,0,0,0,5.48,1.84c2.59,0,4.53-.58,5.84-1.73a4.25,4.25,0,0,0,1.31-3.27,3.67,3.67,0,0,0-.71-2.3,7.28,7.28,0,0,0-3.34-1.61q-12.12-3.27-15.36-6-4.5-3.75-4.5-10.39a14.11,14.11,0,0,1,3.89-10.1q3.89-4.08,12-4.08c5.17,0,9,1,11.54,3.09a16.22,16.22,0,0,1,5.2,9.16L445.89,63a7.35,7.35,0,0,0-2.31-4.16,7.24,7.24,0,0,0-4.85-1.44c-2.65,0-4.54.45-5.7,1.35a3.06,3.06,0,0,0-1.14,2.47,2.89,2.89,0,0,0,1,2.22q1.37,1.22,9.38,3.43t11.19,5.44q3.15,3.24,3.14,9.07a15.17,15.17,0,0,1-4.35,10.89c-2.89,3-7.18,4.56-12.86,4.56q-7.72,0-12.25-3.8A17.9,17.9,0,0,1,421.25,82.74Z"/><path class="cls-2" d="M465.07,95.7V32.12h10.57V95.7Zm20.62-63.58H504.9a30.76,30.76,0,0,1,9.92,1.22,17.19,17.19,0,0,1,7.85,5.86,29.61,29.61,0,0,1,5,10.3,56.81,56.81,0,0,1,1.7,15,50.13,50.13,0,0,1-1.61,13.53,29.48,29.48,0,0,1-5.57,11.23,17.93,17.93,0,0,1-7.39,5.08,26.31,26.31,0,0,1-9.3,1.34H485.69V32.12Zm10.57,10.75V85h7.83a23.66,23.66,0,0,0,6.34-.61,9.07,9.07,0,0,0,4.24-2.65,14.35,14.35,0,0,0,2.75-6.12,50.3,50.3,0,0,0,1.07-11.65,45.87,45.87,0,0,0-1.07-11.31,15.47,15.47,0,0,0-3-6.16,9.51,9.51,0,0,0-4.86-3,40.14,40.14,0,0,0-8.61-.6ZM585.34,95.7H574l-4.51-14.47H548.52L544.18,95.7H533l20.27-63.58h11.16L585.34,95.7ZM566,70.49,558.77,47l-7,23.54ZM591,32.12h19.22a30.76,30.76,0,0,1,9.92,1.22,17.12,17.12,0,0,1,7.84,5.86,29.45,29.45,0,0,1,5,10.3,56.81,56.81,0,0,1,1.7,15A50.13,50.13,0,0,1,633,78.05a29.62,29.62,0,0,1-5.57,11.23,18,18,0,0,1-7.39,5.08,26.33,26.33,0,0,1-9.31,1.34H591V32.12Zm10.57,10.75V85h7.84a23.66,23.66,0,0,0,6.34-.61A9.12,9.12,0,0,0,620,81.7a14.35,14.35,0,0,0,2.75-6.12,50.3,50.3,0,0,0,1.07-11.65,45.87,45.87,0,0,0-1.07-11.31,15.47,15.47,0,0,0-3-6.16,9.56,9.56,0,0,0-4.86-3,40.14,40.14,0,0,0-8.61-.6ZM643.6,95.7V32.12h38.64V42.87H654.17V57h26.1V67.73h-26.1V85h29.09V95.7Z"/><path class="cls-1" d="M198.19,115.64h2v12.93a.27.27,0,0,0,0,.12,2.75,2.75,0,0,0,0,.41l.06.42c0,.12,0,.25.06.38s.06.28.1.42.07.25.1.39a2.46,2.46,0,0,0,.14.38,3.26,3.26,0,0,0,.18.38c.08.12.15.25.22.37a2,2,0,0,0,.32.48,3,3,0,0,0,.4.4,4.82,4.82,0,0,0,.44.35,3.48,3.48,0,0,0,.5.3l.53.24a4,4,0,0,0,.53.16l.15,0h.15l.15,0h.3l.16,0h.14l.16,0a3,3,0,0,0,.48-.16l.48-.22.43-.24c.14-.09.27-.19.4-.29a2.49,2.49,0,0,0,.37-.35,4.31,4.31,0,0,0,.32-.4,3.64,3.64,0,0,0,.3-.46q.14-.24.24-.48c.07-.16.13-.32.19-.48s.09-.33.13-.51.07-.35.09-.52.05-.34.07-.52,0-.35,0-.52,0-.34,0-.52V115.64h3v12c0,.27,0,.53,0,.78s0,.5-.06.75-.05.49-.08.73-.07.48-.11.71a6.53,6.53,0,0,1-.16.71,3.71,3.71,0,0,1-.27.68,5.32,5.32,0,0,1-.35.67,4.83,4.83,0,0,1-.42.62,5.8,5.8,0,0,1-.5.58,5.35,5.35,0,0,1-.55.51,5.16,5.16,0,0,1-.61.43c-.21.12-.44.24-.67.35l-.36.13-.33.11a1.35,1.35,0,0,0-.36.08l-.37.08c-.23.05-.47.09-.73.12s-.51,0-.76,0l-1.07,0c-.25,0-.5,0-.74-.06l-.73-.12-.7-.16a6.12,6.12,0,0,1-.69-.22,4,4,0,0,1-.66-.32c-.2-.12-.4-.26-.6-.4a6.06,6.06,0,0,1-.56-.47,4,4,0,0,1-.48-.54,5.43,5.43,0,0,1-.48-.62,4.44,4.44,0,0,1-.38-.67c-.1-.23-.2-.47-.28-.71a3.68,3.68,0,0,1-.17-.73,6.69,6.69,0,0,1-.12-.74c0-.24-.06-.48-.1-.73s0-.5,0-.76,0-.52,0-.79V115.64Zm17.16,19.76V120.77h2.94v.62l.27-.19.27-.16a5.31,5.31,0,0,1,.55-.23l.54-.17.59-.09a4.12,4.12,0,0,1,.62,0h1.07a5.18,5.18,0,0,1,.7,0,4.34,4.34,0,0,1,.69.12l.64.18c.21.08.42.16.61.25a4.56,4.56,0,0,1,.58.3c.18.12.37.25.55.39a4.26,4.26,0,0,1,.38.32,3.32,3.32,0,0,1,.36.38l.27-.29.27-.28.43-.32a3.58,3.58,0,0,1,.48-.29l.49-.26a5.55,5.55,0,0,1,.52-.2l.54-.16a3.29,3.29,0,0,1,.53-.1h.11l.13,0,.11,0h.21l.14,0h1.87l.28.06.28,0c.2,0,.39.12.59.19l.59.24a5.33,5.33,0,0,1,.57.31,4.91,4.91,0,0,1,.55.38l.27.23a2.26,2.26,0,0,0,.29.23l.27.25.27.26a5.82,5.82,0,0,1,.4.45,4.45,4.45,0,0,1,.32.48c.09.18.17.35.24.52a3,3,0,0,1,.16.55c0,.09,0,.18.05.28l.06.28c0,.11,0,.21,0,.31a1.26,1.26,0,0,0,0,.28c0,.2,0,.4,0,.6s0,.42,0,.63v8.29h-3v-8.8l0-.1v-.14a.83.83,0,0,1,0-.12s0-.09,0-.15v-.16a.16.16,0,0,1,0-.09v-.07a.83.83,0,0,1,0-.12s0-.09,0-.14,0-.07,0-.08a.19.19,0,0,1,0-.08.43.43,0,0,1,0-.07s0,0,0-.07a1.8,1.8,0,0,0-.09-.28,2.14,2.14,0,0,1-.12-.28l-.06-.12a.56.56,0,0,0-.08-.15l-.05-.12a.42.42,0,0,0-.08-.12l-.32-.4a3.85,3.85,0,0,0-.35-.35l-.37-.29a3.26,3.26,0,0,0-.4-.24l-.44-.19a4.12,4.12,0,0,0-.47-.13h-.11l-.11,0-.1,0h-.11l-.2,0-.2,0a4.29,4.29,0,0,0-.44.13l-.44.19a3.5,3.5,0,0,0-.42.24l-.39.29-.33.32c-.1.11-.19.23-.28.35l-.16.23a1.19,1.19,0,0,0-.13.25l-.06.12a.73.73,0,0,1-.05.12.33.33,0,0,1,0,.15.3.3,0,0,0,0,.12l-.06.27-.05.27a1.15,1.15,0,0,0,0,.26v.27a.4.4,0,0,0,0,.15v1h0v8.1h-3v-8.61a.27.27,0,0,1,0-.12v-.39a.21.21,0,0,1,0-.12V126c0-.09,0-.17,0-.25a1.57,1.57,0,0,0,0-.23l0-.12a.71.71,0,0,1,0-.15.34.34,0,0,1,0-.12s0-.09,0-.15a.42.42,0,0,1,0-.1.49.49,0,0,0,0-.11.36.36,0,0,1,0-.11.42.42,0,0,0,0-.1l0-.06a.07.07,0,0,1,0-.05s0,0,0,0l0-.06a.07.07,0,0,1,0,0,.17.17,0,0,1,0,0l0-.06,0,0a4,4,0,0,0-.29-.39,3.68,3.68,0,0,0-.35-.33,4.08,4.08,0,0,0-.39-.31,2.5,2.5,0,0,0-.41-.25,2.58,2.58,0,0,0-.44-.22,3.62,3.62,0,0,0-.47-.13l-.2,0-.23,0h-.16l-.19,0a2.57,2.57,0,0,0-.44.11,2.44,2.44,0,0,0-.44.19c-.14.07-.28.14-.41.22a2.09,2.09,0,0,0-.36.26,3.59,3.59,0,0,0-.35.32,1.64,1.64,0,0,0-.29.35l-.25.36a1.91,1.91,0,0,0-.18.38,1.39,1.39,0,0,0-.12.38c0,.12-.05.25-.07.37s0,.26,0,.39,0,.27,0,.41a1.5,1.5,0,0,1,0,.22,1.28,1.28,0,0,0,0,.19v8.74h-3.05Zm35,0V115.64h6.25l.69.06.68,0,.68,0,.68.06a3.85,3.85,0,0,1,.68.1,5.11,5.11,0,0,1,.66.22,5.5,5.5,0,0,1,.63.25q.3.15.6.33a4.77,4.77,0,0,1,1.12.94,5.58,5.58,0,0,1,.44.55,4.54,4.54,0,0,1,.36.6,5.3,5.3,0,0,1,.28.65,5.45,5.45,0,0,1,.2.69c.06.23.1.46.14.7a6.13,6.13,0,0,1,0,.74,4.92,4.92,0,0,1,0,.67l-.09.64c-.06.21-.12.43-.19.64a5.7,5.7,0,0,1-.24.62,5.33,5.33,0,0,1-.31.57,2.83,2.83,0,0,1-.39.52,3.45,3.45,0,0,1-.45.48,5.83,5.83,0,0,1-.53.43c-.2.14-.4.27-.61.39s-.4.22-.6.31l-.32.1-.29.11-.32.09-.32.07-.33,0-.32.06-.34,0-.32,0-.69,0H256l-2.64,0v7.94h-3.05Zm3.05-9.76h3.5s0,0,.05,0H257l.08,0h.37l.27,0a1,1,0,0,0,.25,0l.26,0,.24-.07.24-.09.24-.1.24-.09.23-.14a1.34,1.34,0,0,0,.23-.13,4,4,0,0,0,.37-.27,4.2,4.2,0,0,0,.32-.29,3.65,3.65,0,0,0,.31-.36,2.22,2.22,0,0,0,.25-.42,3.89,3.89,0,0,0,.19-.42,4.14,4.14,0,0,0,.13-.43,4.57,4.57,0,0,0,.1-.46c0-.16,0-.32.06-.48v-.16a4.44,4.44,0,0,0,0-.63,2.62,2.62,0,0,0-.12-.57,3,3,0,0,0-.2-.55,3.43,3.43,0,0,0-.28-.49,3.13,3.13,0,0,0-.36-.44,5,5,0,0,0-.41-.39,5.62,5.62,0,0,0-.5-.35,3.12,3.12,0,0,0-.55-.27l-.16,0-.16,0-.16-.06-.13,0-.16,0-.16,0h-.16l-.16,0h-.07a.16.16,0,0,1-.09,0h-.23a.16.16,0,0,1-.09,0H257l-.09,0h-2l-1.47,0v8.18Zm13.5,9.76V120.77h2.94v.73a1.33,1.33,0,0,1,.3-.23l.37-.17.58-.25a5.61,5.61,0,0,1,.62-.18l.64-.1c.21,0,.44,0,.67-.06h1.07v1.9l-.16,0h-.16l-.15,0-.15,0-.14,0h-.15l-.12,0a.34.34,0,0,0-.12,0l-.15.06-.12,0-.15.06-.12,0-.22.12-.26.12-.05.05,0,0-.08,0-.06.06,0,0-.06,0-.08,0,0,0-.11.07-.1.09-.16.17-.08.08-.08.08-.08.1-.06.08-.25.36a2.49,2.49,0,0,0-.2.34,1.12,1.12,0,0,0-.16.33,2.33,2.33,0,0,0-.08.36c0,.13,0,.26-.07.39a1.84,1.84,0,0,0,0,.41,3.44,3.44,0,0,0,0,.46v8.61h-3Zm17.29-15a8.44,8.44,0,0,1,1.47.18,6.83,6.83,0,0,1,1.37.44,6.91,6.91,0,0,1,1.28.69,10.85,10.85,0,0,1,1.2,1,8.26,8.26,0,0,1,1,1.18,6.42,6.42,0,0,1,.7,1.28,7.53,7.53,0,0,1,.44,1.37,6.92,6.92,0,0,1,.14,1.47,8.1,8.1,0,0,1-.13,1.49,6.63,6.63,0,0,1-.43,1.42,6.87,6.87,0,0,1-.69,1.31,9.35,9.35,0,0,1-1,1.2,7.59,7.59,0,0,1-1.17,1,6.49,6.49,0,0,1-2.7,1.11,8.31,8.31,0,0,1-1.51.14l-1.07,0a9.06,9.06,0,0,1-1.49-.16,8.72,8.72,0,0,1-1.42-.37,7.38,7.38,0,0,1-2.49-1.63,6.7,6.7,0,0,1-1-1.15,8.47,8.47,0,0,1-.71-1.28,8.23,8.23,0,0,1-.41-1.39,7.49,7.49,0,0,1-.15-1.53,9.64,9.64,0,0,1,.13-1.52,7.27,7.27,0,0,1,.41-1.42,7.83,7.83,0,0,1,.7-1.31,9.73,9.73,0,0,1,1-1.2,8.56,8.56,0,0,1,1.19-1,6.51,6.51,0,0,1,1.3-.69,7.2,7.2,0,0,1,1.43-.45,8.45,8.45,0,0,1,1.53-.14v-.06Zm-.69,2a6,6,0,0,0-.8.16,5.63,5.63,0,0,0-.75.27,5.39,5.39,0,0,0-1,.53,6.62,6.62,0,0,0-.85.75,4.9,4.9,0,0,0-.72.9,5.53,5.53,0,0,0-.51,1,6.13,6.13,0,0,0-.29,1.06,5.22,5.22,0,0,0-.11,1.13,5.38,5.38,0,0,0,.11,1.14,4.93,4.93,0,0,0,.81,2,4.9,4.9,0,0,0,.74.85,6,6,0,0,0,.88.74,5.55,5.55,0,0,0,1,.52,3.53,3.53,0,0,0,.8.24c.29,0,.57.1.86.13s.6-.08.88-.13a2.7,2.7,0,0,0,.8-.27,4.18,4.18,0,0,0,1-.55,5.58,5.58,0,0,0,.86-.76,7.23,7.23,0,0,0,.68-.89,5,5,0,0,0,.5-1,5.35,5.35,0,0,0,.3-1.09,6.3,6.3,0,0,0,.1-1.15,5.68,5.68,0,0,0,0-.59,4.44,4.44,0,0,0-.08-.56c0-.18-.08-.36-.13-.53s-.12-.34-.19-.52-.15-.32-.23-.48a4,4,0,0,0-.28-.48l-.36-.44c-.13-.15-.27-.3-.41-.44a3.54,3.54,0,0,0-.42-.35l-.44-.32-.45-.27q-.24-.13-.48-.24l-.53-.18a4.42,4.42,0,0,0-.52-.14h-.24l-.05,0h-.23Z"/><path class="cls-1" d="M310.25,120.77v13.16c0,.1,0,.2,0,.29v.27c0,.18,0,.35,0,.51s0,.3,0,.42a2.07,2.07,0,0,0,0,.22c0,.07,0,.14,0,.21s0,.18,0,.26,0,.15,0,.22a1.87,1.87,0,0,1-.07.22l-.09.21-.06.11a.25.25,0,0,0,0,.13l-.06.11-.05.1-.11.17a1.45,1.45,0,0,0-.1.18l-.13.18-.12.2a.47.47,0,0,1-.06.09l-.07.09a.3.3,0,0,0-.08.08.28.28,0,0,1-.08.11.38.38,0,0,1-.08.11.35.35,0,0,0-.08.1.2.2,0,0,0-.09.09l-.1.1c-.14.16-.29.31-.45.46s-.33.27-.51.4a4.17,4.17,0,0,1-.56.37c-.2.11-.39.21-.59.3l-.32.14-.29.12-.32.11-.33.11-.64.16c-.21.05-.42.1-.64.13h-.07l-.06,0h-.23l-.07,0h-.13l-.16,0-.11,0H301.7c-.39,0-.78-.06-1.18-.12a7.71,7.71,0,0,1-1.15-.28,7.46,7.46,0,0,1-1.09-.47,9.36,9.36,0,0,1-1.07-.66,8.2,8.2,0,0,1-.95-.8,5,5,0,0,1-.76-.91,6,6,0,0,1-.59-1,6,6,0,0,1-.38-1.15l1.07,0h1.93c.14.25.29.5.45.74a7.09,7.09,0,0,0,.51.68,8.2,8.2,0,0,0,.59.59,6.51,6.51,0,0,0,.64.51,7.59,7.59,0,0,0,.7.4,4.2,4.2,0,0,0,.77.29,4.92,4.92,0,0,0,.55.14l.55.08.32,0,.32,0,.29-.06a1.67,1.67,0,0,0,.32-.08c.22-.07.43-.14.63-.22a4.15,4.15,0,0,0,.6-.29,3,3,0,0,0,.56-.36c.18-.13.35-.27.51-.41a4.83,4.83,0,0,0,.42-.47,5.89,5.89,0,0,0,.38-.55.86.86,0,0,0,.1-.16c0-.05.05-.1.07-.16l0-.06a.26.26,0,0,1,0-.1.13.13,0,0,1,0-.06l0-.1.05-.13.06-.14,0-.16.06-.16s0-.12,0-.2a1.43,1.43,0,0,1,0-.22c0-.09,0-.18,0-.26a2,2,0,0,0,0-.25v-.35a3.44,3.44,0,0,1-.41.35,4.08,4.08,0,0,1-.5.29c-.23.13-.46.24-.68.34a6.55,6.55,0,0,1-.71.25l-.71.16c-.24.05-.48.1-.73.13l-.11,0-.11,0H303l-.11,0H301.3l-.68-.09-.69-.12-.68-.16a3.79,3.79,0,0,1-.65-.21,6.62,6.62,0,0,1-.66-.3,6.21,6.21,0,0,1-.6-.35,6.14,6.14,0,0,1-.53-.4,5.47,5.47,0,0,1-.51-.45,7.13,7.13,0,0,1-.55-.55,6.9,6.9,0,0,1-.47-.6c-.14-.21-.27-.43-.4-.66a5.29,5.29,0,0,1-.32-.68,7.39,7.39,0,0,1-.24-.71c-.07-.24-.13-.48-.19-.73a4.79,4.79,0,0,1-.1-.76c0-.26,0-.52,0-.79s0-.38,0-.55,0-.34,0-.52.07-.35.1-.52a2.59,2.59,0,0,1,.12-.52,4.27,4.27,0,0,1,.13-.48c.05-.16.11-.31.16-.43l.16-.4a2.89,2.89,0,0,1,.19-.35l0-.12a.23.23,0,0,1,.06-.09l0-.06s0,0,0,0a.07.07,0,0,1,0,0,.21.21,0,0,1,0-.06.09.09,0,0,1,0,0l0-.05,0,0a.1.1,0,0,1,0,0l.13-.14c.25-.3.5-.58.74-.83a9.36,9.36,0,0,1,.73-.69,8.77,8.77,0,0,1,.75-.54,7.06,7.06,0,0,1,.75-.42,7,7,0,0,1,.76-.29c.26-.08.52-.14.79-.2l.76-.13a5.16,5.16,0,0,1,.79,0h1.34a8,8,0,0,1,.84.08,5.53,5.53,0,0,1,.81.16,7.24,7.24,0,0,1,.79.25,5.84,5.84,0,0,1,.76.36,6.82,6.82,0,0,1,.7.42,4.65,4.65,0,0,1,.59.49v-1.5h3Zm-8.42,1.66a6.69,6.69,0,0,0-.75.16q-.37.1-.72.24a4.49,4.49,0,0,0-1.73,1.26,6.28,6.28,0,0,0-.7.88,6.13,6.13,0,0,0-.51.94,5.47,5.47,0,0,0-.28,1,6.38,6.38,0,0,0-.09,1.08,7.53,7.53,0,0,0,.09,1.18,6.7,6.7,0,0,0,.28,1.09,7.65,7.65,0,0,0,.5,1,4.5,4.5,0,0,0,.68.91,4.6,4.6,0,0,0,.83.76,4.18,4.18,0,0,0,1,.55,3.1,3.1,0,0,0,.81.28,4.63,4.63,0,0,0,.9.12l.32,0,.3-.06a4.87,4.87,0,0,0,.52-.12,3.93,3.93,0,0,0,.52-.17l.48-.23a4,4,0,0,0,.48-.28c.14-.11.29-.22.44-.35a4.08,4.08,0,0,0,.44-.4,3.9,3.9,0,0,0,.28-.29,1.77,1.77,0,0,0,.26-.35,2.55,2.55,0,0,0,.24-.39l.21-.38c.07-.15.14-.28.19-.42s.11-.27.16-.41a3,3,0,0,1,.12-.43,3.29,3.29,0,0,0,.09-.43V129l.06-.16v-.1l0-.14v-.1l0-.14v-.24a6.28,6.28,0,0,0-.11-1.17,5.31,5.31,0,0,0-.32-1.07,5.39,5.39,0,0,0-.53-1,8.55,8.55,0,0,0-.75-.88,9.58,9.58,0,0,0-.88-.72,4.64,4.64,0,0,0-1-.51,8.52,8.52,0,0,0-.9-.26,5.07,5.07,0,0,0-.95-.14Zm11.79,13V120.77h2.94v.73a1.19,1.19,0,0,1,.31-.23l.36-.17.59-.25a6.13,6.13,0,0,1,.61-.18l.65-.1c.21,0,.43,0,.66-.06h1.07v1.9l-.16,0h-.16l-.14,0-.15,0-.15,0h-.15a.34.34,0,0,1-.12,0l-.12,0-.14.06-.12,0-.15.06a.33.33,0,0,0-.12,0l-.23.12-.25.12-.06.05,0,0-.08,0,0,.06-.06,0-.05,0-.08,0-.05,0-.11.07-.11.09-.16.17-.08.08-.08.08-.08.1-.05.08-.26.36c-.08.12-.14.23-.2.34a1.44,1.44,0,0,0-.16.33c0,.12-.06.24-.08.36s0,.26-.06.39a1.84,1.84,0,0,0,0,.41,3.44,3.44,0,0,0,0,.46v8.61h-3.05Zm25.08-14.63V135.4h-3v-1.31a5.11,5.11,0,0,1-.63.52,5.47,5.47,0,0,1-.71.41,3.62,3.62,0,0,1-.77.3l-.8.21c-.29.05-.57.1-.85.13a5.73,5.73,0,0,1-.84.06l-1.07,0-.12,0h-.12a.21.21,0,0,0-.12,0h-.33a.23.23,0,0,0-.11,0h-.32l-.13,0-.11,0-.21,0a.78.78,0,0,1-.22,0c-.21,0-.42-.08-.63-.13s-.4-.12-.6-.19l-.6-.26a5.83,5.83,0,0,1-.6-.32l-.58-.39-.57-.44-.55-.51a6.77,6.77,0,0,1-.52-.56l-.13-.14,0,0a.05.05,0,0,1,0,0l0,0a.1.1,0,0,0,0-.05.6.6,0,0,0-.06-.11l-.1-.11a.73.73,0,0,1-.05-.12.58.58,0,0,1-.05-.14,1.7,1.7,0,0,1-.19-.35c0-.13-.11-.25-.16-.38s-.11-.29-.16-.44a3.15,3.15,0,0,1-.14-.49,3.81,3.81,0,0,1-.12-.51,4.51,4.51,0,0,0-.09-.53c0-.2,0-.39,0-.58s0-.38,0-.57,0-.5,0-.74a5.52,5.52,0,0,1,.11-.71c.05-.23.12-.46.19-.68s.15-.45.24-.68a5.38,5.38,0,0,1,.31-.64,4.2,4.2,0,0,1,.36-.59c.14-.2.28-.38.42-.56l.46-.54c.18-.18.36-.34.55-.5a6,6,0,0,1,.57-.46c.2-.14.41-.28.63-.41a4.94,4.94,0,0,1,.68-.36,5.7,5.7,0,0,1,.72-.29,8,8,0,0,1,.81-.2l.84-.13a6.81,6.81,0,0,1,.92,0h1.2a7.48,7.48,0,0,1,.84.08,5.66,5.66,0,0,1,.82.16c.27.07.53.15.79.24a5.57,5.57,0,0,1,.76.32,5.47,5.47,0,0,1,.71.41,3.73,3.73,0,0,1,.6.52v-1.47h3Zm-8.26,1.66a7.17,7.17,0,0,0-.83.16q-.41.1-.78.24a5.16,5.16,0,0,0-1,.51,5.27,5.27,0,0,0-.9.75,6,6,0,0,0-.75.88,4.3,4.3,0,0,0-.54,1,5.51,5.51,0,0,0-.32,1.07,6.39,6.39,0,0,0-.11,1.18,6.31,6.31,0,0,0,.11,1.15,5.22,5.22,0,0,0,.32,1.06,4.58,4.58,0,0,0,.56,1,7.13,7.13,0,0,0,.78.87,5.54,5.54,0,0,0,.93.72,7.15,7.15,0,0,0,1,.51,4,4,0,0,0,.82.24c.27,0,.56.1.84.13a7.36,7.36,0,0,0,.84-.14,4.87,4.87,0,0,0,.79-.26,4.94,4.94,0,0,0,1-.52,5.94,5.94,0,0,0,.89-.73,6.71,6.71,0,0,0,.74-.89,3.7,3.7,0,0,0,.51-1,4.4,4.4,0,0,0,.32-1,5.93,5.93,0,0,0,.11-1.13,6.28,6.28,0,0,0-.11-1.17,4.73,4.73,0,0,0-.32-1.07,4.15,4.15,0,0,0-.49-1,7.2,7.2,0,0,0-.71-.88,6.62,6.62,0,0,0-.88-.75,5.44,5.44,0,0,0-1-.54,7.54,7.54,0,0,0-.88-.26,4.74,4.74,0,0,0-.93-.14Zm11.63,13V120.77H345v.62l.26-.19.27-.16a5.31,5.31,0,0,1,.55-.23l.55-.17c.19,0,.39-.07.59-.09a4,4,0,0,1,.61,0h1.07a5.43,5.43,0,0,1,.71,0,4.23,4.23,0,0,1,.68.12c.21,0,.43.11.64.18l.62.25a5.21,5.21,0,0,1,.57.3c.19.12.37.25.55.39s.27.21.39.32.23.23.36.38a3.58,3.58,0,0,0,.26-.29l.27-.28.43-.32a3.58,3.58,0,0,1,.48-.29l.5-.26a4,4,0,0,1,.52-.2l.53-.16a3.41,3.41,0,0,1,.54-.1h.1l.14,0,.1,0h.22l.13,0h1.87l.28.06.28,0a5.8,5.8,0,0,1,.59.19c.2.07.39.15.59.24a3.91,3.91,0,0,1,.57.31,4.91,4.91,0,0,1,.55.38l.27.23.29.23.27.25.27.26a5.82,5.82,0,0,1,.4.45,4.45,4.45,0,0,1,.32.48c.09.18.17.35.24.52a4,4,0,0,1,.21.83l.06.28c0,.11,0,.21,0,.31a2.36,2.36,0,0,0,0,.28c0,.2,0,.4,0,.6s0,.42,0,.63v8.29h-3v-8.8l0-.1v-.14a.34.34,0,0,1,0-.12.61.61,0,0,1,0-.15v-.16a.29.29,0,0,1,0-.09v-.07a.34.34,0,0,1,0-.12.59.59,0,0,1,0-.14s0-.07,0-.08a.19.19,0,0,1,0-.08.16.16,0,0,1,0-.07.25.25,0,0,1,0-.07,1.13,1.13,0,0,0-.09-.28l-.12-.28a.61.61,0,0,1,0-.12l-.08-.15-.06-.12a.28.28,0,0,0-.08-.12c-.1-.14-.21-.27-.32-.4a2.89,2.89,0,0,0-.35-.35l-.37-.29a2.65,2.65,0,0,0-.4-.24l-.44-.19a3.62,3.62,0,0,0-.47-.13h-.11l-.1,0-.11,0h-.11l-.2,0-.2,0a4.29,4.29,0,0,0-.44.13l-.44.19-.42.24-.38.29c-.13.11-.24.22-.34.32l-.28.35-.16.23a1.19,1.19,0,0,0-.13.25.61.61,0,0,0-.05.12.67.67,0,0,1-.06.12.33.33,0,0,1,0,.15.74.74,0,0,0,0,.12l-.06.27-.05.27a1.15,1.15,0,0,0,0,.26v.27a.77.77,0,0,0,0,.15v1h0v8.1h-3.05v-8.61a.27.27,0,0,1,0-.12v-.39a.37.37,0,0,1,0-.12V126c0-.09,0-.17,0-.25s0-.16,0-.23a.56.56,0,0,1,0-.12.68.68,0,0,1,0-.15.83.83,0,0,1,0-.12s0-.09,0-.15l0-.1a.49.49,0,0,0,0-.11.36.36,0,0,1,0-.11.42.42,0,0,0,0-.1l0-.06a.07.07,0,0,1,0-.05l0,0,0-.06a.1.1,0,0,1,0,0,.11.11,0,0,1,0,0s0,0,0-.06l0,0a2.88,2.88,0,0,0-.3-.39,3.68,3.68,0,0,0-.35-.33c-.12-.11-.25-.21-.38-.31a3.09,3.09,0,0,0-.42-.25,2.58,2.58,0,0,0-.44-.22,3.62,3.62,0,0,0-.47-.13l-.2,0-.23,0h-.16l-.18,0a2.36,2.36,0,0,0-.44.11,2.17,2.17,0,0,0-.44.19,4.13,4.13,0,0,0-.42.22,3.32,3.32,0,0,0-.36.26l-.35.32a2.57,2.57,0,0,0-.29.35,3.75,3.75,0,0,0-.24.36,1.93,1.93,0,0,0-.19.38,2.78,2.78,0,0,0-.12.38c0,.12-.05.25-.07.37s0,.26,0,.39,0,.27,0,.41a1.55,1.55,0,0,1,0,.22,1.37,1.37,0,0,0,0,.19v8.74h-3Z"/><path class="cls-1" d="M384.17,120.77V135.4h-3v-1.31a4,4,0,0,1-.63.52,5.35,5.35,0,0,1-.7.41,3.7,3.7,0,0,1-.78.3l-.8.21c-.29.05-.57.1-.84.13a6,6,0,0,1-.85.06l-1.07,0-.12,0h-.12a.21.21,0,0,0-.12,0h-.33a.23.23,0,0,0-.11,0h-.32l-.13,0-.11,0-.21,0a.93.93,0,0,1-.22,0,6.68,6.68,0,0,1-1.23-.32l-.6-.26a5.83,5.83,0,0,1-.6-.32l-.57-.39-.58-.44-.55-.51c-.18-.18-.36-.37-.52-.56l-.13-.14,0,0s0,0,0,0a.07.07,0,0,1,0,0l0-.05-.07-.11-.1-.11-.05-.12s0-.09-.05-.14a2.37,2.37,0,0,1-.19-.35c-.05-.13-.11-.25-.16-.38s-.11-.29-.16-.44a3.17,3.17,0,0,1-.13-.49,2.11,2.11,0,0,1-.12-.51c0-.18-.06-.36-.1-.53s0-.39,0-.58,0-.38,0-.57,0-.5,0-.74a4.19,4.19,0,0,1,.1-.71c.06-.23.12-.46.19-.68s.15-.45.24-.68a5.38,5.38,0,0,1,.31-.64,4.2,4.2,0,0,1,.36-.59c.14-.2.28-.38.43-.56s.29-.36.45-.54.36-.34.55-.5.38-.32.57-.46.41-.28.63-.41a4.94,4.94,0,0,1,.68-.36,6.52,6.52,0,0,1,.73-.29,7.18,7.18,0,0,1,.8-.2l.84-.13a6.81,6.81,0,0,1,.92,0h1.2a7.89,7.89,0,0,1,.85.08,5.8,5.8,0,0,1,.81.16c.27.07.53.15.79.24a5.57,5.57,0,0,1,.76.32,5.47,5.47,0,0,1,.71.41,3.73,3.73,0,0,1,.6.52v-1.47h3Zm-8.26,1.66a7.17,7.17,0,0,0-.83.16,7.74,7.74,0,0,0-.77.24,5.16,5.16,0,0,0-1,.51,5.33,5.33,0,0,0-.91.75,6,6,0,0,0-.75.88,4.72,4.72,0,0,0-.54,1,5.51,5.51,0,0,0-.32,1.07,6.4,6.4,0,0,0-.1,1.18,6.3,6.3,0,0,0,.1,1.15,5.22,5.22,0,0,0,.32,1.06,4.63,4.63,0,0,0,.57,1,7,7,0,0,0,.77.87,5.6,5.6,0,0,0,.94.72,6.63,6.63,0,0,0,1,.51,3.78,3.78,0,0,0,.81.24c.28,0,.56.1.84.13a7.93,7.93,0,0,0,.85-.14,5.1,5.1,0,0,0,.78-.26,5.34,5.34,0,0,0,1-.52,6.42,6.42,0,0,0,.88-.73,7.69,7.69,0,0,0,.75-.89,4,4,0,0,0,.5-1,5,5,0,0,0,.33-1,5.94,5.94,0,0,0,.1-1.13,6.29,6.29,0,0,0-.1-1.17,5.33,5.33,0,0,0-.33-1.07,3.81,3.81,0,0,0-.49-1,6.37,6.37,0,0,0-.71-.88,6,6,0,0,0-.88-.75,5,5,0,0,0-1-.54,8.89,8.89,0,0,0-.88-.26,5,5,0,0,0-.94-.14Zm21.17-1.66H399v1.34l.38-.28a2.06,2.06,0,0,1,.4-.25c.19-.11.39-.21.59-.31s.39-.18.58-.26a4.52,4.52,0,0,1,.62-.21c.21,0,.43-.1.64-.13h0a.09.09,0,0,0,.06,0h.13a.05.05,0,0,0,.05,0h.11l.16,0h.06l.05,0h.35l.05,0h.11l.16,0h1.68l.4,0,.39,0,.39.08c.25.06.5.12.76.2a7,7,0,0,1,.76.29,3.26,3.26,0,0,1,.38.18l.37.22.35.22.37.26a3.44,3.44,0,0,1,.36.28l.36.31.34.33q.16.18.36.36l.16.16a1.6,1.6,0,0,1,.16.19,1.37,1.37,0,0,0,.13.2,1,1,0,0,1,.16.23,4.36,4.36,0,0,1,.31.53c.1.2.19.4.28.62a6.2,6.2,0,0,1,.23.69c.06.23.12.47.17.72s.07.48.1.74,0,.52,0,.79a7.78,7.78,0,0,1-.16,1.56,8,8,0,0,1-.46,1.43,6.8,6.8,0,0,1-.73,1.28,7.44,7.44,0,0,1-1,1.15,8.92,8.92,0,0,1-1.23.94,8,8,0,0,1-1.34.67,10.81,10.81,0,0,1-1.44.34,8.62,8.62,0,0,1-1.53.14l-1.07,0h-.21l-.13,0h-.32l-.14,0h-.1l-.71-.16-.68-.16a5.84,5.84,0,0,1-.67-.25,5.62,5.62,0,0,1-.64-.34,3.85,3.85,0,0,1-.45-.28l-.41-.33v6.36H396V120.77Zm6.79,13.08a4.63,4.63,0,0,0,2-.35,5.53,5.53,0,0,0,1-.51,5.36,5.36,0,0,0,.9-.72,6.08,6.08,0,0,0,.75-.86,5,5,0,0,0,.53-1,5.92,5.92,0,0,0,.32-1.09,6.47,6.47,0,0,0,.11-1.18,6.12,6.12,0,0,0-.11-1.14A5.53,5.53,0,0,0,409,126a3.57,3.57,0,0,0-.51-1,6,6,0,0,0-.75-.88,5.56,5.56,0,0,0-.88-.75,4.72,4.72,0,0,0-1-.54,7.63,7.63,0,0,0-.81-.26,4.16,4.16,0,0,0-.87-.14,6.35,6.35,0,0,0-.86.12,5,5,0,0,0-.83.26,5.28,5.28,0,0,0-1,.49,6.19,6.19,0,0,0-.91.71,5.38,5.38,0,0,0-.75.85,5.26,5.26,0,0,0-.86,2,6,6,0,0,0-.1,1.15,5.33,5.33,0,0,0,0,.57l.06.58c0,.18.07.36.1.55a2.86,2.86,0,0,0,.16.52c.06.18.12.35.19.51a2.9,2.9,0,0,0,.27.48,3,3,0,0,0,.35.45,5.23,5.23,0,0,0,.4.43l.42.41a3,3,0,0,0,.46.36,4.94,4.94,0,0,0,.49.3l.52.27.55.2a4,4,0,0,0,.55.14l.2,0,.2,0Zm27.4-13.08V135.4h-3v-1.31a5.11,5.11,0,0,1-.63.52,6.23,6.23,0,0,1-.71.41,3.7,3.7,0,0,1-.78.3l-.8.21c-.28.05-.56.1-.84.13a5.93,5.93,0,0,1-.84.06l-1.07,0-.12,0h-.12a.27.27,0,0,0-.12,0h-.34a.19.19,0,0,0-.1,0h-.32l-.14,0-.11,0-.21,0a.78.78,0,0,1-.21,0,5.84,5.84,0,0,1-.63-.13,5.26,5.26,0,0,1-.6-.19l-.6-.26a5.07,5.07,0,0,1-.61-.32l-.57-.39-.58-.44c-.17-.16-.36-.33-.54-.51a6.77,6.77,0,0,1-.52-.56l-.14-.14,0,0s0,0,0,0a.1.1,0,0,1,0,0,.1.1,0,0,0,0-.05l-.07-.11-.09-.11-.06-.12a1.21,1.21,0,0,0,0-.14,3.9,3.9,0,0,1-.19-.35c-.05-.13-.1-.25-.16-.38s-.1-.29-.16-.44a3.17,3.17,0,0,1-.13-.49,3.81,3.81,0,0,1-.12-.51l-.09-.53c0-.2,0-.39,0-.58s0-.38,0-.57,0-.5,0-.74a4.2,4.2,0,0,1,.11-.71c.05-.23.11-.46.18-.68s.15-.45.24-.68a5.38,5.38,0,0,1,.31-.64c.12-.22.24-.41.36-.59s.29-.38.43-.56.29-.36.45-.54.36-.34.55-.5A6.15,6.15,0,0,1,418,122a7.4,7.4,0,0,1,.62-.41,5,5,0,0,1,.69-.36,5.7,5.7,0,0,1,.72-.29c.25-.08.52-.14.8-.2l.84-.13a6.9,6.9,0,0,1,.92,0h1.21a8,8,0,0,1,.84.08,5.66,5.66,0,0,1,.82.16c.26.07.53.15.78.24a5.69,5.69,0,0,1,.77.32,5.35,5.35,0,0,1,.7.41,3.42,3.42,0,0,1,.61.52v-1.47h3ZM423,122.43a7.6,7.6,0,0,0-.83.16c-.26.07-.52.15-.77.24a5.16,5.16,0,0,0-1,.51,5.75,5.75,0,0,0-.91.75,7.61,7.61,0,0,0-.75.88,4.68,4.68,0,0,0-.53,1,4.89,4.89,0,0,0-.32,1.07,6.39,6.39,0,0,0-.11,1.18,6.31,6.31,0,0,0,.11,1.15,4.65,4.65,0,0,0,.32,1.06,4.58,4.58,0,0,0,.56,1,7,7,0,0,0,.77.87,6,6,0,0,0,.94.72,6.63,6.63,0,0,0,1,.51,4.15,4.15,0,0,0,.81.24c.28,0,.56.1.85.13a8.17,8.17,0,0,0,.84-.14,5.22,5.22,0,0,0,.79-.26,4.94,4.94,0,0,0,1-.52,5.87,5.87,0,0,0,.88-.73,6.11,6.11,0,0,0,.75-.89,4.42,4.42,0,0,0,.51-1,5,5,0,0,0,.32-1,5.93,5.93,0,0,0,.11-1.13,6.28,6.28,0,0,0-.11-1.17,5.31,5.31,0,0,0-.32-1.07,4.18,4.18,0,0,0-.5-1,6.37,6.37,0,0,0-.71-.88,5.56,5.56,0,0,0-.88-.75,5,5,0,0,0-1-.54,8.16,8.16,0,0,0-.88-.26,4.84,4.84,0,0,0-.94-.14Zm11.63,13V120.77h2.94v.73a1.19,1.19,0,0,1,.31-.23l.36-.17.59-.25a5.43,5.43,0,0,1,.61-.18l.64-.1c.22,0,.44,0,.67-.06h1.07v1.9l-.16,0h-.16l-.15,0-.14,0-.15,0h-.15l-.12,0-.12,0-.14.06-.12,0-.15.06a.33.33,0,0,0-.12,0l-.23.12-.25.12-.06.05-.05,0-.08,0-.05.06-.06,0-.05,0-.08,0-.05,0a.41.41,0,0,0-.11.07l-.11.09-.16.17-.08.08-.08.08-.08.1-.05.08-.26.36c-.08.12-.14.23-.2.34a1.44,1.44,0,0,0-.16.33c0,.12-.06.24-.08.36l-.06.39a1.84,1.84,0,0,0,0,.41,3.44,3.44,0,0,0,0,.46v8.61h-3.05Zm25.08-14.63V135.4h-3v-1.31a5.11,5.11,0,0,1-.63.52,5.47,5.47,0,0,1-.71.41,3.83,3.83,0,0,1-.77.3l-.8.21c-.29.05-.57.1-.85.13a5.73,5.73,0,0,1-.84.06l-1.07,0-.12,0h-.12a.21.21,0,0,0-.12,0h-.33a.23.23,0,0,0-.11,0H450l-.13,0-.11,0-.22,0a.78.78,0,0,1-.21,0c-.21,0-.42-.08-.63-.13s-.4-.12-.6-.19l-.6-.26a4.3,4.3,0,0,1-.6-.32l-.58-.39c-.18-.14-.38-.28-.57-.44l-.55-.51a6.77,6.77,0,0,1-.52-.56l-.13-.14,0,0a.05.05,0,0,1,0,0,.1.1,0,0,1,0,0,.1.1,0,0,0,0-.05l-.06-.11-.1-.11a.73.73,0,0,1,0-.12l-.06-.14a2.31,2.31,0,0,1-.18-.35c-.06-.13-.11-.25-.16-.38s-.11-.29-.16-.44a3.15,3.15,0,0,1-.14-.49,3.81,3.81,0,0,1-.12-.51c0-.18-.06-.36-.09-.53s0-.39,0-.58,0-.38,0-.57,0-.5,0-.74a5.52,5.52,0,0,1,.11-.71c.05-.23.12-.46.19-.68s.15-.45.24-.68.19-.43.3-.64a5.44,5.44,0,0,1,.37-.59c.14-.2.28-.38.42-.56l.46-.54c.18-.18.36-.34.55-.5a5,5,0,0,1,.57-.46c.2-.14.41-.28.63-.41a4.94,4.94,0,0,1,.68-.36,5.7,5.7,0,0,1,.72-.29c.25-.08.52-.14.8-.2l.85-.13a6.81,6.81,0,0,1,.92,0h1.2a7.48,7.48,0,0,1,.84.08,5.66,5.66,0,0,1,.82.16c.27.07.53.15.79.24a5.57,5.57,0,0,1,.76.32,6.23,6.23,0,0,1,.71.41,3.73,3.73,0,0,1,.6.52v-1.47h3Zm-8.26,1.66a6.78,6.78,0,0,0-.83.16q-.4.1-.78.24a5.16,5.16,0,0,0-1,.51,5.75,5.75,0,0,0-.91.75,6.64,6.64,0,0,0-.74.88,4.3,4.3,0,0,0-.54,1,5.51,5.51,0,0,0-.32,1.07,6.39,6.39,0,0,0-.11,1.18,6.31,6.31,0,0,0,.11,1.15,5.22,5.22,0,0,0,.32,1.06,4.58,4.58,0,0,0,.56,1,6.39,6.39,0,0,0,.78.87,5.54,5.54,0,0,0,.93.72,6.63,6.63,0,0,0,1,.51,4,4,0,0,0,.82.24c.27,0,.55.1.84.13a7.74,7.74,0,0,0,.84-.14,4.87,4.87,0,0,0,.79-.26,4.94,4.94,0,0,0,1-.52,5.41,5.41,0,0,0,.88-.73,6.11,6.11,0,0,0,.75-.89,3.7,3.7,0,0,0,.51-1,5,5,0,0,0,.32-1,5.93,5.93,0,0,0,.11-1.13,6.28,6.28,0,0,0-.11-1.17,5.31,5.31,0,0,0-.32-1.07,4.15,4.15,0,0,0-.49-1,7.2,7.2,0,0,0-.71-.88,6.62,6.62,0,0,0-.88-.75,5.44,5.44,0,0,0-1-.54,8.16,8.16,0,0,0-.88-.26A4.74,4.74,0,0,0,451.46,122.43Z"/><path class="cls-1" d="M487.52,120.77V135.4h-3v-1.31a4.46,4.46,0,0,1-.63.52,5.47,5.47,0,0,1-.71.41,3.62,3.62,0,0,1-.77.3l-.8.21c-.29.05-.57.1-.85.13a5.73,5.73,0,0,1-.84.06l-1.07,0-.12,0h-.12a.21.21,0,0,0-.12,0h-.33a.23.23,0,0,0-.11,0h-.32l-.13,0-.11,0-.21,0a.85.85,0,0,1-.22,0c-.21,0-.42-.08-.63-.13s-.4-.12-.6-.19l-.6-.26a5.83,5.83,0,0,1-.6-.32l-.57-.39-.58-.44-.55-.51c-.18-.18-.36-.37-.52-.56l-.13-.14,0,0a.05.05,0,0,1,0,0l0,0a.1.1,0,0,0,0-.05.6.6,0,0,0-.06-.11l-.1-.11L472,132a.58.58,0,0,1,0-.14,2.37,2.37,0,0,1-.19-.35c-.05-.13-.11-.25-.16-.38s-.11-.29-.16-.44a4.84,4.84,0,0,1-.14-.49,3.81,3.81,0,0,1-.12-.51,4.51,4.51,0,0,0-.09-.53c0-.2,0-.39,0-.58s0-.38,0-.57,0-.5,0-.74a5.52,5.52,0,0,1,.11-.71c.05-.23.12-.46.19-.68s.15-.45.24-.68a5.38,5.38,0,0,1,.31-.64,4.2,4.2,0,0,1,.36-.59c.14-.2.28-.38.42-.56l.46-.54c.18-.18.36-.34.55-.5a6,6,0,0,1,.57-.46c.2-.14.41-.28.63-.41a4.94,4.94,0,0,1,.68-.36,5.7,5.7,0,0,1,.72-.29,8,8,0,0,1,.81-.2l.84-.13a6.81,6.81,0,0,1,.92,0H480a7.89,7.89,0,0,1,.85.08,5.8,5.8,0,0,1,.81.16c.27.07.53.15.79.24a5.57,5.57,0,0,1,.76.32,5.47,5.47,0,0,1,.71.41,3.73,3.73,0,0,1,.6.52v-1.47h3Zm-8.26,1.66a7.17,7.17,0,0,0-.83.16q-.4.1-.78.24a5.82,5.82,0,0,0-1,.51,5.27,5.27,0,0,0-.9.75,6,6,0,0,0-.75.88,4.72,4.72,0,0,0-.54,1,5.51,5.51,0,0,0-.32,1.07,6.4,6.4,0,0,0-.1,1.18,6.3,6.3,0,0,0,.1,1.15,5.22,5.22,0,0,0,.32,1.06,5.05,5.05,0,0,0,.56,1,7.13,7.13,0,0,0,.78.87,5.23,5.23,0,0,0,.94.72,7,7,0,0,0,1,.51,4,4,0,0,0,.82.24c.28,0,.56.1.84.13a7.36,7.36,0,0,0,.84-.14,4.87,4.87,0,0,0,.79-.26,4.94,4.94,0,0,0,1-.52,5.94,5.94,0,0,0,.89-.73,7.69,7.69,0,0,0,.75-.89,4,4,0,0,0,.5-1,4.4,4.4,0,0,0,.32-1,5.22,5.22,0,0,0,.11-1.13,5.53,5.53,0,0,0-.11-1.17,4.73,4.73,0,0,0-.32-1.07,4.15,4.15,0,0,0-.49-1,7.2,7.2,0,0,0-.71-.88,6,6,0,0,0-.88-.75,5.35,5.35,0,0,0-1-.54,8.34,8.34,0,0,0-.89-.26,4.74,4.74,0,0,0-.93-.14Zm20.45,13V115.64h3.05v18h8.18v1.79H499.71Zm21.25-15a8.44,8.44,0,0,1,1.47.18,8.12,8.12,0,0,1,2.65,1.13,10.85,10.85,0,0,1,1.2,1,9.83,9.83,0,0,1,1,1.18,6.37,6.37,0,0,1,.69,1.28,6.86,6.86,0,0,1,.45,1.37,7.64,7.64,0,0,1,.14,1.47,8.1,8.1,0,0,1-.13,1.49A6.63,6.63,0,0,1,528,131a7.49,7.49,0,0,1-.69,1.31,8.63,8.63,0,0,1-1,1.2,7.09,7.09,0,0,1-1.16,1,6.52,6.52,0,0,1-1.3.71,6.45,6.45,0,0,1-1.4.4,8.31,8.31,0,0,1-1.51.14l-1.07,0a9.18,9.18,0,0,1-1.5-.16,8.61,8.61,0,0,1-1.41-.37,7.38,7.38,0,0,1-2.49-1.63,6.7,6.7,0,0,1-1-1.15,8.47,8.47,0,0,1-.71-1.28,7.4,7.4,0,0,1-.41-1.39,7.49,7.49,0,0,1-.15-1.53,8.59,8.59,0,0,1,.13-1.52,8,8,0,0,1,.4-1.42,8.68,8.68,0,0,1,.71-1.31,8.89,8.89,0,0,1,1-1.2,8.56,8.56,0,0,1,1.19-1,6.72,6.72,0,0,1,1.29-.69,7.41,7.41,0,0,1,1.43-.45,8.56,8.56,0,0,1,1.54-.14v-.06Zm-.69,2a6.11,6.11,0,0,0-.81.16,5.05,5.05,0,0,0-.74.27,5.39,5.39,0,0,0-1,.53,6,6,0,0,0-.85.75,4.9,4.9,0,0,0-.72.9,5.53,5.53,0,0,0-.51,1,7.2,7.2,0,0,0-.3,1.06,5.94,5.94,0,0,0-.1,1.13,6.12,6.12,0,0,0,.1,1.14,7.07,7.07,0,0,0,.3,1,5.34,5.34,0,0,0,.52,1,4.84,4.84,0,0,0,.73.85,6,6,0,0,0,.89.74,5.55,5.55,0,0,0,1,.52,3.53,3.53,0,0,0,.8.24c.29,0,.57.1.86.13s.59-.08.88-.13a2.8,2.8,0,0,0,.8-.27,4.18,4.18,0,0,0,1-.55,5.58,5.58,0,0,0,.86-.76,8.37,8.37,0,0,0,.68-.89,5,5,0,0,0,.49-1,4.81,4.81,0,0,0,.31-1.09,7.34,7.34,0,0,0,.1-1.15,5.68,5.68,0,0,0,0-.59c0-.2-.05-.39-.08-.56a4.58,4.58,0,0,0-.14-.53c0-.16-.11-.34-.18-.52s-.15-.32-.23-.48a4,4,0,0,0-.28-.48l-.36-.44a5.77,5.77,0,0,0-.42-.44,2.8,2.8,0,0,0-.41-.35l-.44-.32-.46-.27q-.24-.13-.48-.24a5.34,5.34,0,0,0-.52-.18,4.42,4.42,0,0,0-.52-.14h-.24l-.05,0h-.23l-.17,0Zm11.09,13V120.77h2.94v1l.44-.35.47-.29a5.25,5.25,0,0,1,.59-.28,4,4,0,0,1,.61-.2,3.76,3.76,0,0,1,.67-.12,5.37,5.37,0,0,1,.7,0h1.06a6,6,0,0,1,.74,0,4.21,4.21,0,0,1,.71.12,5.29,5.29,0,0,1,.71.2c.22.08.45.17.68.28s.45.23.67.36a5.38,5.38,0,0,1,.58.41,6.47,6.47,0,0,1,.57.47c.17.17.35.35.53.55l.2.27.18.26a2.11,2.11,0,0,0,.16.3l.16.27a1.82,1.82,0,0,1,.13.28c0,.09.07.19.11.28s.06.21.09.3.05.2.07.29.07.39.1.6a4.2,4.2,0,0,1,.08.62c0,.22,0,.44,0,.66s0,.45,0,.68v7.65h-3v-7.89a.2.2,0,0,1,0-.11v-.58c0-.08,0-.15,0-.22a1.48,1.48,0,0,1,0-.21.41.41,0,0,0,0-.11.44.44,0,0,1,0-.13s0-.07,0-.11a.37.37,0,0,1,0-.11,3.82,3.82,0,0,0-.09-.44c-.05-.15-.1-.29-.15-.41a2.67,2.67,0,0,0-.2-.42c-.08-.13-.17-.26-.26-.38s-.24-.28-.37-.42-.26-.26-.4-.39l-.41-.32a3.67,3.67,0,0,0-.47-.26,4.48,4.48,0,0,0-.52-.22,4.56,4.56,0,0,0-.53-.13l-.14,0h-.15a.42.42,0,0,0-.15,0l-.14,0-.35.07-.32.09-.47.16a2.58,2.58,0,0,0-.44.22,2.5,2.5,0,0,0-.41.25,2.89,2.89,0,0,0-.37.31,3.47,3.47,0,0,0-.34.32,2.52,2.52,0,0,0-.3.35s-.07.1-.1.16l-.11.16-.09.18a.86.86,0,0,1-.1.16,3.3,3.3,0,0,0-.13.37,1.9,1.9,0,0,0-.08.36c0,.12,0,.24-.07.36a1.48,1.48,0,0,0,0,.38,2.43,2.43,0,0,0,0,.38v.37l0,.11v8.21h-3Zm33.07-14.63v13.16a1.5,1.5,0,0,0,0,.29v.27c0,.18,0,.35,0,.51s0,.3,0,.42a2.07,2.07,0,0,0,0,.22,1.55,1.55,0,0,1,0,.21c0,.09,0,.18,0,.26a1.43,1.43,0,0,1,0,.22,1.87,1.87,0,0,1-.07.22,1,1,0,0,1-.09.21l0,.11a.25.25,0,0,0,0,.13l0,.11-.06.1-.1.17a1.42,1.42,0,0,0-.11.18c0,.06-.08.11-.12.18a.82.82,0,0,0-.12.2l-.07.09a.47.47,0,0,0-.06.09.15.15,0,0,0-.08.08.31.31,0,0,1-.09.11.26.26,0,0,1-.08.11l-.08.1-.09.09-.09.1c-.15.16-.3.31-.46.46s-.33.27-.51.4a3.62,3.62,0,0,1-.56.37c-.19.11-.39.21-.58.3l-.33.14-.29.12-.32.11-.32.11-.64.16c-.22.05-.43.1-.64.13H558a.09.09,0,0,0-.07,0h-.23l-.06,0h-.14l-.16,0-.1,0h-1.37a11.6,11.6,0,0,1-1.17-.12,7.42,7.42,0,0,1-1.15-.28,7.58,7.58,0,0,1-1.1-.47,11.5,11.5,0,0,1-1.07-.66,9.13,9.13,0,0,1-1-.8,5.92,5.92,0,0,1-.76-.91,6,6,0,0,1-.59-1,6,6,0,0,1-.37-1.15l1.07,0h1.92c.15.25.3.5.46.74a7.09,7.09,0,0,0,.51.68,8.14,8.14,0,0,0,.58.59,5.63,5.63,0,0,0,.65.51,7.38,7.38,0,0,0,.69.4,4.3,4.3,0,0,0,.78.29,4.75,4.75,0,0,0,.54.14l.55.08a1.66,1.66,0,0,0,.32,0l.32,0,.3-.06a2.14,2.14,0,0,0,.32-.08l.63-.22a5.48,5.48,0,0,0,.6-.29,3.79,3.79,0,0,0,.56-.36c.18-.13.35-.27.51-.41a4.76,4.76,0,0,0,.41-.47,5.94,5.94,0,0,0,.39-.55.83.83,0,0,0,.09-.16.77.77,0,0,0,.07-.16l0-.06,0-.1a.13.13,0,0,1,0-.06,1,1,0,0,0,0-.1l.06-.13.05-.14,0-.16,0-.16a.88.88,0,0,0,0-.2,1.43,1.43,0,0,1,0-.22c0-.09,0-.18,0-.26a2,2,0,0,0,0-.25v-.35a2.8,2.8,0,0,1-.41.35,4,4,0,0,1-.49.29c-.24.13-.46.24-.69.34a7.21,7.21,0,0,1-.7.25l-.71.16c-.24.05-.49.1-.74.13l-.11,0-.1,0h-.35l-.11,0h-1.55l-.68-.09-.68-.12-.68-.16a3.89,3.89,0,0,1-.66-.21,5.56,5.56,0,0,1-.65-.3,4.48,4.48,0,0,1-.6-.35,6.25,6.25,0,0,1-.54-.4,5.47,5.47,0,0,1-.51-.45,7,7,0,0,1-.54-.55,5.39,5.39,0,0,1-.47-.6,7.23,7.23,0,0,1-.4-.66,4.22,4.22,0,0,1-.32-.68,7.39,7.39,0,0,1-.24-.71,6,6,0,0,1-.19-.73,4.8,4.8,0,0,1-.11-.76c0-.26,0-.52,0-.79s0-.38,0-.55,0-.34,0-.52l.09-.52c0-.17.07-.34.12-.52a4.34,4.34,0,0,1,.14-.48,3,3,0,0,1,.16-.43,3.7,3.7,0,0,1,.16-.4,1.92,1.92,0,0,1,.18-.35l.06-.12a.15.15,0,0,1,.05-.09.21.21,0,0,0,0-.06l0,0a.43.43,0,0,1,0,0l0-.06s0,0,0,0a.1.1,0,0,1,0-.05v0a.1.1,0,0,1,0,0l.13-.14c.25-.3.5-.58.74-.83a9.46,9.46,0,0,1,.74-.69,7.33,7.33,0,0,1,.74-.54,7.06,7.06,0,0,1,.75-.42,7.87,7.87,0,0,1,.76-.29c.26-.08.53-.14.79-.2l.76-.13a5.24,5.24,0,0,1,.79,0H557a7.71,7.71,0,0,1,.84.08,5.66,5.66,0,0,1,.82.16,8,8,0,0,1,.79.25,6.53,6.53,0,0,1,.76.36,5.75,5.75,0,0,1,.69.42,4,4,0,0,1,.59.49v-1.5h3ZM556,122.43a6.69,6.69,0,0,0-.75.16q-.37.1-.72.24a4.42,4.42,0,0,0-1.74,1.26,6.28,6.28,0,0,0-.7.88,7.07,7.07,0,0,0-.5.94,4.78,4.78,0,0,0-.28,1,5.49,5.49,0,0,0-.1,1.08,6.48,6.48,0,0,0,.1,1.18,5.81,5.81,0,0,0,.28,1.09,7.59,7.59,0,0,0,.49,1,5.39,5.39,0,0,0,.68.91,5,5,0,0,0,.83.76,4.4,4.4,0,0,0,1,.55,3.18,3.18,0,0,0,.82.28,4.43,4.43,0,0,0,.89.12l.33,0,.29-.06a4.37,4.37,0,0,0,.52-.12,3.93,3.93,0,0,0,.52-.17l.48-.23a4,4,0,0,0,.48-.28l.45-.35a5.31,5.31,0,0,0,.44-.4l.28-.29a1.72,1.72,0,0,0,.25-.35,2.55,2.55,0,0,0,.24-.39c.07-.13.14-.26.22-.38s.13-.28.18-.42.11-.27.16-.41l.12-.43a2.23,2.23,0,0,0,.1-.43V129l0-.16v-.1l0-.14v-.1l0-.14v-.24a6.29,6.29,0,0,0-.1-1.17,5.31,5.31,0,0,0-.32-1.07,5.44,5.44,0,0,0-.54-1,6.62,6.62,0,0,0-.75-.88,8.4,8.4,0,0,0-.88-.72,4.21,4.21,0,0,0-1-.51,7.71,7.71,0,0,0-.89-.26A5.19,5.19,0,0,0,556,122.43Z"/><path class="cls-1" d="M583.52,128.79H570.28a5.76,5.76,0,0,0,.15,1.06,5.08,5.08,0,0,0,.33,1,5.65,5.65,0,0,0,.54.84,5,5,0,0,0,.75.79,5.79,5.79,0,0,0,.87.65,4.7,4.7,0,0,0,.92.47,7.5,7.5,0,0,0,.73.22,4.54,4.54,0,0,0,.74.1c.19,0,.38,0,.55-.06l.52-.12.76-.3a4.54,4.54,0,0,0,.73-.37,3.79,3.79,0,0,0,.67-.47,7,7,0,0,0,.56-.52,5.91,5.91,0,0,0,.49-.63,5.29,5.29,0,0,0,.37-.71l2.06-.05h1.07a6.73,6.73,0,0,1-.46,1.09,7.52,7.52,0,0,1-.61,1,6.24,6.24,0,0,1-.78.85,9.12,9.12,0,0,1-.93.78c-.34.23-.68.44-1,.63a6.42,6.42,0,0,1-1.06.44c-.35.09-.72.16-1.09.22a6.3,6.3,0,0,1-1.15.1l-1.07,0a9.44,9.44,0,0,1-1.54-.16,8.58,8.58,0,0,1-1.43-.37,7.38,7.38,0,0,1-2.49-1.63,6.64,6.64,0,0,1-1-1.16,8.66,8.66,0,0,1-.71-1.3,7.77,7.77,0,0,1-.4-1.43,8.49,8.49,0,0,1-.13-1.54,8.4,8.4,0,0,1,.13-1.51,7.07,7.07,0,0,1,.4-1.4,7.88,7.88,0,0,1,.71-1.31,8.09,8.09,0,0,1,1-1.18,8.25,8.25,0,0,1,1.15-1,6.68,6.68,0,0,1,1.29-.69,6.54,6.54,0,0,1,1.43-.43,8.46,8.46,0,0,1,1.53-.13h1.07a6,6,0,0,1,.85,0l.84.13.8.24a4.82,4.82,0,0,1,.77.33,7.68,7.68,0,0,1,.74.41,6.94,6.94,0,0,1,.68.49c.22.18.42.37.63.57a6.54,6.54,0,0,1,.57.61c.16.21.32.43.46.64a6.15,6.15,0,0,1,.37.64c.06.11.11.22.16.32a2.33,2.33,0,0,1,.14.33,1.7,1.7,0,0,0,.12.34,2.23,2.23,0,0,1,.09.32l.15.7q.06.34.09.72c0,.14,0,.3.06.47s0,.33,0,.49a1.85,1.85,0,0,0,0,.23,2.11,2.11,0,0,1,0,.25ZM570.28,127h10.19a7.06,7.06,0,0,0-.28-.89,5.49,5.49,0,0,0-.42-.84,5.1,5.1,0,0,0-.56-.78,6.12,6.12,0,0,0-.72-.72,5.8,5.8,0,0,0-.83-.6,5.06,5.06,0,0,0-.88-.42,3.89,3.89,0,0,0-.66-.21,5.12,5.12,0,0,0-.7-.11,6,6,0,0,0-.74.11,4.44,4.44,0,0,0-.71.21,5.8,5.8,0,0,0-.88.4,6.36,6.36,0,0,0-.83.56,8.38,8.38,0,0,0-.73.73,4.57,4.57,0,0,0-.58.77,4.86,4.86,0,0,0-.41.86,4.93,4.93,0,0,0-.26.93Zm20.64,8.4-6.15-14.63H588l4.52,10.83L597,120.77h3.2l-6.17,14.63h-3.13Zm11.2,0V120.77h3V135.4h-3Zm0-16.39v-3.37h3V119h-3Zm22.43-3.37V135.4h-2.94V134l-.07.07-.09.09c-.21.18-.43.35-.64.51a5.46,5.46,0,0,1-.7.43,3.54,3.54,0,0,1-.75.29c-.26.07-.54.14-.82.19s-.58.1-.87.13a6.8,6.8,0,0,1-.9.06l-1.07,0-.48,0a3.88,3.88,0,0,1-.48,0,2.43,2.43,0,0,1-.47-.08l-.44-.1-.47-.11-.44-.13a4.73,4.73,0,0,1-.47-.2l-.44-.26-.16-.09-.13-.09-.16-.11-.16-.11a3.55,3.55,0,0,1-.31-.23l-.28-.22-.32-.26a2.07,2.07,0,0,1-.32-.28,2.81,2.81,0,0,1-.31-.29l-.28-.32-.05,0,0-.05,0,0-.06,0-.08-.11-.08-.11a3.47,3.47,0,0,1-.22-.32,2.6,2.6,0,0,1-.23-.4,3.66,3.66,0,0,1-.2-.48c-.07-.18-.13-.37-.2-.56s-.13-.4-.18-.6l-.12-.63c0-.21-.06-.43-.08-.64s0-.44,0-.67a7.94,7.94,0,0,1,.14-1.56,7,7,0,0,1,.44-1.43,6.59,6.59,0,0,1,.73-1.3,7.12,7.12,0,0,1,1-1.14,10.1,10.1,0,0,1,1.23-1,8.61,8.61,0,0,1,1.31-.68,7.88,7.88,0,0,1,1.44-.4,8.8,8.8,0,0,1,1.56-.13h1.49a6.56,6.56,0,0,1,.76.09,7.33,7.33,0,0,1,.74.17l.37.11.38.13a3.84,3.84,0,0,0,.35.17l.37.16.63.38.57.42v-6.5h3Zm-3,12.38a5.06,5.06,0,0,0-.12-1.12,6.43,6.43,0,0,0-.34-1.05,5,5,0,0,0-.53-1,6.18,6.18,0,0,0-1.66-1.56,4.83,4.83,0,0,0-1-.5,7.46,7.46,0,0,0-.8-.26,3.87,3.87,0,0,0-.85-.14,4.08,4.08,0,0,0-.85.14,5.94,5.94,0,0,0-.78.26,4.81,4.81,0,0,0-1,.51,8.6,8.6,0,0,0-.9.72,7.35,7.35,0,0,0-.74.88,4.88,4.88,0,0,0-.54,1,5.44,5.44,0,0,0-.32,1,5.83,5.83,0,0,0-.11,1.12,6.23,6.23,0,0,0,.11,1.15,5.38,5.38,0,0,0,.84,2.07,5.61,5.61,0,0,0,.74.9,6.94,6.94,0,0,0,.89.75,5.47,5.47,0,0,0,1,.53,5.72,5.72,0,0,0,.83.26,8.08,8.08,0,0,0,.88.14c.3,0,.59-.08.87-.13a3.09,3.09,0,0,0,.81-.27,4.68,4.68,0,0,0,1-.53,7.69,7.69,0,0,0,.89-.75,6.2,6.2,0,0,0,.74-.9,4.88,4.88,0,0,0,.54-1,6,6,0,0,0,.32-1.1,6.23,6.23,0,0,0,.11-1.15v0Zm22.32-7.25V135.4h-3v-1.31a4.46,4.46,0,0,1-.63.52,5.47,5.47,0,0,1-.71.41,3.62,3.62,0,0,1-.77.3l-.8.21c-.29.05-.57.1-.85.13a5.73,5.73,0,0,1-.84.06l-1.07,0-.12,0H635a.21.21,0,0,0-.12,0h-.33a.23.23,0,0,0-.11,0h-.32l-.13,0-.11,0-.21,0a.78.78,0,0,1-.22,0c-.21,0-.42-.08-.63-.13s-.4-.12-.6-.19l-.6-.26a5.83,5.83,0,0,1-.6-.32l-.58-.39-.57-.44-.55-.51a6.77,6.77,0,0,1-.52-.56l-.13-.14,0,0a.05.05,0,0,1,0,0l0,0a.1.1,0,0,0,0-.05.6.6,0,0,0-.06-.11l-.1-.11,0-.12a.58.58,0,0,1-.05-.14,1.7,1.7,0,0,1-.19-.35c-.05-.13-.11-.25-.16-.38s-.11-.29-.16-.44a3.15,3.15,0,0,1-.14-.49,3.81,3.81,0,0,1-.12-.51,4.51,4.51,0,0,0-.09-.53c0-.2,0-.39,0-.58s0-.38,0-.57,0-.5,0-.74a5.52,5.52,0,0,1,.11-.71c0-.23.12-.46.19-.68s.15-.45.24-.68a5.38,5.38,0,0,1,.31-.64,4.2,4.2,0,0,1,.36-.59c.14-.2.28-.38.42-.56l.46-.54c.18-.18.36-.34.55-.5a6,6,0,0,1,.57-.46c.2-.14.41-.28.63-.41a4.94,4.94,0,0,1,.68-.36,5.7,5.7,0,0,1,.72-.29,8,8,0,0,1,.81-.2l.84-.13a6.81,6.81,0,0,1,.92,0h1.2a7.48,7.48,0,0,1,.84.08,5.66,5.66,0,0,1,.82.16c.27.07.53.15.79.24a5.57,5.57,0,0,1,.76.32,5.47,5.47,0,0,1,.71.41,3.73,3.73,0,0,1,.6.52v-1.47h3Zm-8.26,1.66a7.17,7.17,0,0,0-.83.16q-.4.1-.78.24a5.82,5.82,0,0,0-1,.51,5.27,5.27,0,0,0-.9.75,6,6,0,0,0-.75.88,4.72,4.72,0,0,0-.54,1,5.51,5.51,0,0,0-.32,1.07,6.39,6.39,0,0,0-.11,1.18,6.31,6.31,0,0,0,.11,1.15,5.22,5.22,0,0,0,.32,1.06,5.05,5.05,0,0,0,.56,1,7.13,7.13,0,0,0,.78.87,5.54,5.54,0,0,0,.93.72,7.76,7.76,0,0,0,1,.51,4,4,0,0,0,.82.24c.28,0,.56.1.84.13a7.36,7.36,0,0,0,.84-.14,4.87,4.87,0,0,0,.79-.26,4.94,4.94,0,0,0,1-.52,5.94,5.94,0,0,0,.89-.73,7.69,7.69,0,0,0,.75-.89,4,4,0,0,0,.5-1,4.4,4.4,0,0,0,.32-1,5.22,5.22,0,0,0,.11-1.13,5.53,5.53,0,0,0-.11-1.17,4.73,4.73,0,0,0-.32-1.07,4.15,4.15,0,0,0-.49-1,7.2,7.2,0,0,0-.71-.88,6.62,6.62,0,0,0-.88-.75,5.72,5.72,0,0,0-1-.54,8.34,8.34,0,0,0-.89-.26,4.74,4.74,0,0,0-.93-.14Zm27.64-6.79V135.4h-2.94V134l-.07.07-.09.09-.64.51a5.46,5.46,0,0,1-.7.43,3.54,3.54,0,0,1-.75.29c-.26.07-.54.14-.83.19s-.57.1-.86.13a6.8,6.8,0,0,1-.9.06l-1.07,0-.48,0a3.88,3.88,0,0,1-.48,0,2.43,2.43,0,0,1-.47-.08l-.44-.1-.47-.11-.44-.13a3.9,3.9,0,0,1-.47-.2l-.44-.26-.16-.09-.13-.09-.16-.11-.16-.11a3.55,3.55,0,0,1-.31-.23l-.28-.22-.32-.26a2.07,2.07,0,0,1-.32-.28,2.81,2.81,0,0,1-.31-.29l-.28-.32,0,0,0-.05-.05,0-.06,0-.08-.11-.08-.11a3.38,3.38,0,0,1-.23-.32,3.78,3.78,0,0,1-.22-.4,3.66,3.66,0,0,1-.2-.48c-.07-.18-.13-.37-.2-.56a4.56,4.56,0,0,1-.18-.6l-.12-.63c0-.21-.06-.43-.08-.64s0-.44,0-.67a7.94,7.94,0,0,1,.15-1.56,7,7,0,0,1,.44-1.43,7.1,7.1,0,0,1,.72-1.3,7.72,7.72,0,0,1,1-1.14,10.1,10.1,0,0,1,1.23-1,8.17,8.17,0,0,1,1.31-.68,7.66,7.66,0,0,1,1.44-.4,8.76,8.76,0,0,1,1.55-.13H656a6.83,6.83,0,0,1,.76.09,7.33,7.33,0,0,1,.74.17l.37.11.38.13.34.17.38.16.63.38.57.42v-6.5h3Zm-3,12.38a5.05,5.05,0,0,0-.13-1.12,6.4,6.4,0,0,0-.33-1.05,5,5,0,0,0-.53-1,6.18,6.18,0,0,0-1.66-1.56,4.83,4.83,0,0,0-1-.5,7.46,7.46,0,0,0-.8-.26,3.87,3.87,0,0,0-.85-.14,4.08,4.08,0,0,0-.85.14,6.64,6.64,0,0,0-.79.26,5,5,0,0,0-1,.51,6.08,6.08,0,0,0-1.65,1.6,5.45,5.45,0,0,0-.85,2,5.83,5.83,0,0,0-.11,1.12,6.23,6.23,0,0,0,.11,1.15,5.38,5.38,0,0,0,.84,2.07,5.61,5.61,0,0,0,.74.9,6.94,6.94,0,0,0,.89.75,5.47,5.47,0,0,0,1,.53,5.72,5.72,0,0,0,.83.26,8.08,8.08,0,0,0,.88.14c.3,0,.59-.08.87-.13a3.09,3.09,0,0,0,.81-.27,4.68,4.68,0,0,0,1-.53,6.85,6.85,0,0,0,.88-.75,5.69,5.69,0,0,0,.75-.9,5.44,5.44,0,0,0,.54-1,6,6,0,0,0,.32-1.1,6.23,6.23,0,0,0,.11-1.15v0Zm22.08.77H669.11a5.76,5.76,0,0,0,.15,1.06,5.08,5.08,0,0,0,.33,1,6.59,6.59,0,0,0,.54.84,5,5,0,0,0,.75.79,5.79,5.79,0,0,0,.87.65,4.7,4.7,0,0,0,.92.47,7.5,7.5,0,0,0,.73.22,4.54,4.54,0,0,0,.74.1c.2,0,.38,0,.55-.06l.52-.12.76-.3a5.11,5.11,0,0,0,.74-.37,3.7,3.7,0,0,0,.66-.47c.2-.17.39-.34.57-.52a7.47,7.47,0,0,0,.48-.63,5.29,5.29,0,0,0,.37-.71l2.06-.05h1.07a6.73,6.73,0,0,1-.46,1.09,6.57,6.57,0,0,1-.61,1,6.24,6.24,0,0,1-.78.85,9.12,9.12,0,0,1-.93.78c-.34.23-.68.44-1,.63a6.42,6.42,0,0,1-1.06.44c-.35.09-.72.16-1.09.22a6.3,6.3,0,0,1-1.15.1l-1.07,0a9.44,9.44,0,0,1-1.54-.16,8.58,8.58,0,0,1-1.43-.37,7.38,7.38,0,0,1-2.49-1.63,7.11,7.11,0,0,1-1-1.16,8.66,8.66,0,0,1-.71-1.3,7.77,7.77,0,0,1-.4-1.43,8.49,8.49,0,0,1-.13-1.54,8.4,8.4,0,0,1,.13-1.51,7.07,7.07,0,0,1,.4-1.4,7.88,7.88,0,0,1,.71-1.31,8.8,8.8,0,0,1,1-1.18,8.25,8.25,0,0,1,1.15-1,6.68,6.68,0,0,1,1.29-.69,6.54,6.54,0,0,1,1.43-.43,8.46,8.46,0,0,1,1.53-.13h1.07a6,6,0,0,1,.85,0l.84.13.8.24a5.37,5.37,0,0,1,.78.33,7.53,7.53,0,0,1,.73.41,6.94,6.94,0,0,1,.68.49q.33.27.63.57a6.65,6.65,0,0,1,.58.61c.16.21.31.43.45.64a6.15,6.15,0,0,1,.37.64l.16.32a2.33,2.33,0,0,1,.14.33,1.7,1.7,0,0,0,.12.34,2.23,2.23,0,0,1,.09.32c.06.24.1.47.15.7s.07.47.09.72,0,.3.06.47,0,.33.05.49a1.85,1.85,0,0,0,0,.23,2.11,2.11,0,0,1,0,.25ZM669.11,127H679.3a7.06,7.06,0,0,0-.28-.89,5.49,5.49,0,0,0-.42-.84,5.1,5.1,0,0,0-.56-.78,6.12,6.12,0,0,0-.72-.72,5.8,5.8,0,0,0-.83-.6,5.06,5.06,0,0,0-.88-.42,3.63,3.63,0,0,0-.66-.21,4.88,4.88,0,0,0-.7-.11,6,6,0,0,0-.74.11,4.44,4.44,0,0,0-.71.21,6.28,6.28,0,0,0-.88.4,7.11,7.11,0,0,0-.83.56,8.38,8.38,0,0,0-.73.73,4.57,4.57,0,0,0-.58.77,4.86,4.86,0,0,0-.41.86A4.93,4.93,0,0,0,669.11,127Z"/></g></g></svg>