<?xml version="1.0" encoding="utf-8"?>
<!-- Generator: Adobe Illustrator 16.0.3, SVG Export Plug-In . SVG Version: 6.00 Build 0)  -->
<!DOCTYPE svg PUBLIC "-//W3C//DTD SVG 1.1//EN" "http://www.w3.org/Graphics/SVG/1.1/DTD/svg11.dtd">
<svg version="1.1" id="Camada_1" xmlns="http://www.w3.org/2000/svg" xmlns:xlink="http://www.w3.org/1999/xlink" x="0px" y="0px"
	 width="87.342px" height="98px" viewBox="0 0 87.342 98" enable-background="new 0 0 87.342 98" xml:space="preserve">
<g>
	<path fill-rule="evenodd" clip-rule="evenodd" fill="#1D1D1B" d="M40.044,32.255V0.851c3.634,0.083,7.254,0.601,10.776,1.565
		c-0.364,2.153,0.558,4.305,2.347,5.549L42.769,32.828C41.875,32.535,40.966,32.353,40.044,32.255z"/>
	<path fill-rule="evenodd" clip-rule="evenodd" fill="#1D1D1B" d="M37.303,32.255V0.893c-4.948,0.252-9.784,1.467-14.271,3.578
		l11.628,28.33C35.513,32.521,36.394,32.339,37.303,32.255z"/>
	<path fill-rule="evenodd" clip-rule="evenodd" fill="#1D1D1B" d="M32.56,33.589L20.987,5.413c-4.445,2.278-8.456,5.353-11.81,9.057
		l20.825,20.824C30.784,34.637,31.637,34.064,32.56,33.589z"/>
	<path fill-rule="evenodd" clip-rule="evenodd" fill="#1D1D1B" d="M7.735,16.175c-3.061,3.634-5.381,7.84-6.82,12.355l25.883,10.832
		c0.447-0.881,1.006-1.719,1.65-2.474L7.735,16.175z"/>
	<path fill-rule="evenodd" clip-rule="evenodd" fill="#1D1D1B" d="M25.89,41.444L0.37,30.766c-0.586,4.556-0.475,9.168,0.335,13.683
		H25.29C25.373,43.428,25.583,42.422,25.89,41.444z"/>
	<path fill-rule="evenodd" clip-rule="evenodd" fill="#1D1D1B" d="M25.297,46.705H1.343c1.453,3.773,3.34,7.352,5.604,10.692
		l18.924-7.771C25.578,48.676,25.382,47.697,25.297,46.705z"/>
	<path fill-rule="evenodd" clip-rule="evenodd" fill="#1D1D1B" d="M28.484,54.115c-0.671-0.783-1.244-1.635-1.705-2.558
		L8.512,59.049c2.544,2.53,5.353,4.752,8.372,6.666L28.484,54.115z"/>
	<path fill-rule="evenodd" clip-rule="evenodd" fill="#1D1D1B" d="M43.008,70.863c-0.266-2.167,0.727-4.277,2.571-5.452
		l-2.893-7.155c-4.375,1.355-9.14,0.392-12.635-2.571l-11.181,11.18C26.264,70.792,34.748,72.205,43.008,70.863z"/>
	<path fill-rule="evenodd" clip-rule="evenodd" fill="#1D1D1B" d="M44.639,57.45l2.906,7.212c2.25-0.378,4.486,0.642,5.688,2.571
		c1.243-0.587,2.474-1.202,3.689-1.845l-9.657-9.672C46.455,56.401,45.574,56.989,44.639,57.45z"/>
	<path fill-rule="evenodd" clip-rule="evenodd" fill="#1D1D1B" d="M79.392,49.521c-0.811-0.796-1.37-1.816-1.593-2.949H51.956
		c-0.224,2.782-1.327,5.423-3.116,7.547l10.133,10.133C66.339,60.171,73.188,55.223,79.392,49.521z"/>
	<path fill-rule="evenodd" clip-rule="evenodd" fill="#1D1D1B" d="M64.794,10.543c1.216,1.216,2.347,2.502,3.41,3.857L47.24,35.365
		c-0.77-0.643-1.594-1.188-2.475-1.649L55.163,8.853c1.93,0.391,3.928-0.279,5.255-1.747C61.955,8.14,63.424,9.3,64.794,10.543z"/>
	<g>
		<ellipse fill-rule="evenodd" clip-rule="evenodd" fill="#E20613" cx="48.451" cy="70.222" rx="3.368" ry="3.382"/>
		<circle fill-rule="evenodd" clip-rule="evenodd" fill="#E20613" cx="83.959" cy="45.027" r="3.382"/>
		<circle fill-rule="evenodd" clip-rule="evenodd" fill="#E20613" cx="56.244" cy="3.382" r="3.382"/>
	</g>
	<polygon fill-rule="evenodd" clip-rule="evenodd" fill="#1D1D1B" points="14.108,97.984 14.108,89.109 17.91,89.109 23.081,95.23 
		23.081,89.164 25.736,89.164 25.736,97.984 21.684,97.984 16.708,92.169 16.708,97.984 	"/>
	<rect x="27.965" y="89.039" fill-rule="evenodd" clip-rule="evenodd" fill="#1D1D1B" width="2.488" height="8.945"/>
	<path fill-rule="evenodd" clip-rule="evenodd" fill="#1D1D1B" d="M40.414,94.723h2.474v1.188c0,1.23-1.063,2.195-2.292,2.069
		h-5.143c-1.286,0-2.348-0.965-2.488-2.236v-4.473c0-1.328,1.16-2.376,2.488-2.235h5.143c1.188,0,2.18,0.895,2.306,2.068v1.201
		h-2.488c-0.014-0.601-0.517-1.062-1.118-1.034h-2.6c-0.657-0.027-1.216,0.476-1.244,1.119v2.236
		c0.028,0.655,0.586,1.146,1.244,1.117h2.6C39.883,95.771,40.386,95.323,40.414,94.723z"/>
	<path fill-rule="evenodd" clip-rule="evenodd" fill="#1D1D1B" d="M47.899,96.575L47.288,98h-2.645l3.662-8.85h4.069L56.138,98
		h-2.849l-0.407-1.425H47.899L47.899,96.575z M51.866,94.439l-1.526-3.764l-1.526,3.764H51.866z"/>
	<polygon fill-rule="evenodd" clip-rule="evenodd" fill="#1D1D1B" points="60.718,92.871 60.718,97.944 58.23,97.944 58.23,88.999 
		61.095,88.999 65.582,95.974 69.761,88.999 72.583,88.999 72.583,97.944 70.096,97.944 70.096,93.15 67.217,97.944 63.974,97.944 	
		"/>
	<path fill-rule="evenodd" clip-rule="evenodd" fill="#1D1D1B" d="M74.872,97.984v-9.054h7.831c1.222,0,2.137,1.018,2.339,2.237
		v2.441c0,1.221-1.117,2.339-2.339,2.339h-5.188v2.036H74.872L74.872,97.984z M77.516,93.507h3.968c1.524,0,1.524-2.237,0-2.237
		h-3.968V93.507z"/>
	<path fill-rule="evenodd" clip-rule="evenodd" fill="#1D1D1B" d="M3.215,94.574v-5.589H0.728v6.806
		c0,1.188,0.965,2.138,2.138,2.138H9.84c1.188,0,2.139-0.95,2.139-2.138v-6.737H9.491v5.521c0,0.615-0.503,1.119-1.118,1.119h-4.04
		C3.718,95.693,3.215,95.189,3.215,94.574z"/>
	<path fill-rule="evenodd" clip-rule="evenodd" fill="#1D1D1B" d="M76.058,28.995c-1.258-2.977-2.642-5.897-4.152-8.763
		c-0.769-1.356-1.579-2.684-2.432-3.983l-20.67,20.671c0.657,0.796,1.229,1.649,1.691,2.558L76.058,28.995z"/>
	<path fill-rule="evenodd" clip-rule="evenodd" fill="#1D1D1B" d="M76.946,31.07c1.243,3.229,2.375,6.513,3.354,9.839
		c-1.258,0.796-2.152,2.082-2.473,3.55H51.972c-0.084-0.992-0.266-1.971-0.574-2.921L76.946,31.07z"/>
</g>
</svg>
